<svg width="54" height="54" viewBox="0 0 54 54" fill="none" xmlns="http://www.w3.org/2000/svg">
<path opacity="0.5" fill-rule="evenodd" clip-rule="evenodd" d="M27 53C41.3594 53 53 41.3594 53 27C53 12.6406 41.3594 1 27 1C12.6406 1 1 12.6406 1 27C1 41.3594 12.6406 53 27 53Z" fill="#219653" stroke="#219653"/>
<path opacity="0.8" fill-rule="evenodd" clip-rule="evenodd" d="M26.7347 48.2237C38.6032 48.2237 48.2245 38.6024 48.2245 26.7339C48.2245 14.8654 38.6032 5.24414 26.7347 5.24414C14.8662 5.24414 5.24487 14.8654 5.24487 26.7339C5.24487 38.6024 14.8662 48.2237 26.7347 48.2237Z" fill="#219653"/>
<path fill-rule="evenodd" clip-rule="evenodd" d="M27 45.0406C36.9637 45.0406 45.0409 36.9635 45.0409 26.9998C45.0409 17.0361 36.9637 8.95898 27 8.95898C17.0364 8.95898 8.95923 17.0361 8.95923 26.9998C8.95923 36.9635 17.0364 45.0406 27 45.0406Z" fill="#219653"/>
<path d="M18.774 28.4171V28.9171H19.274H24.5895V34.2026V34.7026H25.0895H28.3805H28.8805V34.2026V28.9171H34.196H34.696V28.4171V25.1262V24.6262H34.196H28.8805V19.2656V18.7656H28.3805H25.0895H24.5895V19.2656V24.6262H19.274H18.774V25.1262V28.4171Z" fill="white" stroke="#219653"/>
</svg>
