<svg width="16" height="17" viewBox="0 0 16 17" fill="none" xmlns="http://www.w3.org/2000/svg">
<path fill-rule="evenodd" clip-rule="evenodd" d="M6.95652 7.45652V1.54348C6.95652 0.967181 7.4237 0.5 8 0.5C8.5763 0.5 9.04348 0.967181 9.04348 1.54348V7.45652H14.9565C15.5328 7.45652 16 7.9237 16 8.5C16 9.0763 15.5328 9.54348 14.9565 9.54348H9.04348V15.4565C9.04348 16.0328 8.5763 16.5 8 16.5C7.4237 16.5 6.95652 16.0328 6.95652 15.4565V9.54348H1.04348C0.467181 9.54348 0 9.0763 0 8.5C0 7.9237 0.467181 7.45652 1.04348 7.45652H6.95652Z" fill="white"/>
</svg>
