<svg width="132" height="96" viewBox="0 0 132 96" fill="none" xmlns="http://www.w3.org/2000/svg">
<rect width="132" height="96" rx="15" fill="#150B00"/>
<path d="M49.5706 77.2035H45.9226L45.2506 79.0635H44.0986L47.1226 70.7475H48.3826L51.3946 79.0635H50.2426L49.5706 77.2035ZM49.2586 76.3155L47.7466 72.0915L46.2346 76.3155H49.2586ZM60.6206 72.3675C61.1326 72.3675 61.5886 72.4755 61.9886 72.6915C62.3886 72.8995 62.7046 73.2155 62.9366 73.6395C63.1686 74.0635 63.2846 74.5795 63.2846 75.1875V79.0635H62.2046V75.3435C62.2046 74.6875 62.0406 74.1875 61.7126 73.8435C61.3926 73.4915 60.9566 73.3155 60.4046 73.3155C59.8366 73.3155 59.3846 73.4995 59.0486 73.8675C58.7126 74.2275 58.5446 74.7515 58.5446 75.4395V79.0635H57.4646V75.3435C57.4646 74.6875 57.3006 74.1875 56.9726 73.8435C56.6526 73.4915 56.2166 73.3155 55.6646 73.3155C55.0966 73.3155 54.6446 73.4995 54.3086 73.8675C53.9726 74.2275 53.8046 74.7515 53.8046 75.4395V79.0635H52.7126V72.4875H53.8046V73.4355C54.0206 73.0915 54.3086 72.8275 54.6686 72.6435C55.0366 72.4595 55.4406 72.3675 55.8806 72.3675C56.4326 72.3675 56.9206 72.4915 57.3446 72.7395C57.7686 72.9875 58.0846 73.3515 58.2926 73.8315C58.4766 73.3675 58.7806 73.0075 59.2046 72.7515C59.6286 72.4955 60.1006 72.3675 60.6206 72.3675ZM64.6679 75.7515C64.6679 75.0795 64.8039 74.4915 65.0759 73.9875C65.3479 73.4755 65.7199 73.0795 66.1919 72.7995C66.6719 72.5195 67.2039 72.3795 67.7879 72.3795C68.3639 72.3795 68.8639 72.5035 69.2879 72.7515C69.7119 72.9995 70.0279 73.3115 70.2359 73.6875V72.4875H71.3399V79.0635H70.2359V77.8395C70.0199 78.2235 69.6959 78.5435 69.2639 78.7995C68.8399 79.0475 68.3439 79.1715 67.7759 79.1715C67.1919 79.1715 66.6639 79.0275 66.1919 78.7395C65.7199 78.4515 65.3479 78.0475 65.0759 77.5275C64.8039 77.0075 64.6679 76.4155 64.6679 75.7515ZM70.2359 75.7635C70.2359 75.2675 70.1359 74.8355 69.9359 74.4675C69.7359 74.0995 69.4639 73.8195 69.1199 73.6275C68.7839 73.4275 68.4119 73.3275 68.0039 73.3275C67.5959 73.3275 67.2239 73.4235 66.8879 73.6155C66.5519 73.8075 66.2839 74.0875 66.0839 74.4555C65.8839 74.8235 65.7839 75.2555 65.7839 75.7515C65.7839 76.2555 65.8839 76.6955 66.0839 77.0715C66.2839 77.4395 66.5519 77.7235 66.8879 77.9235C67.2239 78.1155 67.5959 78.2115 68.0039 78.2115C68.4119 78.2115 68.7839 78.1155 69.1199 77.9235C69.4639 77.7235 69.7359 77.4395 69.9359 77.0715C70.1359 76.6955 70.2359 76.2595 70.2359 75.7635ZM74.0012 78.1635H77.2292V79.0635H72.7532V78.1635L75.9452 73.3755H72.7772V72.4875H77.2052V73.3755L74.0012 78.1635ZM81.5142 79.1715C80.8982 79.1715 80.3382 79.0315 79.8342 78.7515C79.3382 78.4715 78.9462 78.0755 78.6582 77.5635C78.3782 77.0435 78.2382 76.4435 78.2382 75.7635C78.2382 75.0915 78.3822 74.4995 78.6702 73.9875C78.9662 73.4675 79.3662 73.0715 79.8702 72.7995C80.3742 72.5195 80.9382 72.3795 81.5622 72.3795C82.1862 72.3795 82.7502 72.5195 83.2542 72.7995C83.7582 73.0715 84.1542 73.4635 84.4422 73.9755C84.7382 74.4875 84.8862 75.0835 84.8862 75.7635C84.8862 76.4435 84.7342 77.0435 84.4302 77.5635C84.1342 78.0755 83.7302 78.4715 83.2182 78.7515C82.7062 79.0315 82.1382 79.1715 81.5142 79.1715ZM81.5142 78.2115C81.9062 78.2115 82.2742 78.1195 82.6182 77.9355C82.9622 77.7515 83.2382 77.4755 83.4462 77.1075C83.6622 76.7395 83.7702 76.2915 83.7702 75.7635C83.7702 75.2355 83.6662 74.7875 83.4582 74.4195C83.2502 74.0515 82.9782 73.7795 82.6422 73.6035C82.3062 73.4195 81.9422 73.3275 81.5502 73.3275C81.1502 73.3275 80.7822 73.4195 80.4462 73.6035C80.1182 73.7795 79.8542 74.0515 79.6542 74.4195C79.4542 74.7875 79.3542 75.2355 79.3542 75.7635C79.3542 76.2995 79.4502 76.7515 79.6422 77.1195C79.8422 77.4875 80.1062 77.7635 80.4342 77.9475C80.7622 78.1235 81.1222 78.2115 81.5142 78.2115ZM89.5259 72.3675C90.3259 72.3675 90.9739 72.6115 91.4699 73.0995C91.9659 73.5795 92.2139 74.2755 92.2139 75.1875V79.0635H91.1339V75.3435C91.1339 74.6875 90.9699 74.1875 90.6419 73.8435C90.3139 73.4915 89.8659 73.3155 89.2979 73.3155C88.7219 73.3155 88.2619 73.4955 87.9179 73.8555C87.5819 74.2155 87.4139 74.7395 87.4139 75.4275V79.0635H86.3219V72.4875H87.4139V73.4235C87.6299 73.0875 87.9219 72.8275 88.2899 72.6435C88.6659 72.4595 89.0779 72.3675 89.5259 72.3675Z" fill="white"/>
<path d="M78.0171 55.0059C77.7338 54.6382 75.2931 54.3217 73.8043 55.4158C73.5772 55.5835 73.6143 55.8156 73.8701 55.7845C74.7073 55.6812 76.575 55.4469 76.9061 55.8912C77.2382 56.3366 76.5357 58.176 76.2206 58.9958C76.124 59.2446 76.3299 59.3445 76.5442 59.1579C77.9439 57.9383 78.3026 55.3769 78.0171 55.0059Z" fill="#FF8000"/>
<path d="M75.4476 56.5478C72.5314 57.844 69.3596 58.4683 66.4732 58.4683C62.1999 58.4683 58.0581 57.2431 54.7122 55.2037C54.4204 55.0238 54.2028 55.3381 54.4459 55.5681C57.5477 58.5016 61.647 60.2655 66.2005 60.2655C69.4498 60.2655 73.2202 59.1958 75.8243 57.1875C76.254 56.8543 75.8879 56.3545 75.4476 56.5478Z" fill="#FF8000"/>
<path d="M76.4807 49.6022C75.6056 48.3298 74.6793 47.3027 74.6793 44.9611V37.1582C74.6793 33.8585 74.9026 30.8232 72.5777 28.5468C70.7397 26.7033 67.7008 26.0557 65.3685 26.0557C60.8211 26.0557 55.7464 27.8301 54.6737 33.7167C54.5638 34.3452 55.0032 34.6748 55.384 34.7668L60.0339 35.288C60.4586 35.2689 60.7771 34.8243 60.8613 34.3721C61.2531 32.3447 62.8861 31.3674 64.7094 31.3674C65.6907 31.3674 66.8037 31.7468 67.3895 32.6705C68.0559 33.6976 67.9644 35.1079 67.9644 36.296V36.9398C65.1964 37.2771 61.5716 37.4878 58.9721 38.6836C55.9844 40.0288 53.8718 42.7958 53.8718 46.8582C53.8718 52.0588 57.0059 54.661 61.0298 54.661C64.4348 54.661 66.2948 53.8217 68.9163 51.0202C69.7841 52.3386 70.0696 52.9824 71.6587 54.3621C72.0175 54.5614 72.4715 54.5384 72.79 54.2471L72.8047 54.2548C73.7566 53.3733 75.4884 51.7829 76.4697 50.9321C76.8578 50.5871 76.7919 50.0506 76.4807 49.6022ZM67.9644 42.0331C67.9644 43.9838 68.0156 45.6088 67.071 47.3411C66.3131 48.7514 65.1085 49.6137 63.7611 49.6137C61.9268 49.6137 60.8613 48.1535 60.8613 45.9882C60.8613 41.7227 64.5117 40.9485 67.9644 40.9485V42.0331Z" fill="#FFFBF7"/>
<path d="M115.143 6.80435C115.037 6.65058 114.864 6.58203 114.705 6.58203C114.482 6.58203 114.274 6.70184 114.182 6.95874C114.076 6.70214 113.928 6.58203 113.691 6.58203C113.458 6.58203 113.285 6.70184 113.192 6.95874H113.186V6.69304C113.183 6.65634 113.154 6.62662 113.117 6.6251H112.764C112.724 6.6251 112.691 6.65755 112.691 6.6982V8.73155C112.694 8.76795 112.723 8.79615 112.759 8.79858H113.138C113.178 8.79858 113.21 8.76552 113.21 8.72518V7.64693C113.21 7.41187 113.199 7.08643 113.471 7.08643C113.74 7.08643 113.705 7.42006 113.705 7.64693V8.72488C113.705 8.764 113.735 8.79524 113.773 8.79828H114.151C114.192 8.79828 114.224 8.76522 114.224 8.72488V7.64693C114.224 7.53137 114.221 7.3597 114.259 7.25719C114.298 7.15467 114.394 7.09067 114.486 7.09067C114.595 7.09067 114.68 7.12919 114.708 7.26568C114.726 7.34727 114.719 7.5611 114.719 7.64693V8.72488C114.719 8.764 114.749 8.79524 114.787 8.79828H115.165C115.205 8.79828 115.238 8.76522 115.238 8.72488L115.238 7.4419C115.238 7.22382 115.263 6.97542 115.143 6.80435Z" fill="#FFFBF7"/>
<path d="M120.131 6.58301C119.584 6.58301 119.28 7.07527 119.28 7.70796C119.28 8.33702 119.58 8.84171 120.131 8.84171C120.661 8.84171 120.997 8.34976 120.997 7.7295C120.998 7.08771 120.693 6.58301 120.131 6.58301ZM120.131 8.42255C119.835 8.42255 119.838 7.89207 119.838 7.64366C119.838 7.39586 119.856 6.99793 120.134 6.99793C120.254 6.99793 120.34 7.05313 120.382 7.19477C120.432 7.35734 120.439 7.56238 120.439 7.73405C120.44 7.99489 120.425 8.42255 120.131 8.42255Z" fill="#FFFBF7"/>
<path d="M117.357 8.42795C117.288 8.32726 117.215 8.24597 117.215 8.06065V7.44313C117.215 7.18198 117.232 6.94176 117.048 6.7616C116.903 6.61571 116.663 6.56445 116.479 6.56445C116.119 6.56445 115.716 6.70488 115.632 7.17076C115.623 7.2205 115.657 7.24658 115.688 7.25386L116.055 7.29511C116.089 7.2936 116.115 7.25841 116.121 7.22262C116.152 7.06218 116.281 6.98483 116.425 6.98483C116.503 6.98483 116.592 7.01486 116.637 7.08796C116.691 7.16924 116.684 7.28086 116.684 7.37488L116.683 7.42523C116.464 7.45162 116.177 7.4683 115.972 7.56293C115.734 7.67 115.568 7.88898 115.568 8.21049C115.568 8.62207 115.816 8.82801 116.134 8.82801C116.403 8.82801 116.551 8.76159 116.758 8.53987C116.827 8.64421 116.85 8.69517 116.975 8.80436C117.004 8.82013 117.04 8.81831 117.065 8.79526L117.066 8.79586C117.141 8.7261 117.279 8.60023 117.356 8.5329C117.386 8.50651 117.382 8.46344 117.357 8.42795ZM116.683 7.82893C116.683 7.98331 116.687 8.11191 116.612 8.24901C116.553 8.36062 116.457 8.42886 116.351 8.42886C116.206 8.42886 116.12 8.31331 116.12 8.14194C116.12 7.80436 116.41 7.74309 116.683 7.74309V7.82893Z" fill="#FFFBF7"/>
<path d="M122.737 6.82195C122.631 6.64664 122.464 6.58233 122.295 6.58203C122.034 6.58203 121.884 6.71458 121.779 6.99271H121.773V6.68182C121.765 6.64997 121.738 6.62631 121.705 6.6248H121.354C121.315 6.6248 121.284 6.65391 121.281 6.69122L121.282 8.72518C121.282 8.76431 121.311 8.79615 121.35 8.79919H121.726C121.767 8.79919 121.8 8.76613 121.801 8.72518V7.63086C121.801 7.49346 121.807 7.37002 121.861 7.24566C121.903 7.14769 121.987 7.08309 122.08 7.08309C122.341 7.08309 122.316 7.40854 122.316 7.63086V8.73519C122.319 8.76946 122.349 8.79615 122.383 8.79949H122.763C122.801 8.79949 122.831 8.77067 122.836 8.73519V7.45524C122.836 7.2584 122.836 6.98512 122.737 6.82195Z" fill="#FFFBF7"/>
<path d="M119.034 8.24825C118.817 8.12026 118.565 8.08265 118.325 8.08902L118.97 7.12573C119.03 7.03898 119.064 6.98469 119.064 6.94283V6.69382C119.064 6.65014 119.032 6.62012 118.992 6.62012H117.748C117.709 6.62012 117.678 6.64954 117.678 6.69382V6.98469C117.678 7.02806 117.709 7.05779 117.749 7.05779H118.4L117.653 8.1788C117.608 8.25068 117.607 8.33136 117.607 8.37868V8.67379C117.607 8.71625 117.653 8.76508 117.696 8.74021C118.119 8.50515 118.627 8.52851 119.009 8.73839C119.057 8.76387 119.101 8.71413 119.101 8.67167V8.36108C119.097 8.31953 119.084 8.27676 119.034 8.24825Z" fill="#FFFBF7"/>
<path d="M118.793 8.9845C118.715 8.88411 118.049 8.79766 117.642 9.09642C117.58 9.14222 117.59 9.20561 117.66 9.19712C117.889 9.16891 118.399 9.10491 118.489 9.22623C118.58 9.34786 118.388 9.85013 118.302 10.074C118.276 10.1419 118.332 10.1692 118.391 10.1183C118.773 9.78522 118.871 9.0858 118.793 8.9845Z" fill="#FF8000"/>
<path d="M118.093 9.40695C117.297 9.76091 116.431 9.93137 115.643 9.93137C114.476 9.93137 113.345 9.59682 112.431 9.03996C112.351 8.99082 112.292 9.07666 112.358 9.13944C113.205 9.94047 114.325 10.4221 115.568 10.4221C116.455 10.4221 117.485 10.13 118.196 9.58166C118.313 9.49067 118.213 9.35418 118.093 9.40695Z" fill="#FF8000"/>
<path d="M112.395 8.42795C112.326 8.32726 112.252 8.24597 112.252 8.06065V7.44313C112.252 7.18198 112.27 6.94176 112.086 6.7616C111.941 6.61571 111.7 6.56445 111.516 6.56445C111.156 6.56445 110.754 6.70488 110.669 7.17076C110.66 7.2205 110.695 7.24658 110.725 7.25386L111.093 7.29511C111.127 7.2936 111.152 7.25841 111.159 7.22262C111.19 7.06218 111.319 6.98483 111.463 6.98483C111.541 6.98483 111.629 7.01486 111.676 7.08796C111.728 7.16924 111.721 7.28086 111.721 7.37488V7.42584C111.502 7.45253 111.215 7.46921 111.009 7.56384C110.773 7.6703 110.606 7.88929 110.606 8.21079C110.606 8.62237 110.854 8.82832 111.172 8.82832C111.442 8.82832 111.589 8.76189 111.796 8.54018C111.865 8.64451 111.888 8.69547 112.013 8.80466C112.042 8.82043 112.078 8.81861 112.103 8.79556L112.104 8.79617C112.179 8.72641 112.316 8.60054 112.394 8.5332C112.425 8.5059 112.42 8.46344 112.395 8.42795ZM111.721 7.82893C111.721 7.98331 111.725 8.11191 111.65 8.24901C111.59 8.36062 111.495 8.42886 111.388 8.42886C111.243 8.42886 111.159 8.31331 111.159 8.14194C111.159 7.80436 111.448 7.74309 111.721 7.74309V7.82893Z" fill="#FFFBF7"/>
</svg>
