<svg width="185" height="141" viewBox="0 0 185 141" fill="none" xmlns="http://www.w3.org/2000/svg">
<rect width="184.385" height="141" rx="10" fill="url(#paint0_linear)"/>
<path d="M65.2415 114.946H63.0145L62.6575 116H61.136L63.295 110.033H64.978L67.137 116H65.5985L65.2415 114.946ZM64.8675 113.824L64.128 111.639L63.397 113.824H64.8675ZM73.8461 111.206C74.4354 111.206 74.9029 111.384 75.2486 111.741C75.5999 112.098 75.7756 112.594 75.7756 113.229V116H74.3306V113.424C74.3306 113.118 74.2484 112.883 74.0841 112.719C73.9254 112.549 73.7044 112.464 73.4211 112.464C73.1378 112.464 72.9139 112.549 72.7496 112.719C72.5909 112.883 72.5116 113.118 72.5116 113.424V116H71.0666V113.424C71.0666 113.118 70.9844 112.883 70.8201 112.719C70.6614 112.549 70.4404 112.464 70.1571 112.464C69.8738 112.464 69.6499 112.549 69.4856 112.719C69.3269 112.883 69.2476 113.118 69.2476 113.424V116H67.7941V111.257H69.2476V111.852C69.3949 111.654 69.5876 111.498 69.8256 111.384C70.0636 111.265 70.3328 111.206 70.6331 111.206C70.9901 111.206 71.3074 111.282 71.5851 111.435C71.8684 111.588 72.0894 111.807 72.2481 112.09C72.4124 111.829 72.6363 111.617 72.9196 111.452C73.2029 111.288 73.5118 111.206 73.8461 111.206ZM76.5031 113.62C76.5031 113.133 76.5938 112.705 76.7751 112.336C76.9621 111.968 77.2143 111.685 77.5316 111.486C77.849 111.288 78.2031 111.189 78.5941 111.189C78.9285 111.189 79.2203 111.257 79.4696 111.393C79.7246 111.529 79.9201 111.707 80.0561 111.928V111.257H81.5096V116H80.0561V115.328C79.9145 115.549 79.7161 115.728 79.4611 115.864C79.2118 116 78.92 116.068 78.5856 116.068C78.2003 116.068 77.849 115.969 77.5316 115.77C77.2143 115.566 76.9621 115.28 76.7751 114.912C76.5938 114.538 76.5031 114.107 76.5031 113.62ZM80.0561 113.628C80.0561 113.266 79.9541 112.98 79.7501 112.77C79.5518 112.56 79.3081 112.455 79.0191 112.455C78.7301 112.455 78.4836 112.56 78.2796 112.77C78.0813 112.974 77.9821 113.257 77.9821 113.62C77.9821 113.983 78.0813 114.272 78.2796 114.487C78.4836 114.697 78.7301 114.801 79.0191 114.801C79.3081 114.801 79.5518 114.697 79.7501 114.487C79.9541 114.277 80.0561 113.991 80.0561 113.628ZM83.9212 114.801H85.9782V116H82.2977V114.844L84.2697 112.455H82.3147V111.257H85.9357V112.413L83.9212 114.801ZM88.937 116.068C88.4723 116.068 88.053 115.969 87.679 115.77C87.3106 115.572 87.0188 115.289 86.8035 114.92C86.5938 114.552 86.489 114.121 86.489 113.628C86.489 113.141 86.5966 112.713 86.812 112.345C87.0273 111.971 87.322 111.685 87.696 111.486C88.07 111.288 88.4893 111.189 88.954 111.189C89.4186 111.189 89.838 111.288 90.212 111.486C90.586 111.685 90.8806 111.971 91.096 112.345C91.3113 112.713 91.419 113.141 91.419 113.628C91.419 114.116 91.3085 114.546 91.0875 114.92C90.8721 115.289 90.5746 115.572 90.195 115.77C89.821 115.969 89.4016 116.068 88.937 116.068ZM88.937 114.81C89.2146 114.81 89.4498 114.708 89.6425 114.504C89.8408 114.3 89.94 114.008 89.94 113.628C89.94 113.249 89.8436 112.957 89.651 112.753C89.464 112.549 89.2316 112.447 88.954 112.447C88.6706 112.447 88.4355 112.549 88.2485 112.753C88.0615 112.951 87.968 113.243 87.968 113.628C87.968 114.008 88.0586 114.3 88.24 114.504C88.427 114.708 88.6593 114.81 88.937 114.81ZM95.0801 111.206C95.6354 111.206 96.0774 111.387 96.4061 111.75C96.7404 112.107 96.9076 112.6 96.9076 113.229V116H95.4626V113.424C95.4626 113.107 95.3804 112.861 95.2161 112.685C95.0518 112.509 94.8308 112.421 94.5531 112.421C94.2754 112.421 94.0544 112.509 93.8901 112.685C93.7258 112.861 93.6436 113.107 93.6436 113.424V116H92.1901V111.257H93.6436V111.886C93.7909 111.676 93.9893 111.512 94.2386 111.393C94.4879 111.268 94.7684 111.206 95.0801 111.206ZM99.4724 113.008C99.4724 112.419 99.5999 111.894 99.8549 111.435C100.11 110.971 100.464 110.611 100.917 110.356C101.376 110.095 101.895 109.965 102.473 109.965C103.181 109.965 103.788 110.152 104.292 110.526C104.796 110.9 105.133 111.41 105.303 112.056H103.705C103.586 111.807 103.416 111.617 103.195 111.486C102.98 111.356 102.734 111.291 102.456 111.291C102.008 111.291 101.646 111.447 101.368 111.758C101.09 112.07 100.951 112.487 100.951 113.008C100.951 113.529 101.09 113.946 101.368 114.257C101.646 114.569 102.008 114.725 102.456 114.725C102.734 114.725 102.98 114.66 103.195 114.529C103.416 114.399 103.586 114.209 103.705 113.96H105.303C105.133 114.606 104.796 115.116 104.292 115.49C103.788 115.858 103.181 116.043 102.473 116.043C101.895 116.043 101.376 115.915 100.917 115.66C100.464 115.399 100.11 115.039 99.8549 114.58C99.5999 114.121 99.4724 113.597 99.4724 113.008ZM105.905 113.62C105.905 113.133 105.995 112.705 106.177 112.336C106.364 111.968 106.616 111.685 106.933 111.486C107.25 111.288 107.605 111.189 107.996 111.189C108.33 111.189 108.622 111.257 108.871 111.393C109.126 111.529 109.322 111.707 109.458 111.928V111.257H110.911V116H109.458V115.328C109.316 115.549 109.118 115.728 108.863 115.864C108.613 116 108.321 116.068 107.987 116.068C107.602 116.068 107.25 115.969 106.933 115.77C106.616 115.566 106.364 115.28 106.177 114.912C105.995 114.538 105.905 114.107 105.905 113.62ZM109.458 113.628C109.458 113.266 109.356 112.98 109.152 112.77C108.953 112.56 108.71 112.455 108.421 112.455C108.132 112.455 107.885 112.56 107.681 112.77C107.483 112.974 107.384 113.257 107.384 113.62C107.384 113.983 107.483 114.272 107.681 114.487C107.885 114.697 108.132 114.801 108.421 114.801C108.71 114.801 108.953 114.697 109.152 114.487C109.356 114.277 109.458 113.991 109.458 113.628ZM113.416 112.047C113.586 111.787 113.799 111.583 114.054 111.435C114.309 111.282 114.592 111.206 114.904 111.206V112.744H114.504C114.141 112.744 113.869 112.824 113.688 112.982C113.507 113.135 113.416 113.407 113.416 113.798V116H111.963V111.257H113.416V112.047ZM115.309 113.62C115.309 113.133 115.4 112.705 115.581 112.336C115.768 111.968 116.02 111.685 116.338 111.486C116.655 111.288 117.009 111.189 117.4 111.189C117.712 111.189 117.995 111.254 118.25 111.384C118.511 111.515 118.715 111.69 118.862 111.911V109.71H120.316V116H118.862V115.32C118.726 115.547 118.531 115.728 118.276 115.864C118.026 116 117.735 116.068 117.4 116.068C117.009 116.068 116.655 115.969 116.338 115.77C116.02 115.566 115.768 115.28 115.581 114.912C115.4 114.538 115.309 114.107 115.309 113.62ZM118.862 113.628C118.862 113.266 118.76 112.98 118.556 112.77C118.358 112.56 118.114 112.455 117.825 112.455C117.536 112.455 117.29 112.56 117.086 112.77C116.887 112.974 116.788 113.257 116.788 113.62C116.788 113.983 116.887 114.272 117.086 114.487C117.29 114.697 117.536 114.801 117.825 114.801C118.114 114.801 118.358 114.697 118.556 114.487C118.76 114.277 118.862 113.991 118.862 113.628Z" fill="white"/>
<path d="M84.6439 57.8806C84.102 57.0905 83.2152 56.7383 82.4069 56.7383C81.2654 56.7383 80.2025 57.3538 79.7332 58.6738C79.1913 57.3554 78.4333 56.7383 77.2238 56.7383C76.032 56.7383 75.1482 57.3538 74.6759 58.6738H74.6434V57.3086C74.6315 57.1201 74.4805 56.9674 74.2925 56.9596H72.4893C72.2835 56.9596 72.1162 57.1263 72.1162 57.3351V67.7825C72.1295 67.9695 72.2776 68.1144 72.4626 68.1269H74.3976C74.6034 68.1269 74.7692 67.957 74.7692 67.7498V62.2097C74.7692 61.002 74.7129 59.3299 76.1016 59.3299C77.4755 59.3299 77.2963 61.0441 77.2963 62.2097V67.7482C77.2963 67.9493 77.4503 68.1098 77.6457 68.1253H79.5762C79.785 68.1253 79.9493 67.9555 79.9493 67.7482V62.2097C79.9493 61.616 79.9316 60.734 80.1285 60.2072C80.3268 59.6805 80.8169 59.3517 81.2847 59.3517C81.8458 59.3517 82.2781 59.5496 82.4217 60.2509C82.5135 60.6701 82.4765 61.7687 82.4765 62.2097V67.7482C82.4765 67.9493 82.6319 68.1098 82.8244 68.1253H84.7564C84.9622 68.1253 85.128 67.9555 85.128 67.7482L85.1309 61.1563C85.1309 60.0358 85.2553 58.7595 84.6439 57.8806Z" fill="white"/>
<path d="M110.133 56.7402C107.335 56.7402 105.783 59.2695 105.783 62.5203C105.783 65.7523 107.315 68.3455 110.133 68.3455C112.839 68.3455 114.555 65.8178 114.555 62.6309C114.562 59.3334 113.005 56.7402 110.133 56.7402ZM110.133 66.1918C108.617 66.1918 108.633 63.4662 108.633 62.1899C108.633 60.9167 108.725 58.8721 110.148 58.8721C110.761 58.8721 111.197 59.1557 111.412 59.8835C111.667 60.7188 111.702 61.7722 111.702 62.6543C111.708 63.9945 111.635 66.1918 110.133 66.1918Z" fill="white"/>
<path d="M95.957 66.2153C95.6047 65.6979 95.2316 65.2803 95.2316 64.3281V61.1552C95.2316 59.8135 95.3189 58.5792 94.3788 57.6536C93.6371 56.904 92.4069 56.6406 91.4668 56.6406C89.628 56.6406 87.5717 57.3622 87.1424 59.7558C87.0965 60.0114 87.2712 60.1454 87.4296 60.1828L89.3038 60.3948C89.4785 60.387 89.6073 60.2062 89.6414 60.0223C89.7998 59.1979 90.4586 58.8005 91.1958 58.8005C91.5941 58.8005 92.0456 58.9548 92.2781 59.3304C92.552 59.748 92.5149 60.3215 92.5149 60.8046L92.5135 61.0633C91.3928 61.1989 89.9271 61.2846 88.8775 61.7708C87.665 62.3209 86.8167 63.4461 86.8167 65.0979C86.8167 67.2127 88.081 68.2708 89.708 68.2708C91.0819 68.2708 91.8369 67.9295 92.8969 66.7903C93.2463 67.3264 93.3632 67.5882 94.0058 68.1492C94.1523 68.2303 94.3374 68.2209 94.4647 68.1025L94.4677 68.1056C94.8541 67.7472 95.5543 67.1005 95.9481 66.7545C96.1036 66.6189 96.0814 66.3976 95.957 66.2153ZM92.5135 63.1375C92.5135 63.9307 92.5342 64.5915 92.1507 65.2959C91.8458 65.8693 91.3557 66.22 90.8169 66.22C90.0722 66.22 89.6369 65.6262 89.6369 64.7458C89.6369 63.0113 91.1144 62.6965 92.5135 62.6965V63.1375Z" fill="white"/>
<path d="M123.446 57.969C122.903 57.0683 122.052 56.7379 121.185 56.7363C119.852 56.7363 119.089 57.4173 118.55 58.8464H118.519V57.249C118.482 57.0854 118.34 56.9639 118.173 56.9561H116.38C116.183 56.9561 116.025 57.1057 116.007 57.2973L116.01 67.7478C116.01 67.9489 116.162 68.1125 116.359 68.1281H118.282C118.491 68.1281 118.658 67.9582 118.661 67.7478V62.1252C118.661 61.4193 118.695 60.785 118.971 60.1461C119.185 59.6427 119.616 59.3108 120.09 59.3108C121.422 59.3108 121.295 60.9829 121.295 62.1252V67.7992C121.31 67.9753 121.462 68.1125 121.636 68.1296H123.576C123.77 68.1296 123.926 67.9816 123.952 67.7992V61.2229C123.952 60.2115 123.952 58.8074 123.446 57.969Z" fill="white"/>
<path d="M104.515 65.297C103.405 64.6394 102.116 64.4461 100.89 64.4789L104.188 59.5295C104.492 59.0838 104.665 58.8048 104.665 58.5898V57.3103C104.665 57.0859 104.504 56.9316 104.298 56.9316H97.9422C97.7438 56.9316 97.5839 57.0828 97.5839 57.3103V58.8048C97.5839 59.0277 97.7438 59.1804 97.951 59.1804H101.273L97.4566 64.9401C97.2256 65.3095 97.2227 65.724 97.2227 65.9671V67.4834C97.2227 67.7016 97.458 67.9525 97.6772 67.8247C99.8401 66.617 102.434 66.737 104.388 67.8154C104.631 67.9463 104.856 67.6907 104.856 67.4725V65.8767C104.834 65.6632 104.767 65.4435 104.515 65.297Z" fill="white"/>
<path d="M103.286 69.08C102.891 68.5642 99.4859 68.12 97.4088 69.655C97.092 69.8903 97.1438 70.216 97.5006 70.1724C98.6687 70.0275 101.274 69.6987 101.736 70.322C102.2 70.9469 101.219 73.5276 100.78 74.6777C100.645 75.0268 100.932 75.167 101.231 74.9052C103.184 73.1941 103.684 69.6005 103.286 69.08Z" fill="white"/>
<path d="M99.7028 71.2437C95.6345 73.0623 91.2094 73.9381 87.1826 73.9381C81.2207 73.9381 75.4425 72.2192 70.7746 69.358C70.3675 69.1056 70.064 69.5466 70.403 69.8692C74.7304 73.9849 80.4494 76.4596 86.8021 76.4596C91.3352 76.4596 96.5953 74.9588 100.228 72.1413C100.828 71.6738 100.317 70.9725 99.7028 71.2437Z" fill="white"/>
<path d="M70.6037 66.2153C70.2499 65.6979 69.8754 65.2803 69.8754 64.3281V61.1552C69.8754 59.8135 69.9657 58.5792 69.0256 57.6536C68.2824 56.904 67.0536 56.6406 66.1106 56.6406C64.2718 56.6406 62.2199 57.3622 61.7861 59.7558C61.7417 60.0114 61.9194 60.1454 62.0733 60.1828L63.9535 60.3948C64.1253 60.387 64.2541 60.2062 64.2881 60.0223C64.4465 59.1979 65.1068 58.8005 65.8441 58.8005C66.2408 58.8005 66.6909 58.9548 66.9278 59.3304C67.1972 59.748 67.1602 60.3215 67.1602 60.8046V61.0664C66.041 61.2036 64.5753 61.2893 63.5242 61.7755C62.3161 62.3225 61.4619 63.4476 61.4619 65.0995C61.4619 67.2142 62.7292 68.2724 64.3562 68.2724C65.733 68.2724 66.4851 67.9311 67.5451 66.7919C67.896 67.328 68.0115 67.5898 68.654 68.1508C68.7991 68.2318 68.9826 68.2225 69.1114 68.1041L69.1174 68.1072C69.5023 67.7487 70.2025 67.102 70.5993 66.7561C70.7562 66.6158 70.7296 66.3976 70.6037 66.2153ZM67.1602 63.1375C67.1602 63.9307 67.1809 64.5915 66.799 65.2959C66.4925 65.8693 66.0054 66.22 65.4606 66.22C64.7189 66.22 64.2881 65.6262 64.2881 64.7458C64.2881 63.0113 65.7641 62.6965 67.1602 62.6965V63.1375Z" fill="white"/>
<defs>
<linearGradient id="paint0_linear" x1="109.265" y1="-34.1818" x2="204.63" y2="148.197" gradientUnits="userSpaceOnUse">
<stop stop-color="#00E0FF"/>
<stop offset="1" stop-color="#0047FF"/>
</linearGradient>
</defs>
</svg>
