<svg width="173" height="172" viewBox="0 0 173 172" fill="none" xmlns="http://www.w3.org/2000/svg">
<g clip-path="url(#clip0)">
<rect width="172" height="172" transform="translate(0.5)" fill="white"/>
<path d="M170.976 141.571C169.412 152.32 162.363 160.642 154.858 167.915C153.81 168.931 152.76 169.927 151.707 170.903C151.7 170.908 151.693 170.917 151.685 170.922C151.635 170.969 151.584 171.016 151.537 171.062C151.32 171.263 151.102 171.465 150.887 171.663L151.022 171.711L151.443 171.855C151.299 171.811 151.156 171.768 151.011 171.724C150.968 171.71 150.923 171.699 150.88 171.685C145.905 170.185 140.828 168.538 136.76 165.022C132.54 161.371 129.634 155.146 131.089 149.411C131.281 148.659 131.547 147.934 131.883 147.248C132.02 146.961 132.171 146.684 132.33 146.41C133.292 144.724 134.638 143.353 136.232 142.441C137.825 141.528 139.607 141.105 141.395 141.216C143.183 141.327 144.913 141.968 146.405 143.072C147.898 144.177 149.1 145.706 149.889 147.501C149.818 141.182 144.648 136.573 139.799 133.312C134.948 130.053 129.455 126.531 127.93 120.442C127.08 117.054 127.795 113.564 129.465 110.616C129.517 110.526 129.568 110.437 129.622 110.349C131.67 106.901 134.807 104.443 138.407 103.465C145.125 101.764 152.165 104.898 157.675 109.516C166.542 116.945 172.755 129.351 170.976 141.571Z" fill="#F2F2F2"/>
<path d="M156.729 129.697C158.278 131.79 159.546 134.124 160.492 136.625C161.306 138.865 161.815 141.228 162.003 143.636C162.411 148.583 161.57 153.583 159.894 158.16C158.59 161.636 156.898 164.913 154.858 167.915C153.81 168.931 152.76 169.927 151.707 170.903C151.7 170.907 151.693 170.917 151.685 170.921C151.635 170.968 151.584 171.015 151.537 171.062C151.32 171.263 151.102 171.464 150.887 171.663L151.022 171.71L151.443 171.854C151.299 171.81 151.156 171.768 151.011 171.724C150.968 171.71 150.923 171.699 150.88 171.685C150.887 167.734 150.045 163.839 148.426 160.327C146.807 156.814 144.457 153.786 141.573 151.496C138.688 149.247 135.367 147.792 131.883 147.248C132.02 146.961 132.171 146.684 132.33 146.41C133.679 146.643 135.006 147.01 136.297 147.504C140.909 149.257 144.893 152.622 147.659 157.1C150.147 161.17 151.543 165.948 151.684 170.872C151.858 170.649 152.031 170.421 152.199 170.196C155.402 165.959 158.141 161.22 159.774 155.957C161.202 151.493 161.625 146.706 161.005 142.017C160.276 136.912 157.935 132.406 154.84 128.626C151.525 124.58 147.544 121.141 143.379 118.258C139.111 115.299 134.536 112.934 129.754 111.216C129.646 111.176 129.556 111.092 129.502 110.98C129.448 110.868 129.435 110.738 129.465 110.616C129.484 110.507 129.54 110.411 129.622 110.348C129.665 110.321 129.713 110.304 129.762 110.3C129.811 110.296 129.861 110.304 129.906 110.324C130.497 110.537 131.084 110.753 131.668 110.984C136.531 112.901 141.162 115.486 145.455 118.679C149.6 121.754 153.58 125.369 156.729 129.697Z" fill="white"/>
<path d="M72.1505 105.152C71.6723 105.151 71.2122 104.947 70.8634 104.582C70.5146 104.217 70.3032 103.717 70.2719 103.184L69.9921 98.4143C69.9594 97.8571 70.1263 97.3083 70.456 96.8885C70.7857 96.4688 71.2513 96.2124 71.7503 96.1759L105.222 93.7285C105.75 93.6896 106.279 93.7672 106.78 93.9569C107.281 94.1465 107.744 94.4445 108.141 94.8338C108.539 95.223 108.864 95.696 109.098 96.2256C109.332 96.7552 109.47 97.3311 109.505 97.9204C109.539 98.5097 109.47 99.1008 109.3 99.66C109.129 100.219 108.862 100.735 108.513 101.179C108.165 101.623 107.741 101.986 107.266 102.247C106.792 102.508 106.276 102.662 105.748 102.7L72.2766 105.147C72.2345 105.15 72.1924 105.152 72.1505 105.152Z" fill="#010066"/>
<path d="M78.7506 105.767C78.263 105.766 77.7947 105.555 77.4436 105.177C77.0925 104.799 76.886 104.284 76.8672 103.74L76.6287 96.6155C76.6194 96.3392 76.659 96.0636 76.7452 95.8044C76.8313 95.5453 76.9624 95.3076 77.1308 95.1049C77.2992 94.9023 77.5018 94.7387 77.7268 94.6234C77.9519 94.5082 78.1951 94.4436 78.4426 94.4333L105.967 93.2847C106.467 93.2638 106.954 93.4655 107.32 93.8453C107.687 94.2251 107.903 94.7519 107.922 95.3099L108.16 102.435C108.17 102.711 108.13 102.986 108.044 103.246C107.958 103.505 107.827 103.742 107.658 103.945C107.49 104.148 107.287 104.311 107.062 104.427C106.837 104.542 106.594 104.606 106.347 104.617L78.8219 105.765C78.7981 105.766 78.7742 105.767 78.7506 105.767Z" fill="#2F2E41"/>
<path d="M111.005 171.444H106.724C106.224 171.444 105.744 171.222 105.391 170.827C105.037 170.433 104.839 169.897 104.838 169.339V129.498C104.839 128.94 105.037 128.405 105.391 128.01C105.744 127.615 106.224 127.393 106.724 127.393H111.005C111.505 127.393 111.984 127.615 112.338 128.01C112.691 128.405 112.89 128.94 112.891 129.498V169.339C112.89 169.897 112.691 170.433 112.338 170.827C111.984 171.222 111.505 171.444 111.005 171.444Z" fill="#2F2E41"/>
<path d="M92.0012 150.383L88.3398 147.906C87.9126 147.616 87.6058 147.148 87.4868 146.606C87.3677 146.064 87.4461 145.492 87.7047 145.014L106.202 110.943C106.461 110.466 106.88 110.123 107.365 109.99C107.851 109.857 108.364 109.945 108.791 110.234L112.453 112.712C112.88 113.001 113.187 113.469 113.306 114.011C113.425 114.553 113.346 115.125 113.088 115.603L94.591 149.674C94.3314 150.151 93.9129 150.494 93.4274 150.627C92.9419 150.76 92.4289 150.672 92.0012 150.383Z" fill="#2F2E41"/>
<path d="M104.502 85.8128C112.673 85.8128 119.296 78.4176 119.296 69.2951C119.296 60.1726 112.673 52.7773 104.502 52.7773C96.3318 52.7773 89.7083 60.1726 89.7083 69.2951C89.7083 78.4176 96.3318 85.8128 104.502 85.8128Z" fill="#010066"/>
<path d="M96.4944 74.9359C96.0186 74.7613 95.5817 74.475 95.2132 74.0962C94.969 73.8257 94.7808 73.4989 94.6617 73.1386C94.5425 72.7784 94.4954 72.3934 94.5235 72.0107C94.539 71.738 94.6108 71.473 94.7332 71.2364C94.8556 70.9998 95.0253 70.7981 95.2292 70.6468C95.7582 70.2679 96.4658 70.2668 97.1862 70.6213L97.1589 64.173L97.7391 64.1699L97.7712 71.7506L97.3242 71.4366C96.8058 71.0732 96.0656 70.8174 95.5425 71.1921C95.4132 71.2911 95.3061 71.4221 95.2296 71.5748C95.153 71.7275 95.1091 71.8979 95.1011 72.0727C95.0815 72.3578 95.1172 72.6442 95.2057 72.9125C95.2942 73.1809 95.4334 73.4247 95.6139 73.6276C96.2545 74.3108 97.1892 74.5245 98.255 74.7154L98.163 75.3549C97.5967 75.2712 97.0383 75.1309 96.4944 74.9359Z" fill="#2F2E41"/>
<path d="M91.1784 63.8462L91.1025 64.4883L94.2002 64.945L94.2762 64.303L91.1784 63.8462Z" fill="#2F2E41"/>
<path d="M100.956 65.2876L100.88 65.9297L103.978 66.3865L104.054 65.7444L100.956 65.2876Z" fill="#2F2E41"/>
<path d="M116.855 140.187H91.9086C91.2548 140.186 90.6281 139.896 90.1659 139.38C89.7036 138.864 89.4436 138.164 89.4429 137.434L94.6655 92.7184C94.6697 91.9919 94.9312 91.2967 95.393 90.7848C95.8548 90.2729 96.4793 89.9858 97.13 89.9863H105.983C109.519 89.9908 112.91 91.5612 115.41 94.353C117.911 97.1448 119.317 100.93 119.321 104.878V137.434C119.32 138.164 119.06 138.864 118.598 139.38C118.136 139.896 117.509 140.186 116.855 140.187Z" fill="#2F2E41"/>
<path d="M110.574 137.802C110.422 138.172 110.178 138.484 109.871 138.703C109.564 138.921 109.207 139.035 108.843 139.032L104.561 138.991C104.314 138.988 104.069 138.931 103.841 138.823C103.613 138.715 103.406 138.558 103.233 138.361C103.059 138.164 102.922 137.931 102.829 137.674C102.737 137.418 102.69 137.144 102.692 136.867L102.983 99.4172C102.988 98.8269 103.096 98.2434 103.303 97.7C103.509 97.1566 103.81 96.6639 104.187 96.2501C104.564 95.8363 105.01 95.5095 105.501 95.2884C105.991 95.0672 106.515 94.956 107.044 94.9611C107.573 94.9662 108.095 95.0876 108.582 95.3182C109.069 95.5488 109.51 95.8842 109.88 96.3052C110.251 96.7263 110.544 97.2247 110.742 97.772C110.94 98.3193 111.04 98.9048 111.035 99.4951L110.744 136.945C110.742 137.241 110.684 137.533 110.574 137.802Z" fill="#010066"/>
<path d="M112.465 127.805C112.313 128.175 112.069 128.487 111.762 128.705C111.455 128.924 111.098 129.038 110.734 129.035L103.421 128.964C102.921 128.959 102.444 128.732 102.093 128.334C101.743 127.936 101.548 127.399 101.552 126.841L101.791 96.0889C101.793 95.8125 101.844 95.5392 101.941 95.2847C102.037 95.0302 102.178 94.7995 102.355 94.6057C102.531 94.4119 102.74 94.2588 102.97 94.1552C103.199 94.0517 103.445 93.9996 103.693 94.002L111.005 94.0728C111.253 94.0752 111.498 94.132 111.726 94.24C111.954 94.348 112.16 94.5051 112.334 94.7023C112.507 94.8994 112.644 95.1329 112.737 95.3892C112.83 95.6455 112.877 95.9197 112.874 96.1962L112.636 126.948C112.634 127.244 112.575 127.536 112.465 127.805Z" fill="#2F2E41"/>
<path d="M104.779 59.4976C102.801 57.6703 100.158 59.3985 97.9212 59.1533C95.7815 58.9186 94.0593 56.8162 93.59 54.5538C93.0425 51.9143 94.2293 49.2331 96.0171 47.5423C97.9751 45.6904 100.604 45.1149 103.109 45.3967C105.981 45.7197 108.626 47.1551 111.008 48.9086C113.305 50.5473 115.426 52.4773 117.326 54.6602C119.029 56.6816 120.484 59.1033 120.983 61.8614C121.436 64.368 121.17 67.1619 119.874 69.3209C119.187 70.428 118.255 71.3186 117.17 71.9067C116.038 72.557 114.828 73.0304 113.733 73.7618C112.079 74.8676 110.491 77.1214 111.054 79.4198C111.175 79.9219 111.405 80.3832 111.723 80.7629C112.105 81.2189 112.77 80.5915 112.386 80.1343C111.713 79.3313 111.721 78.2411 112.056 77.2582C112.455 76.1502 113.179 75.2263 114.11 74.638C115.255 73.8741 116.526 73.3907 117.701 72.6922C118.827 72.0529 119.798 71.1195 120.531 69.9714C121.914 67.737 122.29 64.8593 121.923 62.2124C121.525 59.348 120.159 56.7665 118.465 54.6148C116.622 52.2732 114.373 50.3056 112.08 48.5439C109.619 46.6534 106.909 45.0686 103.932 44.5378C101.35 44.0776 98.5671 44.4537 96.3441 46.0667C94.2691 47.5723 92.7016 50.1199 92.5892 52.9317C92.5534 54.2108 92.8236 55.4774 93.3719 56.6011C93.9201 57.7249 94.7267 58.6653 95.7085 59.3255C96.7154 59.9695 97.878 60.2444 99.0323 60.1112C100.267 59.9967 101.497 59.5479 102.743 59.6388C103.306 59.665 103.847 59.8956 104.282 60.2956C104.714 60.6949 105.208 59.8935 104.779 59.4976V59.4976Z" fill="#2F2E41"/>
<path d="M87.3832 145.589C87.3885 145.553 87.3947 145.516 87.4018 145.48C87.4533 145.209 87.5525 144.953 87.6934 144.725C87.8343 144.498 88.0143 144.304 88.2229 144.155L91.8208 141.564C92.2412 141.262 92.7517 141.158 93.2403 141.276C93.729 141.394 94.1558 141.723 94.4273 142.192L105.526 161.404C105.797 161.873 105.89 162.443 105.785 162.989C105.679 163.535 105.384 164.012 104.964 164.314L101.366 166.905C100.945 167.207 100.435 167.311 99.9461 167.193C99.4574 167.075 99.0306 166.746 98.7591 166.277L87.6603 147.065C87.4066 146.629 87.3078 146.102 87.3832 145.589Z" fill="#2F2E41"/>
<path d="M73.9084 18.9702C73.632 18.2374 73.1692 17.6111 72.5772 17.1689C71.9853 16.7268 71.2902 16.4881 70.5781 16.4824H4.10345C3.14792 16.483 2.23166 16.9071 1.55599 17.6614C0.880326 18.4158 0.500513 19.4388 0.5 20.5057V114.4C0.500513 115.467 0.880326 116.49 1.55599 117.244C2.23166 117.999 3.14792 118.423 4.10345 118.423H70.5805C71.5358 118.422 72.4516 117.998 73.1271 117.244C73.8026 116.489 74.1827 115.467 74.1839 114.4V20.5057C74.1855 19.9787 74.0927 19.4566 73.9108 18.9702H73.9084ZM73.3813 114.4C73.3804 115.23 73.0848 116.025 72.5593 116.612C72.0338 117.199 71.3213 117.529 70.5781 117.53H4.10345C3.36011 117.53 2.64724 117.2 2.12158 116.613C1.59591 116.027 1.30047 115.231 1.30022 114.401V20.5062C1.30123 19.6765 1.5969 18.8811 2.12239 18.2944C2.64788 17.7077 3.3603 17.3775 4.10345 17.3764H70.5805C71.1403 17.3788 71.6868 17.5673 72.1502 17.918C72.6137 18.2687 72.973 18.7656 73.1824 19.3452C73.2232 19.4608 73.2584 19.5786 73.2878 19.6984C73.3515 19.9618 73.3837 20.2334 73.3837 20.5062L73.3813 114.4Z" fill="#3F3D56"/>
<path d="M60.036 38.6513H40.0129C39.5881 38.6513 39.1806 38.4629 38.8802 38.1274C38.5798 37.792 38.411 37.3371 38.411 36.8628C38.411 36.3884 38.5798 35.9335 38.8802 35.5981C39.1806 35.2627 39.5881 35.0742 40.0129 35.0742H60.036C60.4609 35.0742 60.8683 35.2627 61.1687 35.5981C61.4692 35.9335 61.6379 36.3884 61.6379 36.8628C61.6379 37.3371 61.4692 37.792 61.1687 38.1274C60.8683 38.4629 60.4609 38.6513 60.036 38.6513Z" fill="#3F3D56"/>
<path d="M60.036 48.04H40.0129C39.8024 48.0403 39.5938 47.9943 39.3992 47.9045C39.2046 47.8148 39.0278 47.6831 38.8788 47.517C38.7298 47.3509 38.6117 47.1536 38.531 46.9364C38.4504 46.7193 38.4089 46.4865 38.4089 46.2514C38.4089 46.0163 38.4504 45.7836 38.531 45.5664C38.6117 45.3493 38.7298 45.152 38.8788 44.9859C39.0278 44.8198 39.2046 44.6881 39.3992 44.5983C39.5938 44.5086 39.8024 44.4626 40.0129 44.4629H60.036C60.2466 44.4626 60.4551 44.5086 60.6497 44.5983C60.8443 44.6881 61.0212 44.8198 61.1702 44.9859C61.3191 45.152 61.4373 45.3493 61.5179 45.5664C61.5986 45.7836 61.6401 46.0163 61.6401 46.2514C61.6401 46.4865 61.5986 46.7193 61.5179 46.9364C61.4373 47.1536 61.3191 47.3509 61.1702 47.517C61.0212 47.6831 60.8443 47.8148 60.6497 47.9045C60.4551 47.9943 60.2466 48.0403 60.036 48.04Z" fill="#3F3D56"/>
<path d="M29.7393 53.386H15.1065C14.6286 53.3855 14.1705 53.1733 13.8327 52.7961C13.4948 52.4188 13.3048 51.9074 13.3043 51.3739V32.0942C13.3048 31.5607 13.4948 31.0492 13.8327 30.672C14.1705 30.2948 14.6286 30.0826 15.1065 30.082H29.7393C30.2171 30.0826 30.6752 30.2948 31.013 30.672C31.3509 31.0492 31.5409 31.5607 31.5415 32.0942V51.3739C31.5409 51.9074 31.3509 52.4188 31.013 52.7961C30.6752 53.1733 30.2171 53.3855 29.7393 53.386Z" fill="#010066"/>
<path d="M59.8971 67.2665H14.645C14.2201 67.2665 13.8127 67.0781 13.5123 66.7427C13.2119 66.4073 13.0431 65.9523 13.0431 65.478C13.0431 65.0036 13.2119 64.5487 13.5123 64.2133C13.8127 63.8779 14.2201 63.6895 14.645 63.6895H59.8971C60.3219 63.6895 60.7294 63.8779 61.0298 64.2133C61.3302 64.5487 61.499 65.0036 61.499 65.478C61.499 65.9523 61.3302 66.4073 61.0298 66.7427C60.7294 67.0781 60.3219 67.2665 59.8971 67.2665Z" fill="#CCCCCC"/>
<path d="M59.8971 76.6552H14.645C14.2201 76.6552 13.8127 76.4668 13.5123 76.1313C13.2119 75.7959 13.0431 75.341 13.0431 74.8667C13.0431 74.3923 13.2119 73.9374 13.5123 73.602C13.8127 73.2666 14.2201 73.0781 14.645 73.0781H59.8971C60.3219 73.0781 60.7294 73.2666 61.0298 73.602C61.3302 73.9374 61.499 74.3923 61.499 74.8667C61.499 75.341 61.3302 75.7959 61.0298 76.1313C60.7294 76.4668 60.3219 76.6552 59.8971 76.6552Z" fill="#CCCCCC"/>
<path d="M59.8971 86.0458H14.645C14.2205 86.0452 13.8136 85.8565 13.5137 85.5211C13.2137 85.1858 13.0452 84.7312 13.0452 84.2573C13.0452 83.7834 13.2137 83.3288 13.5137 82.9934C13.8136 82.6581 14.2205 82.4694 14.645 82.4688H59.8971C60.1076 82.4684 60.3162 82.5145 60.5108 82.6042C60.7054 82.694 60.8822 82.8256 61.0312 82.9918C61.1802 83.1579 61.2984 83.3551 61.379 83.5723C61.4596 83.7894 61.5012 84.0222 61.5012 84.2573C61.5012 84.4924 61.4596 84.7251 61.379 84.9423C61.2984 85.1594 61.1802 85.3567 61.0312 85.5228C60.8822 85.6889 60.7054 85.8206 60.5108 85.9104C60.3162 86.0001 60.1076 86.0461 59.8971 86.0458Z" fill="#CCCCCC"/>
<path d="M59.8971 95.4365H14.645C14.2201 95.4365 13.8127 95.248 13.5123 94.9126C13.2119 94.5772 13.0431 94.1223 13.0431 93.6479C13.0431 93.1736 13.2119 92.7186 13.5123 92.3832C13.8127 92.0478 14.2201 91.8594 14.645 91.8594H59.8971C60.3219 91.8594 60.7294 92.0478 61.0298 92.3832C61.3302 92.7186 61.499 93.1736 61.499 93.6479C61.499 94.1223 61.3302 94.5772 61.0298 94.9126C60.7294 95.248 60.3219 95.4365 59.8971 95.4365Z" fill="#CCCCCC"/>
<path d="M59.8971 104.825H14.645C14.2201 104.825 13.8127 104.637 13.5123 104.301C13.2119 103.966 13.0431 103.511 13.0431 103.037C13.0431 102.562 13.2119 102.107 13.5123 101.772C13.8127 101.436 14.2201 101.248 14.645 101.248H59.8971C60.3219 101.248 60.7294 101.436 61.0298 101.772C61.3302 102.107 61.499 102.562 61.499 103.037C61.499 103.511 61.3302 103.966 61.0298 104.301C60.7294 104.637 60.3219 104.825 59.8971 104.825Z" fill="#CCCCCC"/>
<path d="M74.4053 34.5211C82.9433 34.5211 89.8647 26.7933 89.8647 17.2605C89.8647 7.72781 82.9433 0 74.4053 0C65.8673 0 58.9459 7.72781 58.9459 17.2605C58.9459 26.7933 65.8673 34.5211 74.4053 34.5211Z" fill="#010066"/>
<path d="M72.8734 23.8462C72.5256 23.8469 72.187 23.7213 71.9088 23.4883L71.8915 23.4739L68.2583 20.3708C68.0901 20.2268 67.9488 20.0471 67.8428 19.8422C67.7367 19.6372 67.6678 19.4109 67.64 19.1762C67.6122 18.9415 67.6262 18.703 67.6809 18.4744C67.7357 18.2457 67.8303 18.0313 67.9593 17.8434C68.0883 17.6555 68.2492 17.4979 68.4328 17.3794C68.6164 17.261 68.819 17.184 69.0292 17.153C69.2394 17.122 69.453 17.1376 69.6579 17.1987C69.8627 17.2599 70.0547 17.3655 70.223 17.5096L72.5763 19.5244L78.1372 11.4243C78.2661 11.2365 78.4269 11.0789 78.6104 10.9605C78.7939 10.8421 78.9965 10.7653 79.2066 10.7343C79.4168 10.7033 79.6303 10.7188 79.835 10.7799C80.0398 10.8411 80.2317 10.9467 80.3999 11.0906L80.4004 11.091L80.3659 11.1445L80.4013 11.091C80.7406 11.3822 80.9626 11.8118 81.0186 12.2855C81.0746 12.7593 80.9599 13.2384 80.6998 13.6179L74.159 23.1411C74.0077 23.3605 73.8131 23.5381 73.5904 23.66C73.3677 23.7819 73.1228 23.8449 72.8748 23.8441L72.8734 23.8462Z" fill="white"/>
<path d="M172.214 172H67.036C66.9602 172 66.8875 171.966 66.8339 171.906C66.7803 171.846 66.7502 171.765 66.7502 171.68C66.7502 171.596 66.7803 171.515 66.8339 171.455C66.8875 171.395 66.9602 171.361 67.036 171.361H172.214C172.29 171.361 172.363 171.395 172.416 171.455C172.47 171.515 172.5 171.596 172.5 171.68C172.5 171.765 172.47 171.846 172.416 171.906C172.363 171.966 172.29 172 172.214 172Z" fill="#3F3D56"/>
</g>
<defs>
<clipPath id="clip0">
<rect width="172" height="172" fill="white" transform="translate(0.5)"/>
</clipPath>
</defs>
</svg>
