<svg width="14" height="15" viewBox="0 0 14 15" fill="none" xmlns="http://www.w3.org/2000/svg">
<path d="M7.15385 0.556641C9.76923 0.556641 11.9231 2.71045 11.9231 5.32583C11.9231 6.17199 11.6923 7.01811 11.2308 7.78734L11 8.24895L11.4615 9.71041C11.6154 10.2489 12 10.6336 12.5385 10.9413C13 11.172 13.3077 11.6336 13.3077 12.1721V12.4797C13.3077 13.0951 12.7692 13.6336 12.1538 13.6336H2.15385C1.53846 13.6336 1 13.0951 1 12.4797V12.1721C1 11.6336 1.30769 11.172 1.76923 10.9413C2.23077 10.7105 2.61539 10.2489 2.84616 9.71041L3.30769 8.24895L3.07692 7.78734C1.69231 5.55657 2.46154 2.55657 4.69231 1.24887C5.46154 0.787335 6.30769 0.556641 7.15385 0.556641Z" stroke="#858585" stroke-linecap="round" stroke-linejoin="round"/>
</svg>
