<svg width="131" height="96" viewBox="0 0 131 96" fill="none" xmlns="http://www.w3.org/2000/svg">
<rect width="131" height="96" rx="15" fill="url(#paint0_radial)"/>
<path d="M65.5985 30.4092C60.38 30.4046 56.1472 34.8628 56.1428 40.3668C56.1384 45.8709 60.3653 50.3352 65.5839 50.3399C70.8017 50.3352 75.0315 45.8778 75.0395 40.3745C75.0395 34.8735 70.8141 30.4138 65.5985 30.4092ZM65.5839 48.6816C61.2341 48.6816 57.7078 44.9623 57.7078 40.3745C57.7078 35.7868 61.2341 32.0675 65.5839 32.0675C69.9321 32.0721 73.4555 35.7883 73.4599 40.3745C73.4599 44.9623 69.9336 48.6816 65.5839 48.6816Z" fill="white"/>
<path d="M68.1356 39.8883C68.7675 39.5127 69.109 38.7607 68.9912 38.0063C68.845 36.8417 67.5287 36.402 66.4902 36.3095V34.5586H65.4664V36.294H64.779V34.5586H63.7552V36.294H61.6929V37.4125H62.4607C62.8045 37.4125 62.9726 37.5204 62.9726 37.8135V42.6188C62.9726 43.0199 62.7825 43.1433 62.5777 43.1433H61.7953V44.2848H63.7844V46.0589H64.8155V44.2848H65.5029V46.0589H66.5048V44.2848H66.7242C68.8303 44.2848 69.5324 43.1973 69.5324 41.7164C69.5155 40.8432 68.9415 40.092 68.1356 39.8883ZM64.7789 37.4819H65.5102C66.0221 37.4819 67.0313 37.5744 67.0313 38.4537C67.0664 39.0276 66.6723 39.5305 66.1318 39.603H64.7789V37.4819ZM65.9124 43.0353V43.0276H64.7789V40.7136H66.0953C66.4024 40.7136 67.5579 40.8216 67.5579 41.6855C67.5579 42.5494 67.0094 43.0353 65.9124 43.0353Z" fill="white"/>
<path d="M55.4704 75.4957C55.7744 75.5437 56.0504 75.6677 56.2984 75.8677C56.5544 76.0677 56.7544 76.3157 56.8984 76.6117C57.0504 76.9077 57.1264 77.2237 57.1264 77.5597C57.1264 77.9837 57.0184 78.3677 56.8024 78.7117C56.5864 79.0477 56.2704 79.3157 55.8544 79.5157C55.4464 79.7077 54.9624 79.8037 54.4024 79.8037H51.2824V71.4397H54.2824C54.8504 71.4397 55.3344 71.5357 55.7344 71.7277C56.1344 71.9117 56.4344 72.1637 56.6344 72.4837C56.8344 72.8037 56.9344 73.1637 56.9344 73.5637C56.9344 74.0597 56.7984 74.4717 56.5264 74.7997C56.2624 75.1197 55.9104 75.3517 55.4704 75.4957ZM52.3744 75.0517H54.2104C54.7224 75.0517 55.1184 74.9317 55.3984 74.6917C55.6784 74.4517 55.8184 74.1197 55.8184 73.6957C55.8184 73.2717 55.6784 72.9397 55.3984 72.6997C55.1184 72.4597 54.7144 72.3397 54.1864 72.3397H52.3744V75.0517ZM54.3064 78.9037C54.8504 78.9037 55.2744 78.7757 55.5784 78.5197C55.8824 78.2637 56.0344 77.9077 56.0344 77.4517C56.0344 76.9877 55.8744 76.6237 55.5544 76.3597C55.2344 76.0877 54.8064 75.9517 54.2704 75.9517H52.3744V78.9037H54.3064ZM59.2058 72.1597C58.9978 72.1597 58.8218 72.0877 58.6778 71.9437C58.5338 71.7997 58.4618 71.6237 58.4618 71.4157C58.4618 71.2077 58.5338 71.0317 58.6778 70.8877C58.8218 70.7437 58.9978 70.6717 59.2058 70.6717C59.4058 70.6717 59.5738 70.7437 59.7098 70.8877C59.8538 71.0317 59.9258 71.2077 59.9258 71.4157C59.9258 71.6237 59.8538 71.7997 59.7098 71.9437C59.5738 72.0877 59.4058 72.1597 59.2058 72.1597ZM59.7338 73.2277V79.8037H58.6418V73.2277H59.7338ZM62.9269 74.1277V78.0037C62.9269 78.3237 62.9949 78.5517 63.1309 78.6877C63.2669 78.8157 63.5029 78.8797 63.8389 78.8797H64.6429V79.8037H63.6589C63.0509 79.8037 62.5949 79.6637 62.2909 79.3837C61.9869 79.1037 61.8349 78.6437 61.8349 78.0037V74.1277H60.9829V73.2277H61.8349V71.5717H62.9269V73.2277H64.6429V74.1277H62.9269ZM65.558 76.5037C65.558 75.8237 65.694 75.2317 65.966 74.7277C66.238 74.2157 66.614 73.8197 67.094 73.5397C67.582 73.2597 68.138 73.1197 68.762 73.1197C69.57 73.1197 70.234 73.3157 70.754 73.7077C71.282 74.0997 71.63 74.6437 71.798 75.3397H70.622C70.51 74.9397 70.29 74.6237 69.962 74.3917C69.642 74.1597 69.242 74.0437 68.762 74.0437C68.138 74.0437 67.634 74.2597 67.25 74.6917C66.866 75.1157 66.674 75.7197 66.674 76.5037C66.674 77.2957 66.866 77.9077 67.25 78.3397C67.634 78.7717 68.138 78.9877 68.762 78.9877C69.242 78.9877 69.642 78.8757 69.962 78.6517C70.282 78.4277 70.502 78.1077 70.622 77.6917H71.798C71.622 78.3637 71.27 78.9037 70.742 79.3117C70.214 79.7117 69.554 79.9117 68.762 79.9117C68.138 79.9117 67.582 79.7717 67.094 79.4917C66.614 79.2117 66.238 78.8157 65.966 78.3037C65.694 77.7917 65.558 77.1917 65.558 76.5037ZM76.1231 79.9117C75.5071 79.9117 74.9471 79.7717 74.4431 79.4917C73.9471 79.2117 73.5551 78.8157 73.2671 78.3037C72.9871 77.7837 72.8471 77.1837 72.8471 76.5037C72.8471 75.8317 72.9911 75.2397 73.2791 74.7277C73.5751 74.2077 73.9751 73.8117 74.4791 73.5397C74.9831 73.2597 75.5471 73.1197 76.1711 73.1197C76.7951 73.1197 77.3591 73.2597 77.8631 73.5397C78.3671 73.8117 78.7631 74.2037 79.0511 74.7157C79.3471 75.2277 79.4951 75.8237 79.4951 76.5037C79.4951 77.1837 79.3431 77.7837 79.0391 78.3037C78.7431 78.8157 78.3391 79.2117 77.8271 79.4917C77.3151 79.7717 76.7471 79.9117 76.1231 79.9117ZM76.1231 78.9517C76.5151 78.9517 76.8831 78.8597 77.2271 78.6757C77.5711 78.4917 77.8471 78.2157 78.0551 77.8477C78.2711 77.4797 78.3791 77.0317 78.3791 76.5037C78.3791 75.9757 78.2751 75.5277 78.0671 75.1597C77.8591 74.7917 77.5871 74.5197 77.2511 74.3437C76.9151 74.1597 76.5511 74.0677 76.1591 74.0677C75.7591 74.0677 75.3911 74.1597 75.0551 74.3437C74.7271 74.5197 74.4631 74.7917 74.2631 75.1597C74.0631 75.5277 73.9631 75.9757 73.9631 76.5037C73.9631 77.0397 74.0591 77.4917 74.2511 77.8597C74.4511 78.2277 74.7151 78.5037 75.0431 78.6877C75.3711 78.8637 75.7311 78.9517 76.1231 78.9517ZM81.4948 72.1597C81.2868 72.1597 81.1108 72.0877 80.9668 71.9437C80.8228 71.7997 80.7508 71.6237 80.7508 71.4157C80.7508 71.2077 80.8228 71.0317 80.9668 70.8877C81.1108 70.7437 81.2868 70.6717 81.4948 70.6717C81.6948 70.6717 81.8628 70.7437 81.9988 70.8877C82.1428 71.0317 82.2148 71.2077 82.2148 71.4157C82.2148 71.6237 82.1428 71.7997 81.9988 71.9437C81.8628 72.0877 81.6948 72.1597 81.4948 72.1597ZM82.0228 73.2277V79.8037H80.9308V73.2277H82.0228ZM87.088 73.1077C87.888 73.1077 88.536 73.3517 89.032 73.8397C89.528 74.3197 89.776 75.0157 89.776 75.9277V79.8037H88.696V76.0837C88.696 75.4277 88.532 74.9277 88.204 74.5837C87.876 74.2317 87.428 74.0557 86.86 74.0557C86.284 74.0557 85.824 74.2357 85.48 74.5957C85.144 74.9557 84.976 75.4797 84.976 76.1677V79.8037H83.884V73.2277H84.976V74.1637C85.192 73.8277 85.484 73.5677 85.852 73.3837C86.228 73.1997 86.64 73.1077 87.088 73.1077Z" fill="white"/>
<defs>
<radialGradient id="paint0_radial" cx="0" cy="0" r="1" gradientUnits="userSpaceOnUse" gradientTransform="translate(61.3879) rotate(90) scale(96 131)">
<stop stop-color="#FF8000"/>
<stop offset="1" stop-color="#E34141"/>
</radialGradient>
</defs>
</svg>
