<svg width="240" height="246" viewBox="0 0 240 246" fill="none" xmlns="http://www.w3.org/2000/svg">
<rect width="240" height="246" rx="10" fill="url(#paint0_linear)"/>
<path d="M104.601 189.86C105.068 189.96 105.444 190.193 105.728 190.561C106.011 190.922 106.153 191.336 106.153 191.803C106.153 192.478 105.915 193.015 105.44 193.413C104.972 193.804 104.317 194 103.474 194H99.713V185.927H103.347C104.167 185.927 104.808 186.115 105.268 186.49C105.735 186.866 105.969 187.376 105.969 188.02C105.969 188.495 105.843 188.89 105.59 189.204C105.344 189.519 105.015 189.737 104.601 189.86ZM101.68 189.193H102.968C103.29 189.193 103.535 189.124 103.704 188.986C103.88 188.84 103.968 188.629 103.968 188.353C103.968 188.077 103.88 187.867 103.704 187.721C103.535 187.575 103.29 187.503 102.968 187.503H101.68V189.193ZM103.129 192.413C103.458 192.413 103.711 192.34 103.888 192.194C104.072 192.041 104.164 191.823 104.164 191.539C104.164 191.255 104.068 191.033 103.876 190.872C103.692 190.711 103.435 190.63 103.106 190.63H101.68V192.413H103.129ZM108.283 186.916C107.938 186.916 107.654 186.816 107.432 186.617C107.217 186.41 107.11 186.157 107.11 185.858C107.11 185.551 107.217 185.298 107.432 185.099C107.654 184.892 107.938 184.788 108.283 184.788C108.62 184.788 108.896 184.892 109.111 185.099C109.333 185.298 109.444 185.551 109.444 185.858C109.444 186.157 109.333 186.41 109.111 186.617C108.896 186.816 108.62 186.916 108.283 186.916ZM109.26 187.583V194H107.294V187.583H109.26ZM114.262 192.332V194H113.261C112.548 194 111.992 193.827 111.594 193.482C111.195 193.13 110.996 192.559 110.996 191.769V189.216H110.214V187.583H110.996V186.019H112.962V187.583H114.25V189.216H112.962V191.792C112.962 191.984 113.008 192.122 113.1 192.206C113.192 192.29 113.346 192.332 113.56 192.332H114.262ZM114.966 190.791C114.966 190.124 115.1 189.542 115.369 189.043C115.645 188.545 116.024 188.162 116.507 187.893C116.998 187.625 117.557 187.491 118.186 187.491C118.991 187.491 119.662 187.702 120.199 188.123C120.743 188.545 121.099 189.139 121.268 189.906H119.175C118.999 189.415 118.658 189.17 118.152 189.17C117.791 189.17 117.504 189.312 117.289 189.595C117.074 189.871 116.967 190.27 116.967 190.791C116.967 191.313 117.074 191.715 117.289 191.999C117.504 192.275 117.791 192.413 118.152 192.413C118.658 192.413 118.999 192.168 119.175 191.677H121.268C121.099 192.428 120.743 193.019 120.199 193.448C119.654 193.877 118.983 194.092 118.186 194.092C117.557 194.092 116.998 193.958 116.507 193.689C116.024 193.421 115.645 193.038 115.369 192.539C115.1 192.041 114.966 191.458 114.966 190.791ZM125.241 194.092C124.612 194.092 124.045 193.958 123.539 193.689C123.041 193.421 122.646 193.038 122.354 192.539C122.071 192.041 121.929 191.458 121.929 190.791C121.929 190.132 122.075 189.553 122.366 189.055C122.657 188.549 123.056 188.162 123.562 187.893C124.068 187.625 124.635 187.491 125.264 187.491C125.893 187.491 126.46 187.625 126.966 187.893C127.472 188.162 127.871 188.549 128.162 189.055C128.453 189.553 128.599 190.132 128.599 190.791C128.599 191.451 128.449 192.033 128.15 192.539C127.859 193.038 127.457 193.421 126.943 193.689C126.437 193.958 125.87 194.092 125.241 194.092ZM125.241 192.39C125.617 192.39 125.935 192.252 126.195 191.976C126.464 191.7 126.598 191.305 126.598 190.791C126.598 190.278 126.468 189.883 126.207 189.607C125.954 189.331 125.64 189.193 125.264 189.193C124.881 189.193 124.562 189.331 124.309 189.607C124.056 189.875 123.93 190.27 123.93 190.791C123.93 191.305 124.053 191.7 124.298 191.976C124.551 192.252 124.865 192.39 125.241 192.39ZM130.631 186.916C130.286 186.916 130.003 186.816 129.78 186.617C129.566 186.41 129.458 186.157 129.458 185.858C129.458 185.551 129.566 185.298 129.78 185.099C130.003 184.892 130.286 184.788 130.631 184.788C130.969 184.788 131.245 184.892 131.459 185.099C131.682 185.298 131.793 185.551 131.793 185.858C131.793 186.157 131.682 186.41 131.459 186.617C131.245 186.816 130.969 186.916 130.631 186.916ZM131.609 187.583V194H129.642V187.583H131.609ZM136.944 187.514C137.695 187.514 138.293 187.759 138.738 188.25C139.19 188.733 139.416 189.4 139.416 190.251V194H137.461V190.515C137.461 190.086 137.35 189.753 137.128 189.515C136.905 189.277 136.606 189.158 136.231 189.158C135.855 189.158 135.556 189.277 135.334 189.515C135.111 189.753 135 190.086 135 190.515V194H133.034V187.583H135V188.434C135.2 188.15 135.468 187.928 135.805 187.767C136.143 187.598 136.522 187.514 136.944 187.514Z" fill="white"/>
<path d="M123.32 107.572C124.852 106.541 125.86 104.791 125.86 102.806C125.86 100.033 123.894 97.7192 121.279 97.1827V95.3411C121.279 95.0249 121.023 94.7676 120.706 94.7676C120.389 94.7676 120.131 95.0249 120.131 95.3411V97.065C120.127 97.065 120.123 97.065 120.119 97.065H117.811V95.3411C117.811 95.0249 117.554 94.7676 117.237 94.7676C116.92 94.7676 116.662 95.0249 116.662 95.3411V97.065H114.012V97.0633H111.508C111.191 97.0633 110.934 97.3207 110.934 97.6377C110.934 97.9547 111.191 98.212 111.508 98.212H113.231V118.879H111.508C111.191 118.879 110.934 119.136 110.934 119.453C110.934 119.77 111.191 120.027 111.508 120.027H116.663V121.749C116.663 122.066 116.92 122.323 117.237 122.323C117.554 122.323 117.811 122.066 117.811 121.749V120.027H120.131V121.749C120.131 122.066 120.389 122.323 120.706 122.323C121.023 122.323 121.279 122.066 121.279 121.749V120.027H121.842C125.329 120.027 128.156 117.2 128.156 113.712C128.156 110.733 126.094 108.238 123.32 107.572ZM114.379 98.2137H120.12C121.346 98.2137 122.499 98.6913 123.366 99.5583C124.234 100.425 124.712 101.579 124.712 102.806C124.712 104.033 124.234 105.186 123.366 106.053C122.52 106.9 121.4 107.376 120.205 107.397H114.379V98.2137ZM125.495 117.366C124.519 118.342 123.222 118.879 121.842 118.879H114.379V108.547H120.12C120.147 108.547 120.175 108.546 120.202 108.545H121.842C123.222 108.545 124.519 109.084 125.495 110.059C126.471 111.035 127.008 112.332 127.008 113.712C127.008 115.093 126.471 116.39 125.495 117.366Z" fill="white"/>
<circle cx="119.545" cy="108.545" r="21.5455" stroke="white" stroke-width="2"/>
<defs>
<linearGradient id="paint0_linear" x1="-53.5938" y1="88.9668" x2="125.671" y2="330.762" gradientUnits="userSpaceOnUse">
<stop stop-color="#FC58B3"/>
<stop offset="1" stop-color="#FEAE68"/>
</linearGradient>
</defs>
</svg>
