<svg width="484" height="207" viewBox="0 0 484 207" fill="none" xmlns="http://www.w3.org/2000/svg">
<path d="M484 -0.856613C484 26.3715 477.74 53.333 465.579 78.4885C453.417 103.644 435.592 126.501 413.12 145.754C390.648 165.007 363.97 180.28 334.609 190.699C305.249 201.119 273.78 206.482 242 206.482C210.22 206.482 178.751 201.119 149.391 190.699C120.03 180.28 93.3519 165.007 70.8801 145.754C48.4084 126.501 30.5828 103.644 18.4211 78.4885C6.25951 53.333 -2.77829e-06 26.3715 0 -0.856631L242 -0.856613H484Z" fill="url(#paint0_linear)"/>
<defs>
<linearGradient id="paint0_linear" x1="286.815" y1="-308.723" x2="584.718" y2="199.777" gradientUnits="userSpaceOnUse">
<stop stop-color="#00E0FF"/>
<stop offset="1" stop-color="#0047FF"/>
</linearGradient>
</defs>
</svg>
