<svg width="16" height="12" viewBox="0 0 16 12" fill="none" xmlns="http://www.w3.org/2000/svg">
<path d="M2.41761 1H11.8605C12.4375 1 12.9097 1.47214 12.9097 2.04921V7.81984C12.9097 8.3969 12.4375 8.86904 11.8605 8.86904H2.41761C1.84055 8.86904 1.36841 8.3969 1.36841 7.81984V2.04921C1.36841 1.47214 1.84055 1 2.41761 1Z" stroke="white" stroke-linecap="round" stroke-linejoin="round"/>
<path d="M12.9096 3.62305H13.9589C14.5359 3.62305 15.0081 4.09519 15.0081 4.67225V9.91828C15.0081 10.4953 14.5359 10.9675 13.9589 10.9675H4.516C3.93894 10.9675 3.4668 10.4953 3.4668 9.91828V8.86908" stroke="white" stroke-linecap="round" stroke-linejoin="round"/>
<path d="M1.36841 3.09766H12.9097" stroke="white" stroke-linecap="round" stroke-linejoin="round"/>
<path d="M3.4668 6.77148H5.04061" stroke="white" stroke-linecap="round" stroke-linejoin="round"/>
<path d="M9.23779 6.77148V7.29609" stroke="white" stroke-linecap="round" stroke-linejoin="round"/>
<path d="M10.8115 6.77148V7.29609" stroke="white" stroke-linecap="round" stroke-linejoin="round"/>
</svg>
