<svg width="18" height="18" viewBox="0 0 18 18" fill="none" xmlns="http://www.w3.org/2000/svg">
<path fill-rule="evenodd" clip-rule="evenodd" d="M6.23077 0H15.4615C16.8635 0 18 1.13651 18 2.53846V11.7692C18 13.1712 16.8635 14.3077 15.4615 14.3077H14.3077V15.5934C14.3077 16.9225 13.2302 18 11.9011 18H3.46154C1.54978 18 0 16.4502 0 14.5385V6.0989C0 4.76978 1.07747 3.69231 2.40659 3.69231H3.69231V2.53846C3.69231 1.13651 4.82882 0 6.23077 0ZM3.69231 5.07692H2.40659C1.84217 5.07692 1.38462 5.53448 1.38462 6.0989V14.5385C1.38462 15.6855 2.31449 16.6154 3.46154 16.6154H11.9011C12.4655 16.6154 12.9231 16.1578 12.9231 15.5934V14.3077H6.23077C4.82882 14.3077 3.69231 13.1712 3.69231 11.7692V5.07692ZM6.23077 1.38462C5.59352 1.38462 5.07692 1.90121 5.07692 2.53846V11.7692C5.07692 12.4065 5.59352 12.9231 6.23077 12.9231H15.4615C16.0988 12.9231 16.6154 12.4065 16.6154 11.7692V2.53846C16.6154 1.90121 16.0988 1.38462 15.4615 1.38462H6.23077Z" fill="#BDBDBD"/>
</svg>
