<svg width="204" height="204" viewBox="0 0 204 204" fill="none" xmlns="http://www.w3.org/2000/svg">
<mask id="path-1-inside-1" fill="white">
<path d="M204 102C204 158.333 158.333 204 102 204C45.667 204 0 158.333 0 102C0 45.667 45.667 0 102 0C158.333 0 204 45.667 204 102ZM50.7881 102C50.7881 130.284 73.7165 153.212 102 153.212C130.284 153.212 153.212 130.284 153.212 102C153.212 73.7165 130.284 50.7881 102 50.7881C73.7165 50.7881 50.7881 73.7165 50.7881 102Z"/>
</mask>
<path d="M204 102C204 158.333 158.333 204 102 204C45.667 204 0 158.333 0 102C0 45.667 45.667 0 102 0C158.333 0 204 45.667 204 102ZM50.7881 102C50.7881 130.284 73.7165 153.212 102 153.212C130.284 153.212 153.212 130.284 153.212 102C153.212 73.7165 130.284 50.7881 102 50.7881C73.7165 50.7881 50.7881 73.7165 50.7881 102Z" stroke="white" stroke-width="4" mask="url(#path-1-inside-1)"/>
</svg>
