<svg width="240" height="246" viewBox="0 0 240 246" fill="none" xmlns="http://www.w3.org/2000/svg">
<rect width="240" height="246" rx="10" fill="url(#paint0_linear)"/>
<path d="M128.628 104.724C128.499 104.844 129.002 104.651 119.697 107.6C119.479 107.669 119.942 107.773 110.645 104.827C110.644 104.827 110.643 104.826 110.643 104.826C110.353 104.735 110.237 104.404 110.319 104.199C110.319 104.099 110.25 104.238 119.15 92.7385C119.352 92.4804 119.74 92.4804 119.942 92.7385C128.911 104.327 128.773 104.096 128.773 104.199C128.838 104.361 128.766 104.618 128.628 104.724Z" fill="white"/>
<path d="M119.162 124.366L110.412 113.914C110.092 113.532 110.472 112.966 110.947 113.117L119.546 115.842L128.145 113.117C128.62 112.966 128.999 113.532 128.679 113.914L119.929 124.366C119.729 124.605 119.362 124.605 119.162 124.366Z" fill="white"/>
<path d="M128.447 111.937C119.06 114.912 119.662 114.733 119.546 114.733C119.424 114.733 119.999 114.902 110.645 111.937C110.181 111.789 110.181 111.131 110.645 110.983L113.008 110.234C113.12 110.199 112.735 110.099 119.395 112.21C119.489 112.24 119.597 112.242 119.697 112.21L125.932 110.234C126.039 110.2 125.877 110.169 128.447 110.983C128.911 111.131 128.911 111.789 128.447 111.937Z" fill="white"/>
<path d="M128.447 108.386C119.06 111.361 119.662 111.182 119.546 111.182C119.424 111.182 119.999 111.351 110.645 108.386C110.181 108.238 110.181 107.58 110.645 107.432C113.209 106.619 113.052 106.649 113.16 106.683C119.86 108.807 119.43 108.682 119.546 108.682C119.662 108.682 119.23 108.807 125.932 106.683C126.039 106.649 125.879 106.618 128.447 107.432C128.911 107.58 128.911 108.238 128.447 108.386Z" fill="white"/>
<circle cx="119.545" cy="108.545" r="21.5455" stroke="white" stroke-width="2"/>
<path d="M93.6795 187.503V189.135H96.313V190.653H93.6795V192.424H96.658V194H91.713V185.927H96.658V187.503H93.6795ZM101.511 192.332V194H100.511C99.7977 194 99.2418 193.827 98.8432 193.482C98.4445 193.13 98.2452 192.559 98.2452 191.769V189.216H97.4632V187.583H98.2452V186.019H100.212V187.583H101.5V189.216H100.212V191.792C100.212 191.984 100.258 192.122 100.35 192.206C100.442 192.29 100.595 192.332 100.81 192.332H101.511ZM106.551 187.514C107.287 187.514 107.877 187.759 108.322 188.25C108.767 188.733 108.989 189.4 108.989 190.251V194H107.034V190.515C107.034 190.086 106.923 189.753 106.701 189.515C106.478 189.277 106.179 189.158 105.804 189.158C105.428 189.158 105.129 189.277 104.907 189.515C104.684 189.753 104.573 190.086 104.573 190.515V194H102.607V185.49H104.573V188.445C104.772 188.162 105.045 187.936 105.39 187.767C105.735 187.598 106.122 187.514 106.551 187.514ZM116.405 190.688C116.405 190.872 116.393 191.064 116.37 191.263H111.92C111.95 191.662 112.077 191.968 112.299 192.183C112.529 192.39 112.809 192.493 113.139 192.493C113.629 192.493 113.97 192.286 114.162 191.872H116.255C116.148 192.294 115.952 192.674 115.669 193.011C115.393 193.348 115.044 193.613 114.622 193.804C114.2 193.996 113.729 194.092 113.208 194.092C112.579 194.092 112.019 193.958 111.529 193.689C111.038 193.421 110.655 193.038 110.379 192.539C110.103 192.041 109.965 191.458 109.965 190.791C109.965 190.124 110.099 189.542 110.367 189.043C110.643 188.545 111.026 188.162 111.517 187.893C112.008 187.625 112.571 187.491 113.208 187.491C113.829 187.491 114.381 187.621 114.864 187.882C115.347 188.143 115.722 188.514 115.991 188.997C116.267 189.48 116.405 190.044 116.405 190.688ZM114.392 190.17C114.392 189.833 114.277 189.565 114.047 189.365C113.817 189.166 113.53 189.066 113.185 189.066C112.855 189.066 112.575 189.162 112.345 189.354C112.123 189.546 111.985 189.818 111.931 190.17H114.392ZM119.409 188.652C119.639 188.3 119.926 188.024 120.271 187.824C120.616 187.617 120.999 187.514 121.421 187.514V189.595H120.881C120.39 189.595 120.022 189.703 119.777 189.917C119.531 190.124 119.409 190.492 119.409 191.021V194H117.442V187.583H119.409V188.652ZM128.41 190.688C128.41 190.872 128.398 191.064 128.375 191.263H123.925C123.956 191.662 124.082 191.968 124.304 192.183C124.534 192.39 124.814 192.493 125.144 192.493C125.635 192.493 125.976 192.286 126.167 191.872H128.26C128.153 192.294 127.958 192.674 127.674 193.011C127.398 193.348 127.049 193.613 126.627 193.804C126.206 193.996 125.734 194.092 125.213 194.092C124.584 194.092 124.025 193.958 123.534 193.689C123.043 193.421 122.66 193.038 122.384 192.539C122.108 192.041 121.97 191.458 121.97 190.791C121.97 190.124 122.104 189.542 122.372 189.043C122.648 188.545 123.032 188.162 123.522 187.893C124.013 187.625 124.577 187.491 125.213 187.491C125.834 187.491 126.386 187.621 126.869 187.882C127.352 188.143 127.728 188.514 127.996 188.997C128.272 189.48 128.41 190.044 128.41 190.688ZM126.397 190.17C126.397 189.833 126.282 189.565 126.052 189.365C125.822 189.166 125.535 189.066 125.19 189.066C124.86 189.066 124.58 189.162 124.35 189.354C124.128 189.546 123.99 189.818 123.936 190.17H126.397ZM135.784 187.583V194H133.817V193.126C133.618 193.41 133.346 193.64 133.001 193.816C132.664 193.985 132.288 194.069 131.874 194.069C131.383 194.069 130.95 193.962 130.574 193.747C130.199 193.525 129.907 193.206 129.7 192.792C129.493 192.378 129.39 191.892 129.39 191.332V187.583H131.345V191.067C131.345 191.497 131.456 191.83 131.678 192.068C131.901 192.306 132.2 192.424 132.575 192.424C132.959 192.424 133.262 192.306 133.484 192.068C133.706 191.83 133.817 191.497 133.817 191.067V187.583H135.784ZM145.384 187.514C146.182 187.514 146.814 187.755 147.282 188.238C147.757 188.721 147.995 189.392 147.995 190.251V194H146.04V190.515C146.04 190.101 145.929 189.783 145.706 189.561C145.492 189.331 145.193 189.216 144.809 189.216C144.426 189.216 144.123 189.331 143.901 189.561C143.686 189.783 143.579 190.101 143.579 190.515V194H141.624V190.515C141.624 190.101 141.513 189.783 141.29 189.561C141.076 189.331 140.777 189.216 140.393 189.216C140.01 189.216 139.707 189.331 139.485 189.561C139.27 189.783 139.163 190.101 139.163 190.515V194H137.196V187.583H139.163V188.388C139.362 188.12 139.623 187.909 139.945 187.755C140.267 187.594 140.631 187.514 141.037 187.514C141.52 187.514 141.95 187.617 142.325 187.824C142.709 188.031 143.008 188.327 143.222 188.71C143.445 188.357 143.748 188.07 144.131 187.847C144.514 187.625 144.932 187.514 145.384 187.514Z" fill="white"/>
<defs>
<linearGradient id="paint0_linear" x1="142.222" y1="-59.6364" x2="332.663" y2="212.081" gradientUnits="userSpaceOnUse">
<stop stop-color="#00E0FF"/>
<stop offset="1" stop-color="#0047FF"/>
</linearGradient>
</defs>
</svg>
