<svg width="138" height="96" viewBox="0 0 138 96" fill="none" xmlns="http://www.w3.org/2000/svg">
<rect width="137.968" height="95.86" rx="15" fill="url(#paint0_linear)"/>
<path d="M69.0615 43.3313L63.6086 40.7373L69.0615 50.2665L74.5144 40.7373L69.0615 43.3313Z" fill="white"/>
<path d="M73.9208 38.8047L69.0616 30.3652L64.197 38.8144L69.0616 36.5067L73.9208 38.8047Z" fill="white"/>
<path d="M64.6187 39.9086L69.0616 42.0131L73.512 39.9051L69.0616 37.8008L64.6187 39.9086Z" fill="white"/>
<path d="M47.7589 72.2359V75.0319H50.8069V75.9319H47.7589V78.8119H51.1669V79.7119H46.6669V71.3359H51.1669V72.2359H47.7589ZM54.1513 74.0359V77.9119C54.1513 78.2319 54.2193 78.4599 54.3553 78.5959C54.4913 78.7239 54.7273 78.7879 55.0633 78.7879H55.8673V79.7119H54.8833C54.2753 79.7119 53.8193 79.5719 53.5153 79.2919C53.2113 79.0119 53.0593 78.5519 53.0593 77.9119V74.0359H52.2073V73.1359H53.0593V71.4799H54.1513V73.1359H55.8673V74.0359H54.1513ZM60.4544 73.0159C60.9504 73.0159 61.3984 73.1239 61.7984 73.3399C62.1984 73.5479 62.5104 73.8639 62.7344 74.2879C62.9664 74.7119 63.0824 75.2279 63.0824 75.8359V79.7119H62.0024V75.9919C62.0024 75.3359 61.8384 74.8359 61.5104 74.4919C61.1824 74.1399 60.7344 73.9639 60.1664 73.9639C59.5904 73.9639 59.1304 74.1439 58.7864 74.5039C58.4504 74.8639 58.2824 75.3879 58.2824 76.0759V79.7119H57.1904V70.8319H58.2824V74.0719C58.4984 73.7359 58.7944 73.4759 59.1704 73.2919C59.5544 73.1079 59.9824 73.0159 60.4544 73.0159ZM70.8661 76.1719C70.8661 76.3799 70.8541 76.5999 70.8301 76.8319H65.5741C65.6141 77.4799 65.8341 77.9879 66.2341 78.3559C66.6421 78.7159 67.1341 78.8959 67.7101 78.8959C68.1821 78.8959 68.5741 78.7879 68.8861 78.5719C69.2061 78.3479 69.4301 78.0519 69.5581 77.6839H70.7341C70.5581 78.3159 70.2061 78.8319 69.6781 79.2319C69.1501 79.6239 68.4941 79.8199 67.7101 79.8199C67.0861 79.8199 66.5261 79.6799 66.0301 79.3999C65.5421 79.1199 65.1581 78.7239 64.8781 78.2119C64.5981 77.6919 64.4581 77.0919 64.4581 76.4119C64.4581 75.7319 64.5941 75.1359 64.8661 74.6239C65.1381 74.1119 65.5181 73.7199 66.0061 73.4479C66.5021 73.1679 67.0701 73.0279 67.7101 73.0279C68.3341 73.0279 68.8861 73.1639 69.3661 73.4359C69.8461 73.7079 70.2141 74.0839 70.4701 74.5639C70.7341 75.0359 70.8661 75.5719 70.8661 76.1719ZM69.7381 75.9439C69.7381 75.5279 69.6461 75.1719 69.4621 74.8759C69.2781 74.5719 69.0261 74.3439 68.7061 74.1919C68.3941 74.0319 68.0461 73.9519 67.6621 73.9519C67.1101 73.9519 66.6381 74.1279 66.2461 74.4799C65.8621 74.8319 65.6421 75.3199 65.5861 75.9439H69.7381ZM73.3995 74.2039C73.5915 73.8279 73.8635 73.5359 74.2155 73.3279C74.5755 73.1199 75.0115 73.0159 75.5235 73.0159V74.1439H75.2355C74.0115 74.1439 73.3995 74.8079 73.3995 76.1359V79.7119H72.3075V73.1359H73.3995V74.2039ZM82.7841 76.1719C82.7841 76.3799 82.7721 76.5999 82.7481 76.8319H77.4921C77.5321 77.4799 77.7521 77.9879 78.1521 78.3559C78.5601 78.7159 79.0521 78.8959 79.6281 78.8959C80.1001 78.8959 80.4921 78.7879 80.8041 78.5719C81.1241 78.3479 81.3481 78.0519 81.4761 77.6839H82.6521C82.4761 78.3159 82.1241 78.8319 81.5961 79.2319C81.0681 79.6239 80.4121 79.8199 79.6281 79.8199C79.0041 79.8199 78.4441 79.6799 77.9481 79.3999C77.4601 79.1199 77.0761 78.7239 76.7961 78.2119C76.5161 77.6919 76.3761 77.0919 76.3761 76.4119C76.3761 75.7319 76.5121 75.1359 76.7841 74.6239C77.0561 74.1119 77.4361 73.7199 77.9241 73.4479C78.4201 73.1679 78.9881 73.0279 79.6281 73.0279C80.2521 73.0279 80.8041 73.1639 81.2841 73.4359C81.7641 73.7079 82.1321 74.0839 82.3881 74.5639C82.6521 75.0359 82.7841 75.5719 82.7841 76.1719ZM81.6561 75.9439C81.6561 75.5279 81.5641 75.1719 81.3801 74.8759C81.1961 74.5719 80.9441 74.3439 80.6241 74.1919C80.3121 74.0319 79.9641 73.9519 79.5801 73.9519C79.0281 73.9519 78.5561 74.1279 78.1641 74.4799C77.7801 74.8319 77.5601 75.3199 77.5041 75.9439H81.6561ZM90.0575 73.1359V79.7119H88.9655V78.7399C88.7575 79.0759 88.4655 79.3399 88.0895 79.5319C87.7215 79.7159 87.3135 79.8079 86.8655 79.8079C86.3535 79.8079 85.8935 79.7039 85.4855 79.4959C85.0775 79.2799 84.7535 78.9599 84.5135 78.5359C84.2815 78.1119 84.1655 77.5959 84.1655 76.9879V73.1359H85.2455V76.8439C85.2455 77.4919 85.4095 77.9919 85.7375 78.3439C86.0655 78.6879 86.5135 78.8599 87.0815 78.8599C87.6655 78.8599 88.1255 78.6799 88.4615 78.3199C88.7975 77.9599 88.9655 77.4359 88.9655 76.7479V73.1359H90.0575ZM99.8093 73.0159C100.321 73.0159 100.777 73.1239 101.177 73.3399C101.577 73.5479 101.893 73.8639 102.125 74.2879C102.357 74.7119 102.473 75.2279 102.473 75.8359V79.7119H101.393V75.9919C101.393 75.3359 101.229 74.8359 100.901 74.4919C100.581 74.1399 100.145 73.9639 99.5933 73.9639C99.0253 73.9639 98.5733 74.1479 98.2373 74.5159C97.9013 74.8759 97.7333 75.3999 97.7333 76.0879V79.7119H96.6533V75.9919C96.6533 75.3359 96.4893 74.8359 96.1613 74.4919C95.8413 74.1399 95.4053 73.9639 94.8533 73.9639C94.2853 73.9639 93.8333 74.1479 93.4973 74.5159C93.1613 74.8759 92.9933 75.3999 92.9933 76.0879V79.7119H91.9013V73.1359H92.9933V74.0839C93.2093 73.7399 93.4973 73.4759 93.8573 73.2919C94.2253 73.1079 94.6293 73.0159 95.0693 73.0159C95.6213 73.0159 96.1093 73.1399 96.5333 73.3879C96.9573 73.6359 97.2733 73.9999 97.4813 74.4799C97.6653 74.0159 97.9693 73.6559 98.3933 73.3999C98.8173 73.1439 99.2893 73.0159 99.8093 73.0159Z" fill="white"/>
<defs>
<linearGradient id="paint0_linear" x1="81.7587" y1="-23.2388" x2="142.959" y2="105.579" gradientUnits="userSpaceOnUse">
<stop stop-color="#00E0FF"/>
<stop offset="1" stop-color="#0047FF"/>
</linearGradient>
</defs>
</svg>
