<svg width="186" height="141" viewBox="0 0 186 141" fill="none" xmlns="http://www.w3.org/2000/svg">
<rect x="1.26953" y="0.5" width="183.385" height="140" rx="9.5" fill="white" stroke="#D5D5D5"/>
<path d="M59.3855 110.92C59.2778 110.722 59.122 110.571 58.918 110.469C58.7196 110.362 58.4845 110.308 58.2125 110.308C57.7421 110.308 57.3653 110.464 57.082 110.775C56.7986 111.081 56.657 111.492 56.657 112.008C56.657 112.558 56.8043 112.988 57.099 113.3C57.3993 113.606 57.8101 113.759 58.3315 113.759C58.6885 113.759 58.9888 113.668 59.2325 113.487C59.4818 113.306 59.6631 113.045 59.7765 112.705H57.932V111.634H61.094V112.985C60.9863 113.348 60.8021 113.685 60.5415 113.997C60.2865 114.309 59.9606 114.561 59.564 114.753C59.1673 114.946 58.7196 115.043 58.221 115.043C57.6316 115.043 57.1046 114.915 56.64 114.66C56.181 114.399 55.8211 114.039 55.5605 113.58C55.3055 113.121 55.178 112.597 55.178 112.008C55.178 111.419 55.3055 110.894 55.5605 110.435C55.8211 109.971 56.181 109.611 56.64 109.356C57.099 109.095 57.6231 108.965 58.2125 108.965C58.9265 108.965 59.5271 109.138 60.0145 109.483C60.5075 109.829 60.8333 110.308 60.992 110.92H59.3855ZM64.0581 115.068C63.5934 115.068 63.1741 114.969 62.8001 114.77C62.4317 114.572 62.1399 114.289 61.9246 113.92C61.7149 113.552 61.6101 113.121 61.6101 112.628C61.6101 112.141 61.7177 111.713 61.9331 111.345C62.1484 110.971 62.4431 110.685 62.8171 110.486C63.1911 110.288 63.6104 110.189 64.0751 110.189C64.5397 110.189 64.9591 110.288 65.3331 110.486C65.7071 110.685 66.0017 110.971 66.2171 111.345C66.4324 111.713 66.5401 112.141 66.5401 112.628C66.5401 113.116 66.4296 113.546 66.2086 113.92C65.9932 114.289 65.6957 114.572 65.3161 114.77C64.9421 114.969 64.5227 115.068 64.0581 115.068ZM64.0581 113.81C64.3357 113.81 64.5709 113.708 64.7636 113.504C64.9619 113.3 65.0611 113.008 65.0611 112.628C65.0611 112.249 64.9647 111.957 64.7721 111.753C64.5851 111.549 64.3527 111.447 64.0751 111.447C63.7917 111.447 63.5566 111.549 63.3696 111.753C63.1826 111.951 63.0891 112.243 63.0891 112.628C63.0891 113.008 63.1797 113.3 63.3611 113.504C63.5481 113.708 63.7804 113.81 64.0581 113.81ZM69.4702 115.068C69.0055 115.068 68.5862 114.969 68.2122 114.77C67.8438 114.572 67.552 114.289 67.3367 113.92C67.127 113.552 67.0222 113.121 67.0222 112.628C67.0222 112.141 67.1298 111.713 67.3452 111.345C67.5605 110.971 67.8552 110.685 68.2292 110.486C68.6032 110.288 69.0225 110.189 69.4872 110.189C69.9518 110.189 70.3712 110.288 70.7452 110.486C71.1192 110.685 71.4138 110.971 71.6292 111.345C71.8445 111.713 71.9522 112.141 71.9522 112.628C71.9522 113.116 71.8417 113.546 71.6207 113.92C71.4053 114.289 71.1078 114.572 70.7282 114.77C70.3542 114.969 69.9348 115.068 69.4702 115.068ZM69.4702 113.81C69.7478 113.81 69.983 113.708 70.1757 113.504C70.374 113.3 70.4732 113.008 70.4732 112.628C70.4732 112.249 70.3768 111.957 70.1842 111.753C69.9972 111.549 69.7648 111.447 69.4872 111.447C69.2038 111.447 68.9687 111.549 68.7817 111.753C68.5947 111.951 68.5012 112.243 68.5012 112.628C68.5012 113.008 68.5918 113.3 68.7732 113.504C68.9602 113.708 69.1925 113.81 69.4702 113.81ZM74.5253 110.189C74.8596 110.189 75.1515 110.257 75.4008 110.393C75.6558 110.529 75.8513 110.707 75.9873 110.928V110.257H77.4408V114.991C77.4408 115.428 77.353 115.822 77.1773 116.173C77.0073 116.53 76.7438 116.813 76.3868 117.023C76.0355 117.233 75.5963 117.338 75.0693 117.338C74.3666 117.338 73.7971 117.17 73.3608 116.836C72.9245 116.507 72.6751 116.06 72.6128 115.493H74.0493C74.0946 115.674 74.2023 115.816 74.3723 115.918C74.5423 116.026 74.752 116.08 75.0013 116.08C75.3016 116.08 75.5396 115.992 75.7153 115.816C75.8966 115.646 75.9873 115.371 75.9873 114.991V114.32C75.8456 114.541 75.6501 114.722 75.4008 114.864C75.1515 115 74.8596 115.068 74.5253 115.068C74.1343 115.068 73.7801 114.969 73.4628 114.77C73.1455 114.566 72.8933 114.28 72.7063 113.912C72.525 113.538 72.4343 113.107 72.4343 112.62C72.4343 112.133 72.525 111.705 72.7063 111.336C72.8933 110.968 73.1455 110.685 73.4628 110.486C73.7801 110.288 74.1343 110.189 74.5253 110.189ZM75.9873 112.628C75.9873 112.266 75.8853 111.98 75.6813 111.77C75.483 111.56 75.2393 111.455 74.9503 111.455C74.6613 111.455 74.4148 111.56 74.2108 111.77C74.0125 111.974 73.9133 112.257 73.9133 112.62C73.9133 112.983 74.0125 113.272 74.2108 113.487C74.4148 113.697 74.6613 113.801 74.9503 113.801C75.2393 113.801 75.483 113.697 75.6813 113.487C75.8853 113.277 75.9873 112.991 75.9873 112.628ZM79.9458 108.71V115H78.4923V108.71H79.9458ZM85.4702 112.552C85.4702 112.688 85.4617 112.83 85.4447 112.977H82.1552C82.1778 113.272 82.2713 113.498 82.4357 113.657C82.6057 113.81 82.8125 113.886 83.0562 113.886C83.4188 113.886 83.671 113.733 83.8127 113.427H85.3597C85.2803 113.739 85.1358 114.02 84.9262 114.269C84.7222 114.518 84.4643 114.714 84.1527 114.855C83.841 114.997 83.4925 115.068 83.1072 115.068C82.6425 115.068 82.2288 114.969 81.8662 114.77C81.5035 114.572 81.2202 114.289 81.0162 113.92C80.8122 113.552 80.7102 113.121 80.7102 112.628C80.7102 112.135 80.8093 111.705 81.0077 111.336C81.2117 110.968 81.495 110.685 81.8577 110.486C82.2203 110.288 82.6368 110.189 83.1072 110.189C83.5662 110.189 83.9742 110.285 84.3312 110.478C84.6882 110.671 84.9658 110.945 85.1642 111.302C85.3682 111.659 85.4702 112.076 85.4702 112.552ZM83.9827 112.169C83.9827 111.92 83.8977 111.722 83.7277 111.574C83.5577 111.427 83.3452 111.353 83.0902 111.353C82.8465 111.353 82.6397 111.424 82.4697 111.566C82.3053 111.708 82.2033 111.909 82.1637 112.169H83.9827ZM92.5857 110.954C92.5857 111.3 92.5064 111.617 92.3477 111.906C92.1891 112.189 91.9454 112.419 91.6167 112.594C91.2881 112.77 90.8801 112.858 90.3927 112.858H89.4917V115H88.0382V109.033H90.3927C90.8687 109.033 91.2711 109.115 91.5997 109.279C91.9284 109.444 92.1749 109.67 92.3392 109.959C92.5036 110.248 92.5857 110.58 92.5857 110.954ZM90.2822 111.702C90.5599 111.702 90.7667 111.637 90.9027 111.506C91.0387 111.376 91.1067 111.192 91.1067 110.954C91.1067 110.716 91.0387 110.532 90.9027 110.401C90.7667 110.271 90.5599 110.206 90.2822 110.206H89.4917V111.702H90.2822ZM94.7959 108.71V115H93.3424V108.71H94.7959ZM95.5603 112.62C95.5603 112.133 95.6509 111.705 95.8323 111.336C96.0193 110.968 96.2714 110.685 96.5888 110.486C96.9061 110.288 97.2603 110.189 97.6513 110.189C97.9856 110.189 98.2774 110.257 98.5268 110.393C98.7818 110.529 98.9773 110.707 99.1133 110.928V110.257H100.567V115H99.1133V114.328C98.9716 114.549 98.7733 114.728 98.5183 114.864C98.2689 115 97.9771 115.068 97.6428 115.068C97.2574 115.068 96.9061 114.969 96.5888 114.77C96.2714 114.566 96.0193 114.28 95.8323 113.912C95.6509 113.538 95.5603 113.107 95.5603 112.62ZM99.1133 112.628C99.1133 112.266 99.0113 111.98 98.8073 111.77C98.6089 111.56 98.3653 111.455 98.0763 111.455C97.7873 111.455 97.5408 111.56 97.3368 111.77C97.1384 111.974 97.0393 112.257 97.0393 112.62C97.0393 112.983 97.1384 113.272 97.3368 113.487C97.5408 113.697 97.7873 113.801 98.0763 113.801C98.3653 113.801 98.6089 113.697 98.8073 113.487C99.0113 113.277 99.1133 112.991 99.1133 112.628ZM106.463 110.257L103.488 117.253H101.924L103.012 114.838L101.083 110.257H102.706L103.803 113.223L104.891 110.257H106.463ZM108.544 112.008C108.544 111.419 108.671 110.894 108.926 110.435C109.181 109.971 109.535 109.611 109.989 109.356C110.448 109.095 110.966 108.965 111.544 108.965C112.253 108.965 112.859 109.152 113.363 109.526C113.868 109.9 114.205 110.41 114.375 111.056H112.777C112.658 110.807 112.488 110.617 112.267 110.486C112.051 110.356 111.805 110.291 111.527 110.291C111.08 110.291 110.717 110.447 110.439 110.758C110.162 111.07 110.023 111.487 110.023 112.008C110.023 112.529 110.162 112.946 110.439 113.257C110.717 113.569 111.08 113.725 111.527 113.725C111.805 113.725 112.051 113.66 112.267 113.529C112.488 113.399 112.658 113.209 112.777 112.96H114.375C114.205 113.606 113.868 114.116 113.363 114.49C112.859 114.858 112.253 115.043 111.544 115.043C110.966 115.043 110.448 114.915 109.989 114.66C109.535 114.399 109.181 114.039 108.926 113.58C108.671 113.121 108.544 112.597 108.544 112.008ZM114.976 112.62C114.976 112.133 115.066 111.705 115.248 111.336C115.435 110.968 115.687 110.685 116.004 110.486C116.322 110.288 116.676 110.189 117.067 110.189C117.401 110.189 117.693 110.257 117.942 110.393C118.197 110.529 118.393 110.707 118.529 110.928V110.257H119.982V115H118.529V114.328C118.387 114.549 118.189 114.728 117.934 114.864C117.684 115 117.393 115.068 117.058 115.068C116.673 115.068 116.322 114.969 116.004 114.77C115.687 114.566 115.435 114.28 115.248 113.912C115.066 113.538 114.976 113.107 114.976 112.62ZM118.529 112.628C118.529 112.266 118.427 111.98 118.223 111.77C118.024 111.56 117.781 111.455 117.492 111.455C117.203 111.455 116.956 111.56 116.752 111.77C116.554 111.974 116.455 112.257 116.455 112.62C116.455 112.983 116.554 113.272 116.752 113.487C116.956 113.697 117.203 113.801 117.492 113.801C117.781 113.801 118.024 113.697 118.223 113.487C118.427 113.277 118.529 112.991 118.529 112.628ZM122.487 111.047C122.657 110.787 122.87 110.583 123.125 110.435C123.38 110.282 123.663 110.206 123.975 110.206V111.744H123.575C123.213 111.744 122.941 111.824 122.759 111.982C122.578 112.135 122.487 112.407 122.487 112.798V115H121.034V110.257H122.487V111.047ZM124.381 112.62C124.381 112.133 124.471 111.705 124.653 111.336C124.84 110.968 125.092 110.685 125.409 110.486C125.726 110.288 126.081 110.189 126.472 110.189C126.783 110.189 127.067 110.254 127.322 110.384C127.582 110.515 127.786 110.69 127.934 110.911V108.71H129.387V115H127.934V114.32C127.798 114.547 127.602 114.728 127.347 114.864C127.098 115 126.806 115.068 126.472 115.068C126.081 115.068 125.726 114.969 125.409 114.77C125.092 114.566 124.84 114.28 124.653 113.912C124.471 113.538 124.381 113.107 124.381 112.62ZM127.934 112.628C127.934 112.266 127.832 111.98 127.628 111.77C127.429 111.56 127.186 111.455 126.897 111.455C126.608 111.455 126.361 111.56 126.157 111.77C125.959 111.974 125.86 112.257 125.86 112.62C125.86 112.983 125.959 113.272 126.157 113.487C126.361 113.697 126.608 113.801 126.897 113.801C127.186 113.801 127.429 113.697 127.628 113.487C127.832 113.277 127.934 112.991 127.934 112.628Z" fill="#858585"/>
<path d="M106.814 62.204L101.236 58.9824L93.5935 64.6928L101.236 70.4032L106.833 67.1705C107.706 66.6403 108.227 65.7138 108.227 64.6929C108.227 63.6721 107.706 62.7456 106.814 62.204Z" fill="#FF9100"/>
<path d="M95.5264 64.6939C95.5181 64.7047 88.7691 73.3819 88.7637 73.389L79.972 80.3128C79.431 79.7717 79.1025 79.0376 79.1025 78.2259V51.1141C79.1025 50.3026 79.431 49.5683 79.972 49.0273L88.7637 55.9989C88.7691 56.006 95.5181 64.6832 95.5264 64.6939Z" fill="#25D9F8"/>
<path d="M95.5257 64.6938L93.5935 67.1863V62.2012L95.5257 64.6938Z" fill="#00C0F1"/>
<path d="M101.246 58.9739L95.5266 64.6934L79.9722 49.0268C80.1653 48.8529 80.3586 48.7176 80.5712 48.5823C81.4986 48.0607 82.6 48.08 83.5082 48.6404L93.5944 54.5685L101.246 58.9739Z" fill="#7FE881"/>
<path d="M101.245 58.9738L95.5257 64.6932L93.5935 62.761V54.5684L101.245 58.9738Z" fill="#5BC980"/>
<path d="M101.246 70.4127L93.5944 74.8182L83.4889 80.7179C83.0251 80.9884 82.5228 81.143 82.001 81.143C81.5179 81.143 81.0349 81.0077 80.5712 80.7565C80.3586 80.6213 80.1653 80.4861 79.9722 80.3122L95.5266 64.6934L101.246 70.4127Z" fill="#FF637B"/>
<path d="M101.245 70.4127L93.5935 74.8182V66.6256L95.5257 64.6934L101.245 70.4127Z" fill="#E63950"/>
</svg>
