<svg width="131" height="96" viewBox="0 0 131 96" fill="none" xmlns="http://www.w3.org/2000/svg">
<rect width="131" height="96" rx="15" fill="url(#paint0_linear)"/>
<g clip-path="url(#clip0)">
<path d="M52.4075 31.4127C49.4891 36.8821 51.3444 45.1822 54.5716 50.2148C56.1825 52.7309 57.8135 54.9894 60.0473 54.9894C60.0894 54.9894 60.1317 54.9885 60.1749 54.9867C61.2244 54.9415 61.9829 54.5925 62.7162 54.2553C63.5394 53.8763 64.3909 53.4846 65.7264 53.4846C66.997 53.4846 67.8078 53.8636 68.592 54.2301C69.3648 54.5912 70.1608 54.9647 71.3369 54.9409C73.8532 54.8903 75.3981 52.4532 76.7611 50.3032C78.1835 48.0583 78.897 45.8788 79.1377 45.0459L79.1475 45.0127C79.1933 44.8647 79.1286 44.7031 78.9972 44.638C78.9935 44.6361 78.9802 44.6301 78.9764 44.6284C78.5333 44.4327 74.6465 42.5705 74.6056 37.4948C74.5677 33.3711 77.5215 31.1874 78.1139 30.7916L78.1415 30.773C78.2057 30.7284 78.2504 30.6576 78.2656 30.5767C78.2807 30.4959 78.2649 30.4118 78.2219 30.3438C76.183 27.1215 73.0581 26.6359 71.8 26.5774C71.6174 26.5578 71.429 26.5479 71.2397 26.5479C69.762 26.5479 68.3465 27.1506 67.2092 27.6349C66.4242 27.9692 65.7461 28.2579 65.2785 28.2579C64.753 28.2579 64.071 27.9657 63.2814 27.6273C62.2254 27.1747 61.0285 26.6618 59.7614 26.6618C59.7312 26.6618 59.7015 26.6621 59.6721 26.6628C56.726 26.7096 53.9422 28.5299 52.4075 31.4127Z" fill="#FEFAF6"/>
<path d="M71.8017 17.7082C70.0176 17.7867 67.8774 18.9728 66.5983 20.5909C65.5112 21.951 64.4492 24.2187 64.729 26.5045C64.7465 26.6475 64.8543 26.7579 64.9875 26.769C65.1079 26.7791 65.2308 26.7843 65.3533 26.7844C67.0977 26.7844 68.9796 25.7421 70.2648 24.0638C71.6174 22.2917 72.3014 20.0174 72.0945 17.9802C72.0782 17.8206 71.9481 17.702 71.8017 17.7082Z" fill="#FEFAF6"/>
</g>
<g clip-path="url(#clip1)">
<path d="M114.007 11.0339C113.558 11.7176 113.843 12.7551 114.34 13.3841C114.587 13.6987 114.838 13.981 115.182 13.981C115.189 13.981 115.195 13.9809 115.202 13.9806C115.363 13.975 115.48 13.9314 115.593 13.8892C115.719 13.8418 115.85 13.7929 116.056 13.7929C116.251 13.7929 116.376 13.8403 116.497 13.8861C116.615 13.9312 116.738 13.9779 116.919 13.9749C117.306 13.9686 117.544 13.6639 117.753 13.3952C117.972 13.1146 118.082 12.8421 118.119 12.738L118.121 12.7339C118.128 12.7154 118.118 12.6952 118.097 12.687C118.097 12.6868 118.095 12.6861 118.094 12.6859C118.026 12.6614 117.428 12.4286 117.422 11.7942C117.416 11.2787 117.87 11.0057 117.962 10.9562L117.966 10.9539C117.976 10.9483 117.983 10.9395 117.985 10.9294C117.987 10.9193 117.985 10.9088 117.978 10.9003C117.664 10.4975 117.184 10.4368 116.99 10.4295C116.962 10.427 116.933 10.4258 116.904 10.4258C116.677 10.4258 116.459 10.5011 116.284 10.5617C116.163 10.6034 116.059 10.6395 115.987 10.6395C115.906 10.6395 115.801 10.603 115.68 10.5607C115.517 10.5041 115.333 10.44 115.138 10.44C115.133 10.44 115.129 10.4401 115.124 10.4401C114.671 10.446 114.243 10.6735 114.007 11.0339Z" fill="#FEFAF6"/>
<path d="M116.991 9.32034C116.716 9.33015 116.387 9.47841 116.19 9.68067C116.023 9.85069 115.859 10.1341 115.902 10.4199C115.905 10.4377 115.922 10.4515 115.942 10.4529C115.961 10.4542 115.98 10.4548 115.999 10.4549C116.267 10.4549 116.556 10.3246 116.754 10.1148C116.962 9.89327 117.067 9.60898 117.036 9.35434C117.033 9.33438 117.013 9.31956 116.991 9.32034Z" fill="#FEFAF6"/>
</g>
<path d="M25.5526 75.0559H22.6798L22.1506 76.6123H21.2434L23.6248 69.6535H24.617L26.9889 76.6123H26.0817L25.5526 75.0559ZM25.3069 74.3128L24.1162 70.7782L22.9255 74.3128H25.3069Z" fill="white"/>
<path d="M28.8867 72.1238C29.0568 71.8091 29.3088 71.548 29.6427 71.3405C29.9829 71.1263 30.3767 71.0192 30.824 71.0192C31.2839 71.0192 31.6997 71.1363 32.0713 71.3706C32.4493 71.6049 32.7454 71.9363 32.9596 72.3647C33.1738 72.7865 33.2809 73.2785 33.2809 73.8409C33.2809 74.3965 33.1738 74.8919 32.9596 75.327C32.7454 75.7621 32.4493 76.1002 32.0713 76.3412C31.6997 76.5822 31.2839 76.7027 30.824 76.7027C30.383 76.7027 29.9924 76.5989 29.6522 76.3914C29.3183 76.1772 29.0631 75.9128 28.8867 75.5981V79.2231H28.0268V71.1096H28.8867V72.1238ZM32.4021 73.8409C32.4021 73.4258 32.3233 73.0643 32.1658 72.7564C32.0083 72.4484 31.7942 72.2141 31.5233 72.0535C31.2587 71.8928 30.9657 71.8125 30.6444 71.8125C30.3294 71.8125 30.0365 71.8961 29.7656 72.0635C29.501 72.2242 29.2868 72.4618 29.123 72.7765C28.9655 73.0844 28.8867 73.4425 28.8867 73.8509C28.8867 74.2659 28.9655 74.6308 29.123 74.9454C29.2868 75.2534 29.501 75.491 29.7656 75.6584C30.0365 75.819 30.3294 75.8994 30.6444 75.8994C30.9657 75.8994 31.2587 75.819 31.5233 75.6584C31.7942 75.491 32.0083 75.2534 32.1658 74.9454C32.3233 74.6308 32.4021 74.2626 32.4021 73.8409Z" fill="white"/>
<path d="M35.2728 72.1238C35.4429 71.8091 35.6949 71.548 36.0288 71.3405C36.369 71.1263 36.7627 71.0192 37.21 71.0192C37.6699 71.0192 38.0857 71.1363 38.4574 71.3706C38.8354 71.6049 39.1315 71.9363 39.3457 72.3647C39.5599 72.7865 39.667 73.2785 39.667 73.8409C39.667 74.3965 39.5599 74.8919 39.3457 75.327C39.1315 75.7621 38.8354 76.1002 38.4574 76.3412C38.0857 76.5822 37.6699 76.7027 37.21 76.7027C36.769 76.7027 36.3784 76.5989 36.0382 76.3914C35.7043 76.1772 35.4492 75.9128 35.2728 75.5981V79.2231H34.4129V71.1096H35.2728V72.1238ZM38.7881 73.8409C38.7881 73.4258 38.7094 73.0643 38.5519 72.7564C38.3944 72.4484 38.1802 72.2141 37.9093 72.0535C37.6447 71.8928 37.3518 71.8125 37.0305 71.8125C36.7155 71.8125 36.4225 71.8961 36.1516 72.0635C35.887 72.2242 35.6728 72.4618 35.509 72.7765C35.3515 73.0844 35.2728 73.4425 35.2728 73.8509C35.2728 74.2659 35.3515 74.6308 35.509 74.9454C35.6728 75.2534 35.887 75.491 36.1516 75.6584C36.4225 75.819 36.7155 75.8994 37.0305 75.8994C37.3518 75.8994 37.6447 75.819 37.9093 75.6584C38.1802 75.491 38.3944 75.2534 38.5519 74.9454C38.7094 74.6308 38.7881 74.2626 38.7881 73.8409Z" fill="white"/>
<path d="M45.4067 76.6826C44.972 76.6826 44.5814 76.6023 44.2349 76.4416C43.8947 76.2743 43.627 76.0467 43.4317 75.7588C43.2364 75.4642 43.1356 75.1262 43.1293 74.7446H44.0459C44.0774 75.0726 44.2034 75.3504 44.4239 75.578C44.6507 75.799 44.9783 75.9094 45.4067 75.9094C45.8162 75.9094 46.1375 75.8023 46.3706 75.5881C46.61 75.3672 46.7297 75.086 46.7297 74.7446C46.7297 74.4768 46.6604 74.2593 46.5218 74.0919C46.3832 73.9245 46.2099 73.7973 46.002 73.7103C45.7941 73.6233 45.5138 73.5296 45.161 73.4292C44.7263 73.3087 44.3766 73.1882 44.112 73.0677C43.8538 72.9472 43.6301 72.7597 43.4411 72.5053C43.2584 72.2443 43.1671 71.8961 43.1671 71.461C43.1671 71.0794 43.2584 70.7414 43.4411 70.4468C43.6238 70.1523 43.879 69.9247 44.2065 69.764C44.5404 69.6033 44.9216 69.523 45.35 69.523C45.9674 69.523 46.4714 69.687 46.862 70.015C47.2589 70.343 47.4825 70.7782 47.5329 71.3204H46.5879C46.5564 71.0527 46.4241 70.8183 46.191 70.6175C45.9579 70.41 45.6492 70.3062 45.2649 70.3062C44.9058 70.3062 44.6129 70.4066 44.3861 70.6075C44.1593 70.8016 44.0459 71.0761 44.0459 71.4309C44.0459 71.6853 44.112 71.8928 44.2443 72.0535C44.3829 72.2141 44.5499 72.338 44.7452 72.425C44.9468 72.5053 45.2271 72.5991 45.5862 72.7062C46.0209 72.8334 46.3706 72.9605 46.6352 73.0877C46.8998 73.2082 47.1266 73.399 47.3156 73.6601C47.5046 73.9145 47.5991 74.2626 47.5991 74.7044C47.5991 75.0458 47.514 75.3672 47.3439 75.6684C47.1738 75.9697 46.9218 76.214 46.5879 76.4015C46.254 76.5889 45.8603 76.6826 45.4067 76.6826Z" fill="white"/>
<path d="M49.9135 71.8627V75.1061C49.9135 75.3739 49.967 75.5647 50.0741 75.6785C50.1812 75.7856 50.3671 75.8391 50.6317 75.8391H51.2648V76.6123H50.4899C50.0111 76.6123 49.652 76.4952 49.4126 76.2609C49.1732 76.0266 49.0535 75.6416 49.0535 75.1061V71.8627H48.3826V71.1096H49.0535V69.7238H49.9135V71.1096H51.2648V71.8627H49.9135Z" fill="white"/>
<path d="M54.5652 76.7027C54.0801 76.7027 53.6392 76.5855 53.2423 76.3512C52.8517 76.1169 52.543 75.7856 52.3162 75.3571C52.0957 74.922 51.9854 74.4199 51.9854 73.8509C51.9854 73.2886 52.0988 72.7932 52.3256 72.3647C52.5587 71.9296 52.8737 71.5982 53.2706 71.3706C53.6675 71.1363 54.1116 71.0192 54.603 71.0192C55.0944 71.0192 55.5386 71.1363 55.9355 71.3706C56.3324 71.5982 56.6442 71.9263 56.871 72.3547C57.1041 72.7831 57.2207 73.2819 57.2207 73.8509C57.2207 74.4199 57.101 74.922 56.8616 75.3571C56.6285 75.7856 56.3103 76.1169 55.9071 76.3512C55.5039 76.5855 55.0566 76.7027 54.5652 76.7027ZM54.5652 75.8994C54.8739 75.8994 55.1637 75.8224 55.4346 75.6684C55.7055 75.5145 55.9229 75.2835 56.0867 74.9756C56.2568 74.6676 56.3418 74.2927 56.3418 73.8509C56.3418 73.4091 56.2599 73.0342 56.0961 72.7262C55.9323 72.4183 55.7181 72.1907 55.4535 72.0434C55.1889 71.8894 54.9023 71.8125 54.5936 71.8125C54.2786 71.8125 53.9888 71.8894 53.7242 72.0434C53.4659 72.1907 53.258 72.4183 53.1005 72.7262C52.943 73.0342 52.8643 73.4091 52.8643 73.8509C52.8643 74.2994 52.9399 74.6777 53.0911 74.9856C53.2486 75.2935 53.4565 75.5245 53.7148 75.6785C53.973 75.8257 54.2565 75.8994 54.5652 75.8994Z" fill="white"/>
<path d="M59.2113 72.0033C59.3625 71.6886 59.5767 71.4443 59.8539 71.2702C60.1373 71.0962 60.4807 71.0091 60.8839 71.0091V71.953H60.6571C59.6932 71.953 59.2113 72.5087 59.2113 73.6199V76.6123H58.3513V71.1096H59.2113V72.0033Z" fill="white"/>
<path d="M66.6015 73.6501C66.6015 73.8241 66.5921 74.0082 66.5732 74.2024H62.4341C62.4656 74.7446 62.6389 75.1697 62.9539 75.4776C63.2752 75.7789 63.6626 75.9295 64.1162 75.9295C64.4879 75.9295 64.7966 75.8391 65.0423 75.6584C65.2943 75.4709 65.4707 75.2232 65.5715 74.9153H66.4976C66.359 75.4442 66.0818 75.8759 65.666 76.2107C65.2502 76.5387 64.7336 76.7027 64.1162 76.7027C63.6248 76.7027 63.1838 76.5855 62.7932 76.3512C62.4089 76.1169 62.1065 75.7856 61.886 75.3571C61.6655 74.922 61.5553 74.4199 61.5553 73.8509C61.5553 73.2819 61.6624 72.7831 61.8766 72.3547C62.0908 71.9263 62.39 71.5982 62.7743 71.3706C63.1649 71.1363 63.6122 71.0192 64.1162 71.0192C64.6076 71.0192 65.0423 71.133 65.4203 71.3606C65.7983 71.5882 66.0881 71.9028 66.2897 72.3045C66.4976 72.6995 66.6015 73.148 66.6015 73.6501ZM65.7132 73.4593C65.7132 73.1112 65.6408 72.8133 65.4959 72.5656C65.351 72.3112 65.1525 72.1204 64.9005 71.9932C64.6548 71.8593 64.3808 71.7924 64.0784 71.7924C63.6437 71.7924 63.272 71.9397 62.9633 72.2342C62.6609 72.5288 62.4877 72.9371 62.4436 73.4593H65.7132Z" fill="white"/>
<path d="M75.3116 76.6123L74.4517 75.6885C74.1304 76.0433 73.7871 76.3077 73.4217 76.4818C73.0563 76.6491 72.6436 76.7328 72.1837 76.7328C71.7301 76.7328 71.3269 76.6458 70.9741 76.4717C70.6277 76.2977 70.3568 76.05 70.1615 75.7287C69.9725 75.4073 69.878 75.0325 69.878 74.604C69.878 74.1153 70.0071 73.6869 70.2654 73.3187C70.53 72.9438 70.9174 72.6493 71.4277 72.435C71.2261 72.1807 71.0812 71.9464 70.993 71.7321C70.9049 71.5179 70.8607 71.2836 70.8607 71.0292C70.8607 70.7347 70.93 70.4702 71.0686 70.2359C71.2135 69.9949 71.4183 69.8075 71.6829 69.6736C71.9475 69.5397 72.253 69.4728 72.5995 69.4728C72.9397 69.4728 73.2358 69.5431 73.4878 69.6837C73.7398 69.8242 73.9288 70.0217 74.0548 70.2761C74.1808 70.5238 74.2375 70.8016 74.2249 71.1096H73.365C73.3713 70.8351 73.2988 70.6209 73.1476 70.4669C72.9964 70.3062 72.8011 70.2259 72.5617 70.2259C72.3097 70.2259 72.105 70.3029 71.9475 70.4569C71.7963 70.6041 71.7207 70.7949 71.7207 71.0292C71.7207 71.2301 71.7711 71.4242 71.8719 71.6116C71.979 71.7991 72.1554 72.03 72.4011 72.3045L74.3667 74.4032L74.5368 74.122L75.1793 72.9773H76.1054L75.3305 74.4032C75.2234 74.604 75.0974 74.8149 74.9525 75.0358L76.4362 76.6123H75.3116ZM72.1837 75.9496C72.5239 75.9496 72.8295 75.8793 73.1004 75.7387C73.3776 75.5981 73.639 75.3806 73.8847 75.086L71.9475 73.0174C71.1411 73.3455 70.7379 73.8643 70.7379 74.5739C70.7379 74.9689 70.8702 75.2969 71.1348 75.558C71.4057 75.819 71.7553 75.9496 72.1837 75.9496Z" fill="white"/>
<path d="M80.2054 70.2159C80.0416 70.2159 79.903 70.1556 79.7896 70.0351C79.6762 69.9146 79.6195 69.7673 79.6195 69.5933C79.6195 69.4192 79.6762 69.2719 79.7896 69.1515C79.903 69.031 80.0416 68.9707 80.2054 68.9707C80.3629 68.9707 80.4951 69.031 80.6022 69.1515C80.7156 69.2719 80.7723 69.4192 80.7723 69.5933C80.7723 69.7673 80.7156 69.9146 80.6022 70.0351C80.4951 70.1556 80.3629 70.2159 80.2054 70.2159ZM80.6212 71.1096V76.6123H79.7612V71.1096H80.6212Z" fill="white"/>
<path d="M86.1408 69.6134V70.3564H84.3453V76.6123H83.4853V70.3564H81.6804V69.6134H86.1408Z" fill="white"/>
<path d="M91.7919 71.1096V76.6123H90.932V75.799C90.7682 76.0801 90.5383 76.301 90.2422 76.4617C89.9524 76.6157 89.6311 76.6927 89.2783 76.6927C88.8751 76.6927 88.5128 76.6056 88.1915 76.4316C87.8702 76.2508 87.6151 75.9831 87.4261 75.6283C87.2434 75.2735 87.1521 74.8417 87.1521 74.3329V71.1096H88.0025V74.2124C88.0025 74.7546 88.1317 75.173 88.39 75.4676C88.6483 75.7554 89.0011 75.8994 89.4484 75.8994C89.9083 75.8994 90.2705 75.7488 90.5351 75.4475C90.7997 75.1463 90.932 74.7078 90.932 74.1321V71.1096H91.7919Z" fill="white"/>
<path d="M95.767 71.0091C96.397 71.0091 96.9073 71.2133 97.2979 71.6217C97.6885 72.0233 97.8838 72.6057 97.8838 73.3689V76.6123H97.0333V73.4994C97.0333 72.9505 96.9042 72.5321 96.6459 72.2442C96.3876 71.9497 96.0348 71.8024 95.5875 71.8024C95.1339 71.8024 94.7716 71.953 94.5007 72.2543C94.2361 72.5555 94.1038 72.994 94.1038 73.5697V76.6123H93.2439V71.1096H94.1038V71.8928C94.2739 71.6116 94.5039 71.3941 94.7937 71.2401C95.0898 71.0861 95.4142 71.0091 95.767 71.0091Z" fill="white"/>
<path d="M104.013 73.6501C104.013 73.8241 104.004 74.0082 103.985 74.2024H99.846C99.8775 74.7446 100.051 75.1697 100.366 75.4776C100.687 75.7789 101.075 75.9295 101.528 75.9295C101.9 75.9295 102.209 75.8391 102.454 75.6584C102.706 75.4709 102.883 75.2232 102.983 74.9153H103.909C103.771 75.4442 103.494 75.8759 103.078 76.2107C102.662 76.5387 102.146 76.7027 101.528 76.7027C101.037 76.7027 100.596 76.5855 100.205 76.3512C99.8208 76.1169 99.5184 75.7856 99.298 75.3571C99.0775 74.922 98.9672 74.4199 98.9672 73.8509C98.9672 73.2819 99.0743 72.7831 99.2885 72.3547C99.5027 71.9263 99.8019 71.5982 100.186 71.3706C100.577 71.1363 101.024 71.0192 101.528 71.0192C102.02 71.0192 102.454 71.133 102.832 71.3606C103.21 71.5882 103.5 71.9028 103.702 72.3045C103.909 72.6995 104.013 73.148 104.013 73.6501ZM103.125 73.4593C103.125 73.1112 103.053 72.8133 102.908 72.5656C102.763 72.3112 102.564 72.1204 102.312 71.9932C102.067 71.8593 101.793 71.7924 101.49 71.7924C101.056 71.7924 100.684 71.9397 100.375 72.2342C100.073 72.5288 99.8996 72.9371 99.8555 73.4593H103.125Z" fill="white"/>
<path d="M106.982 76.7027C106.585 76.7027 106.229 76.6324 105.914 76.4918C105.599 76.3446 105.35 76.1437 105.167 75.8893C104.985 75.6283 104.884 75.3304 104.865 74.9956H105.753C105.779 75.2701 105.898 75.4944 106.112 75.6684C106.333 75.8425 106.62 75.9295 106.972 75.9295C107.3 75.9295 107.558 75.8525 107.747 75.6985C107.936 75.5446 108.031 75.3504 108.031 75.1161C108.031 74.8751 107.93 74.6977 107.728 74.5839C107.527 74.4634 107.215 74.3463 106.793 74.2325C106.409 74.1254 106.094 74.0183 105.848 73.9111C105.608 73.7973 105.401 73.6333 105.224 73.4191C105.054 73.1982 104.969 72.9103 104.969 72.5555C104.969 72.2744 105.048 72.0166 105.205 71.7823C105.363 71.548 105.586 71.3639 105.876 71.2301C106.166 71.0895 106.497 71.0192 106.868 71.0192C107.442 71.0192 107.905 71.1732 108.258 71.4811C108.61 71.789 108.799 72.2108 108.825 72.7463H107.965C107.946 72.4585 107.835 72.2275 107.634 72.0535C107.439 71.8794 107.174 71.7924 106.84 71.7924C106.531 71.7924 106.286 71.8627 106.103 72.0033C105.92 72.1438 105.829 72.3279 105.829 72.5555C105.829 72.7363 105.882 72.8869 105.99 73.0074C106.103 73.1212 106.242 73.2149 106.405 73.2886C106.575 73.3555 106.809 73.4325 107.105 73.5195C107.476 73.6266 107.779 73.7337 108.012 73.8409C108.245 73.9413 108.443 74.0952 108.607 74.3028C108.777 74.5103 108.865 74.7814 108.872 75.1161C108.872 75.4174 108.793 75.6885 108.636 75.9295C108.478 76.1705 108.254 76.3613 107.965 76.5019C107.681 76.6358 107.354 76.7027 106.982 76.7027Z" fill="white"/>
<defs>
<linearGradient id="paint0_linear" x1="77.6296" y1="-23.2727" x2="140.962" y2="103.116" gradientUnits="userSpaceOnUse">
<stop stop-color="#00E0FF"/>
<stop offset="1" stop-color="#0047FF"/>
</linearGradient>
<clipPath id="clip0">
<rect width="34.5203" height="37.2816" fill="white" transform="translate(47.7971 17.708)"/>
</clipPath>
<clipPath id="clip1">
<rect width="5.31081" height="4.66019" fill="white" transform="translate(113.297 9.32031)"/>
</clipPath>
</defs>
</svg>
