<svg width="185" height="141" viewBox="0 0 185 141" fill="none" xmlns="http://www.w3.org/2000/svg">
<rect x="0.384766" width="184.385" height="141" rx="10" fill="url(#paint0_linear)"/>
<path d="M67.2072 110.764C66.9522 110.764 66.7426 110.69 66.5782 110.543C66.4196 110.39 66.3402 110.203 66.3402 109.982C66.3402 109.755 66.4196 109.568 66.5782 109.421C66.7426 109.268 66.9522 109.191 67.2072 109.191C67.4566 109.191 67.6606 109.268 67.8192 109.421C67.9836 109.568 68.0657 109.755 68.0657 109.982C68.0657 110.203 67.9836 110.39 67.8192 110.543C67.6606 110.69 67.4566 110.764 67.2072 110.764ZM67.9297 111.257V116H66.4762V111.257H67.9297ZM73.2756 110.033V111.198H71.6946V116H70.2411V111.198H68.6601V110.033H73.2756ZM78.6885 111.257V116H77.235V115.354C77.0877 115.564 76.8865 115.734 76.6315 115.864C76.3822 115.989 76.1045 116.051 75.7985 116.051C75.4359 116.051 75.1157 115.972 74.838 115.813C74.5604 115.649 74.345 115.413 74.192 115.107C74.039 114.801 73.9625 114.442 73.9625 114.028V111.257H75.4075V113.832C75.4075 114.15 75.4897 114.396 75.654 114.572C75.8184 114.748 76.0394 114.835 76.317 114.835C76.6004 114.835 76.8242 114.748 76.9885 114.572C77.1529 114.396 77.235 114.15 77.235 113.832V111.257H78.6885ZM82.6226 111.206C83.1779 111.206 83.6199 111.387 83.9486 111.75C84.2829 112.107 84.4501 112.6 84.4501 113.229V116H83.0051V113.424C83.0051 113.107 82.9229 112.861 82.7586 112.685C82.5942 112.509 82.3732 112.421 82.0956 112.421C81.8179 112.421 81.5969 112.509 81.4326 112.685C81.2682 112.861 81.1861 113.107 81.1861 113.424V116H79.7326V111.257H81.1861V111.886C81.3334 111.676 81.5317 111.512 81.7811 111.393C82.0304 111.268 82.3109 111.206 82.6226 111.206ZM89.9311 113.552C89.9311 113.688 89.9226 113.83 89.9056 113.977H86.6161C86.6388 114.272 86.7323 114.498 86.8966 114.657C87.0666 114.81 87.2734 114.886 87.5171 114.886C87.8798 114.886 88.1319 114.733 88.2736 114.427H89.8206C89.7413 114.739 89.5968 115.02 89.3871 115.269C89.1831 115.518 88.9253 115.714 88.6136 115.855C88.3019 115.997 87.9534 116.068 87.5681 116.068C87.1034 116.068 86.6898 115.969 86.3271 115.77C85.9644 115.572 85.6811 115.289 85.4771 114.92C85.2731 114.552 85.1711 114.121 85.1711 113.628C85.1711 113.135 85.2703 112.705 85.4686 112.336C85.6726 111.968 85.9559 111.685 86.3186 111.486C86.6813 111.288 87.0978 111.189 87.5681 111.189C88.0271 111.189 88.4351 111.285 88.7921 111.478C89.1491 111.671 89.4268 111.945 89.6251 112.302C89.8291 112.659 89.9311 113.076 89.9311 113.552ZM88.4436 113.169C88.4436 112.92 88.3586 112.722 88.1886 112.574C88.0186 112.427 87.8061 112.353 87.5511 112.353C87.3074 112.353 87.1006 112.424 86.9306 112.566C86.7663 112.708 86.6643 112.909 86.6246 113.169H88.4436ZM92.6274 116.068C92.2137 116.068 91.8454 115.997 91.5224 115.855C91.1994 115.714 90.9444 115.521 90.7574 115.277C90.5704 115.028 90.4656 114.75 90.4429 114.444H91.8794C91.8964 114.609 91.9729 114.742 92.1089 114.844C92.2449 114.946 92.4121 114.997 92.6104 114.997C92.7917 114.997 92.9306 114.963 93.0269 114.895C93.1289 114.821 93.1799 114.728 93.1799 114.614C93.1799 114.478 93.1091 114.379 92.9674 114.317C92.8257 114.249 92.5962 114.175 92.2789 114.096C91.9389 114.017 91.6556 113.934 91.4289 113.849C91.2022 113.759 91.0067 113.62 90.8424 113.433C90.6781 113.24 90.5959 112.982 90.5959 112.659C90.5959 112.387 90.6696 112.141 90.8169 111.92C90.9699 111.693 91.1909 111.515 91.4799 111.384C91.7746 111.254 92.1231 111.189 92.5254 111.189C93.1204 111.189 93.5879 111.336 93.9279 111.631C94.2736 111.926 94.4719 112.317 94.5229 112.804H93.1799C93.1572 112.64 93.0836 112.509 92.9589 112.413C92.8399 112.317 92.6812 112.268 92.4829 112.268C92.3129 112.268 92.1826 112.302 92.0919 112.37C92.0012 112.433 91.9559 112.521 91.9559 112.634C91.9559 112.77 92.0267 112.872 92.1684 112.94C92.3157 113.008 92.5424 113.076 92.8484 113.144C93.1997 113.235 93.4859 113.325 93.7069 113.416C93.9279 113.501 94.1206 113.643 94.2849 113.841C94.4549 114.034 94.5427 114.294 94.5484 114.623C94.5484 114.901 94.4691 115.15 94.3104 115.371C94.1574 115.586 93.9336 115.756 93.6389 115.881C93.3499 116.006 93.0127 116.068 92.6274 116.068ZM96.9924 113.008C96.9924 112.419 97.1199 111.894 97.3749 111.435C97.6299 110.971 97.9841 110.611 98.4374 110.356C98.8964 110.095 99.4149 109.965 99.9929 109.965C100.701 109.965 101.308 110.152 101.812 110.526C102.316 110.9 102.653 111.41 102.823 112.056H101.225C101.106 111.807 100.936 111.617 100.715 111.486C100.5 111.356 100.254 111.291 99.9759 111.291C99.5282 111.291 99.1656 111.447 98.8879 111.758C98.6102 112.07 98.4714 112.487 98.4714 113.008C98.4714 113.529 98.6102 113.946 98.8879 114.257C99.1656 114.569 99.5282 114.725 99.9759 114.725C100.254 114.725 100.5 114.66 100.715 114.529C100.936 114.399 101.106 114.209 101.225 113.96H102.823C102.653 114.606 102.316 115.116 101.812 115.49C101.308 115.858 100.701 116.043 99.9929 116.043C99.4149 116.043 98.8964 115.915 98.4374 115.66C97.9841 115.399 97.6299 115.039 97.3749 114.58C97.1199 114.121 96.9924 113.597 96.9924 113.008ZM103.425 113.62C103.425 113.133 103.515 112.705 103.697 112.336C103.884 111.968 104.136 111.685 104.453 111.486C104.77 111.288 105.125 111.189 105.516 111.189C105.85 111.189 106.142 111.257 106.391 111.393C106.646 111.529 106.842 111.707 106.978 111.928V111.257H108.431V116H106.978V115.328C106.836 115.549 106.638 115.728 106.383 115.864C106.133 116 105.841 116.068 105.507 116.068C105.122 116.068 104.77 115.969 104.453 115.77C104.136 115.566 103.884 115.28 103.697 114.912C103.515 114.538 103.425 114.107 103.425 113.62ZM106.978 113.628C106.978 113.266 106.876 112.98 106.672 112.77C106.473 112.56 106.23 112.455 105.941 112.455C105.652 112.455 105.405 112.56 105.201 112.77C105.003 112.974 104.904 113.257 104.904 113.62C104.904 113.983 105.003 114.272 105.201 114.487C105.405 114.697 105.652 114.801 105.941 114.801C106.23 114.801 106.473 114.697 106.672 114.487C106.876 114.277 106.978 113.991 106.978 113.628ZM110.936 112.047C111.106 111.787 111.319 111.583 111.574 111.435C111.829 111.282 112.112 111.206 112.424 111.206V112.744H112.024C111.661 112.744 111.389 112.824 111.208 112.982C111.027 113.135 110.936 113.407 110.936 113.798V116H109.483V111.257H110.936V112.047ZM112.829 113.62C112.829 113.133 112.92 112.705 113.101 112.336C113.288 111.968 113.54 111.685 113.858 111.486C114.175 111.288 114.529 111.189 114.92 111.189C115.232 111.189 115.515 111.254 115.77 111.384C116.031 111.515 116.235 111.69 116.382 111.911V109.71H117.836V116H116.382V115.32C116.246 115.547 116.051 115.728 115.796 115.864C115.546 116 115.255 116.068 114.92 116.068C114.529 116.068 114.175 115.969 113.858 115.77C113.54 115.566 113.288 115.28 113.101 114.912C112.92 114.538 112.829 114.107 112.829 113.62ZM116.382 113.628C116.382 113.266 116.28 112.98 116.076 112.77C115.878 112.56 115.634 112.455 115.345 112.455C115.056 112.455 114.81 112.56 114.606 112.77C114.407 112.974 114.308 113.257 114.308 113.62C114.308 113.983 114.407 114.272 114.606 114.487C114.81 114.697 115.056 114.801 115.345 114.801C115.634 114.801 115.878 114.697 116.076 114.487C116.28 114.277 116.382 113.991 116.382 113.628Z" fill="white"/>
<path d="M93.1804 48.2051C83.8622 48.2051 76.3086 55.7587 76.3086 65.0769C76.3086 74.395 83.8622 81.9487 93.1804 81.9487C102.499 81.9487 110.052 74.395 110.052 65.0769C110.052 55.7587 102.499 48.2051 93.1804 48.2051ZM93.1804 80.5314C84.6451 80.5314 77.7258 73.6121 77.7258 65.0769C77.7258 56.5416 84.6451 49.6223 93.1804 49.6223C101.716 49.6223 108.635 56.5416 108.635 65.0769C108.635 73.6121 101.716 80.5314 93.1804 80.5314Z" fill="white"/>
<path d="M98.7346 73.0411C99.725 72.7437 100.424 72.0229 100.711 71.0045L100.795 70.7048L100.806 62.6751C100.815 56.6618 100.807 54.6079 100.774 54.4959C100.739 54.3772 100.685 54.2774 100.613 54.1986C100.509 54.1324 100.383 54.0977 100.24 54.0977C100.142 54.0977 99.7997 54.1463 99.4807 54.2058C98.0694 54.4686 89.7506 56.1644 89.6088 56.218C89.3889 56.3011 89.1711 56.4988 89.0679 56.7086L88.9804 56.8863C88.9804 56.8863 88.9392 69.4722 88.8753 69.614C88.7783 69.8295 88.5633 70.0339 88.3651 70.099C88.2711 70.1299 87.8994 70.2151 87.5389 70.2885C85.8699 70.6286 85.25 70.8734 84.7256 71.4002C84.428 71.6993 84.2074 72.1076 84.1119 72.5362C84.021 72.9458 84.0514 73.5588 84.1814 73.9313C84.3173 74.3214 84.5364 74.6542 84.8229 74.9161C85.0832 75.1215 85.3906 75.2744 85.7361 75.3648C86.5002 75.5651 87.9302 75.3424 88.6619 74.9096C88.9675 74.7286 89.3609 74.3486 89.5655 74.0364C89.6464 73.9131 89.7684 73.6639 89.8364 73.4834C90.0745 72.8503 90.082 61.5751 90.1126 61.433C90.1641 61.1923 90.325 61.0157 90.5469 60.9559C90.7467 60.9021 98.7568 59.2813 98.982 59.2491C99.1805 59.2208 99.3679 59.2862 99.4701 59.4149C99.5309 59.4484 99.5819 59.4934 99.6179 59.5485C99.6828 59.6476 99.6869 59.8438 99.6964 63.4135C99.7078 67.5223 99.7124 67.426 99.4943 67.6852C99.3358 67.874 99.1373 67.9468 98.3232 68.1167C97.0847 68.3755 96.6607 68.4985 96.1865 68.7356C95.5941 69.0317 95.2651 69.3561 95.011 69.8949C94.831 70.2762 94.7638 70.5619 94.7643 70.9414C94.7656 71.6198 94.9942 72.1498 95.5101 72.6688C95.5575 72.7165 95.6044 72.761 95.6512 72.803C95.9112 73.0084 96.1762 73.1322 96.5093 73.2108C97.0118 73.3292 98.0346 73.2512 98.7346 73.0411Z" fill="white"/>
<defs>
<linearGradient id="paint0_linear" x1="40.7164" y1="19.0264" x2="113.275" y2="142.179" gradientUnits="userSpaceOnUse">
<stop stop-color="#FF5E50"/>
<stop offset="0.249" stop-color="#FE5C6C"/>
<stop offset="0.3765" stop-color="#E3658A"/>
<stop offset="0.497" stop-color="#B87EB0"/>
<stop offset="0.6267" stop-color="#916CFF"/>
<stop offset="0.7628" stop-color="#70BCFB" stop-opacity="0.917647"/>
<stop offset="1" stop-color="#21C7FE"/>
</linearGradient>
</defs>
</svg>
