<svg width="16" height="10" viewBox="0 0 16 10" fill="none" xmlns="http://www.w3.org/2000/svg">
<path fill-rule="evenodd" clip-rule="evenodd" d="M5.28033 0.46967C5.57322 0.762563 5.57322 1.23744 5.28033 1.53033L2.56066 4.25H14.75C15.1642 4.25 15.5 4.58579 15.5 5C15.5 5.41421 15.1642 5.75 14.75 5.75H2.56066L5.28033 8.46967C5.57322 8.76256 5.57322 9.23744 5.28033 9.53033C4.98744 9.82322 4.51256 9.82322 4.21967 9.53033L0.21967 5.53033C0.0737953 5.38446 0.00057307 5.19344 3.24759e-06 5.00225C1.0472e-06 5.0015 0 5.00075 0 5C0 4.99925 1.0472e-06 4.9985 3.24759e-06 4.99775C0.000299386 4.89688 0.0205095 4.80069 0.056909 4.71291C0.0935088 4.62445 0.147762 4.54158 0.21967 4.46967L4.21967 0.46967C4.51256 0.176777 4.98744 0.176777 5.28033 0.46967Z" fill="#010066"/>
</svg>
