<svg width="210" height="165" viewBox="0 0 210 165" fill="none" xmlns="http://www.w3.org/2000/svg">
<g clip-path="url(#clip0)">
<rect width="210" height="165" fill="white"/>
<path opacity="0.2" d="M27.7915 83.5954C25.0296 84.4891 22.4445 86.6528 21.7546 89.6548C20.9655 93.1049 22.7852 96.5826 23.0482 100.125C23.8977 111.731 8.48189 119.92 10.6811 131.32C11.5543 135.854 15.0837 139.188 18.5615 141.943C24.1327 146.342 30.3141 150.229 37.1596 151.325C47.5497 152.993 58.4054 148.093 68.5044 151.189C76.65 153.688 82.8831 161.01 90.9727 163.712C97.1304 165.77 103.765 164.959 110.162 164.126C113.611 163.678 117.225 163.16 120.008 160.943C125.183 156.817 125.508 148.668 128.973 142.827C134.325 133.821 146.058 132.053 155.896 133.803C165.734 135.553 175.287 139.862 185.255 139.511C187.385 139.435 189.567 139.126 191.426 138.006C193.685 136.646 195.212 134.249 196.561 131.877C204.997 116.998 209.627 100.003 209.987 82.6001C210.045 79.6096 209.946 76.4899 208.633 73.8504C206.973 70.5112 203.655 68.5137 200.352 67.1697C192.419 63.9368 183.657 63.408 175.885 59.7617C168.388 56.2447 162.317 50.0767 155.788 44.7909C142.778 34.2775 127.698 27.0846 111.699 23.7606C107.949 22.9847 104.058 22.4305 100.332 23.3265C96.0394 24.3587 92.3396 27.2245 89.0128 30.3096C80.1622 38.5167 73.0688 48.6427 64.9124 57.6372C59.2858 63.8401 53.1589 69.4989 46.6031 74.5478C43.5847 76.8778 40.3765 79.6443 37.013 81.367C33.9342 82.9419 31.0472 82.5447 27.7915 83.5954Z" fill="#010066"/>
<path d="M67.2431 10.6543C67.2431 10.6543 58.9099 22.5076 64.8714 36.3238C70.8329 50.14 54.4814 72.3388 54.4814 72.3388" stroke="#535461" stroke-width="2" stroke-miterlimit="10"/>
<path d="M70.9795 6.21893C70.3176 9.26944 67.1504 11.0868 67.1504 11.0868C67.1504 11.0868 65.059 7.95779 65.7209 4.90728C66.3828 1.85677 68.0926 -0.323148 69.5501 0.0394026C71.0076 0.401954 71.6414 3.16842 70.9795 6.21893Z" fill="#8ED16F"/>
<path d="M68.8522 5.68756C69.0603 4.72985 68.9573 3.88575 68.6221 3.80221C68.2869 3.71867 67.8465 4.42733 67.6384 5.38504C67.4303 6.34276 67.5334 7.18686 67.8685 7.2704C68.2037 7.35394 68.6441 6.64528 68.8522 5.68756Z" fill="#8ED16F"/>
<path opacity="0.3" d="M68.8522 5.68756C69.0603 4.72985 68.9573 3.88575 68.6221 3.80221C68.2869 3.71867 67.8465 4.42733 67.6384 5.38504C67.4303 6.34276 67.5334 7.18686 67.8685 7.2704C68.2037 7.35394 68.6441 6.64528 68.8522 5.68756Z" fill="black"/>
<path d="M69.5394 19.7721C66.7882 20.8344 63.6425 18.9731 63.6425 18.9731C63.6425 18.9731 64.9577 15.3915 67.711 14.3315C70.4643 13.2716 73.1012 13.6388 73.6078 15.1305C74.1145 16.6223 72.2905 18.7098 69.5394 19.7721Z" fill="#8ED16F"/>
<path d="M68.7665 17.4208C69.6295 17.0865 70.2343 16.5346 70.1173 16.1881C70.0003 15.8417 69.2058 15.8318 68.3428 16.1661C67.4798 16.5005 66.8751 17.0523 66.9921 17.3988C67.1091 17.7453 67.9035 17.7551 68.7665 17.4208Z" fill="#8ED16F"/>
<path opacity="0.3" d="M68.7665 17.4208C69.6295 17.0865 70.2343 16.5346 70.1173 16.1881C70.0003 15.8417 69.2058 15.8318 68.3428 16.1661C67.4798 16.5005 66.8751 17.0523 66.9921 17.3988C67.1091 17.7453 67.9035 17.7551 68.7665 17.4208Z" fill="black"/>
<path d="M68.899 30.5709C66.1479 31.6332 63.0022 29.7719 63.0022 29.7719C63.0022 29.7719 64.3174 26.1903 67.0707 25.1304C69.824 24.0704 72.4608 24.4376 72.9675 25.9294C73.4742 27.4211 71.6501 29.511 68.899 30.5709Z" fill="#8ED16F"/>
<path d="M68.1582 28.3832C69.022 28.0501 69.6278 27.499 69.5112 27.1522C69.3946 26.8054 68.5999 26.7943 67.7361 27.1274C66.8723 27.4605 66.2666 28.0116 66.3831 28.3584C66.4997 28.7052 67.2944 28.7163 68.1582 28.3832Z" fill="#8ED16F"/>
<path opacity="0.3" d="M68.1582 28.3832C69.022 28.0501 69.6278 27.499 69.5112 27.1522C69.3946 26.8054 68.5999 26.7943 67.7361 27.1274C66.8723 27.4605 66.2666 28.0116 66.3831 28.3584C66.4997 28.7052 67.2944 28.7163 68.1582 28.3832Z" fill="black"/>
<path d="M72.1137 43.2428C69.3625 44.3051 66.2169 42.4438 66.2169 42.4438C66.2169 42.4438 67.5321 38.8622 70.2853 37.8022C73.0386 36.7423 75.6755 37.1095 76.1822 38.6012C76.6888 40.093 74.8648 42.1875 72.1137 43.2428Z" fill="#8ED16F"/>
<path d="M71.3733 41.059C72.2371 40.7259 72.8429 40.1748 72.7263 39.828C72.6097 39.4812 71.815 39.4701 70.9512 39.8032C70.0874 40.1362 69.4816 40.6874 69.5982 41.0342C69.7148 41.381 70.5095 41.3921 71.3733 41.059Z" fill="#8ED16F"/>
<path opacity="0.3" d="M71.3733 41.059C72.2371 40.7259 72.8429 40.1748 72.7263 39.828C72.6097 39.4812 71.815 39.4701 70.9512 39.8032C70.0874 40.1362 69.4816 40.6874 69.5982 41.0342C69.7148 41.381 70.5095 41.3921 71.3733 41.059Z" fill="black"/>
<path d="M70.0222 54.8307C67.2711 55.8929 64.1254 54.0317 64.1254 54.0317C64.1254 54.0317 65.4406 50.4501 68.1939 49.3901C70.9472 48.3302 73.5841 48.6973 74.0907 50.1891C74.5974 51.6809 72.7755 53.7707 70.0222 54.8307Z" fill="#8ED16F"/>
<path d="M69.2878 52.4501C70.1508 52.1158 70.7555 51.5639 70.6385 51.2174C70.5215 50.871 69.7271 50.8611 68.8641 51.1954C68.0011 51.5298 67.3963 52.0817 67.5133 52.4281C67.6303 52.7746 68.4248 52.7844 69.2878 52.4501Z" fill="#8ED16F"/>
<path opacity="0.3" d="M69.2878 52.4501C70.1508 52.1158 70.7555 51.5639 70.6385 51.2174C70.5215 50.871 69.7271 50.8611 68.8641 51.1954C68.0011 51.5298 67.3963 52.0817 67.5133 52.4281C67.6303 52.7746 68.4248 52.7844 69.2878 52.4501Z" fill="black"/>
<path d="M57.1183 22.8396C59.1493 25.0934 62.7392 24.9179 62.7392 24.9179C62.7392 24.9179 63.0345 21.0822 61.0035 18.8284C58.9725 16.5746 56.4564 15.6463 55.3827 16.7501C54.309 17.8539 55.0873 20.5858 57.1183 22.8396Z" fill="#8ED16F"/>
<path d="M60.2927 22.0398C60.5403 21.7838 60.2241 21.0028 59.5864 20.2953C58.9488 19.5879 58.2312 19.2219 57.9836 19.4779C57.736 19.7339 58.0522 20.5149 58.6898 21.2224C59.3275 21.9298 60.0451 22.2958 60.2927 22.0398Z" fill="#8ED16F"/>
<path opacity="0.3" d="M60.2927 22.0398C60.5403 21.7838 60.2241 21.0028 59.5864 20.2953C58.9488 19.5879 58.2312 19.2219 57.9836 19.4779C57.736 19.7339 58.0522 20.5149 58.6898 21.2224C59.3275 21.9298 60.0451 22.2958 60.2927 22.0398Z" fill="black"/>
<path d="M55.9518 58.6326C57.9828 60.8864 61.5727 60.7109 61.5727 60.7109C61.5727 60.7109 61.8681 56.8752 59.837 54.6214C57.806 52.3676 55.2899 51.4393 54.2162 52.5431C53.1425 53.6469 53.9208 56.3787 55.9518 58.6326Z" fill="#8ED16F"/>
<path d="M59.1233 57.8347C59.3709 57.5787 59.0547 56.7977 58.417 56.0903C57.7794 55.3828 57.0618 55.0168 56.8142 55.2728C56.5666 55.5288 56.8828 56.3098 57.5204 57.0173C58.1581 57.7247 58.8757 58.0907 59.1233 57.8347Z" fill="#8ED16F"/>
<path opacity="0.3" d="M59.1233 57.8347C59.3709 57.5787 59.0547 56.7977 58.417 56.0903C57.7794 55.3828 57.0618 55.0168 56.8142 55.2728C56.5666 55.5288 56.8828 56.3098 57.5204 57.0173C58.1581 57.7247 58.8757 58.0907 59.1233 57.8347Z" fill="black"/>
<path d="M58.6448 35.4919C61.2622 36.8913 64.589 35.4365 64.589 35.4365C64.589 35.4365 63.6727 31.7163 61.0574 30.3169C58.4421 28.9175 55.7793 28.9313 55.1131 30.3723C54.4469 31.8133 56.0273 34.0925 58.6448 35.4919Z" fill="#8ED16F"/>
<path d="M61.3806 33.5963C61.5343 33.2665 60.9929 32.6433 60.1714 32.2042C59.3499 31.7651 58.5594 31.6766 58.4058 32.0064C58.2521 32.3362 58.7935 32.9594 59.615 33.3985C60.4364 33.8375 61.2269 33.9261 61.3806 33.5963Z" fill="#8ED16F"/>
<path opacity="0.3" d="M61.3806 33.5963C61.5343 33.2665 60.9929 32.6433 60.1714 32.2042C59.3499 31.7651 58.5594 31.6766 58.4058 32.0064C58.2521 32.3362 58.7935 32.9594 59.615 33.3985C60.4364 33.8375 61.2269 33.9261 61.3806 33.5963Z" fill="black"/>
<path d="M59.7422 48.0915C62.3597 49.4909 65.6865 48.0361 65.6865 48.0361C65.6865 48.0361 64.7701 44.3159 62.1548 42.9165C59.5395 41.5171 56.8768 41.5309 56.2106 42.9719C55.5444 44.4129 57.1355 46.706 59.7422 48.0915Z" fill="#8ED16F"/>
<path d="M62.4789 46.1979C62.6326 45.8681 62.0912 45.2448 61.2697 44.8058C60.4483 44.3667 59.6578 44.2781 59.5041 44.6079C59.3505 44.9377 59.8918 45.561 60.7133 46.0001C61.5348 46.4391 62.3253 46.5277 62.4789 46.1979Z" fill="#8ED16F"/>
<path opacity="0.3" d="M62.4789 46.1979C62.6326 45.8681 62.0912 45.2448 61.2697 44.8058C60.4483 44.3667 59.6578 44.2781 59.5041 44.6079C59.3505 44.9377 59.8918 45.561 60.7133 46.0001C61.5348 46.4391 62.3253 46.5277 62.4789 46.1979Z" fill="black"/>
<path d="M27.1081 36.1328C27.1081 36.1328 42.3277 52.4338 33.7358 76.6231C25.1439 100.812 48.4638 141.037 48.4638 141.037C48.4638 141.037 48.2137 140.998 47.7502 140.91C16.4873 135.001 0.963712 96.7089 18.3415 68.2636C24.7946 57.6873 30.1093 45.282 27.1081 36.1328Z" fill="#8ED16F"/>
<path d="M0 102.063C0 102.063 17.367 99.1004 18.9496 115.771C20.5321 132.441 52.3448 134.753 52.3448 134.753C52.3448 134.753 52.1292 134.905 51.7475 135.178C25.4803 153.652 0.370843 146.941 4.15472 122.419C5.56479 113.3 5.44836 104.144 0 102.063Z" fill="#8ED16F"/>
<g opacity="0.3">
<path opacity="0.3" d="M0 102.063C0 102.063 17.367 99.1004 18.9496 115.771C20.5321 132.441 52.3448 134.753 52.3448 134.753C52.3448 134.753 52.1292 134.905 51.7475 135.178C25.4803 153.652 0.370843 146.941 4.15472 122.419C5.56479 113.3 5.44836 104.144 0 102.063Z" fill="white"/>
</g>
<path d="M22.7119 101.858C25.3494 101.858 27.4876 95.8834 27.4876 88.5131C27.4876 81.1428 25.3494 75.168 22.7119 75.168C20.0744 75.168 17.9362 81.1428 17.9362 88.5131C17.9362 95.8834 20.0744 101.858 22.7119 101.858Z" fill="#8ED16F"/>
<path opacity="0.3" d="M22.7119 101.858C25.3494 101.858 27.4876 95.8834 27.4876 88.5131C27.4876 81.1428 25.3494 75.168 22.7119 75.168C20.0744 75.168 17.9362 81.1428 17.9362 88.5131C17.9362 95.8834 20.0744 101.858 22.7119 101.858Z" fill="black"/>
<path d="M22.2756 136.979C23.5327 135.632 22.2836 132.111 19.4857 129.115C16.6877 126.118 13.4005 124.78 12.1434 126.127C10.8863 127.473 12.1354 130.994 14.9333 133.991C17.7313 136.987 21.0185 138.325 22.2756 136.979Z" fill="#8ED16F"/>
<path opacity="0.3" d="M22.2756 136.979C23.5327 135.632 22.2836 132.111 19.4857 129.115C16.6877 126.118 13.4005 124.78 12.1434 126.127C10.8863 127.473 12.1354 130.994 14.9333 133.991C17.7313 136.987 21.0185 138.325 22.2756 136.979Z" fill="black"/>
<path d="M156.075 61.3008H43.0241C41.658 61.3008 40.3479 61.882 39.3819 62.9166C38.416 63.9512 37.8733 65.3544 37.8733 66.8176V137.788C37.8733 139.251 38.416 140.654 39.3819 141.688C40.3479 142.723 41.658 143.304 43.0241 143.304H156.075C157.441 143.304 158.751 142.723 159.717 141.688C160.683 140.654 161.226 139.251 161.226 137.788V66.8176C161.226 65.3544 160.683 63.9512 159.717 62.9166C158.751 61.882 157.441 61.3008 156.075 61.3008Z" fill="url(#paint0_linear)"/>
<path d="M154.423 62.2656H44.6735C41.7192 62.2656 39.3243 64.8307 39.3243 67.9949V136.609C39.3243 139.774 41.7192 142.339 44.6735 142.339H154.423C157.378 142.339 159.772 139.774 159.772 136.609V67.9949C159.772 64.8307 157.378 62.2656 154.423 62.2656Z" fill="#010066"/>
<path d="M159.772 76.2793H39.3243V90.9592H159.772V76.2793Z" fill="#010066"/>
<path opacity="0.3" d="M159.772 76.2793H39.3243V90.9592H159.772V76.2793Z" fill="black"/>
<path d="M148.352 101.859H50.7472V108.976H148.352V101.859Z" fill="#D6D6E3"/>
<path d="M58.8452 137.002C64.1215 137.002 68.3987 132.42 68.3987 126.769C68.3987 121.118 64.1215 116.537 58.8452 116.537C53.569 116.537 49.2917 121.118 49.2917 126.769C49.2917 132.42 53.569 137.002 58.8452 137.002Z" fill="#010066"/>
<path opacity="0.3" d="M58.8452 137.002C64.1215 137.002 68.3987 132.42 68.3987 126.769C68.3987 121.118 64.1215 116.537 58.8452 116.537C53.569 116.537 49.2917 121.118 49.2917 126.769C49.2917 132.42 53.569 137.002 58.8452 137.002Z" fill="black"/>
<path d="M152.925 42.5226C153.079 43.0448 153.407 43.4884 153.845 43.7696C155.827 45.1713 160.135 44.8734 160.652 44.8734C160.762 44.8734 160.907 45.0835 161.066 45.4368C161.827 47.118 163.007 52.0459 163.086 53.1543C163.192 54.496 164.356 60.7748 166.262 63.1141C166.32 63.1857 166.379 63.2526 166.435 63.315C168.304 65.3263 170.497 63.1141 170.497 63.1141L170.811 61.9433C170.723 62.4052 170.624 62.9432 170.525 63.5459C170.475 63.8484 170.426 64.1694 170.378 64.4996C170.094 66.3604 169.945 68.2419 169.932 70.1273C169.927 70.8118 169.954 71.4962 170.014 72.1779C170.031 72.3672 170.05 72.5543 170.074 72.7367C170.171 73.567 170.219 74.4031 170.216 75.2399C170.199 80.2094 169.015 86.3913 169.015 86.3913L169.061 86.3751C169.033 86.5298 169.015 86.606 169.015 86.606L169.084 86.5829C169.051 86.8123 169.02 87.0471 168.99 87.2872C168.589 90.4047 168.358 94.2842 168.248 96.5242C168.191 97.7058 168.24 98.8905 168.395 100.062L170.499 115.929V123.318C170.492 124.438 170.619 125.554 170.878 126.639C171.564 129.431 170.999 139.176 170.682 143.799C170.594 145.06 170.525 145.942 170.505 146.196V146.272L170.566 146.247C170.566 146.3 170.566 146.328 170.566 146.328C170.655 146.286 170.75 146.257 170.846 146.24C170.012 147.625 168.5 149.916 167.338 150.302C166.653 150.525 166.044 150.958 165.585 151.547L165.555 151.59L165.512 151.655C165.368 151.861 165.281 152.106 165.26 152.362C165.243 152.318 165.23 152.272 165.221 152.225C165.132 152.74 165.421 153.212 166.329 153.44C166.858 153.548 167.397 153.595 167.935 153.579C171.083 153.579 176.669 152.542 177.286 151.426V147.579L177.387 147.614V147.649L177.773 147.785L178.832 143.979C180.102 142.972 179.048 124.953 178.832 120.813C178.638 117.04 180.818 102.029 181.204 99.3854L181.152 99.3184L181.21 98.9327C181.288 98.9931 181.36 99.0611 181.426 99.136C181.552 99.2971 181.663 99.472 181.756 99.6579C181.938 99.9883 182.094 100.334 182.223 100.692C184.354 106.382 185.313 122.653 185.313 124.113V139.414C185.309 140.924 185.505 142.427 185.895 143.878C186.091 144.641 186.242 145.417 186.348 146.201C186.393 146.508 186.432 146.813 186.469 147.104C186.505 147.395 186.542 147.727 186.57 148C186.57 148.071 186.585 148.14 186.592 148.205C186.598 148.27 186.592 148.267 186.592 148.3C186.65 148.902 186.68 149.297 186.68 149.297C186.688 149.264 186.703 149.234 186.723 149.207L186.734 149.353C186.749 149.298 186.778 149.248 186.818 149.21C186.906 149.117 187.001 149.034 187.103 148.96V150.905L187.051 150.863V151.198C189.246 152.971 192.818 153.507 195.561 153.486C197.34 153.486 198.78 153.255 199.28 152.988C199.996 152.611 199.603 151.734 198.952 151.062C198.448 150.54 197.79 150.138 197.374 150.189C196.68 150.27 194.306 147.39 193.062 145.813L193.202 145.746L193.4 145.653V120.141C193.4 120.141 193.72 110.068 194.67 100.106C195.122 95.0841 194.567 90.0171 193.043 85.2436L193.012 85.1489L193.301 85.1974C193.607 85.2482 193.771 85.2782 193.771 85.2782C193.771 85.2782 193.771 85.1997 193.752 85.0473H193.771C193.771 85.0473 193.4 80.7267 193.396 75.3C193.396 69.1481 193.881 61.6477 195.889 57.4033C197.044 54.9602 197.43 53.0158 197.398 51.4824C197.448 50.1332 197.086 48.8033 196.365 47.6953C196.063 47.2492 195.652 46.9009 195.177 46.6884L195.136 46.663H195.115C194.768 46.5128 194.398 46.4344 194.024 46.4321H189.688C189.186 46.4326 188.693 46.2933 188.256 46.028L186.559 44.9981C185.994 43.6749 185.912 42.0353 186.033 40.4974C186.033 40.375 186.055 40.2526 186.066 40.1325L186.188 39.994C186.283 39.8854 186.372 39.763 186.458 39.6591C186.456 39.7502 186.45 39.8412 186.439 39.9316C186.417 40.0771 186.38 40.1625 186.322 40.181C187.249 40.0517 188.284 39.8554 188.853 39.0887C188.877 39.0587 188.899 39.0264 188.92 38.9941C189.088 38.7024 189.228 38.3929 189.336 38.0704C189.416 37.85 189.523 37.6419 189.653 37.4515C189.796 37.2529 189.981 37.0912 190.134 36.9019L190.16 36.8695C190.705 36.1768 190.736 35.1838 190.742 34.2786C190.753 32.0802 190.692 29.6601 189.319 28.0113C188.179 26.6396 186.359 26.12 184.632 26.06C182.905 25.9999 181.182 26.3325 179.457 26.3417C178.284 26.3417 176.87 26.3209 176.223 27.3601C175.906 27.8704 175.867 28.5378 175.522 29.0274C175.324 29.3091 175.02 29.5516 175.003 29.9026C175.001 30.0645 175.039 30.2241 175.115 30.3644V30.3806C175.533 31.2627 176.422 31.8123 177.349 31.9855C177.192 32.1875 177.048 32.4005 176.917 32.6228C176.351 33.592 176.052 34.7127 176.055 35.8558C176.055 35.9897 176.055 36.1214 176.068 36.253C176.164 37.8056 176.81 39.2603 177.875 40.3196C177.857 40.4489 177.84 40.5782 177.821 40.7052L177.86 40.7422C177.982 40.8607 178.109 40.9731 178.241 41.0793L178.289 41.1186C178.289 41.1994 178.289 41.2802 178.289 41.3495C178.289 41.4834 178.289 41.6197 178.276 41.7513C178.263 41.8829 178.276 41.9637 178.263 42.07L178.235 42.0446L176.128 40.1602L172.741 36.8026C172.741 36.8026 164.272 30.2005 163.847 33.3387C163.796 33.8961 163.94 34.454 164.251 34.9044C165.805 37.4445 171.15 39.606 171.15 39.606C171.15 39.606 174.337 43.2153 176.469 47.1064C176.393 47.1503 176.318 47.1919 176.238 47.2311C174.341 48.1756 171.573 47.7761 171.573 47.7761C168.375 48.3095 168.086 52.0621 168.103 53.5792C168.103 53.6508 168.103 53.7201 168.103 53.7824C168.103 53.8448 168.103 53.8586 168.103 53.8933L163.86 43.2223L163.847 43.1899C163.709 42.8425 163.491 42.5381 163.214 42.3048C162.936 42.0715 162.608 41.9169 162.261 41.8552C159.423 41.3449 152.332 40.2803 152.925 42.5226ZM170.689 146.208C170.75 146.192 170.813 146.179 170.876 146.171L170.857 146.203L170.689 146.208Z" fill="url(#paint1_linear)"/>
<path d="M191.889 144.025C191.889 144.025 195.908 149.436 196.837 149.325C197.766 149.214 199.929 151.422 198.694 152.096C197.458 152.771 190.345 153.2 186.835 150.33V146.004L191.889 144.025Z" fill="#ACA9C9"/>
<path d="M171.581 144.355C171.581 144.355 169.21 148.882 167.562 149.436C165.915 149.99 164.471 151.976 166.635 152.528C168.8 153.08 176.532 151.865 177.252 150.54V144.686L171.581 144.355Z" fill="#ACA9C9"/>
<path d="M168.604 99.8907L170.652 115.543V122.819C170.646 123.923 170.77 125.023 171.023 126.094C171.691 128.849 171.141 138.46 170.831 143.02C170.73 144.508 170.652 145.459 170.652 145.459C171.991 144.796 177.661 146.893 177.661 146.893L178.235 144.803L178.692 143.141C179.93 142.148 178.908 124.373 178.692 120.279C178.552 117.483 179.716 108.416 180.462 102.983C180.678 101.447 180.852 100.212 180.958 99.4681C181.025 99.0063 181.061 98.75 181.061 98.75C181.289 98.9484 181.478 99.1923 181.618 99.4681C181.795 99.7945 181.947 100.136 182.073 100.489C184.147 106.103 185.091 122.152 185.091 123.581V138.674C185.087 140.164 185.278 141.646 185.658 143.078C185.913 144.123 186.1 145.185 186.217 146.258C186.363 147.456 186.432 148.422 186.432 148.422C186.536 147.759 192.926 144.778 192.926 144.778V119.607C192.926 119.607 193.235 109.677 194.164 99.8445C194.563 95.3719 194.161 90.8587 192.978 86.5479C192.721 85.6081 192.465 84.8114 192.243 84.1809C191.865 83.1071 191.596 82.5137 191.596 82.5137H170.544C170.191 82.5853 169.897 83.3473 169.632 84.5042C169.46 85.2801 169.309 86.2316 169.177 87.2753C168.787 90.3489 168.563 94.1753 168.455 96.3876C168.401 97.5577 168.45 98.7307 168.604 99.8907Z" fill="#618FD8"/>
<g opacity="0.1">
<path opacity="0.1" d="M192.555 144.85V119.68C192.555 119.68 192.864 109.75 193.793 99.9172C194.722 90.0844 191.206 82.584 191.206 82.584H191.617C191.617 82.584 195.121 90.0913 194.205 99.9172C193.288 109.743 192.967 119.68 192.967 119.68V144.85C192.967 144.85 186.577 147.832 186.473 148.494C186.473 148.494 186.473 148.347 186.441 148.093C187.834 147.056 192.555 144.85 192.555 144.85Z" fill="black"/>
<path opacity="0.1" d="M171.271 145.391C171.076 145.395 170.884 145.437 170.704 145.515V145.404C170.892 145.384 171.082 145.38 171.271 145.391Z" fill="black"/>
<path opacity="0.1" d="M178.332 143.197C179.569 142.204 178.547 124.43 178.332 120.335C178.116 116.241 180.703 98.8086 180.703 98.8086C180.839 98.9207 180.959 99.0528 181.059 99.2012C180.68 101.806 178.558 116.615 178.746 120.335C178.961 124.42 179.983 142.195 178.746 143.197L177.715 146.949L177.34 146.815L178.332 143.197Z" fill="black"/>
</g>
<path d="M172.817 55.2626L170.661 63.4327C170.661 63.4327 168.392 65.742 166.538 63.4327C164.684 61.1235 163.541 54.9324 163.429 53.6069C163.317 52.2814 161.676 45.4368 161.058 45.4368C160.439 45.4368 154.255 45.8778 153.533 43.1275C152.955 40.9153 159.859 41.9729 162.623 42.4694C162.963 42.5315 163.283 42.6847 163.554 42.9148C163.824 43.1449 164.036 43.4445 164.169 43.7857L168.408 54.6276C168.408 54.6276 170.652 51.8403 172.817 55.2626Z" fill="#F7C4A7"/>
<path d="M186.732 36.2734C186.732 36.2734 184.052 44.3327 187.454 47.2031C190.856 50.0735 175.287 50.8471 175.287 50.8471L177.4 48.6949C177.4 48.6949 178.895 42.3467 177.864 37.047L186.732 36.2734Z" fill="#F7C4A7"/>
<path opacity="0.1" d="M183.433 47.2043C183.433 47.2043 186.165 46.4861 186.165 45.7148L188.586 47.2043H194.668C194.668 47.2043 199.101 49.853 195.39 57.8037C191.68 65.7544 193.329 85.2837 193.329 85.2837C193.329 85.2837 180.136 82.7435 169.209 86.6092C169.209 86.6092 170.859 77.8872 170.24 72.92C169.621 67.9529 171.271 60.9974 171.271 60.9974L172.198 56.8015C172.198 56.8015 172.146 52.8758 168.332 54.8687C168.332 54.8687 167.765 49.1833 171.682 48.5206C171.682 48.5206 176.21 49.1833 177.558 46.754C177.558 46.7632 180.548 48.6407 183.433 47.2043Z" fill="black"/>
<path d="M183.433 46.9836C183.433 46.9836 186.165 46.2654 186.165 45.4941L187.939 46.5864C188.363 46.8466 188.843 46.9835 189.332 46.9836H193.586C194.031 46.9822 194.469 47.0942 194.865 47.3102C195.262 47.5262 195.604 47.8401 195.865 48.226C196.842 49.697 197.717 52.5974 195.391 57.583C191.68 65.5314 193.329 85.063 193.329 85.063C193.329 85.063 180.136 82.5228 169.21 86.3885C169.21 86.3885 170.859 77.6665 170.24 72.6993C169.621 67.7321 171.271 60.7929 171.271 60.7929L172.198 56.597C172.198 56.597 172.146 52.6713 168.332 54.6641C168.332 54.6641 167.78 49.1358 171.521 48.3461C171.625 48.3213 171.732 48.3135 171.838 48.323C172.638 48.413 176.365 48.7017 177.56 46.5379C177.558 46.5402 180.548 48.4176 183.433 46.9836Z" fill="#E14B5A"/>
<path opacity="0.1" d="M193.845 57.0292C193.845 57.0292 190.546 59.2368 185.186 57.0292C185.186 57.0292 179.311 54.7199 177.454 50.1846C175.598 45.6492 186.833 50.9582 186.833 50.9582C186.833 50.9582 189.205 50.9582 189.925 50.4062C190.645 49.8543 195.699 54.5998 193.845 57.0292Z" fill="black"/>
<path d="M193.845 56.5874C193.845 56.5874 190.546 58.795 185.186 56.5874C185.186 56.5874 179.311 54.2782 177.454 49.7428C175.598 45.2075 171.271 40.2403 171.271 40.2403C171.271 40.2403 163.746 37.1482 164.156 34.0584C164.565 30.9687 172.814 37.4807 172.814 37.4807L176.113 40.7922L186.833 50.5072C186.833 50.5072 189.205 50.5072 189.925 49.9553C190.645 49.4034 195.699 54.1581 193.845 56.5874Z" fill="#F7C4A7"/>
<path opacity="0.1" d="M177.765 37.3771L186.628 36.6035C186.173 38.063 185.863 39.5701 185.703 41.0996C184.673 42.244 183.264 42.9094 181.78 42.9526C180.296 42.9958 178.856 42.4133 177.769 41.3305C177.995 40.0237 177.993 38.6834 177.765 37.3771Z" fill="black"/>
<path d="M181.734 42.6225C184.865 42.6225 187.402 39.9044 187.402 36.5515C187.402 33.1985 184.865 30.4805 181.734 30.4805C178.604 30.4805 176.066 33.1985 176.066 36.5515C176.066 39.9044 178.604 42.6225 181.734 42.6225Z" fill="#F7C4A7"/>
<path opacity="0.1" d="M184.845 37.8687C184.513 37.2822 185.188 36.5178 184.966 35.8759C184.761 35.2847 183.946 35.1831 183.672 34.6312C183.457 34.1855 183.672 33.6382 183.586 33.1463C183.463 32.5113 182.825 32.1164 182.219 32.0841C181.613 32.0517 181.029 32.2942 180.453 32.502C179.515 32.8415 178.528 33.1025 177.545 32.9824C176.562 32.8623 175.581 32.2896 175.143 31.3497C175.071 31.2128 175.034 31.0587 175.033 30.9017C175.05 30.5554 175.348 30.3175 175.54 30.0404C175.876 29.5578 175.915 28.8996 176.221 28.3962C176.846 27.3709 178.22 27.3963 179.362 27.3917C181.044 27.3917 182.717 27.0545 184.399 27.1146C186.081 27.1746 187.849 27.685 188.963 29.0382C190.3 30.6662 190.36 33.0493 190.35 35.22C190.35 36.1137 190.315 37.0859 189.783 37.7764C189.627 37.9773 189.438 38.1435 189.289 38.349C188.965 38.8109 188.879 39.4021 188.575 39.8708C188.036 40.7045 186.984 40.9077 186.046 41.0416C186.322 41.0024 186.094 39.0233 186.046 38.8409C185.865 37.9311 185.669 37.9496 184.845 37.8687Z" fill="black"/>
<path d="M184.845 37.65C184.513 37.0634 185.188 36.2991 184.966 35.6571C184.761 35.0659 183.946 34.9643 183.672 34.4124C183.457 33.9667 183.672 33.4194 183.586 32.9276C183.463 32.2925 182.825 31.8977 182.219 31.8653C181.613 31.833 181.029 32.0755 180.453 32.2833C179.515 32.6228 178.528 32.8837 177.545 32.7636C176.562 32.6435 175.581 32.0708 175.143 31.131C175.071 30.9941 175.034 30.8399 175.033 30.683C175.05 30.3366 175.348 30.0988 175.54 29.8216C175.876 29.339 175.915 28.6809 176.221 28.1775C176.846 27.1522 178.22 27.1776 179.362 27.1729C181.044 27.1729 182.717 26.8358 184.399 26.8958C186.081 26.9559 187.849 27.4662 188.963 28.8194C190.3 30.4474 190.36 32.8306 190.35 35.0013C190.35 35.8949 190.315 36.8671 189.783 37.5576C189.627 37.7585 189.438 37.9248 189.289 38.1303C188.965 38.5921 188.879 39.1833 188.575 39.6521C188.036 40.4857 186.984 40.6889 186.046 40.8229C186.322 40.7836 186.094 38.8046 186.046 38.6222C185.865 37.7008 185.669 37.7285 184.845 37.65Z" fill="#281C1C"/>
<path opacity="0.1" d="M193.793 57.3057C193.793 57.3057 191.009 49.5766 188.845 49.3573C186.68 49.1379 192.967 49.3573 192.967 49.3573L195.028 53.3315L193.793 57.3057Z" fill="black"/>
<path d="M194 57.3057C194 57.3057 191.216 49.5766 189.052 49.3573C186.887 49.1379 193.174 49.3573 193.174 49.3573L195.235 53.3315L194 57.3057Z" fill="#E14B5A"/>
<path d="M186.208 146.277C186.354 147.475 186.423 148.44 186.423 148.44C186.527 147.778 192.918 144.796 192.918 144.796V143.002C192.755 142.996 192.592 143.004 192.43 143.028C191.191 143.205 190.041 143.85 188.981 144.538C188.085 145.168 187.159 145.748 186.208 146.277Z" fill="#618FD8"/>
<path opacity="0.3" d="M186.208 146.277C186.354 147.475 186.423 148.44 186.423 148.44C186.527 147.778 192.918 144.796 192.918 144.796V143.002C192.755 142.996 192.592 143.004 192.43 143.028C191.191 143.205 190.041 143.85 188.981 144.538C188.085 145.168 187.159 145.748 186.208 146.277Z" fill="black"/>
<path d="M170.652 145.458C171.991 144.796 177.661 146.892 177.661 146.892L178.235 144.803C177.245 144.588 176.262 144.32 175.296 144.001C174.845 143.862 174.404 143.687 173.977 143.479C173.691 143.316 173.397 143.17 173.097 143.041C172.357 142.768 171.588 142.884 170.829 143.02C170.73 144.507 170.652 145.458 170.652 145.458Z" fill="#618FD8"/>
<path opacity="0.3" d="M170.652 145.458C171.991 144.796 177.661 146.892 177.661 146.892L178.235 144.803C177.245 144.588 176.262 144.32 175.296 144.001C174.845 143.862 174.404 143.687 173.977 143.479C173.691 143.316 173.397 143.17 173.097 143.041C172.357 142.768 171.588 142.884 170.829 143.02C170.73 144.507 170.652 145.458 170.652 145.458Z" fill="black"/>
<path opacity="0.4" d="M198.638 151.753C198.724 151.713 198.8 151.653 198.862 151.577C198.923 151.501 198.967 151.411 198.991 151.314C199.03 151.466 199.015 151.629 198.95 151.77C198.885 151.912 198.774 152.023 198.638 152.083C197.4 152.746 190.289 153.187 186.779 150.317V149.986C190.289 152.857 197.4 152.416 198.638 151.753Z" fill="white"/>
<path opacity="0.4" d="M166.581 152.193C168.737 152.745 176.478 151.531 177.198 150.205V150.535C176.475 151.861 168.746 153.075 166.581 152.524C165.697 152.293 165.415 151.831 165.503 151.325C165.572 151.699 165.896 152.009 166.581 152.193Z" fill="white"/>
<path opacity="0.1" d="M179.155 71.7696C179.155 71.7696 176.887 70.996 176.268 71.7696C175.65 72.5432 170.361 74.356 170.361 74.356" fill="black"/>
<path d="M153.492 41.4355H164.52V41.1861H153.492V41.4355Z" fill="#8ED16F"/>
<path d="M153.492 41.6836H164.52V41.4342H153.492V41.6836Z" fill="#8ED16F"/>
<path opacity="0.1" d="M153.492 41.6836H164.52V41.4342H153.492V41.6836Z" fill="black"/>
<path d="M153.492 41.9336H164.52V41.6842H153.492V41.9336Z" fill="#8ED16F"/>
<path d="M153.492 42.1816H164.52V41.9322H153.492V42.1816Z" fill="#8ED16F"/>
<path opacity="0.1" d="M153.492 42.1816H164.52V41.9322H153.492V42.1816Z" fill="black"/>
<path d="M153.492 42.4297H164.52V42.1803H153.492V42.4297Z" fill="#8ED16F"/>
<path d="M153.492 42.6777H164.52V42.4283H153.492V42.6777Z" fill="#8ED16F"/>
<path opacity="0.1" d="M153.492 42.6777H164.52V42.4283H153.492V42.6777Z" fill="black"/>
<path d="M153.492 42.9258H164.52V42.6764H153.492V42.9258Z" fill="#8ED16F"/>
<path d="M153.492 43.1738H164.52V42.9244H153.492V43.1738Z" fill="#8ED16F"/>
<path opacity="0.1" d="M153.492 43.1738H164.52V42.9244H153.492V43.1738Z" fill="black"/>
<path d="M153.492 39.4492H164.52V39.1998H153.492V39.4492Z" fill="#8ED16F"/>
<path d="M161.293 33.5447L169.771 41.0977L169.92 40.9059L161.441 33.353L161.293 33.5447Z" fill="#8ED16F"/>
<path d="M153.562 29.5701L162.041 37.123L162.19 36.9313L153.711 29.3784L153.562 29.5701Z" fill="#8ED16F"/>
<path d="M153.492 39.6953H164.52V39.4459H153.492V39.6953Z" fill="#8ED16F"/>
<path opacity="0.1" d="M153.492 39.6953H164.52V39.4459H153.492V39.6953Z" fill="black"/>
<path d="M153.492 39.9473H164.52V39.6979H153.492V39.9473Z" fill="#8ED16F"/>
<path d="M153.492 40.1934H164.52V39.944H153.492V40.1934Z" fill="#8ED16F"/>
<path opacity="0.1" d="M153.492 40.1934H164.52V39.944H153.492V40.1934Z" fill="black"/>
<path d="M153.492 40.4414H164.52V40.192H153.492V40.4414Z" fill="#8ED16F"/>
<path d="M153.492 40.6914H164.52V40.442H153.492V40.6914Z" fill="#8ED16F"/>
<path opacity="0.1" d="M153.492 40.6914H164.52V40.442H153.492V40.6914Z" fill="black"/>
<path d="M153.492 40.9395H164.52V40.6901H153.492V40.9395Z" fill="#8ED16F"/>
<path d="M153.492 41.1875H164.52V40.9381H153.492V41.1875Z" fill="#8ED16F"/>
<path opacity="0.1" d="M153.492 41.1875H164.52V40.9381H153.492V41.1875Z" fill="black"/>
<path d="M152.094 50.8704L156.045 51.6562L157.475 43.4078L153.524 42.6219L152.094 50.8704Z" fill="#8ED16F"/>
<path d="M155.649 47.3274C155.816 46.3682 155.588 45.5184 155.141 45.4295C154.694 45.3405 154.196 46.0461 154.03 47.0053C153.864 47.9646 154.091 48.8143 154.539 48.9032C154.986 48.9922 155.483 48.2867 155.649 47.3274Z" fill="#8ED16F"/>
<path opacity="0.1" d="M155.649 47.3274C155.816 46.3682 155.588 45.5184 155.141 45.4295C154.694 45.3405 154.196 46.0461 154.03 47.0053C153.864 47.9646 154.091 48.8143 154.539 48.9032C154.986 48.9922 155.483 48.2867 155.649 47.3274Z" fill="black"/>
<path d="M152.77 68.2805L156.721 69.0664L158.152 60.8179L154.2 60.0321L152.77 68.2805Z" fill="#8ED16F"/>
<path d="M156.324 64.7356C156.49 63.7764 156.262 62.9266 155.815 62.8377C155.368 62.7487 154.87 63.4543 154.704 64.4135C154.538 65.3728 154.765 66.2225 155.213 66.3114C155.66 66.4004 156.157 65.6949 156.324 64.7356Z" fill="#8ED16F"/>
<path opacity="0.1" d="M156.324 64.7356C156.49 63.7764 156.262 62.9266 155.815 62.8377C155.368 62.7487 154.87 63.4543 154.704 64.4135C154.538 65.3728 154.765 66.2225 155.213 66.3114C155.66 66.4004 156.157 65.6949 156.324 64.7356Z" fill="black"/>
<path d="M138.479 25.4878L136.566 29.2734L143.455 33.2663L145.367 29.4806L138.479 25.4878Z" fill="#8ED16F"/>
<path d="M143.089 30.3864C143.307 29.9577 142.834 29.2305 142.033 28.7622C141.231 28.2939 140.404 28.2618 140.186 28.6905C139.968 29.1192 140.441 29.8464 141.242 30.3148C142.044 30.7831 142.871 30.8152 143.089 30.3864Z" fill="#8ED16F"/>
<path opacity="0.1" d="M143.089 30.3864C143.307 29.9577 142.834 29.2305 142.033 28.7622C141.231 28.2939 140.404 28.2618 140.186 28.6905C139.968 29.1192 140.441 29.8464 141.242 30.3148C142.044 30.7831 142.871 30.8152 143.089 30.3864Z" fill="black"/>
<path d="M123.352 100.197L121.439 103.982L128.328 107.975L130.241 104.19L123.352 100.197Z" fill="#8ED16F"/>
<path d="M127.269 104.978C127.485 104.55 127.011 103.826 126.21 103.361C125.409 102.897 124.584 102.868 124.367 103.296C124.151 103.725 124.625 104.449 125.426 104.913C126.227 105.377 127.052 105.406 127.269 104.978Z" fill="#8ED16F"/>
<path opacity="0.1" d="M127.269 104.978C127.485 104.55 127.011 103.826 126.21 103.361C125.409 102.897 124.584 102.868 124.367 103.296C124.151 103.725 124.625 104.449 125.426 104.913C126.227 105.377 127.052 105.406 127.269 104.978Z" fill="black"/>
<path d="M114.097 38.5444L112.185 42.3301L119.074 46.3229L120.986 42.5372L114.097 38.5444Z" fill="#8ED16F"/>
<path d="M118.012 43.3217C118.228 42.8933 117.754 42.1695 116.953 41.7051C116.152 41.2408 115.327 41.2117 115.111 41.6402C114.894 42.0687 115.368 42.7924 116.169 43.2568C116.97 43.7211 117.795 43.7502 118.012 43.3217Z" fill="#8ED16F"/>
<path opacity="0.1" d="M118.012 43.3217C118.228 42.8933 117.754 42.1695 116.953 41.7051C116.152 41.2408 115.327 41.2117 115.111 41.6402C114.894 42.0687 115.368 42.7924 116.169 43.2568C116.97 43.7211 117.795 43.7502 118.012 43.3217Z" fill="black"/>
<path d="M125.697 25.4858L123.784 29.2715L130.673 33.2643L132.586 29.4786L125.697 25.4858Z" fill="#8ED16F"/>
<path d="M129.611 30.2631C129.828 29.8347 129.354 29.1109 128.553 28.6465C127.752 28.1822 126.927 28.1531 126.71 28.5816C126.494 29.0101 126.968 29.7338 127.769 30.1982C128.57 30.6625 129.395 30.6916 129.611 30.2631Z" fill="#8ED16F"/>
<path opacity="0.1" d="M129.611 30.2631C129.828 29.8347 129.354 29.1109 128.553 28.6465C127.752 28.1822 126.927 28.1531 126.71 28.5816C126.494 29.0101 126.968 29.7338 127.769 30.1982C128.57 30.6625 129.395 30.6916 129.611 30.2631Z" fill="black"/>
<path d="M137.277 40.8935L133.282 41.3613L134.134 49.7011L138.129 49.2332L137.277 40.8935Z" fill="#8ED16F"/>
<path d="M135.832 47.0609C136.284 47.0079 136.571 46.1787 136.472 45.2089C136.373 44.239 135.926 43.4957 135.474 43.5486C135.021 43.6016 134.735 44.4308 134.834 45.4006C134.933 46.3705 135.38 47.1138 135.832 47.0609Z" fill="#8ED16F"/>
<path opacity="0.1" d="M135.832 47.0609C136.284 47.0079 136.571 46.1787 136.472 45.2089C136.373 44.239 135.926 43.4957 135.474 43.5486C135.021 43.6016 134.735 44.4308 134.834 45.4006C134.933 46.3705 135.38 47.1138 135.832 47.0609Z" fill="black"/>
<path d="M164.668 86.5595L160.673 87.0273L161.525 95.3671L165.52 94.8993L164.668 86.5595Z" fill="#8ED16F"/>
<path d="M163.225 92.7269C163.677 92.6739 163.963 91.8448 163.864 90.8749C163.765 89.905 163.319 89.1617 162.866 89.2147C162.414 89.2676 162.128 90.0968 162.227 91.0667C162.326 92.0365 162.773 92.7798 163.225 92.7269Z" fill="#8ED16F"/>
<path opacity="0.1" d="M163.225 92.7269C163.677 92.6739 163.963 91.8448 163.864 90.8749C163.765 89.905 163.319 89.1617 162.866 89.2147C162.414 89.2676 162.128 90.0968 162.227 91.0667C162.326 92.0365 162.773 92.7798 163.225 92.7269Z" fill="black"/>
<path d="M121.634 58.6089L119.721 62.3945L126.61 66.3873L128.523 62.6017L121.634 58.6089Z" fill="#8ED16F"/>
<path d="M125.547 63.3901C125.764 62.9616 125.29 62.2378 124.489 61.7735C123.687 61.3092 122.862 61.2801 122.646 61.7086C122.429 62.137 122.903 62.8608 123.705 63.3251C124.506 63.7895 125.331 63.8186 125.547 63.3901Z" fill="#8ED16F"/>
<path opacity="0.1" d="M125.547 63.3901C125.764 62.9616 125.29 62.2378 124.489 61.7735C123.687 61.3092 122.862 61.2801 122.646 61.7086C122.429 62.137 122.903 62.8608 123.705 63.3251C124.506 63.7895 125.331 63.8186 125.547 63.3901Z" fill="black"/>
<path d="M104.25 53.2925L102.337 57.0781L109.226 61.0709L111.139 57.2853L104.25 53.2925Z" fill="#8ED16F"/>
<path d="M108.737 58.322C108.955 57.8933 108.482 57.1661 107.681 56.6977C106.879 56.2294 106.052 56.1973 105.834 56.6261C105.615 57.0548 106.088 57.782 106.89 58.2503C107.691 58.7186 108.518 58.7507 108.737 58.322Z" fill="#8ED16F"/>
<path opacity="0.1" d="M108.737 58.322C108.955 57.8933 108.482 57.1661 107.681 56.6977C106.879 56.2294 106.052 56.1973 105.834 56.6261C105.615 57.0548 106.088 57.782 106.89 58.2503C107.691 58.7186 108.518 58.7507 108.737 58.322Z" fill="black"/>
<path d="M98.6823 142.822L96.7695 146.607L103.658 150.6L105.571 146.815L98.6823 142.822Z" fill="#8ED16F"/>
<path d="M102.597 147.601C102.813 147.173 102.339 146.449 101.538 145.984C100.737 145.52 99.9118 145.491 99.6954 145.919C99.4789 146.348 99.9528 147.072 100.754 147.536C101.555 148 102.38 148.03 102.597 147.601Z" fill="#8ED16F"/>
<path opacity="0.1" d="M102.597 147.601C102.813 147.173 102.339 146.449 101.538 145.984C100.737 145.52 99.9118 145.491 99.6954 145.919C99.4789 146.348 99.9528 147.072 100.754 147.536C101.555 148 102.38 148.03 102.597 147.601Z" fill="black"/>
<path d="M93.6701 144.281L92.937 148.514L100.639 150.044L101.372 145.812L93.6701 144.281Z" fill="#8ED16F"/>
<path opacity="0.05" d="M93.6701 144.281L92.937 148.514L100.639 150.044L101.372 145.812L93.6701 144.281Z" fill="black"/>
<path d="M98.7682 147.539C98.8512 147.06 98.1924 146.527 97.2968 146.349C96.4011 146.171 95.6078 146.415 95.5248 146.894C95.4418 147.373 96.1006 147.906 96.9963 148.084C97.8919 148.262 98.6853 148.018 98.7682 147.539Z" fill="#8ED16F"/>
<path opacity="0.1" d="M98.7682 147.539C98.8512 147.06 98.1924 146.527 97.2968 146.349C96.4011 146.171 95.6078 146.415 95.5248 146.894C95.4418 147.373 96.1006 147.906 96.9963 148.084C97.8919 148.262 98.6853 148.018 98.7682 147.539Z" fill="black"/>
<path d="M94.3917 146.82L93.6586 151.053L101.36 152.583L102.093 148.351L94.3917 146.82Z" fill="#8ED16F"/>
<path d="M99.4877 150.076C99.5706 149.597 98.9118 149.064 98.0162 148.886C97.1205 148.708 96.3272 148.952 96.2442 149.432C96.1613 149.911 96.8201 150.443 97.7157 150.621C98.6114 150.799 99.4047 150.555 99.4877 150.076Z" fill="#8ED16F"/>
<path opacity="0.1" d="M99.4877 150.076C99.5706 149.597 98.9118 149.064 98.0162 148.886C97.1205 148.708 96.3272 148.952 96.2442 149.432C96.1613 149.911 96.8201 150.443 97.7157 150.621C98.6114 150.799 99.4047 150.555 99.4877 150.076Z" fill="black"/>
<path d="M106.808 153.703L104.896 157.488L111.784 161.481L113.697 157.695L106.808 153.703Z" fill="#8ED16F"/>
<path d="M110.725 158.482C110.941 158.053 110.467 157.33 109.666 156.865C108.865 156.401 108.04 156.372 107.823 156.8C107.607 157.229 108.081 157.953 108.882 158.417C109.683 158.881 110.508 158.91 110.725 158.482Z" fill="#8ED16F"/>
<path opacity="0.1" d="M110.725 158.482C110.941 158.053 110.467 157.33 109.666 156.865C108.865 156.401 108.04 156.372 107.823 156.8C107.607 157.229 108.081 157.953 108.882 158.417C109.683 158.881 110.508 158.91 110.725 158.482Z" fill="black"/>
<path d="M101.798 155.16L101.065 159.393L108.766 160.923L109.499 156.691L101.798 155.16Z" fill="#8ED16F"/>
<path opacity="0.05" d="M101.798 155.16L101.065 159.393L108.766 160.923L109.499 156.691L101.798 155.16Z" fill="black"/>
<path d="M106.894 158.418C106.977 157.939 106.318 157.406 105.422 157.228C104.526 157.05 103.733 157.294 103.65 157.773C103.567 158.252 104.226 158.785 105.122 158.963C106.017 159.141 106.811 158.897 106.894 158.418Z" fill="#8ED16F"/>
<path opacity="0.1" d="M106.894 158.418C106.977 157.939 106.318 157.406 105.422 157.228C104.526 157.05 103.733 157.294 103.65 157.773C103.567 158.252 104.226 158.785 105.122 158.963C106.017 159.141 106.811 158.897 106.894 158.418Z" fill="black"/>
<path d="M102.519 157.699L101.786 161.932L109.487 163.462L110.22 159.23L102.519 157.699Z" fill="#8ED16F"/>
<path d="M107.617 160.957C107.7 160.478 107.041 159.945 106.146 159.767C105.25 159.589 104.457 159.833 104.374 160.312C104.291 160.791 104.949 161.324 105.845 161.502C106.741 161.68 107.534 161.436 107.617 160.957Z" fill="#8ED16F"/>
<path opacity="0.1" d="M107.617 160.957C107.7 160.478 107.041 159.945 106.146 159.767C105.25 159.589 104.457 159.833 104.374 160.312C104.291 160.791 104.949 161.324 105.845 161.502C106.741 161.68 107.534 161.436 107.617 160.957Z" fill="black"/>
<path d="M119 146.691L117.088 150.477L123.977 154.469L125.889 150.684L119 146.691Z" fill="#8ED16F"/>
<path d="M122.913 151.468C123.129 151.04 122.655 150.316 121.854 149.852C121.053 149.387 120.228 149.358 120.012 149.787C119.795 150.215 120.269 150.939 121.07 151.403C121.871 151.868 122.696 151.897 122.913 151.468Z" fill="#8ED16F"/>
<path opacity="0.1" d="M122.913 151.468C123.129 151.04 122.655 150.316 121.854 149.852C121.053 149.387 120.228 149.358 120.012 149.787C119.795 150.215 120.269 150.939 121.07 151.403C121.871 151.868 122.696 151.897 122.913 151.468Z" fill="black"/>
<path d="M113.989 148.149L113.256 152.381L120.957 153.911L121.69 149.679L113.989 148.149Z" fill="#8ED16F"/>
<path opacity="0.05" d="M113.989 148.149L113.256 152.381L120.957 153.911L121.69 149.679L113.989 148.149Z" fill="black"/>
<path d="M119.085 151.406C119.168 150.927 118.509 150.394 117.613 150.216C116.717 150.039 115.924 150.283 115.841 150.762C115.758 151.241 116.417 151.773 117.313 151.951C118.208 152.129 119.002 151.885 119.085 151.406Z" fill="#8ED16F"/>
<path opacity="0.1" d="M119.085 151.406C119.168 150.927 118.509 150.394 117.613 150.216C116.717 150.039 115.924 150.283 115.841 150.762C115.758 151.241 116.417 151.773 117.313 151.951C118.208 152.129 119.002 151.885 119.085 151.406Z" fill="black"/>
<path d="M114.71 150.69L113.977 154.922L121.678 156.452L122.411 152.22L114.71 150.69Z" fill="#8ED16F"/>
<path d="M119.808 153.947C119.891 153.468 119.232 152.935 118.336 152.757C117.441 152.58 116.647 152.824 116.564 153.303C116.481 153.782 117.14 154.314 118.036 154.492C118.932 154.67 119.725 154.426 119.808 153.947Z" fill="#8ED16F"/>
<path opacity="0.1" d="M119.808 153.947C119.891 153.468 119.232 152.935 118.336 152.757C117.441 152.58 116.647 152.824 116.564 153.303C116.481 153.782 117.14 154.314 118.036 154.492C118.932 154.67 119.725 154.426 119.808 153.947Z" fill="black"/>
</g>
<defs>
<linearGradient id="paint0_linear" x1="99.5495" y1="143.304" x2="99.5495" y2="61.3008" gradientUnits="userSpaceOnUse">
<stop stop-color="#808080" stop-opacity="0.25"/>
<stop offset="0.54" stop-color="#808080" stop-opacity="0.12"/>
<stop offset="1" stop-color="#808080" stop-opacity="0.1"/>
</linearGradient>
<linearGradient id="paint1_linear" x1="-138526" y1="96665" x2="-138526" y2="26246" gradientUnits="userSpaceOnUse">
<stop stop-color="#808080" stop-opacity="0.25"/>
<stop offset="0.54" stop-color="#808080" stop-opacity="0.12"/>
<stop offset="1" stop-color="#808080" stop-opacity="0.1"/>
</linearGradient>
<clipPath id="clip0">
<rect width="210" height="165" fill="white"/>
</clipPath>
</defs>
</svg>
