<svg width="320" height="194" viewBox="0 0 320 194" fill="none" xmlns="http://www.w3.org/2000/svg">
<path d="M57.0301 174.425C59.5173 174.703 61.9684 175.242 64.3429 176.033L64.4435 176.068L64.7048 176.159C77.9735 180.893 84.07 180.004 89.287 178.405C103.36 174.078 111.733 155.447 134.556 159.05C144.236 160.558 152.022 162.659 158.093 166.891L158.224 166.991C159.093 167.599 159.943 168.223 160.737 168.861C172.608 176.611 184.434 166.509 187.827 164.222C188.078 164.041 188.33 162.604 188.591 162.423L188.802 162.262C203.674 151.778 227.331 141.153 250.119 143.766C289.322 148.244 305.074 192.684 305.074 192.684H12.2684C16.8421 182.175 35.1418 171.922 57.0301 174.425Z" fill="#E3CDC9"/>
<path d="M298.063 101.061C299.611 101.061 300.867 99.7869 300.867 98.2158C300.867 96.6447 299.611 95.3711 298.063 95.3711C296.514 95.3711 295.258 96.6447 295.258 98.2158C295.258 99.7869 296.514 101.061 298.063 101.061Z" stroke="white" stroke-width="1.09" stroke-miterlimit="10"/>
<path d="M168.442 31.505C168.434 31.8014 168.339 32.0889 168.168 32.3315C167.998 32.5741 167.76 32.7611 167.484 32.8691C167.208 32.9771 166.906 33.0012 166.616 32.9386C166.326 32.876 166.061 32.7293 165.854 32.5169C165.648 32.3045 165.508 32.0359 165.453 31.7445C165.398 31.4532 165.43 31.1521 165.545 30.8789C165.66 30.6057 165.854 30.3726 166.101 30.2086C166.348 30.0446 166.638 29.9571 166.934 29.957C167.338 29.965 167.723 30.1319 168.006 30.4216C168.288 30.7113 168.445 31.1006 168.442 31.505Z" stroke="white" stroke-width="1.09" stroke-miterlimit="10"/>
<path d="M37.0618 23.1984H102.44C102.44 23.1984 102.129 20.6 94.8609 18.5242C87.5933 16.4485 82.3863 21.771 74.1738 18.5242C65.9613 15.2774 61.6088 10.6233 51.0291 13.2168C40.4493 15.8102 37.0618 23.1984 37.0618 23.1984Z" stroke="#FAFAFA" stroke-width="1.1" stroke-linecap="round" stroke-linejoin="round"/>
<path d="M244.335 46.1268H278.145C278.145 46.1268 277.979 44.4933 274.225 43.1865C270.47 41.8798 267.771 45.2271 263.524 43.1865C259.277 41.146 257.026 38.2158 251.557 39.8493C249.971 40.3099 248.503 41.1099 247.256 42.1938C246.009 43.2777 245.012 44.6197 244.335 46.1268V46.1268Z" stroke="#FAFAFA" stroke-width="1.1" stroke-linecap="round" stroke-linejoin="round"/>
<path d="M226.374 14.4661C227.347 8.42337 223.238 2.73576 217.195 1.76246C211.152 0.789166 205.464 4.89875 204.491 10.9415C203.518 16.9842 207.627 22.6718 213.67 23.6451C219.713 24.6184 225.401 20.5088 226.374 14.4661Z" fill="#FDB9B9"/>
<path d="M209.288 76.6797H94.2429V192.092H209.288V76.6797Z" fill="white"/>
<path d="M209.293 58.526V76.68H94.2479V58.526C94.2479 56.7931 94.9363 55.1312 96.1616 53.9059C97.387 52.6806 99.0489 51.9922 100.782 51.9922H202.765C204.497 51.9935 206.157 52.6825 207.381 53.9077C208.606 55.1329 209.293 56.794 209.293 58.526Z" fill="#8155FF"/>
<path d="M191.461 68.6795C194.451 68.6795 196.874 66.2561 196.874 63.2665C196.874 60.277 194.451 57.8535 191.461 57.8535C188.471 57.8535 186.048 60.277 186.048 63.2665C186.048 66.2561 188.471 68.6795 191.461 68.6795Z" fill="#2B4183"/>
<path d="M191.461 65.3006C192.283 65.3006 193.072 64.9738 193.654 64.3923C194.235 63.8107 194.562 63.022 194.562 62.1995V48.187C194.562 47.3645 194.235 46.5758 193.654 45.9942C193.072 45.4127 192.283 45.0859 191.461 45.0859C190.639 45.0859 189.85 45.4127 189.268 45.9942C188.687 46.5758 188.36 47.3645 188.36 48.187V62.1995C188.36 63.022 188.687 63.8107 189.268 64.3923C189.85 64.9738 190.639 65.3006 191.461 65.3006Z" fill="#FFCB2D"/>
<path d="M153.263 68.6795C156.252 68.6795 158.676 66.2561 158.676 63.2665C158.676 60.277 156.252 57.8535 153.263 57.8535C150.273 57.8535 147.85 60.277 147.85 63.2665C147.85 66.2561 150.273 68.6795 153.263 68.6795Z" fill="#2B4183"/>
<path d="M153.263 65.3006C154.086 65.3006 154.875 64.974 155.457 64.3926C156.04 63.8112 156.368 63.0224 156.369 62.1995V48.187C156.368 47.3641 156.04 46.5753 155.457 45.9939C154.875 45.4125 154.086 45.0859 153.263 45.0859C152.44 45.0859 151.652 45.4127 151.07 45.9942C150.489 46.5758 150.162 47.3645 150.162 48.187V62.1995C150.162 63.022 150.489 63.8107 151.07 64.3923C151.652 64.9738 152.44 65.3006 153.263 65.3006Z" fill="#FFCB2D"/>
<path d="M115.066 68.6795C118.055 68.6795 120.479 66.2561 120.479 63.2665C120.479 60.277 118.055 57.8535 115.066 57.8535C112.076 57.8535 109.653 60.277 109.653 63.2665C109.653 66.2561 112.076 68.6795 115.066 68.6795Z" fill="#2B4183"/>
<path d="M115.071 65.3006C115.893 65.3006 116.682 64.9738 117.263 64.3923C117.845 63.8107 118.172 63.022 118.172 62.1995V48.187C118.172 47.3645 117.845 46.5758 117.263 45.9942C116.682 45.4127 115.893 45.0859 115.071 45.0859C114.248 45.0859 113.458 45.4125 112.876 45.9939C112.294 46.5753 111.966 47.3641 111.965 48.187V62.1995C111.966 63.0224 112.294 63.8112 112.876 64.3926C113.458 64.974 114.248 65.3006 115.071 65.3006Z" fill="#FFCB2D"/>
<path d="M170.417 117.104H192.29V95.2303H170.417V117.104Z" stroke="#F0E0DF" stroke-width="2.21" stroke-miterlimit="10"/>
<path d="M141.316 117.104H163.19V95.2303H141.316V117.104Z" stroke="#F0E0DF" stroke-width="2.21" stroke-miterlimit="10"/>
<path d="M112.211 117.104H134.084V95.2303H112.211V117.104Z" stroke="#F0E0DF" stroke-width="2.21" stroke-miterlimit="10"/>
<path d="M170.417 144.867H192.29V122.994H170.417V144.867Z" stroke="#F0E0DF" stroke-width="2.21" stroke-miterlimit="10"/>
<path d="M141.316 144.867H163.19V122.994H141.316V144.867Z" stroke="#F0E0DF" stroke-width="2.21" stroke-miterlimit="10"/>
<path d="M112.211 144.867H134.084V122.994H112.211V144.867Z" fill="#F88AA0"/>
<path d="M120.117 130.805L126.178 137.057" stroke="white" stroke-width="2.02" stroke-miterlimit="10"/>
<path d="M126.178 130.805L120.117 137.057" stroke="white" stroke-width="2.02" stroke-miterlimit="10"/>
<path d="M170.417 172.637H192.29V150.764H170.417V172.637Z" stroke="#F0E0DF" stroke-width="2.21" stroke-miterlimit="10"/>
<path d="M141.316 172.637H163.19V150.764H141.316V172.637Z" stroke="#F0E0DF" stroke-width="2.21" stroke-miterlimit="10"/>
<path d="M112.211 172.637H134.084V150.764H112.211V172.637Z" stroke="#F0E0DF" stroke-width="2.21" stroke-miterlimit="10"/>
<path d="M207.318 116.043H196.673V123.054H207.318V116.043Z" fill="#FFA80A"/>
<path d="M208.956 117.862H195.034C194.273 117.862 193.543 117.56 193.005 117.021C192.467 116.483 192.165 115.753 192.165 114.992C192.164 114.615 192.238 114.241 192.382 113.892C192.525 113.544 192.737 113.227 193.003 112.96C193.27 112.692 193.586 112.481 193.935 112.336C194.284 112.192 194.657 112.117 195.034 112.117H208.956C209.719 112.117 210.45 112.42 210.989 112.959C211.528 113.498 211.831 114.23 211.831 114.992C211.83 115.754 211.527 116.484 210.988 117.022C210.449 117.56 209.718 117.862 208.956 117.862Z" fill="#FFCB2D"/>
<path d="M176.187 126.677L170.184 132.68L174.417 136.912L180.419 130.91L176.187 126.677Z" fill="#FFA80A"/>
<path d="M178.077 126.436L169.693 134.82C169.287 135.225 168.737 135.453 168.163 135.453C167.589 135.453 167.039 135.225 166.633 134.82C166.227 134.413 166 133.863 166 133.289C166 132.715 166.227 132.165 166.633 131.759L175.016 123.375C175.422 122.97 175.973 122.742 176.546 122.742C177.12 122.742 177.671 122.97 178.077 123.375C178.482 123.781 178.71 124.332 178.71 124.906C178.71 125.48 178.482 126.03 178.077 126.436Z" fill="#FFCB2D"/>
<path d="M201.87 191.998C221.742 191.998 237.851 175.888 237.851 156.016C237.851 136.144 221.742 120.035 201.87 120.035C181.998 120.035 165.888 136.144 165.888 156.016C165.888 175.888 181.998 191.998 201.87 191.998Z" fill="#F67B91"/>
<path d="M201.87 190.061C220.673 190.061 235.916 174.818 235.916 156.015C235.916 137.212 220.673 121.969 201.87 121.969C183.067 121.969 167.824 137.212 167.824 156.015C167.824 174.818 183.067 190.061 201.87 190.061Z" fill="#F88AA0"/>
<path d="M201.87 186.217C218.549 186.217 232.071 172.695 232.071 156.016C232.071 139.336 218.549 125.814 201.87 125.814C185.19 125.814 171.668 139.336 171.668 156.016C171.668 172.695 185.19 186.217 201.87 186.217Z" fill="#F6F6F6"/>
<path d="M202.021 132.619C201.82 132.618 201.628 132.537 201.486 132.395C201.344 132.253 201.263 132.061 201.262 131.86V130.076C201.283 129.891 201.372 129.72 201.511 129.597C201.65 129.473 201.83 129.404 202.016 129.404C202.202 129.404 202.382 129.473 202.521 129.597C202.66 129.72 202.748 129.891 202.77 130.076V131.86C202.77 132.06 202.691 132.251 202.551 132.393C202.411 132.535 202.22 132.617 202.021 132.619Z" fill="#8054FF"/>
<path d="M202.02 183.081C201.818 183.079 201.625 182.998 201.483 182.855C201.341 182.712 201.261 182.518 201.261 182.317V180.538C201.249 180.431 201.259 180.324 201.291 180.221C201.324 180.119 201.377 180.025 201.448 179.945C201.52 179.866 201.607 179.802 201.705 179.758C201.802 179.714 201.908 179.691 202.015 179.691C202.122 179.691 202.228 179.714 202.326 179.758C202.423 179.802 202.51 179.866 202.582 179.945C202.653 180.025 202.706 180.119 202.739 180.221C202.771 180.324 202.781 180.431 202.769 180.538V182.317C202.77 182.517 202.692 182.71 202.552 182.853C202.412 182.996 202.22 183.078 202.02 183.081Z" fill="#8054FF"/>
<path d="M184.812 139.746C184.61 139.745 184.417 139.666 184.274 139.525L183.017 138.263C182.875 138.121 182.795 137.927 182.795 137.725C182.795 137.524 182.875 137.33 183.017 137.188C183.16 137.045 183.354 136.965 183.555 136.965C183.757 136.965 183.95 137.045 184.093 137.188L185.355 138.449C185.425 138.52 185.482 138.603 185.52 138.696C185.558 138.788 185.578 138.887 185.578 138.987C185.578 139.087 185.558 139.186 185.52 139.278C185.482 139.37 185.425 139.454 185.355 139.525C185.21 139.667 185.015 139.747 184.812 139.746Z" fill="#8054FF"/>
<path d="M220.491 175.426C220.391 175.426 220.292 175.407 220.2 175.369C220.108 175.331 220.024 175.275 219.953 175.204L218.702 173.943C218.559 173.8 218.479 173.607 218.479 173.405C218.479 173.203 218.559 173.01 218.702 172.867C218.845 172.725 219.038 172.645 219.24 172.645C219.441 172.645 219.635 172.725 219.778 172.867L221.039 174.129C221.11 174.199 221.166 174.283 221.204 174.375C221.243 174.468 221.263 174.567 221.263 174.667C221.263 174.767 221.243 174.865 221.204 174.958C221.166 175.05 221.11 175.134 221.039 175.204C220.968 175.276 220.882 175.333 220.788 175.371C220.694 175.409 220.593 175.428 220.491 175.426Z" fill="#8054FF"/>
<path d="M183.55 175.425C183.45 175.423 183.351 175.401 183.26 175.361C183.168 175.32 183.086 175.262 183.017 175.189C182.947 175.118 182.89 175.034 182.852 174.942C182.814 174.85 182.794 174.751 182.794 174.651C182.794 174.551 182.814 174.452 182.852 174.36C182.89 174.268 182.947 174.184 183.017 174.113L184.279 172.852C184.422 172.709 184.615 172.629 184.817 172.629C185.018 172.629 185.212 172.709 185.354 172.852C185.497 172.994 185.577 173.188 185.577 173.389C185.577 173.591 185.497 173.785 185.354 173.927L184.088 175.189C184.019 175.262 183.936 175.321 183.843 175.362C183.751 175.402 183.651 175.424 183.55 175.425Z" fill="#8054FF"/>
<path d="M219.23 139.744C219.029 139.736 218.839 139.649 218.702 139.503C218.631 139.433 218.575 139.349 218.536 139.257C218.498 139.164 218.478 139.065 218.478 138.965C218.478 138.865 218.498 138.767 218.536 138.674C218.575 138.582 218.631 138.498 218.702 138.428L219.963 137.166C220.106 137.023 220.299 136.943 220.501 136.943C220.703 136.943 220.896 137.023 221.039 137.166C221.182 137.309 221.262 137.502 221.262 137.704C221.262 137.906 221.182 138.099 221.039 138.242L219.767 139.503C219.698 139.577 219.615 139.637 219.523 139.678C219.43 139.72 219.331 139.742 219.23 139.744Z" fill="#8054FF"/>
<path d="M177.684 156.954H175.9C175.794 156.967 175.686 156.956 175.584 156.924C175.482 156.892 175.388 156.838 175.308 156.767C175.228 156.696 175.164 156.608 175.121 156.511C175.077 156.413 175.054 156.307 175.054 156.2C175.054 156.093 175.077 155.987 175.121 155.89C175.164 155.792 175.228 155.705 175.308 155.634C175.388 155.562 175.482 155.509 175.584 155.477C175.686 155.444 175.794 155.434 175.9 155.446H177.684C177.869 155.468 178.04 155.556 178.164 155.695C178.288 155.834 178.356 156.014 178.356 156.2C178.356 156.387 178.288 156.566 178.164 156.705C178.04 156.844 177.869 156.933 177.684 156.954Z" fill="#8054FF"/>
<path d="M228.141 156.954H226.357C226.25 156.967 226.143 156.956 226.041 156.924C225.939 156.892 225.845 156.838 225.765 156.767C225.685 156.696 225.621 156.608 225.577 156.511C225.533 156.413 225.511 156.307 225.511 156.2C225.511 156.093 225.533 155.987 225.577 155.89C225.621 155.792 225.685 155.705 225.765 155.634C225.845 155.562 225.939 155.509 226.041 155.477C226.143 155.444 226.25 155.434 226.357 155.446H228.141C228.247 155.434 228.355 155.444 228.457 155.477C228.559 155.509 228.653 155.562 228.733 155.634C228.813 155.705 228.877 155.792 228.921 155.89C228.964 155.987 228.987 156.093 228.987 156.2C228.987 156.307 228.964 156.413 228.921 156.511C228.877 156.608 228.813 156.696 228.733 156.767C228.653 156.838 228.559 156.892 228.457 156.924C228.355 156.956 228.247 156.967 228.141 156.954Z" fill="#8054FF"/>
<path d="M203.835 155.91H200.206V140.174C200.206 139.693 200.397 139.231 200.738 138.891C201.078 138.551 201.539 138.359 202.021 138.359C202.259 138.359 202.495 138.405 202.716 138.496C202.936 138.587 203.137 138.721 203.305 138.889C203.474 139.058 203.607 139.258 203.698 139.479C203.789 139.699 203.836 139.935 203.835 140.174V155.91Z" fill="#8054FF"/>
<path d="M202.02 160.071C204.319 160.071 206.182 158.208 206.182 155.91C206.182 153.611 204.319 151.748 202.02 151.748C199.722 151.748 197.859 153.611 197.859 155.91C197.859 158.208 199.722 160.071 202.02 160.071Z" fill="#2B4183"/>
<path d="M275.546 170.665L265.599 166.031L269.188 160.438L280.004 165.695L276.828 170.118L275.546 170.665Z" fill="#FA849B"/>
<path d="M277.536 163.525C277.536 163.525 276.169 169.622 271.43 169.501L270.264 183.921L283.402 165.591L277.536 163.525Z" fill="#181F42"/>
<path d="M273.36 184.82L286.44 166.553L284.714 165.317L271.634 183.584L273.36 184.82Z" fill="white"/>
<path d="M271.274 171.385C272.148 171.105 273.061 170.971 273.978 170.988" stroke="white" stroke-width="1.55" stroke-linecap="round" stroke-linejoin="round"/>
<path d="M270.972 173.5C271.846 173.223 272.759 173.089 273.676 173.103" stroke="white" stroke-width="1.55" stroke-linecap="round" stroke-linejoin="round"/>
<path d="M270.661 175.617C271.535 175.339 272.448 175.205 273.365 175.22" stroke="white" stroke-width="1.55" stroke-linecap="round" stroke-linejoin="round"/>
<path d="M252.457 110.102C252.457 110.102 245.953 134.362 244.998 139.142C244.043 143.922 242.128 153.491 246.144 156.939C250.16 160.387 265.6 168.655 265.6 168.655L271.274 158.462L262.082 152.933L252.457 110.102Z" fill="#243B77"/>
<path d="M261.222 187.247L259.192 176.461L265.826 176.119L267.856 187.97H262.413L261.222 187.247Z" fill="#FA849B"/>
<path d="M268.188 184.705C268.188 184.705 262.428 187.148 259.77 183.232L247.35 190.676H269.902L268.188 184.705Z" fill="#181F42"/>
<path d="M247.376 192.805H269.927V190.674H247.376V192.805Z" fill="white"/>
<path d="M258.151 184.195C258.887 184.743 259.529 185.406 260.051 186.16" stroke="white" stroke-width="1.55" stroke-linecap="round" stroke-linejoin="round"/>
<path d="M256.251 185.176C256.986 185.726 257.628 186.391 258.151 187.146" stroke="white" stroke-width="1.55" stroke-linecap="round" stroke-linejoin="round"/>
<path d="M254.351 186.16C255.087 186.708 255.729 187.371 256.251 188.125" stroke="white" stroke-width="1.55" stroke-linecap="round" stroke-linejoin="round"/>
<path d="M252.456 110.102L251.808 146.696C251.788 148.01 251.893 149.322 252.12 150.616L257.558 178.837H268.962L265.785 147.008C265.921 141.152 267.866 134.598 268.59 127.456C268.59 127.456 270.821 114.213 264.705 110.167L252.456 110.102Z" fill="#2B4183"/>
<path d="M245.174 105.082L226.578 98.2715L224.411 101.895L242.55 111.505C243.238 111.768 243.982 111.843 244.708 111.722C245.434 111.602 246.114 111.291 246.68 110.821C247.246 110.351 247.677 109.738 247.928 109.047C248.179 108.356 248.241 107.61 248.109 106.886C247.853 105.429 246.571 105.579 245.174 105.082Z" fill="#FA849B"/>
<path d="M224.286 95.512C224.122 95.3382 223.916 95.2095 223.689 95.1382C223.461 95.0669 223.218 95.0554 222.984 95.1049C222.85 95.1329 222.725 95.1939 222.62 95.2824C222.515 95.371 222.434 95.4843 222.384 95.612C222.334 95.7398 222.317 95.8781 222.334 96.0142C222.351 96.1503 222.402 96.28 222.482 96.3916L222.748 96.8289C222.155 97.0601 220.919 97.1153 218.667 94.8185C218.491 94.6334 218.258 94.513 218.006 94.4765C217.753 94.44 217.496 94.4897 217.275 94.6174C217.131 94.7157 217.03 94.8639 216.99 95.033C216.95 95.2022 216.974 95.3801 217.059 95.5321L217.089 95.5774C216.941 95.5241 216.782 95.505 216.626 95.5216C216.469 95.5381 216.318 95.5898 216.184 95.6729C216.04 95.772 215.939 95.9215 215.9 96.0917C215.861 96.262 215.887 96.4407 215.973 96.5926C215.994 96.6367 216.02 96.6787 216.048 96.7183C215.898 96.7341 215.753 96.7858 215.626 96.8691C215.483 96.9673 215.382 97.1159 215.342 97.2853C215.303 97.4547 215.329 97.6326 215.415 97.7838C215.463 97.8828 215.528 97.9729 215.606 98.0502L215.697 98.1356L215.651 98.1608C215.51 98.2605 215.41 98.409 215.371 98.5778C215.332 98.7466 215.357 98.9238 215.44 99.0755C215.49 99.1766 215.556 99.2684 215.636 99.3469C216.201 99.9261 216.818 100.451 217.481 100.915H217.511C217.785 101.098 218.068 101.265 218.36 101.418C219.662 102.177 222.452 101.543 224.849 101.92L226.724 98.402L224.286 95.512Z" fill="#FA849B"/>
<path d="M217.699 108.171L226.691 87.627L206.147 78.6344L197.155 99.1785L217.699 108.171Z" fill="#FFCD2E"/>
<path d="M224.592 95.8833L222.767 93.7674C222.698 93.6865 222.611 93.6217 222.514 93.5772C222.417 93.5328 222.311 93.5098 222.205 93.5098C222.098 93.5098 221.992 93.5328 221.895 93.5772C221.798 93.6217 221.711 93.6865 221.642 93.7674C221.546 93.8787 221.485 94.016 221.467 94.1618C221.449 94.3076 221.475 94.4554 221.541 94.5866L222.461 96.401C222.252 97.1971 222.242 98.0323 222.431 98.8333C222.62 99.6342 223.003 100.376 223.547 100.995L224.592 95.8833Z" fill="#FA849B"/>
<path d="M253.416 105.468L246.646 110.856C245.98 111.391 245.165 111.706 244.313 111.758C243.46 111.81 242.613 111.597 241.887 111.148C239.791 109.856 238.509 108.66 240.017 106.715L247.455 99.1758L253.416 105.468Z" fill="#FA849B"/>
<path d="M258.663 98.9966C258.663 98.9966 257.764 103.44 252.421 107.475L244.183 99.7002L250.868 92.2617L258.663 98.9966Z" fill="#7041FD"/>
<path d="M271.516 104.87L285.835 122.919L289.076 120.768C289.076 120.768 280.859 105.473 277.044 100.664C276.585 100.088 275.981 99.6447 275.295 99.3796C274.608 99.1145 273.863 99.0372 273.136 99.1554C272.409 99.2736 271.727 99.5831 271.16 100.052C270.592 100.521 270.16 101.133 269.907 101.825C269.4 103.217 270.566 103.729 271.516 104.87Z" fill="#FA849B"/>
<path d="M286.553 126.563C286.612 126.788 286.729 126.994 286.891 127.161C287.053 127.328 287.255 127.451 287.477 127.518C287.605 127.559 287.741 127.568 287.873 127.543C288.004 127.518 288.128 127.461 288.231 127.376C288.335 127.29 288.416 127.181 288.466 127.056C288.516 126.932 288.534 126.797 288.518 126.664V126.161C289.131 126.246 290.212 126.769 291.081 129.765C291.145 130.004 291.288 130.216 291.487 130.364C291.686 130.513 291.929 130.59 292.177 130.584C292.344 130.564 292.499 130.484 292.611 130.358C292.723 130.232 292.785 130.069 292.785 129.9C292.785 129.9 292.785 129.865 292.785 129.845C292.886 129.961 293.013 130.052 293.155 130.111C293.297 130.171 293.451 130.196 293.604 130.187C293.772 130.168 293.926 130.088 294.038 129.961C294.149 129.835 294.21 129.672 294.207 129.503C294.212 129.455 294.212 129.406 294.207 129.358C294.344 129.415 294.492 129.439 294.64 129.428C294.807 129.409 294.963 129.329 295.075 129.203C295.187 129.077 295.249 128.913 295.248 128.744C295.251 128.636 295.238 128.527 295.207 128.423C295.207 128.383 295.182 128.347 295.172 128.307H295.218C295.386 128.29 295.542 128.21 295.654 128.083C295.767 127.957 295.828 127.793 295.826 127.624C295.829 127.517 295.816 127.41 295.785 127.307C295.572 126.549 295.289 125.812 294.941 125.106V125.075C294.788 124.787 294.62 124.507 294.439 124.236C293.68 122.985 291.001 122.226 289.131 120.783L285.834 122.919L286.553 126.563Z" fill="#FA849B"/>
<path d="M269.379 93.7324L275.913 99.447C276.553 100.012 277.004 100.76 277.205 101.59C277.405 102.42 277.345 103.291 277.034 104.086C276.129 106.373 275.179 107.845 273.013 106.705L264.248 100.704L269.379 93.7324Z" fill="#FA849B"/>
<path d="M260.996 89.7461C264.913 90.0606 268.607 91.6943 271.475 94.3801L267.037 102.633L258.312 99.6172L260.996 89.7461Z" fill="#8155FF"/>
<path d="M253.929 90.2484C253.929 90.2484 248.516 91.7562 248.496 99.0037C248.496 102.969 252.456 110.111 252.456 110.111L264.679 110.177C264.679 110.177 266.474 105.196 267.549 100.697C268.625 96.1992 265.187 91.917 261.015 89.7559L253.929 90.2484Z" fill="#8155FF"/>
<path d="M267.052 102.634L262.252 99.1914L265.957 106.359L267.052 102.634Z" fill="#7041FD"/>
<path d="M257.015 92.561C258.708 92.3097 259.312 91.1738 259.06 89.4801L257.176 79.7598L252.059 80.579L253.486 89.9525C253.546 90.3558 253.685 90.7434 253.894 91.093C254.104 91.4426 254.381 91.7473 254.709 91.9897C255.037 92.2321 255.409 92.4073 255.805 92.5053C256.2 92.6034 256.612 92.6223 257.015 92.561Z" fill="#F8879D"/>
<path d="M256.005 81.7051C256.005 81.7051 257.664 86.8869 253.266 88.651L252.859 85.56L257.382 82.1423" fill="#32292A"/>
<path d="M252.21 86.1983C255.407 85.8967 257.779 83.3385 257.508 80.4887L256.623 71.1504H251.24C249.23 71.3364 246.521 73.97 246.717 75.7391L247.657 81.5392C247.853 83.63 249.527 86.4546 252.21 86.1983Z" fill="#F8879D"/>
<path d="M247.878 78.1875L246.652 81.3137C246.61 81.3887 246.59 81.4739 246.595 81.5596C246.599 81.6453 246.628 81.728 246.677 81.7982C246.726 81.8685 246.795 81.9235 246.874 81.9569C246.953 81.9903 247.039 82.0008 247.124 81.9872L249.23 81.7911L247.878 78.1875Z" fill="#F8879D"/>
<path d="M248.948 76.7146C248.948 76.7146 247.802 76.7498 247.843 77.2172C247.843 77.2172 247.883 77.5439 248.883 77.4937C249.883 77.4434 250.129 77.3429 250.185 77.0262C250.24 76.7096 249.481 76.6794 248.948 76.7146Z" fill="#312725"/>
<path d="M249.009 78.981C249.043 79.0519 249.06 79.1299 249.058 79.2086C249.056 79.2873 249.036 79.3645 248.999 79.4341C248.963 79.5036 248.91 79.5635 248.845 79.6089C248.781 79.6543 248.707 79.6839 248.629 79.6955C248.551 79.707 248.472 79.7001 248.397 79.6753C248.322 79.6505 248.255 79.6085 248.199 79.5526C248.144 79.4968 248.102 79.4287 248.078 79.3539C248.053 79.279 248.047 79.1995 248.059 79.1217C248.041 78.9935 248.074 78.8634 248.149 78.7586C248.225 78.6537 248.339 78.5822 248.466 78.5588C248.593 78.547 248.72 78.5841 248.821 78.6625C248.922 78.7409 248.989 78.8548 249.009 78.981Z" fill="#312725"/>
<path d="M248.642 82.6196C248.909 82.5971 249.164 82.4958 249.373 82.3285C249.582 82.1611 249.737 81.9353 249.818 81.6797" stroke="#312725" stroke-width="0.6" stroke-linecap="round" stroke-linejoin="round"/>
<path d="M257.528 89.1934L260.995 89.7462C260.995 89.7462 257.352 95.6417 253.768 94.2294C249.637 92.596 255.115 89.4949 255.115 89.4949L257.528 89.1934Z" fill="#F8879D"/>
<path d="M256.076 78.5945C255.297 78.3974 254.587 77.9934 254.02 77.4253C253.453 76.8572 253.05 76.1463 252.854 75.3678L245.692 76.7801C245.692 76.7801 244.581 69.6482 253.155 68.3012C257.453 67.6277 260.192 69.7034 261.649 71.7842C262.31 72.7744 262.707 73.9168 262.803 75.1032C262.899 76.2896 262.69 77.4809 262.197 78.5643C261.255 80.5549 259.735 82.2153 257.835 83.329L257.176 79.7605C257.176 79.7605 256.553 78.7201 256.076 78.5945Z" fill="#32292A"/>
<path d="M259.508 78.0808C259.491 78.5192 259.346 78.9429 259.089 79.299C258.833 79.655 258.477 79.9276 258.067 80.0827C257.657 80.2378 257.21 80.2685 256.782 80.1709C256.354 80.0733 255.965 79.8518 255.662 79.5341C255.36 79.2164 255.157 78.8166 255.081 78.3846C255.004 77.9526 255.057 77.5077 255.232 77.1053C255.407 76.703 255.696 76.3612 256.065 76.1226C256.433 75.884 256.863 75.7592 257.302 75.7638C257.599 75.7696 257.892 75.8344 258.165 75.9543C258.437 76.0741 258.683 76.2468 258.888 76.4622C259.093 76.6777 259.254 76.9316 259.36 77.2095C259.466 77.4873 259.517 77.7834 259.508 78.0808Z" fill="#F8879D"/>
<path d="M256.513 78.6186C256.513 78.6186 256.513 76.9499 258.071 77.2163" stroke="#312725" stroke-width="0.6" stroke-linecap="round" stroke-linejoin="round"/>
<path d="M270.912 68.9297C271.096 70.0157 270.953 71.1318 270.502 72.1367C270.051 73.1416 269.313 73.9902 268.379 74.5753C267.446 75.1604 266.36 75.4556 265.26 75.4236C264.159 75.3916 263.092 75.0339 262.194 74.3956C261.297 73.7574 260.608 72.8673 260.217 71.8379C259.825 70.8085 259.747 69.686 259.993 68.6125C260.239 67.5389 260.798 66.5625 261.6 65.8066C262.401 65.0507 263.408 64.5494 264.494 64.366C265.95 64.1215 267.444 64.4647 268.647 65.3203C269.85 66.1759 270.665 67.474 270.912 68.9297Z" fill="#32292A"/>
<path d="M319.77 192.982H0" stroke="#281F27" stroke-width="0.76" stroke-miterlimit="10"/>
</svg>
