<svg width="185" height="141" viewBox="0 0 185 141" fill="none" xmlns="http://www.w3.org/2000/svg">
<rect x="0.5" y="0.5" width="183.385" height="140" rx="9.5" fill="white" stroke="#D4D4D4"/>
<path d="M110.523 62.9794C110.95 62.9794 111.295 62.634 111.295 62.2076L111.296 58.6076C111.296 57.8766 110.703 57.2838 109.972 57.2838L76.063 57.2812C75.3317 57.2812 74.7392 57.874 74.7389 58.6051V62.2048C74.7389 62.6312 75.0843 62.9769 75.5107 62.9772C75.9373 62.9772 76.2828 63.3229 76.2828 63.7492L76.2822 70.8438C76.2822 71.2702 75.9365 71.6159 75.5101 71.6159C75.0838 71.6159 74.7381 71.9616 74.7381 72.3879L74.7378 75.988C74.7378 76.719 75.3306 77.3115 76.0616 77.3118L109.971 77.314C110.702 77.314 111.295 76.7215 111.295 75.9905L111.295 72.3904C111.295 71.9641 110.949 71.6184 110.523 71.6184C110.096 71.6184 109.751 71.2727 109.751 70.846L109.751 63.7515C109.751 63.3251 110.097 62.9794 110.523 62.9794Z" fill="url(#paint0_linear)"/>
<path d="M74.7381 72.6406L74.7378 75.9891C74.7378 76.7201 75.3303 77.3126 76.0613 77.3129L109.971 77.3151C110.702 77.3151 111.294 76.7226 111.294 75.9916L111.295 72.6409H74.7381V72.6406Z" fill="url(#paint1_linear)"/>
<path d="M76.2266 67.5234L78.6572 69.9541V67.5234H76.2266Z" fill="url(#paint2_linear)"/>
<path d="M86.104 57.3555L88.7357 59.9872H86.104V57.3555Z" fill="url(#paint3_linear)"/>
<path d="M107.574 74.8651H78.7905C78.311 74.8651 77.9224 74.4767 77.9224 73.997V60.5989C77.9224 60.1192 78.311 59.7305 78.7905 59.7305H107.574C108.054 59.7305 108.442 60.1192 108.442 60.5989V73.997C108.442 74.4764 108.054 74.8651 107.574 74.8651Z" fill="url(#paint4_linear)"/>
<path d="M90.2866 71.0625C90.2339 70.9655 90.1577 70.8921 90.058 70.8422C89.961 70.7896 89.8461 70.7633 89.7131 70.7633C89.4831 70.7633 89.2989 70.8395 89.1604 70.9919C89.0218 71.1415 88.9526 71.3423 88.9526 71.5944C88.9526 71.8632 89.0246 72.0737 89.1687 72.2261C89.3155 72.3757 89.5164 72.4505 89.7713 72.4505C89.9458 72.4505 90.0926 72.4062 90.2118 72.3175C90.3337 72.2289 90.4223 72.1014 90.4777 71.9352H89.5759V71.4116H91.1219V72.0723C91.0692 72.2496 90.9792 72.4145 90.8517 72.5669C90.7271 72.7192 90.5678 72.8425 90.3738 72.9367C90.1799 73.0309 89.961 73.078 89.7172 73.078C89.4291 73.078 89.1715 73.0157 88.9443 72.891C88.7199 72.7636 88.5439 72.5876 88.4165 72.3632C88.2918 72.1388 88.2295 71.8826 88.2295 71.5944C88.2295 71.3063 88.2918 71.05 88.4165 70.8256C88.5439 70.5984 88.7199 70.4225 88.9443 70.2978C89.1687 70.1704 89.425 70.1067 89.7131 70.1067C90.0622 70.1067 90.3558 70.1912 90.5941 70.3602C90.8351 70.5292 90.9944 70.7633 91.072 71.0625H90.2866Z" fill="black"/>
<path d="M91.8729 70.4973C91.7482 70.4973 91.6457 70.4613 91.5654 70.3893C91.4878 70.3145 91.449 70.223 91.449 70.115C91.449 70.0042 91.4878 69.9128 91.5654 69.8407C91.6457 69.7659 91.7482 69.7285 91.8729 69.7285C91.9948 69.7285 92.0945 69.7659 92.1721 69.8407C92.2524 69.9128 92.2926 70.0042 92.2926 70.115C92.2926 70.223 92.2524 70.3145 92.1721 70.3893C92.0945 70.4613 91.9948 70.4973 91.8729 70.4973ZM92.2261 70.7384V73.0572H91.5155V70.7384H92.2261Z" fill="black"/>
<path d="M93.9047 71.3285H93.5224V73.0572H92.8117V71.3285H92.5541V70.7384H92.8117V70.6719C92.8117 70.3865 92.8935 70.1704 93.0569 70.0236C93.2204 69.874 93.46 69.7992 93.7759 69.7992C93.8285 69.7992 93.8673 69.8005 93.8922 69.8033V70.4059C93.7565 70.3976 93.6609 70.417 93.6055 70.4641C93.5501 70.5112 93.5224 70.5957 93.5224 70.7176V70.7384H93.9047V71.3285Z" fill="black"/>
<path d="M95.531 72.4547V73.0572H95.1695C94.9118 73.0572 94.711 72.9949 94.5669 72.8702C94.4228 72.7428 94.3508 72.5364 94.3508 72.251V71.3285H94.0682V70.7384H94.3508V70.1732H95.0614V70.7384H95.5269V71.3285H95.0614V72.2593C95.0614 72.3286 95.0781 72.3785 95.1113 72.4089C95.1446 72.4394 95.2 72.4547 95.2775 72.4547H95.531Z" fill="black"/>
<path d="M96.687 71.5944C96.687 71.3063 96.7493 71.05 96.874 70.8256C96.9987 70.5984 97.1718 70.4225 97.3935 70.2978C97.6179 70.1704 97.8714 70.1067 98.154 70.1067C98.5003 70.1067 98.7967 70.1981 99.0433 70.381C99.2899 70.5638 99.4547 70.8132 99.5378 71.129H98.7565C98.6984 71.0071 98.6152 70.9143 98.5072 70.8506C98.4019 70.7868 98.2814 70.755 98.1457 70.755C97.9268 70.755 97.7495 70.8312 97.6137 70.9835C97.478 71.1359 97.4101 71.3395 97.4101 71.5944C97.4101 71.8493 97.478 72.0529 97.6137 72.2053C97.7495 72.3577 97.9268 72.4339 98.1457 72.4339C98.2814 72.4339 98.4019 72.402 98.5072 72.3383C98.6152 72.2746 98.6984 72.1818 98.7565 72.0599H99.5378C99.4547 72.3757 99.2899 72.625 99.0433 72.8079C98.7967 72.988 98.5003 73.078 98.154 73.078C97.8714 73.078 97.6179 73.0157 97.3935 72.891C97.1718 72.7636 96.9987 72.5876 96.874 72.3632C96.7493 72.1388 96.687 71.8826 96.687 71.5944Z" fill="black"/>
<path d="M99.8317 71.8936C99.8317 71.6554 99.876 71.4462 99.9647 71.2661C100.056 71.086 100.179 70.9475 100.335 70.8506C100.49 70.7536 100.663 70.7051 100.854 70.7051C101.017 70.7051 101.16 70.7384 101.282 70.8048C101.407 70.8713 101.502 70.9586 101.569 71.0667V70.7384H102.279V73.0572H101.569V72.7289C101.5 72.837 101.403 72.9243 101.278 72.9907C101.156 73.0572 101.013 73.0905 100.85 73.0905C100.661 73.0905 100.49 73.042 100.335 72.945C100.179 72.8453 100.056 72.7054 99.9647 72.5253C99.876 72.3425 99.8317 72.1319 99.8317 71.8936ZM101.569 71.8978C101.569 71.7205 101.519 71.5806 101.419 71.4781C101.322 71.3756 101.203 71.3243 101.062 71.3243C100.92 71.3243 100.8 71.3756 100.7 71.4781C100.603 71.5778 100.555 71.7163 100.555 71.8936C100.555 72.0709 100.603 72.2122 100.7 72.3175C100.8 72.42 100.92 72.4713 101.062 72.4713C101.203 72.4713 101.322 72.42 101.419 72.3175C101.519 72.215 101.569 72.0751 101.569 71.8978Z" fill="black"/>
<path d="M103.504 71.1248C103.587 70.9974 103.691 70.8977 103.816 70.8256C103.94 70.7508 104.079 70.7134 104.231 70.7134V71.4656H104.036C103.859 71.4656 103.726 71.5044 103.637 71.582C103.548 71.6568 103.504 71.7897 103.504 71.9809V73.0572H102.794V70.7384H103.504V71.1248Z" fill="black"/>
<path d="M104.43 71.8936C104.43 71.6554 104.474 71.4462 104.563 71.2661C104.654 71.086 104.777 70.9475 104.933 70.8506C105.088 70.7536 105.261 70.7051 105.452 70.7051C105.604 70.7051 105.743 70.737 105.868 70.8007C105.995 70.8644 106.095 70.9503 106.167 71.0583V69.982H106.877V73.0572H106.167V72.7248C106.1 72.8356 106.005 72.9243 105.88 72.9907C105.758 73.0572 105.616 73.0905 105.452 73.0905C105.261 73.0905 105.088 73.042 104.933 72.945C104.777 72.8453 104.654 72.7054 104.563 72.5253C104.474 72.3425 104.43 72.1319 104.43 71.8936ZM106.167 71.8978C106.167 71.7205 106.117 71.5806 106.017 71.4781C105.92 71.3756 105.801 71.3243 105.66 71.3243C105.519 71.3243 105.398 71.3756 105.298 71.4781C105.201 71.5778 105.153 71.7163 105.153 71.8936C105.153 72.0709 105.201 72.2122 105.298 72.3175C105.398 72.42 105.519 72.4713 105.66 72.4713C105.801 72.4713 105.92 72.42 106.017 72.3175C106.117 72.215 106.167 72.0751 106.167 71.8978Z" fill="black"/>
<path d="M89.9275 62.059C89.4316 61.5025 88.6074 61.2875 87.8722 61.6159C87.1531 61.9375 86.4621 62.3578 85.8299 62.709C85.4476 62.9215 85.1343 63.136 84.8548 63.3496C84.5524 63.2097 84.2157 63.1312 83.8608 63.1312C83.488 63.1312 83.1359 63.2172 82.8221 63.3702C82.5459 63.1645 82.2363 62.9584 81.8615 62.7545C81.226 62.4091 80.5313 61.9953 79.8092 61.6806C78.8009 61.2411 77.6343 61.8166 77.3727 62.8849C77.1851 63.6514 78.0373 64.4101 78.0292 65.1724C78.0292 65.1724 77.1758 66.8958 77.3956 67.7583C77.4863 68.1149 77.6785 68.4147 77.9312 68.6398L85.093 75.8017C85.1388 75.8536 85.188 75.9022 85.2391 75.948C85.382 76.1091 85.5523 76.2417 85.7403 76.3408C85.7687 76.3562 85.7978 76.3704 85.8271 76.3838C85.8282 76.3844 85.8293 76.385 85.8305 76.3852C85.8587 76.3984 85.8871 76.4107 85.9162 76.4221C85.9184 76.4229 85.9206 76.4238 85.9229 76.4246C85.9505 76.4355 85.9784 76.4458 86.0066 76.4553C86.0103 76.4564 86.0136 76.4576 86.0173 76.4587C86.0441 76.4676 86.0714 76.4757 86.0988 76.4835C86.1035 76.4846 86.1083 76.486 86.113 76.4872C86.1393 76.4944 86.1658 76.5008 86.1923 76.5067C86.1982 76.5081 86.2041 76.5092 86.2099 76.5106C86.2356 76.5159 86.2613 76.5207 86.287 76.5249C86.294 76.526 86.301 76.5271 86.3079 76.5282C86.3328 76.5321 86.3576 76.5352 86.3828 76.538C86.3906 76.5388 86.3987 76.5397 86.4068 76.5405C86.4308 76.543 86.4548 76.5444 86.4791 76.5458C86.488 76.5464 86.497 76.5469 86.5062 76.5472C86.5294 76.5483 86.5525 76.5486 86.576 76.5486C86.5858 76.5486 86.5958 76.5486 86.6059 76.5483C86.6282 76.548 86.6508 76.5469 86.6732 76.5458C86.684 76.545 86.6949 76.5447 86.7058 76.5438C86.7276 76.5422 86.7491 76.5399 86.7709 76.5374C86.7826 76.536 86.7941 76.5349 86.8055 76.5335C86.8267 76.5307 86.848 76.5271 86.8689 76.5235C86.8812 76.5215 86.8932 76.5198 86.9052 76.5173C86.9259 76.5134 86.9465 76.5087 86.9675 76.5039C86.9798 76.5011 86.992 76.4986 87.0043 76.4955C87.0253 76.4902 87.0459 76.4841 87.0666 76.4779C87.0786 76.4746 87.0909 76.4715 87.1029 76.4676C87.1252 76.4606 87.1473 76.4525 87.1691 76.4447C87.1797 76.4411 87.1903 76.4377 87.2006 76.4338C87.233 76.4215 87.2654 76.4081 87.2975 76.3939C87.7468 76.1931 88.1852 75.9536 88.6054 75.7162C88.6892 75.6688 88.7727 75.6216 88.855 75.5747C89.0201 75.4808 89.1817 75.3887 89.3398 75.3007C89.562 75.177 89.7614 75.0528 89.9443 74.9285C89.9532 74.9224 89.9616 74.9162 89.9705 74.9101C90.3525 75.1737 90.8158 75.3284 91.315 75.3284C91.8299 75.3284 92.3063 75.1636 92.6949 74.885C92.8804 75.0089 93.0825 75.1326 93.3081 75.2552C93.3877 75.2985 93.4681 75.3429 93.5497 75.3881C94.0369 75.6579 94.5552 75.9544 95.091 76.2068C95.1803 76.249 95.2702 76.29 95.3604 76.3291C95.3928 76.3434 95.4252 76.3562 95.4576 76.3682C95.4679 76.3721 95.4783 76.3752 95.4886 76.3788C95.4894 76.3791 95.4903 76.3794 95.4911 76.3797C95.5014 76.3833 95.5115 76.3866 95.5218 76.39C95.5333 76.3936 95.5444 76.3978 95.5556 76.4012C95.5676 76.4048 95.5796 76.4079 95.5914 76.4112C95.6117 76.4168 95.6318 76.4227 95.6522 76.4277C95.6542 76.4282 95.6556 76.4285 95.6575 76.4291C95.6687 76.4316 95.6799 76.4336 95.691 76.4361C95.712 76.4408 95.7329 76.4453 95.7539 76.4492C95.7653 76.4514 95.7765 76.4528 95.7879 76.4548C95.7974 76.4562 95.8066 76.4578 95.8161 76.4592C95.8287 76.4609 95.8413 76.4629 95.8535 76.4643C95.865 76.4657 95.8764 76.4668 95.8879 76.4679C95.908 76.4699 95.9281 76.4721 95.9479 76.4735C95.9513 76.4738 95.9544 76.474 95.9577 76.474C95.9672 76.4746 95.9764 76.4749 95.9859 76.4752C96.0085 76.4763 96.0309 76.4771 96.0535 76.4774C96.0635 76.4774 96.0733 76.4774 96.0834 76.4771H96.0864C96.0942 76.4771 96.1018 76.4771 96.1096 76.4768C96.1241 76.4766 96.1386 76.476 96.1532 76.4754C96.1621 76.4749 96.1713 76.4743 96.1802 76.4738C96.2009 76.4724 96.2213 76.471 96.242 76.469C96.2464 76.4685 96.2512 76.4679 96.2556 76.4673C96.2626 76.4668 96.2696 76.4659 96.2763 76.4648C96.3014 76.462 96.3263 76.4587 96.3511 76.4545C96.3581 76.4534 96.3648 76.4523 96.3718 76.4511C96.3757 76.4503 96.3799 76.4497 96.3838 76.4489C96.388 76.4483 96.3925 76.4475 96.3966 76.4467C96.4142 76.4436 96.4315 76.4397 96.4491 76.4358C96.4547 76.4347 96.4606 76.4333 96.4662 76.4319C96.4871 76.4271 96.5081 76.4221 96.529 76.4165C96.5337 76.4151 96.5388 76.4137 96.5435 76.4123C96.5444 76.4121 96.5452 76.4118 96.5458 76.4118C96.5505 76.4104 96.555 76.409 96.5594 76.4079C96.5871 76.4 96.6144 76.3914 96.6415 76.3822C96.6449 76.3811 96.6482 76.3799 96.6513 76.3788C96.6795 76.3691 96.7074 76.3584 96.7353 76.3473C96.7376 76.3464 96.7398 76.3456 96.742 76.3445C96.7627 76.3361 96.7831 76.3274 96.8032 76.3182C96.8065 76.3166 96.8099 76.3152 96.8132 76.3138C96.818 76.3115 96.8225 76.3093 96.8272 76.3071C96.8283 76.3065 96.8294 76.3062 96.8306 76.3057C96.9096 76.2682 96.9855 76.2252 97.0584 76.1767C97.0601 76.1755 97.0618 76.1744 97.0634 76.1733C97.1427 76.1203 97.2178 76.0605 97.2879 75.9952C97.2885 75.9946 97.2891 75.994 97.2896 75.9935C97.53 75.7682 97.7115 75.473 97.7967 75.1251C98.0083 74.2609 97.1391 72.5453 97.1391 72.5453C97.124 71.783 97.969 71.0166 97.7741 70.252C97.6828 69.8938 97.4895 69.5928 97.2357 69.3672L89.9275 62.059Z" fill="url(#paint5_linear)"/>
<path d="M74.7178 66.8078V63.7494C74.7178 63.3549 75.0375 63.0352 75.4323 63.0352H110.602C110.996 63.0352 111.316 63.3549 111.316 63.7494V66.8078C111.316 67.2023 110.997 67.5223 110.602 67.5223H75.4323C75.0375 67.5223 74.7178 67.2023 74.7178 66.8078V66.8078Z" fill="url(#paint6_linear)"/>
<path d="M87.6199 67.5223H94.7999L90.3124 63.0352H87.6199V67.5223Z" fill="url(#paint7_linear)"/>
<path d="M85.3893 77.9553H82.331C81.9364 77.9553 81.6167 77.6353 81.6167 77.2408V57.3552C81.6167 56.9606 81.9364 56.6406 82.331 56.6406H85.3893C85.7839 56.6406 86.1039 56.9603 86.1039 57.3552V77.2408C86.1039 77.6353 85.7839 77.9553 85.3893 77.9553Z" fill="url(#paint8_linear)"/>
<path d="M81.6167 67.9772L86.1041 72.4646V66.0273H81.6167V67.9772Z" fill="url(#paint9_linear)"/>
<path d="M83.2825 63.735C82.8894 63.41 82.4574 63.0797 81.8615 62.7558C81.226 62.4101 80.531 61.9963 79.8089 61.6816C78.8007 61.2424 77.6343 61.8178 77.3727 62.8862C77.1851 63.6526 78.0373 64.4113 78.0292 65.1736C78.0292 65.1736 77.1758 66.897 77.3956 67.7592C77.667 68.825 78.8389 69.3896 79.843 68.9409C80.562 68.6195 81.2531 68.1993 81.8853 67.8477C82.4781 67.518 82.907 67.1837 83.2973 66.8551C84.2668 66.0386 84.2598 64.5423 83.2825 63.735Z" fill="url(#paint10_linear)"/>
<path d="M89.6843 65.0913C89.6693 64.329 90.5142 63.5623 90.3193 62.7977C90.0479 61.7319 88.876 61.1673 87.8719 61.616C87.1529 61.9374 86.4618 62.3577 85.8296 62.7092C85.2368 63.039 84.8079 63.3732 84.4179 63.7016C83.4481 64.5183 83.4554 66.0147 84.4324 66.8219C84.8255 67.1467 85.2575 67.477 85.8536 67.8012C86.4892 68.1469 87.1839 68.5604 87.906 68.8751C88.9142 69.3146 90.0808 68.7391 90.3422 67.6708C90.5539 66.8066 89.6843 65.0913 89.6843 65.0913Z" fill="url(#paint11_linear)"/>
<path d="M83.2965 66.8553C83.6053 66.5951 83.8144 66.2659 83.9253 65.9121C82.1321 66.0813 79.3323 66.7023 78.2849 68.8878C78.7484 69.133 79.318 69.1751 79.8422 68.9409C80.5612 68.6195 81.2522 68.1992 81.8844 67.848C82.4775 67.5182 82.9061 67.1837 83.2965 66.8553Z" fill="url(#paint12_linear)"/>
<path d="M78.771 65.1738C78.7744 65.8914 78.8687 67.8652 80.8482 68.4312C81.207 68.2335 81.5541 68.0308 81.8849 67.8468C82.478 67.5173 82.9066 67.1828 83.297 66.8544C83.8404 66.3968 84.0769 65.7255 84.0079 65.0816C84.0079 65.0816 82.9689 64.5268 82.5076 64.3062C80.0155 63.1134 78.7663 64.1641 78.771 65.1738Z" fill="url(#paint13_linear)"/>
<path d="M84.4317 66.8221C84.1204 66.5647 83.9081 66.2377 83.7939 65.8848C85.5885 66.0372 88.3942 66.632 89.462 68.8077C89.0007 69.0571 88.4316 69.1045 87.9053 68.8753C87.1832 68.5606 86.4882 68.1468 85.853 67.8014C85.2568 67.4772 84.8248 67.1469 84.4317 66.8221Z" fill="url(#paint14_linear)"/>
<path d="M88.9422 65.0989C88.9456 65.8165 88.8699 67.7912 86.8958 68.3756C86.5353 68.1813 86.1862 67.9819 85.8534 67.801C85.2575 67.4771 84.8256 67.1468 84.4324 66.8217C83.8846 66.3694 83.6419 65.7004 83.7048 65.0556C83.7048 65.0556 84.7385 64.4913 85.1978 64.2663C87.6787 63.0502 88.9375 64.0895 88.9422 65.0989Z" fill="url(#paint15_linear)"/>
<path d="M90.0313 68.3221L85.5933 63.8843C85.3852 63.6615 85.1342 63.4794 84.8542 63.3496C84.7003 63.4674 84.5565 63.585 84.4177 63.7017C83.4483 64.5182 83.4552 66.0145 84.4325 66.8221C84.8257 67.1468 85.2576 67.4771 85.8538 67.8013C86.489 68.1467 87.184 68.5605 87.9061 68.8752C88.6826 69.2136 89.5527 68.9495 90.0313 68.3221Z" fill="url(#paint16_linear)"/>
<path d="M86.2315 65.5043C86.2315 66.8138 85.1696 67.8757 83.86 67.8757C82.5502 67.8757 81.4883 66.8138 81.4883 65.5043C81.4883 64.1944 82.5502 63.1328 83.86 63.1328C85.1696 63.1328 86.2315 64.1944 86.2315 65.5043Z" fill="url(#paint17_linear)"/>
<path d="M69.6049 115.06C69.0439 115.06 68.5282 114.929 68.0579 114.668C67.5932 114.408 67.222 114.045 66.9444 113.58C66.6724 113.11 66.5364 112.583 66.5364 111.999C66.5364 111.416 66.6724 110.892 66.9444 110.427C67.222 109.962 67.5932 109.6 68.0579 109.339C68.5282 109.078 69.0439 108.948 69.6049 108.948C70.1659 108.948 70.6787 109.078 71.1434 109.339C71.6137 109.6 71.982 109.962 72.2484 110.427C72.5204 110.892 72.6564 111.416 72.6564 111.999C72.6564 112.583 72.5204 113.11 72.2484 113.58C71.9764 114.045 71.608 114.408 71.1434 114.668C70.6787 114.929 70.1659 115.06 69.6049 115.06ZM69.6049 113.733C70.0809 113.733 70.4605 113.575 70.7439 113.257C71.0329 112.94 71.1774 112.521 71.1774 111.999C71.1774 111.472 71.0329 111.053 70.7439 110.741C70.4605 110.424 70.0809 110.265 69.6049 110.265C69.1232 110.265 68.7379 110.421 68.4489 110.733C68.1655 111.045 68.0239 111.467 68.0239 111.999C68.0239 112.526 68.1655 112.949 68.4489 113.266C68.7379 113.578 69.1232 113.733 69.6049 113.733ZM76.1085 113.767V115H75.369C74.842 115 74.4312 114.872 74.1365 114.617C73.8418 114.357 73.6945 113.935 73.6945 113.351V111.464H73.1165V110.257H73.6945V109.101H75.148V110.257H76.1V111.464H75.148V113.368C75.148 113.51 75.182 113.612 75.25 113.674C75.318 113.736 75.4313 113.767 75.59 113.767H76.1085ZM79.8336 110.206C80.3776 110.206 80.8139 110.387 81.1426 110.75C81.4713 111.107 81.6356 111.6 81.6356 112.229V115H80.1906V112.424C80.1906 112.107 80.1084 111.861 79.9441 111.685C79.7798 111.509 79.5588 111.421 79.2811 111.421C79.0034 111.421 78.7824 111.509 78.6181 111.685C78.4538 111.861 78.3716 112.107 78.3716 112.424V115H76.9181V108.71H78.3716V110.894C78.5189 110.685 78.7201 110.518 78.9751 110.393C79.2301 110.268 79.5163 110.206 79.8336 110.206ZM87.1167 112.552C87.1167 112.688 87.1082 112.83 87.0912 112.977H83.8017C83.8243 113.272 83.9178 113.498 84.0822 113.657C84.2522 113.81 84.459 113.886 84.7027 113.886C85.0653 113.886 85.3175 113.733 85.4592 113.427H87.0062C86.9268 113.739 86.7823 114.02 86.5727 114.269C86.3687 114.518 86.1108 114.714 85.7992 114.855C85.4875 114.997 85.139 115.068 84.7537 115.068C84.289 115.068 83.8753 114.969 83.5127 114.77C83.15 114.572 82.8667 114.289 82.6627 113.92C82.4587 113.552 82.3567 113.121 82.3567 112.628C82.3567 112.135 82.4558 111.705 82.6542 111.336C82.8582 110.968 83.1415 110.685 83.5042 110.486C83.8668 110.288 84.2833 110.189 84.7537 110.189C85.2127 110.189 85.6207 110.285 85.9777 110.478C86.3347 110.671 86.6123 110.945 86.8107 111.302C87.0147 111.659 87.1167 112.076 87.1167 112.552ZM85.6292 112.169C85.6292 111.92 85.5442 111.722 85.3742 111.574C85.2042 111.427 84.9917 111.353 84.7367 111.353C84.493 111.353 84.2862 111.424 84.1162 111.566C83.9518 111.708 83.8498 111.909 83.8102 112.169H85.6292ZM89.3369 111.047C89.5069 110.787 89.7194 110.583 89.9744 110.435C90.2294 110.282 90.5128 110.206 90.8244 110.206V111.744H90.4249C90.0623 111.744 89.7903 111.824 89.6089 111.982C89.4276 112.135 89.3369 112.407 89.3369 112.798V115H87.8834V110.257H89.3369V111.047ZM93.074 112.008C93.074 111.419 93.2015 110.894 93.4565 110.435C93.7115 109.971 94.0656 109.611 94.519 109.356C94.978 109.095 95.4965 108.965 96.0745 108.965C96.7828 108.965 97.3891 109.152 97.8935 109.526C98.3978 109.9 98.735 110.41 98.905 111.056H97.307C97.188 110.807 97.018 110.617 96.797 110.486C96.5816 110.356 96.3351 110.291 96.0575 110.291C95.6098 110.291 95.2471 110.447 94.9695 110.758C94.6918 111.07 94.553 111.487 94.553 112.008C94.553 112.529 94.6918 112.946 94.9695 113.257C95.2471 113.569 95.6098 113.725 96.0575 113.725C96.3351 113.725 96.5816 113.66 96.797 113.529C97.018 113.399 97.188 113.209 97.307 112.96H98.905C98.735 113.606 98.3978 114.116 97.8935 114.49C97.3891 114.858 96.7828 115.043 96.0745 115.043C95.4965 115.043 94.978 114.915 94.519 114.66C94.0656 114.399 93.7115 114.039 93.4565 113.58C93.2015 113.121 93.074 112.597 93.074 112.008ZM99.5061 112.62C99.5061 112.133 99.5967 111.705 99.7781 111.336C99.9651 110.968 100.217 110.685 100.535 110.486C100.852 110.288 101.206 110.189 101.597 110.189C101.931 110.189 102.223 110.257 102.473 110.393C102.728 110.529 102.923 110.707 103.059 110.928V110.257H104.513V115H103.059V114.328C102.917 114.549 102.719 114.728 102.464 114.864C102.215 115 101.923 115.068 101.589 115.068C101.203 115.068 100.852 114.969 100.535 114.77C100.217 114.566 99.9651 114.28 99.7781 113.912C99.5967 113.538 99.5061 113.107 99.5061 112.62ZM103.059 112.628C103.059 112.266 102.957 111.98 102.753 111.77C102.555 111.56 102.311 111.455 102.022 111.455C101.733 111.455 101.487 111.56 101.283 111.77C101.084 111.974 100.985 112.257 100.985 112.62C100.985 112.983 101.084 113.272 101.283 113.487C101.487 113.697 101.733 113.801 102.022 113.801C102.311 113.801 102.555 113.697 102.753 113.487C102.957 113.277 103.059 112.991 103.059 112.628ZM107.018 111.047C107.188 110.787 107.4 110.583 107.655 110.435C107.91 110.282 108.193 110.206 108.505 110.206V111.744H108.106C107.743 111.744 107.471 111.824 107.29 111.982C107.108 112.135 107.018 112.407 107.018 112.798V115H105.564V110.257H107.018V111.047ZM108.911 112.62C108.911 112.133 109.002 111.705 109.183 111.336C109.37 110.968 109.622 110.685 109.939 110.486C110.257 110.288 110.611 110.189 111.002 110.189C111.314 110.189 111.597 110.254 111.852 110.384C112.113 110.515 112.317 110.69 112.464 110.911V108.71H113.917V115H112.464V114.32C112.328 114.547 112.132 114.728 111.877 114.864C111.628 115 111.336 115.068 111.002 115.068C110.611 115.068 110.257 114.969 109.939 114.77C109.622 114.566 109.37 114.28 109.183 113.912C109.002 113.538 108.911 113.107 108.911 112.62ZM112.464 112.628C112.464 112.266 112.362 111.98 112.158 111.77C111.96 111.56 111.716 111.455 111.427 111.455C111.138 111.455 110.891 111.56 110.687 111.77C110.489 111.974 110.39 112.257 110.39 112.62C110.39 112.983 110.489 113.272 110.687 113.487C110.891 113.697 111.138 113.801 111.427 113.801C111.716 113.801 111.96 113.697 112.158 113.487C112.362 113.277 112.464 112.991 112.464 112.628ZM116.898 115.068C116.485 115.068 116.116 114.997 115.793 114.855C115.47 114.714 115.215 114.521 115.028 114.277C114.841 114.028 114.737 113.75 114.714 113.444H116.15C116.167 113.609 116.244 113.742 116.38 113.844C116.516 113.946 116.683 113.997 116.881 113.997C117.063 113.997 117.202 113.963 117.298 113.895C117.4 113.821 117.451 113.728 117.451 113.614C117.451 113.478 117.38 113.379 117.238 113.317C117.097 113.249 116.867 113.175 116.55 113.096C116.21 113.017 115.927 112.934 115.7 112.849C115.473 112.759 115.278 112.62 115.113 112.433C114.949 112.24 114.867 111.982 114.867 111.659C114.867 111.387 114.941 111.141 115.088 110.92C115.241 110.693 115.462 110.515 115.751 110.384C116.046 110.254 116.394 110.189 116.796 110.189C117.391 110.189 117.859 110.336 118.199 110.631C118.545 110.926 118.743 111.317 118.794 111.804H117.451C117.428 111.64 117.355 111.509 117.23 111.413C117.111 111.317 116.952 111.268 116.754 111.268C116.584 111.268 116.454 111.302 116.363 111.37C116.272 111.433 116.227 111.521 116.227 111.634C116.227 111.77 116.298 111.872 116.439 111.94C116.587 112.008 116.813 112.076 117.119 112.144C117.471 112.235 117.757 112.325 117.978 112.416C118.199 112.501 118.392 112.643 118.556 112.841C118.726 113.034 118.814 113.294 118.819 113.623C118.819 113.901 118.74 114.15 118.581 114.371C118.428 114.586 118.205 114.756 117.91 114.881C117.621 115.006 117.284 115.068 116.898 115.068Z" fill="#858585"/>
<defs>
<linearGradient id="paint0_linear" x1="83.5359" y1="57.8168" x2="108.279" y2="82.5597" gradientUnits="userSpaceOnUse">
<stop stop-color="#FFD459"/>
<stop offset="0.2296" stop-color="#FFD355"/>
<stop offset="0.4362" stop-color="#FFCF4A"/>
<stop offset="0.634" stop-color="#FFC838"/>
<stop offset="0.825" stop-color="#FFBF1F"/>
<stop offset="1" stop-color="#FFB400"/>
</linearGradient>
<linearGradient id="paint1_linear" x1="93.0163" y1="74.7067" x2="93.0163" y2="78.3802" gradientUnits="userSpaceOnUse">
<stop stop-color="#E58200" stop-opacity="0"/>
<stop offset="0.0396" stop-color="#E27F04" stop-opacity="0.039216"/>
<stop offset="0.4671" stop-color="#C15D2F" stop-opacity="0.466667"/>
<stop offset="0.8016" stop-color="#AD4949" stop-opacity="0.8"/>
<stop offset="1" stop-color="#A64153"/>
</linearGradient>
<linearGradient id="paint2_linear" x1="78.1216" y1="69.0771" x2="77.1543" y2="66.866" gradientUnits="userSpaceOnUse">
<stop stop-color="#E58200" stop-opacity="0"/>
<stop offset="0.0396" stop-color="#E27F04" stop-opacity="0.039216"/>
<stop offset="0.4671" stop-color="#C15D2F" stop-opacity="0.466667"/>
<stop offset="0.8016" stop-color="#AD4949" stop-opacity="0.8"/>
<stop offset="1" stop-color="#A64153"/>
</linearGradient>
<linearGradient id="paint3_linear" x1="87.9355" y1="59.9655" x2="82.3261" y2="56.0015" gradientUnits="userSpaceOnUse">
<stop stop-color="#E58200" stop-opacity="0"/>
<stop offset="0.0396" stop-color="#E27F04" stop-opacity="0.039216"/>
<stop offset="0.4671" stop-color="#C15D2F" stop-opacity="0.466667"/>
<stop offset="0.8016" stop-color="#AD4949" stop-opacity="0.8"/>
<stop offset="1" stop-color="#A64153"/>
</linearGradient>
<linearGradient id="paint4_linear" x1="85.4936" y1="59.6081" x2="105.559" y2="79.6765" gradientUnits="userSpaceOnUse">
<stop stop-color="#FFFCF8"/>
<stop offset="0.1875" stop-color="#FAF8F6"/>
<stop offset="0.4041" stop-color="#ECEEF2"/>
<stop offset="0.6353" stop-color="#D5DCEA"/>
<stop offset="0.875" stop-color="#B5C4DF"/>
<stop offset="1" stop-color="#A1B5D8"/>
</linearGradient>
<linearGradient id="paint5_linear" x1="89.1006" y1="72.4699" x2="82.8181" y2="58.1098" gradientUnits="userSpaceOnUse">
<stop stop-color="#A1B5D8" stop-opacity="0"/>
<stop offset="0.0343" stop-color="#9FB3D5" stop-opacity="0.035294"/>
<stop offset="0.4515" stop-color="#8898AF" stop-opacity="0.45098"/>
<stop offset="0.788" stop-color="#798898" stop-opacity="0.788235"/>
<stop offset="1" stop-color="#748290"/>
</linearGradient>
<linearGradient id="paint6_linear" x1="93.0171" y1="64.3811" x2="93.0171" y2="69.2425" gradientUnits="userSpaceOnUse">
<stop stop-color="#FF6E3A"/>
<stop offset="0.1596" stop-color="#FF6440"/>
<stop offset="0.4266" stop-color="#FF4B52"/>
<stop offset="0.7662" stop-color="#FF216E"/>
<stop offset="1" stop-color="#FF0084"/>
</linearGradient>
<linearGradient id="paint7_linear" x1="91.9578" y1="68.2702" x2="86.6974" y2="63.0098" gradientUnits="userSpaceOnUse">
<stop stop-color="#E58200" stop-opacity="0"/>
<stop offset="0.4384" stop-color="#C4602C" stop-opacity="0.439216"/>
<stop offset="0.7953" stop-color="#AE4948" stop-opacity="0.796078"/>
<stop offset="1" stop-color="#A64153"/>
</linearGradient>
<linearGradient id="paint8_linear" x1="83.8602" y1="66.0611" x2="83.8602" y2="82.8114" gradientUnits="userSpaceOnUse">
<stop stop-color="#FF6E3A"/>
<stop offset="0.1596" stop-color="#FF6440"/>
<stop offset="0.4266" stop-color="#FF4B52"/>
<stop offset="0.7662" stop-color="#FF216E"/>
<stop offset="1" stop-color="#FF0084"/>
</linearGradient>
<linearGradient id="paint9_linear" x1="86.733" y1="69.8748" x2="81.8075" y2="64.9493" gradientUnits="userSpaceOnUse">
<stop stop-color="#E58200" stop-opacity="0"/>
<stop offset="0.4384" stop-color="#C4602C" stop-opacity="0.439216"/>
<stop offset="0.7953" stop-color="#AE4948" stop-opacity="0.796078"/>
<stop offset="1" stop-color="#A64153"/>
</linearGradient>
<linearGradient id="paint10_linear" x1="81.5617" y1="69.6256" x2="79.5617" y2="62.0647" gradientUnits="userSpaceOnUse">
<stop stop-color="#FF0084"/>
<stop offset="0.2338" stop-color="#FF216E"/>
<stop offset="0.5734" stop-color="#FF4B52"/>
<stop offset="0.8404" stop-color="#FF6440"/>
<stop offset="1" stop-color="#FF6E3A"/>
</linearGradient>
<linearGradient id="paint11_linear" x1="86.7639" y1="69.9835" x2="87.4468" y2="60.7153" gradientUnits="userSpaceOnUse">
<stop stop-color="#FF0084"/>
<stop offset="0.2338" stop-color="#FF216E"/>
<stop offset="0.5734" stop-color="#FF4B52"/>
<stop offset="0.8404" stop-color="#FF6440"/>
<stop offset="1" stop-color="#FF6E3A"/>
</linearGradient>
<linearGradient id="paint12_linear" x1="81.1426" y1="68.2829" x2="81.0016" y2="65.4145" gradientUnits="userSpaceOnUse">
<stop stop-color="#E58200" stop-opacity="0"/>
<stop offset="0.4384" stop-color="#C4602C" stop-opacity="0.439216"/>
<stop offset="0.7953" stop-color="#AE4948" stop-opacity="0.796078"/>
<stop offset="1" stop-color="#A64153"/>
</linearGradient>
<linearGradient id="paint13_linear" x1="80.4709" y1="66.1532" x2="85.2702" y2="62.2766" gradientUnits="userSpaceOnUse">
<stop stop-color="#E58200" stop-opacity="0"/>
<stop offset="0.4384" stop-color="#C4602C" stop-opacity="0.439216"/>
<stop offset="0.7953" stop-color="#AE4948" stop-opacity="0.796078"/>
<stop offset="1" stop-color="#A64153"/>
</linearGradient>
<linearGradient id="paint14_linear" x1="86.5854" y1="68.2291" x2="86.6995" y2="65.359" gradientUnits="userSpaceOnUse">
<stop stop-color="#E58200" stop-opacity="0"/>
<stop offset="0.4384" stop-color="#C4602C" stop-opacity="0.439216"/>
<stop offset="0.7953" stop-color="#AE4948" stop-opacity="0.796078"/>
<stop offset="1" stop-color="#A64153"/>
</linearGradient>
<linearGradient id="paint15_linear" x1="87.2385" y1="66.0938" x2="82.4028" y2="62.2624" gradientUnits="userSpaceOnUse">
<stop stop-color="#E58200" stop-opacity="0"/>
<stop offset="0.4384" stop-color="#C4602C" stop-opacity="0.439216"/>
<stop offset="0.7953" stop-color="#AE4948" stop-opacity="0.796078"/>
<stop offset="1" stop-color="#A64153"/>
</linearGradient>
<linearGradient id="paint16_linear" x1="87.712" y1="68.0578" x2="84.0174" y2="64.3633" gradientUnits="userSpaceOnUse">
<stop stop-color="#E58200" stop-opacity="0"/>
<stop offset="0.4384" stop-color="#C4602C" stop-opacity="0.439216"/>
<stop offset="0.7953" stop-color="#AE4948" stop-opacity="0.796078"/>
<stop offset="1" stop-color="#A64153"/>
</linearGradient>
<linearGradient id="paint17_linear" x1="82.4887" y1="64.133" x2="85.8855" y2="67.5298" gradientUnits="userSpaceOnUse">
<stop stop-color="#FF6E3A"/>
<stop offset="0.1596" stop-color="#FF6440"/>
<stop offset="0.4266" stop-color="#FF4B52"/>
<stop offset="0.7662" stop-color="#FF216E"/>
<stop offset="1" stop-color="#FF0084"/>
</linearGradient>
</defs>
</svg>
