<svg width="18" height="14" viewBox="0 0 18 14" fill="none" xmlns="http://www.w3.org/2000/svg">
<path fill-rule="evenodd" clip-rule="evenodd" d="M12.75 1.7708V9.8858L12.849 9.9308L16.5 11.4908V3.3758L12.75 1.7708ZM11.25 9.8633V1.7108L6.82725 3.3683L6.75 3.3983V11.5508L11.1728 9.8933L11.25 9.8633ZM5.98425 13.2608C6.26925 13.2683 6.55575 13.2233 6.82725 13.1183L11.6993 11.2958C11.79 11.2583 11.886 11.2433 11.9812 11.2508C12.0757 11.2508 12.1702 11.2733 12.258 11.3108L15.909 12.8708C16.899 13.2983 18 12.5708 18 11.4908V3.3758C18 2.7758 17.6423 2.2358 17.091 1.9958L12.849 0.180801C12.5835 0.0683009 12.3015 0.00830086 12.0188 0.000800859C11.733 -0.00669914 11.4458 0.0383009 11.1728 0.143301L6.30075 1.9658C6.21 2.0033 6.1155 2.0183 6.02025 2.0108C5.92575 2.0108 5.8305 1.9958 5.742 1.9508L2.091 0.390801C1.101 -0.0366991 0 0.690801 0 1.7708V9.8858C0 10.4858 0.35775 11.0258 0.909 11.2658L5.151 13.0808C5.415 13.1933 5.6955 13.2533 5.9775 13.2608H5.98425ZM5.25 11.4908V3.3758L5.151 3.3308L1.5 1.7708V9.8858L5.25 11.4908Z" fill="#010066"/>
</svg>
