<svg width="197" height="172" viewBox="0 0 197 172" fill="none" xmlns="http://www.w3.org/2000/svg">
<g clip-path="url(#clip0)">
<rect width="196" height="172" transform="translate(0.5)" fill="white"/>
<path d="M100.757 100.236L58.0315 100.97C57.3571 100.983 56.6868 100.866 56.0587 100.626C55.4307 100.385 54.8574 100.027 54.3716 99.5698C53.8858 99.1129 53.4971 98.5671 53.2278 97.9634C52.9584 97.3598 52.8136 96.7101 52.8018 96.0518C52.7899 95.3934 52.9112 94.7393 53.1586 94.1267C53.4061 93.5142 53.7749 92.9553 54.2439 92.4821C54.713 92.0089 55.273 91.6306 55.892 91.369C56.511 91.1073 57.1767 90.9674 57.8512 90.9573L100.576 90.224C101.213 90.2131 101.829 90.4496 102.287 90.8816C102.745 91.3135 103.009 91.9055 103.02 92.5273L103.116 97.8508C103.127 98.4455 102.906 99.0219 102.497 99.4633C102.089 99.9048 101.524 100.178 100.917 100.228C100.864 100.233 100.81 100.235 100.757 100.236Z" fill="#010066"/>
<path d="M92.5054 101.597L57.4531 103.159C57.138 103.173 56.8231 103.126 56.5265 103.021C56.2299 102.917 55.9573 102.756 55.7243 102.548C55.4913 102.341 55.3025 102.09 55.1686 101.811C55.0347 101.533 54.9584 101.231 54.944 100.923L54.5731 92.9904C54.544 92.3692 54.769 91.7621 55.1984 91.3028C55.6279 90.8434 56.2266 90.5694 56.863 90.541L91.9154 88.979C92.2305 88.9649 92.5453 89.0116 92.842 89.1163C93.1386 89.221 93.4112 89.3818 93.6442 89.5893C93.8772 89.7969 94.066 90.0472 94.1999 90.326C94.3338 90.6049 94.4101 90.9067 94.4245 91.2143L94.7954 99.1471C94.823 99.7529 94.6095 100.346 94.1995 100.801C93.7895 101.257 93.2149 101.54 92.596 101.591C92.5661 101.593 92.5357 101.595 92.5054 101.597Z" fill="#2F2E41"/>
<path d="M33.2292 169.655V125.279C33.2299 124.658 33.4832 124.062 33.9335 123.622C34.3838 123.183 34.9944 122.935 35.6312 122.935H41.0855C41.7224 122.935 42.3329 123.183 42.7832 123.622C43.2335 124.062 43.4868 124.658 43.4876 125.279V169.655C43.4868 170.277 43.2335 170.873 42.7832 171.313C42.3329 171.752 41.7224 171.999 41.0855 172H35.6312C34.9944 171.999 34.3838 171.752 33.9335 171.313C33.4832 170.873 33.2299 170.277 33.2292 169.655Z" fill="#010066"/>
<path d="M47.5425 169.655V125.279C47.5432 124.658 47.7965 124.062 48.2468 123.622C48.6971 123.183 49.3077 122.935 49.9445 122.935H55.3988C56.0357 122.935 56.6462 123.183 57.0965 123.622C57.5468 124.062 57.8001 124.658 57.8009 125.279V169.655C57.8001 170.277 57.5468 170.873 57.0965 171.313C56.6462 171.752 56.0357 171.999 55.3988 172H49.9445C49.3077 171.999 48.6971 171.752 48.2468 171.313C47.7965 170.873 47.5432 170.277 47.5425 169.655Z" fill="#010066"/>
<path d="M48.967 76.6235C59.3756 76.6235 67.8135 68.3865 67.8135 58.2258C67.8135 48.065 59.3756 39.8281 48.967 39.8281C38.5583 39.8281 30.1204 48.065 30.1204 58.2258C30.1204 68.3865 38.5583 76.6235 48.967 76.6235Z" fill="#010066"/>
<path d="M59.1685 64.5069C59.7747 64.3124 60.3313 63.9935 60.8007 63.5716C61.1118 63.2703 61.3516 62.9063 61.5033 62.5051C61.6551 62.1039 61.7152 61.6751 61.6793 61.2488C61.6596 60.9451 61.5682 60.6499 61.4122 60.3864C61.2563 60.1229 61.0401 59.8981 60.7804 59.7297C60.1064 59.3077 59.205 59.3064 58.2872 59.7012L58.322 52.5191L57.5829 52.5156L57.5421 60.959L58.1115 60.6094C58.7719 60.2046 59.7149 59.9196 60.3813 60.337C60.5459 60.4473 60.6823 60.5931 60.7799 60.7632C60.8774 60.9333 60.9334 61.1231 60.9436 61.3178C60.9685 61.6353 60.923 61.9544 60.8103 62.2532C60.6976 62.5521 60.5202 62.8237 60.2903 63.0497C59.4742 63.8107 58.2835 64.0486 56.9257 64.2613L57.0429 64.9736C57.7643 64.8803 58.4757 64.7241 59.1685 64.5069Z" fill="#2F2E41"/>
<path d="M65.9407 52.1563L61.9944 52.665L62.0911 53.3802L66.0375 52.8715L65.9407 52.1563Z" fill="#2F2E41"/>
<path d="M53.4844 53.7618L49.5381 54.2705L49.6348 54.9857L53.5812 54.4769L53.4844 53.7618Z" fill="#2F2E41"/>
<path d="M8.98273 56.7721L36.042 89.0568C36.4689 89.5657 36.7889 90.1516 36.9837 90.7812C37.1785 91.4108 37.2444 92.0717 37.1775 92.7262C37.1106 93.3806 36.9123 94.0158 36.5938 94.5954C36.2754 95.175 35.8431 95.6877 35.3217 96.1041C34.8002 96.5206 34.1999 96.8327 33.5548 97.0227C32.9098 97.2126 32.2327 97.2766 31.5623 97.211C30.8919 97.1454 30.2414 96.9515 29.6478 96.6404C29.0541 96.3293 28.5291 95.9071 28.1027 95.3979L1.04331 63.1133C0.843539 62.875 0.693806 62.6006 0.602671 62.3058C0.511537 62.011 0.480779 61.7016 0.512157 61.3952C0.543535 61.0888 0.63643 60.7914 0.785543 60.5201C0.934656 60.2487 1.13706 60.0087 1.38121 59.8138L5.60254 56.4421C6.09563 56.0483 6.72875 55.8619 7.36265 55.9238C7.99654 55.9856 8.57929 56.2908 8.98272 56.7721H8.98273Z" fill="#010066"/>
<path d="M18.0073 63.9791L40.2269 90.4895C40.4267 90.7278 40.5764 91.0022 40.6675 91.297C40.7587 91.5918 40.7894 91.9012 40.758 92.2076C40.7267 92.514 40.6338 92.8114 40.4847 93.0827C40.3355 93.3541 40.1331 93.5941 39.889 93.7891L32.6787 99.5478C32.4346 99.7429 32.1535 99.889 31.8515 99.978C31.5495 100.067 31.2325 100.097 30.9187 100.066C30.6048 100.036 30.3002 99.945 30.0222 99.7994C29.7442 99.6538 29.4984 99.4562 29.2986 99.2179L7.07892 72.7076C6.67622 72.2261 6.48564 71.6082 6.54898 70.9896C6.61233 70.3711 6.92444 69.8023 7.41683 69.4081L14.6272 63.6491C15.1202 63.2554 15.7533 63.0689 16.3872 63.1308C17.0211 63.1927 17.6038 63.4978 18.0073 63.9791L18.0073 63.9791Z" fill="#2F2E41"/>
<path d="M172.058 31.7503C171.786 31.1205 171.331 30.5823 170.749 30.2023C170.167 29.8223 169.484 29.6172 168.784 29.6123H103.445C102.506 29.6128 101.605 29.9772 100.941 30.6255C100.277 31.2738 99.9036 32.153 99.9031 33.0698V113.761C99.9036 114.678 100.277 115.557 100.941 116.205C101.605 116.854 102.506 117.218 103.445 117.219H168.787C169.726 117.217 170.626 116.853 171.29 116.205C171.954 115.556 172.327 114.678 172.329 113.761V33.0698C172.33 32.6169 172.239 32.1683 172.06 31.7503H172.058ZM171.54 113.761C171.539 114.474 171.248 115.158 170.732 115.662C170.215 116.166 169.515 116.45 168.784 116.451H103.445C102.714 116.451 102.014 116.167 101.497 115.663C100.98 115.159 100.69 114.475 100.69 113.762V33.0703C100.691 32.3572 100.981 31.6737 101.498 31.1695C102.014 30.6653 102.715 30.3816 103.445 30.3806H168.787C169.337 30.3826 169.874 30.5447 170.33 30.846C170.785 31.1474 171.138 31.5744 171.344 32.0726C171.384 32.1719 171.419 32.2731 171.448 32.376C171.51 32.6024 171.542 32.8358 171.542 33.0703L171.54 113.761Z" fill="#3F3D56"/>
<path d="M158.422 48.663H138.741C138.534 48.6633 138.329 48.6237 138.138 48.5466C137.947 48.4695 137.773 48.3564 137.626 48.2136C137.48 48.0709 137.364 47.9013 137.284 47.7147C137.205 47.528 137.164 47.328 137.164 47.1259C137.164 46.9239 137.205 46.7238 137.284 46.5372C137.364 46.3505 137.48 46.181 137.626 46.0382C137.773 45.8954 137.947 45.7823 138.138 45.7052C138.329 45.6281 138.534 45.5886 138.741 45.5889H158.422C158.629 45.5886 158.834 45.6281 159.026 45.7052C159.217 45.7823 159.391 45.8954 159.537 46.0382C159.684 46.181 159.8 46.3505 159.879 46.5372C159.958 46.7238 159.999 46.9239 159.999 47.1259C159.999 47.328 159.958 47.528 159.879 47.7147C159.8 47.9013 159.684 48.0709 159.537 48.2136C159.391 48.3564 159.217 48.4695 159.026 48.5466C158.834 48.6237 158.629 48.6633 158.422 48.663Z" fill="#3F3D56"/>
<path d="M158.422 56.7323H138.741C138.534 56.7326 138.329 56.6931 138.138 56.616C137.947 56.5389 137.773 56.4257 137.626 56.2829C137.48 56.1402 137.364 55.9706 137.284 55.784C137.205 55.5974 137.164 55.3973 137.164 55.1952C137.164 54.9932 137.205 54.7931 137.284 54.6065C137.364 54.4199 137.48 54.2503 137.626 54.1076C137.773 53.9648 137.947 53.8516 138.138 53.7745C138.329 53.6974 138.534 53.6579 138.741 53.6582H158.422C158.629 53.6579 158.834 53.6974 159.026 53.7745C159.217 53.8516 159.391 53.9648 159.537 54.1076C159.684 54.2503 159.8 54.4199 159.879 54.6065C159.958 54.7931 159.999 54.9932 159.999 55.1952C159.999 55.3973 159.958 55.5974 159.879 55.784C159.8 55.9706 159.684 56.1402 159.537 56.2829C159.391 56.4257 159.217 56.5389 159.026 56.616C158.834 56.6931 158.629 56.7326 158.422 56.7323Z" fill="#3F3D56"/>
<path d="M128.643 61.3269H114.26C113.79 61.3264 113.34 61.1441 113.008 60.8199C112.676 60.4957 112.489 60.0561 112.489 59.5976V43.029C112.489 42.5706 112.676 42.131 113.008 41.8068C113.34 41.4826 113.79 41.3003 114.26 41.2998H128.643C129.113 41.3003 129.563 41.4826 129.895 41.8068C130.227 42.131 130.414 42.5706 130.414 43.029V59.5976C130.414 60.0561 130.227 60.4957 129.895 60.8199C129.563 61.1441 129.113 61.3264 128.643 61.3269Z" fill="#010066"/>
<path d="M158.286 73.2548H113.806C113.389 73.2548 112.988 73.0928 112.693 72.8046C112.398 72.5163 112.232 72.1254 112.232 71.7177C112.232 71.3101 112.398 70.9191 112.693 70.6309C112.988 70.3426 113.389 70.1807 113.806 70.1807H158.286C158.703 70.1807 159.104 70.3426 159.399 70.6309C159.694 70.9191 159.86 71.3101 159.86 71.7177C159.86 72.1254 159.694 72.5163 159.399 72.8046C159.104 73.0928 158.703 73.2548 158.286 73.2548Z" fill="#CCCCCC"/>
<path d="M158.286 81.3231H113.807C113.389 81.3225 112.99 81.1603 112.695 80.8721C112.4 80.5839 112.234 80.1933 112.234 79.7861C112.234 79.3788 112.4 78.9882 112.695 78.7001C112.99 78.4119 113.389 78.2497 113.807 78.249H158.286C158.493 78.2487 158.698 78.2882 158.889 78.3653C159.08 78.4424 159.254 78.5556 159.401 78.6984C159.547 78.8411 159.663 79.0107 159.743 79.1973C159.822 79.384 159.863 79.584 159.863 79.7861C159.863 79.9881 159.822 80.1882 159.743 80.3748C159.663 80.5615 159.547 80.731 159.401 80.8738C159.254 81.0165 159.08 81.1297 158.889 81.2068C158.698 81.2839 158.493 81.3234 158.286 81.3231Z" fill="#CCCCCC"/>
<path d="M158.286 89.3934H113.807C113.389 89.3928 112.99 89.2306 112.695 88.9424C112.4 88.6542 112.234 88.2636 112.234 87.8564C112.234 87.4491 112.4 87.0586 112.695 86.7704C112.99 86.4822 113.389 86.32 113.807 86.3193H158.286C158.493 86.319 158.698 86.3585 158.889 86.4356C159.08 86.5128 159.254 86.6259 159.401 86.7687C159.547 86.9114 159.663 87.081 159.743 87.2676C159.822 87.4543 159.863 87.6543 159.863 87.8564C159.863 88.0584 159.822 88.2585 159.743 88.4451C159.663 88.6318 159.547 88.8013 159.401 88.9441C159.254 89.0868 159.08 89.2 158.889 89.2771C158.698 89.3542 158.493 89.3938 158.286 89.3934Z" fill="#CCCCCC"/>
<path d="M158.286 97.4618H113.807C113.389 97.4612 112.99 97.2989 112.695 97.0108C112.4 96.7226 112.234 96.332 112.234 95.9247C112.234 95.5175 112.4 95.1269 112.695 94.8387C112.99 94.5505 113.389 94.3883 113.807 94.3877H158.286C158.493 94.3874 158.698 94.4269 158.889 94.504C159.08 94.5811 159.254 94.6943 159.401 94.837C159.547 94.9798 159.663 95.1494 159.743 95.336C159.822 95.5226 159.863 95.7227 159.863 95.9247C159.863 96.1268 159.822 96.3269 159.743 96.5135C159.663 96.7001 159.547 96.8697 159.401 97.0124C159.254 97.1552 159.08 97.2684 158.889 97.3455C158.698 97.4226 158.493 97.4621 158.286 97.4618Z" fill="#CCCCCC"/>
<path d="M158.286 105.531H113.807C113.389 105.53 112.99 105.368 112.695 105.08C112.4 104.792 112.234 104.401 112.234 103.994C112.234 103.587 112.4 103.196 112.695 102.908C112.99 102.62 113.389 102.458 113.807 102.457H158.286C158.493 102.457 158.698 102.496 158.889 102.573C159.08 102.65 159.254 102.764 159.401 102.906C159.547 103.049 159.663 103.219 159.743 103.405C159.822 103.592 159.863 103.792 159.863 103.994C159.863 104.196 159.822 104.396 159.743 104.583C159.663 104.769 159.547 104.939 159.401 105.082C159.254 105.225 159.08 105.338 158.889 105.415C158.698 105.492 158.493 105.531 158.286 105.531Z" fill="#CCCCCC"/>
<path d="M173.959 44.0079C186.408 44.0079 196.5 34.1564 196.5 22.0039C196.5 9.8515 186.408 0 173.959 0C161.51 0 151.418 9.8515 151.418 22.0039C151.418 34.1564 161.51 44.0079 173.959 44.0079Z" fill="#010066"/>
<path d="M173.523 37.1499C174.988 37.1499 176.175 35.9907 176.175 34.5608C176.175 33.1309 174.988 31.9717 173.523 31.9717C172.058 31.9717 170.87 33.1309 170.87 34.5608C170.87 35.9907 172.058 37.1499 173.523 37.1499Z" fill="white"/>
<path d="M173.239 7.54415C171.239 7.56351 169.326 8.34379 167.907 9.71893C166.488 11.0941 165.675 12.9555 165.641 14.9071C165.64 14.9445 165.64 15.2072 165.64 15.5507C165.64 16.0544 165.845 16.5375 166.21 16.8937C166.575 17.2499 167.069 17.45 167.585 17.4501C168.102 17.45 168.597 17.2496 168.962 16.8931C169.327 16.5366 169.532 16.0531 169.532 15.549V15.5478C169.532 15.3141 169.532 15.1523 169.532 15.1424C169.532 14.5171 169.698 13.9025 170.015 13.3591C170.332 12.8157 170.789 12.3622 171.34 12.0433C171.891 11.7243 172.517 11.5508 173.158 11.5399C173.798 11.5291 174.43 11.6811 174.992 11.9812C175.555 12.2812 176.027 12.7189 176.363 13.2512C176.699 13.7835 176.888 14.392 176.91 15.017C176.932 15.6419 176.787 16.2617 176.489 16.8155C176.192 17.3692 175.752 17.8377 175.212 18.175L175.213 18.1758C175.213 18.1758 172.444 19.9161 171.599 22.3035L171.6 22.3037C171.452 22.7927 171.376 23.3002 171.377 23.8103C171.377 24.02 171.389 25.8546 171.414 27.3437C171.422 27.8575 171.637 28.3474 172.013 28.7078C172.388 29.0681 172.893 29.27 173.42 29.2699C173.683 29.2699 173.944 29.2192 174.188 29.1208C174.431 29.0224 174.652 28.8781 174.838 28.6962C175.025 28.5144 175.172 28.2985 175.273 28.0608C175.374 27.8232 175.426 27.5686 175.426 27.3114L175.426 27.2994C175.417 25.9356 175.413 24.3477 175.413 24.2324C175.413 22.7665 176.862 21.3059 178.052 20.3534C179.429 19.2644 180.397 17.7599 180.804 16.0758C180.892 15.7287 180.94 15.3732 180.948 15.0158C180.948 14.0346 180.75 13.063 180.365 12.1564C179.981 11.2499 179.417 10.4262 178.706 9.7324C177.995 9.03857 177.152 8.4882 176.223 8.11271C175.294 7.73721 174.299 7.54395 173.294 7.54395C173.275 7.54395 173.257 7.54402 173.239 7.54415Z" fill="white"/>
<path d="M44.2422 50.0857C47.6166 47.9202 51.8574 48.8944 55.6078 49.1772C58.9966 49.4329 63.0132 49.181 65.3966 46.4783C67.8763 43.6665 67.6691 39.4917 65.6161 36.5176C63.5954 33.5902 60.241 31.7417 56.6924 31.2543C54.7263 30.9731 52.7217 31.0946 50.8062 31.6109C48.8908 32.1273 47.1064 33.0273 45.5667 34.2536L46.7728 34.7412C46.0699 28.1822 41.1297 22.2527 34.5015 20.6443C27.7952 19.017 20.2955 21.7944 16.7176 27.6314C13.1903 33.3859 13.6082 41.4157 18.6853 46.1977C21.1235 48.4943 24.4402 49.6643 27.8061 49.04C30.9104 48.4642 33.6686 46.2551 34.2495 43.1356C34.788 40.2438 33.6116 36.9591 30.7301 35.6962C29.9416 35.3372 29.08 35.1578 28.2101 35.1713C27.3402 35.1849 26.4848 35.3912 25.7085 35.7745C25.0054 36.1607 24.4113 36.7109 23.9794 37.3761C23.5475 38.0412 23.2911 38.8005 23.2334 39.586C23.1797 40.3465 23.3383 41.107 23.6925 41.7863C24.0925 42.5834 25.3116 41.8851 24.9126 41.0902C24.6549 40.5057 24.5817 39.8594 24.7023 39.2341C24.8228 38.6087 25.1318 38.0327 25.5895 37.5797C26.6369 36.5116 28.2904 36.3342 29.6822 36.7709C32.2289 37.57 33.3533 40.422 32.8734 42.8414C32.3359 45.5514 29.9659 47.2927 27.2674 47.7386C24.3328 48.2235 21.471 47.0138 19.4339 44.9794C15.1676 40.7187 14.7985 33.8563 17.6763 28.7711C20.5959 23.6124 26.8235 20.8423 32.7555 21.7077C38.6213 22.5633 43.4521 27.0671 44.9573 32.6204C45.1472 33.3162 45.2818 34.0252 45.3598 34.7412C45.3646 34.8755 45.4089 35.0055 45.4873 35.1159C45.5657 35.2263 45.675 35.3123 45.8021 35.3637C45.9293 35.4151 46.0689 35.4297 46.2043 35.4058C46.3397 35.3819 46.4652 35.3205 46.5658 35.2289C51.5781 31.1653 59.9147 31.6011 64.0246 36.7132C66.0401 39.2203 66.6341 43.1134 64.2804 45.6318C62.0393 48.0298 58.3176 48.0322 55.2567 47.7695C51.341 47.4336 47.0365 46.6437 43.5291 48.8946C42.7723 49.3802 43.4794 50.5752 44.2422 50.0856V50.0857Z" fill="#2F2E41"/>
<path d="M59.4395 140.754H31.1796C30.6177 140.754 30.0789 140.536 29.6816 140.148C29.2842 139.76 29.0607 139.234 29.0601 138.685V129.49C29.0607 128.941 29.2842 128.415 29.6816 128.028C30.0789 127.64 30.6177 127.421 31.1796 127.421H59.4395C60.0014 127.421 60.5402 127.64 60.9375 128.028C61.3349 128.415 61.5584 128.941 61.559 129.49V138.685C61.5584 139.234 61.3349 139.76 60.9375 140.148C60.5402 140.536 60.0014 140.754 59.4395 140.754Z" fill="#2F2E41"/>
<path d="M60.4051 95.4178C59.5203 91.0007 56.084 87.5027 51.6238 86.0645C53.2345 85.5586 54.2585 84.8094 54.2585 83.9716C54.2585 82.448 50.8845 81.2129 46.7225 81.2129C42.5605 81.2129 39.1866 82.448 39.1866 83.9716C39.1866 84.8216 40.2384 85.5812 41.8899 86.0873C35.052 88.0774 30.0889 93.8866 30.0889 100.727C30.0889 100.727 27.984 113.899 26.3314 124.429C25.2741 131.165 31.0511 137.186 38.5694 137.186H65.0105C66.7425 137.186 68.1516 135.91 68.1516 134.343C68.1516 134.343 63.2794 109.766 60.4051 95.4178Z" fill="#2F2E41"/>
</g>
<defs>
<clipPath id="clip0">
<rect width="196" height="172" fill="white" transform="translate(0.5)"/>
</clipPath>
</defs>
</svg>
