<svg width="16" height="10" viewBox="0 0 16 10" fill="none" xmlns="http://www.w3.org/2000/svg">
<path fill-rule="evenodd" clip-rule="evenodd" d="M10.2197 9.53033C9.92678 9.23744 9.92678 8.76256 10.2197 8.46967L12.9393 5.75L0.75 5.75C0.335787 5.75 0 5.41421 0 5C0 4.58579 0.335787 4.25 0.75 4.25L12.9393 4.25L10.2197 1.53033C9.92678 1.23744 9.92678 0.762563 10.2197 0.46967C10.5126 0.176777 10.9874 0.176777 11.2803 0.46967L15.2803 4.46967C15.4262 4.61554 15.4994 4.80656 15.5 4.99775C15.5 4.9985 15.5 4.99925 15.5 5C15.5 5.00075 15.5 5.0015 15.5 5.00225C15.4997 5.10312 15.4795 5.19931 15.4431 5.28709C15.4065 5.37555 15.3522 5.45842 15.2803 5.53033L11.2803 9.53033C10.9874 9.82322 10.5126 9.82322 10.2197 9.53033Z" fill="#010066"/>
</svg>
