<svg width="14" height="14" viewBox="0 0 14 14" fill="none" xmlns="http://www.w3.org/2000/svg">
<path d="M13.8999 6.94995C13.8999 8.32453 13.4924 9.66824 12.7288 10.8112C11.9651 11.9541 10.8796 12.8449 9.60962 13.3709C8.33967 13.8969 6.94216 14.0346 5.59399 13.7664C4.24582 13.4983 3.00762 12.8364 2.03564 11.8644C1.06367 10.8924 0.401709 9.65402 0.133542 8.30585C-0.134625 6.95768 0.00302088 5.56029 0.52905 4.29034C1.05508 3.0204 1.9457 1.93494 3.08862 1.17126C4.23154 0.407589 5.57537 0 6.94995 0C8.7932 0 10.5609 0.732206 11.8643 2.03558C13.1676 3.33896 13.8999 5.1067 13.8999 6.94995Z" fill="white"/>
</svg>
