<svg width="144" height="96" viewBox="0 0 144 96" fill="none" xmlns="http://www.w3.org/2000/svg">
<rect width="144" height="96" rx="15" fill="#9B51E0"/>
<path d="M72.0809 43.3937L66.3896 40.7959L72.0809 50.339L77.7723 40.7959L72.0809 43.3937Z" fill="white"/>
<path d="M77.153 38.8609L72.0814 30.4092L67.0042 38.8707L72.0814 36.5597L77.153 38.8609Z" fill="white"/>
<path d="M67.4438 39.9664L72.081 42.0739L76.726 39.9629L72.081 37.8555L67.4438 39.9664Z" fill="white"/>
<path d="M61.1212 79.8867C60.5692 79.8867 60.0732 79.7907 59.6332 79.5987C59.2012 79.3987 58.8612 79.1267 58.6132 78.7827C58.3652 78.4307 58.2372 78.0267 58.2292 77.5707H59.3932C59.4332 77.9627 59.5932 78.2947 59.8732 78.5667C60.1612 78.8307 60.5772 78.9627 61.1212 78.9627C61.6412 78.9627 62.0492 78.8347 62.3452 78.5787C62.6492 78.3147 62.8012 77.9787 62.8012 77.5707C62.8012 77.2507 62.7132 76.9907 62.5372 76.7907C62.3612 76.5907 62.1412 76.4387 61.8772 76.3347C61.6132 76.2307 61.2572 76.1187 60.8092 75.9987C60.2572 75.8547 59.8132 75.7107 59.4772 75.5667C59.1492 75.4227 58.8652 75.1987 58.6252 74.8947C58.3932 74.5827 58.2772 74.1667 58.2772 73.6467C58.2772 73.1907 58.3932 72.7867 58.6252 72.4347C58.8572 72.0827 59.1812 71.8107 59.5972 71.6187C60.0212 71.4267 60.5052 71.3307 61.0492 71.3307C61.8332 71.3307 62.4732 71.5267 62.9692 71.9187C63.4732 72.3107 63.7572 72.8307 63.8212 73.4787H62.6212C62.5812 73.1587 62.4132 72.8787 62.1172 72.6387C61.8212 72.3907 61.4292 72.2667 60.9412 72.2667C60.4852 72.2667 60.1132 72.3867 59.8252 72.6267C59.5372 72.8587 59.3932 73.1867 59.3932 73.6107C59.3932 73.9147 59.4772 74.1627 59.6452 74.3547C59.8212 74.5467 60.0332 74.6947 60.2812 74.7987C60.5372 74.8947 60.8932 75.0067 61.3492 75.1347C61.9012 75.2867 62.3452 75.4387 62.6812 75.5907C63.0172 75.7347 63.3052 75.9627 63.5452 76.2747C63.7852 76.5787 63.9052 76.9947 63.9052 77.5227C63.9052 77.9307 63.7972 78.3147 63.5812 78.6747C63.3652 79.0347 63.0452 79.3267 62.6212 79.5507C62.1972 79.7747 61.6972 79.8867 61.1212 79.8867ZM70.0481 79.8027L66.6041 75.9867V79.8027H65.5121V71.4387H66.6041V75.3147L70.0601 71.4387H71.4401L67.6481 75.6267L71.4761 79.8027H70.0481ZM77.0997 79.8027L75.1077 76.3827H73.7877V79.8027H72.6957V71.4387H75.3957C76.0277 71.4387 76.5597 71.5467 76.9917 71.7627C77.4317 71.9787 77.7597 72.2707 77.9757 72.6387C78.1917 73.0067 78.2997 73.4267 78.2997 73.8987C78.2997 74.4747 78.1317 74.9827 77.7957 75.4227C77.4677 75.8627 76.9717 76.1547 76.3077 76.2987L78.4077 79.8027H77.0997ZM73.7877 75.5067H75.3957C75.9877 75.5067 76.4317 75.3627 76.7277 75.0747C77.0237 74.7787 77.1717 74.3867 77.1717 73.8987C77.1717 73.4027 77.0237 73.0187 76.7277 72.7467C76.4397 72.4747 75.9957 72.3387 75.3957 72.3387H73.7877V75.5067ZM81.0885 71.4387V79.8027H79.9965V71.4387H81.0885ZM84.0416 78.9147H86.9696V79.8027H82.9496V71.4387H84.0416V78.9147ZM89.2213 78.9147H92.1493V79.8027H88.1293V71.4387H89.2213V78.9147Z" fill="white"/>
</svg>
