<svg width="145" height="96" viewBox="0 0 145 96" fill="none" xmlns="http://www.w3.org/2000/svg">
<rect width="145" height="96" rx="15" fill="black"/>
<path fill-rule="evenodd" clip-rule="evenodd" d="M72.2228 55.2816C80.6335 55.2816 87.4517 48.7846 87.4517 40.7702C87.4517 32.7558 80.6335 26.2588 72.2228 26.2588C63.8121 26.2588 56.9939 32.7558 56.9939 40.7702C56.9939 41.7504 57.0959 42.7079 57.2903 43.6336L66.1654 43.8799C66.7433 42.8317 67.7343 41.9914 69.0032 41.5918L69.0978 37.5073C69.0886 37.4831 69.079 37.4591 69.0693 37.4351C69.0502 37.3873 69.0311 37.3396 69.0152 37.29C68.1152 34.4867 69.7806 31.516 72.7343 30.6551C75.6877 29.7942 78.8125 31.3686 79.7125 34.1719C80.4254 36.3929 79.5255 38.7141 77.6552 40.0131L74.9976 43.9794C75.1112 44.201 75.2136 44.43 75.2915 44.6728C76.0891 47.1573 74.6138 49.7903 71.9973 50.553C69.7399 51.211 67.3738 50.2614 66.2524 48.395L59.1372 48.1976C61.795 52.4402 66.6607 55.2816 72.2228 55.2816ZM75.2594 38.5865C76.8985 38.1087 77.8223 36.4594 77.3228 34.9034C76.8233 33.3474 75.0893 32.4731 73.4503 32.9509C71.8102 33.429 70.8866 35.0778 71.3861 36.6338C71.8856 38.1899 73.6186 39.0647 75.2594 38.5865ZM75.616 39.691C73.3219 40.3597 70.8956 39.1365 70.1966 36.959C69.4972 34.7805 70.7902 32.4733 73.0842 31.8046C75.378 31.136 77.8057 32.3588 78.505 34.5373C79.204 36.7147 77.91 39.0223 75.616 39.691ZM68.9768 43.6524C70.7231 43.1434 72.5706 44.0751 73.1028 45.7327C73.6349 47.3903 72.6505 49.1474 70.9041 49.6561C69.4822 50.0706 67.9934 49.5304 67.2022 48.4208L69.3038 48.4793C70.6067 48.7223 71.8742 47.9165 72.1327 46.6761C72.3916 45.4379 71.5455 44.2362 70.2415 43.9924L68.2915 43.9383C68.5044 43.8221 68.7316 43.7239 68.9768 43.6524Z" fill="white"/>
<path fill-rule="evenodd" clip-rule="evenodd" d="M134.621 10.1458C136.241 10.1458 137.555 8.89439 137.555 7.35072C137.555 5.80706 136.241 4.55566 134.621 4.55566C133.001 4.55566 131.688 5.80706 131.688 7.35072C131.688 7.53863 131.707 7.7222 131.745 7.89971L133.454 7.94716C133.565 7.74526 133.756 7.5834 134 7.50644L134.019 6.71973C134.017 6.71506 134.015 6.71044 134.013 6.70582C134.009 6.69661 134.006 6.68741 134.003 6.67787C133.829 6.13791 134.15 5.56573 134.719 5.3999C135.288 5.23409 135.89 5.53733 136.063 6.07729C136.2 6.50507 136.027 6.95216 135.667 7.20237L135.155 7.96631C135.177 8.009 135.197 8.05311 135.212 8.09988C135.365 8.57842 135.081 9.08556 134.577 9.23247C134.142 9.3592 133.687 9.17631 133.471 8.81681L132.099 8.77877C132.611 9.59736 133.549 10.1458 134.621 10.1458ZM135.205 6.92758C135.521 6.83556 135.699 6.51789 135.603 6.21818C135.507 5.91847 135.173 5.75008 134.857 5.8421C134.541 5.93418 134.363 6.25177 134.459 6.55148C134.556 6.85119 134.889 7.0197 135.205 6.92758ZM135.274 7.14032C134.832 7.26912 134.365 7.03353 134.23 6.61412C134.096 6.19451 134.345 5.75011 134.786 5.62131C135.228 5.49253 135.696 5.72805 135.831 6.14765C135.965 6.56706 135.716 7.01153 135.274 7.14032ZM133.995 7.90334C134.332 7.80529 134.688 7.98476 134.79 8.30402C134.893 8.62329 134.703 8.96174 134.367 9.05972C134.093 9.13955 133.806 9.03551 133.654 8.82178L134.058 8.83305C134.309 8.87985 134.553 8.72464 134.603 8.48574C134.653 8.24724 134.49 8.01577 134.239 7.96881L133.863 7.95841C133.904 7.93601 133.948 7.9171 133.995 7.90334Z" fill="white"/>
<path d="M45.974 75.7906C48.7628 75.7906 50.1153 74.4717 50.1153 72.9287C50.1153 69.5393 44.4402 70.7131 44.4402 69.0117C44.4402 68.4315 44.9561 67.9567 46.2947 67.9567C47.1592 67.9567 48.0935 68.1941 48.9998 68.682L49.697 67.0599C48.7907 66.5191 47.5357 66.2422 46.3087 66.2422C43.5338 66.2422 42.1952 67.5478 42.1952 69.1173C42.1952 72.5462 47.8704 71.3593 47.8704 73.087C47.8704 73.6541 47.3266 74.0761 45.988 74.0761C44.8167 74.0761 43.5896 73.6804 42.7669 73.1133L42 74.7223C42.8645 75.3554 44.4262 75.7906 45.974 75.7906Z" fill="white"/>
<path d="M56.5948 75.6323H58.8537V68.1413H61.9771V66.4004H53.4714V68.1413H56.5948V75.6323Z" fill="white"/>
<path d="M68.4877 73.9178V71.7813H73.0195V70.1196H68.4877V68.1149H73.6191V66.4004H66.2428V75.6323H73.8004V73.9178H68.4877Z" fill="white"/>
<path d="M85.9406 75.6323H88.3111L83.9466 66.4004H81.7156L77.3651 75.6323H79.6798L80.5443 73.6541H85.0761L85.9406 75.6323ZM81.2694 72.0319L82.8172 68.4974L84.3649 72.0319H81.2694Z" fill="white"/>
<path d="M103.376 75.6323L103.348 66.4004H101.493L97.8957 72.1374L94.2424 66.4004H92.374V75.6323H94.4934V70.2119L97.3519 74.6564H98.3698L101.242 70.0932L101.256 75.6323H103.376Z" fill="white"/>
<path d="M107.487 67.5969C108.566 67.5969 109.469 66.7599 109.469 65.6923C109.469 64.6247 108.566 63.7877 107.487 63.7877C106.409 63.7877 105.506 64.6247 105.506 65.6923C105.506 66.7599 106.409 67.5969 107.487 67.5969Z" stroke="white" stroke-width="0.7"/>
<path d="M107.494 65.8674H107.043V66.608H106.788V64.7773H107.424C107.64 64.7773 107.807 64.8243 107.923 64.9182C108.04 65.012 108.098 65.1487 108.098 65.328C108.098 65.442 108.066 65.5414 108.001 65.626C107.936 65.7107 107.847 65.774 107.732 65.8159L108.183 66.5929V66.608H107.911L107.494 65.8674ZM107.043 65.67H107.432C107.558 65.67 107.658 65.639 107.732 65.577C107.806 65.515 107.844 65.432 107.844 65.328C107.844 65.2149 107.808 65.1281 107.737 65.0678C107.666 65.0074 107.564 64.9768 107.431 64.976H107.043V65.67Z" fill="white"/>
</svg>
