<svg width="185" height="141" viewBox="0 0 185 141" fill="none" xmlns="http://www.w3.org/2000/svg">
<rect x="0.256836" width="184.385" height="141" rx="10" fill="url(#paint0_linear)"/>
<path d="M67.6352 115.06C67.1989 115.06 66.8079 114.989 66.4622 114.847C66.1166 114.705 65.8389 114.496 65.6292 114.218C65.4252 113.94 65.3176 113.606 65.3062 113.215H66.8532C66.8759 113.436 66.9524 113.606 67.0827 113.725C67.2131 113.838 67.3831 113.895 67.5927 113.895C67.8081 113.895 67.9781 113.847 68.1027 113.751C68.2274 113.648 68.2897 113.51 68.2897 113.334C68.2897 113.187 68.2387 113.065 68.1367 112.968C68.0404 112.872 67.9186 112.793 67.7712 112.73C67.6296 112.668 67.4256 112.597 67.1592 112.518C66.7739 112.399 66.4594 112.28 66.2157 112.161C65.9721 112.042 65.7624 111.866 65.5867 111.634C65.4111 111.402 65.3232 111.098 65.3232 110.724C65.3232 110.169 65.5244 109.736 65.9267 109.424C66.3291 109.107 66.8532 108.948 67.4992 108.948C68.1566 108.948 68.6864 109.107 69.0887 109.424C69.4911 109.736 69.7064 110.172 69.7347 110.733H68.1622C68.1509 110.54 68.0801 110.39 67.9497 110.282C67.8194 110.169 67.6522 110.112 67.4482 110.112C67.2726 110.112 67.1309 110.161 67.0232 110.257C66.9156 110.348 66.8617 110.481 66.8617 110.656C66.8617 110.849 66.9524 110.999 67.1337 111.107C67.3151 111.215 67.5984 111.331 67.9837 111.455C68.3691 111.586 68.6807 111.71 68.9187 111.829C69.1624 111.948 69.3721 112.121 69.5477 112.348C69.7234 112.575 69.8112 112.866 69.8112 113.223C69.8112 113.563 69.7234 113.872 69.5477 114.15C69.3777 114.428 69.1284 114.649 68.7997 114.813C68.4711 114.977 68.0829 115.06 67.6352 115.06ZM73.3492 113.767V115H72.6097C72.0827 115 71.6719 114.872 71.3772 114.617C71.0825 114.357 70.9352 113.935 70.9352 113.351V111.464H70.3572V110.257H70.9352V109.101H72.3887V110.257H73.3407V111.464H72.3887V113.368C72.3887 113.51 72.4227 113.612 72.4907 113.674C72.5587 113.736 72.672 113.767 72.8307 113.767H73.3492ZM78.6298 112.552C78.6298 112.688 78.6213 112.83 78.6043 112.977H75.3148C75.3375 113.272 75.431 113.498 75.5953 113.657C75.7653 113.81 75.9722 113.886 76.2158 113.886C76.5785 113.886 76.8307 113.733 76.9723 113.427H78.5193C78.44 113.739 78.2955 114.02 78.0858 114.269C77.8818 114.518 77.624 114.714 77.3123 114.855C77.0007 114.997 76.6522 115.068 76.2668 115.068C75.8022 115.068 75.3885 114.969 75.0258 114.77C74.6632 114.572 74.3798 114.289 74.1758 113.92C73.9718 113.552 73.8698 113.121 73.8698 112.628C73.8698 112.135 73.969 111.705 74.1673 111.336C74.3713 110.968 74.6547 110.685 75.0173 110.486C75.38 110.288 75.7965 110.189 76.2668 110.189C76.7258 110.189 77.1338 110.285 77.4908 110.478C77.8478 110.671 78.1255 110.945 78.3238 111.302C78.5278 111.659 78.6298 112.076 78.6298 112.552ZM77.1423 112.169C77.1423 111.92 77.0573 111.722 76.8873 111.574C76.7173 111.427 76.5048 111.353 76.2498 111.353C76.0062 111.353 75.7993 111.424 75.6293 111.566C75.465 111.708 75.363 111.909 75.3233 112.169H77.1423ZM79.1076 112.62C79.1076 112.133 79.1983 111.705 79.3796 111.336C79.5666 110.968 79.8188 110.685 80.1361 110.486C80.4535 110.288 80.8076 110.189 81.1986 110.189C81.533 110.189 81.8248 110.257 82.0741 110.393C82.3291 110.529 82.5246 110.707 82.6606 110.928V110.257H84.1141V115H82.6606V114.328C82.519 114.549 82.3206 114.728 82.0656 114.864C81.8163 115 81.5245 115.068 81.1901 115.068C80.8048 115.068 80.4535 114.969 80.1361 114.77C79.8188 114.566 79.5666 114.28 79.3796 113.912C79.1983 113.538 79.1076 113.107 79.1076 112.62ZM82.6606 112.628C82.6606 112.266 82.5586 111.98 82.3546 111.77C82.1563 111.56 81.9126 111.455 81.6236 111.455C81.3346 111.455 81.0881 111.56 80.8841 111.77C80.6858 111.974 80.5866 112.257 80.5866 112.62C80.5866 112.983 80.6858 113.272 80.8841 113.487C81.0881 113.697 81.3346 113.801 81.6236 113.801C81.9126 113.801 82.1563 113.697 82.3546 113.487C82.5586 113.277 82.6606 112.991 82.6606 112.628ZM91.2177 110.206C91.807 110.206 92.2745 110.384 92.6202 110.741C92.9715 111.098 93.1472 111.594 93.1472 112.229V115H91.7022V112.424C91.7022 112.118 91.62 111.883 91.4557 111.719C91.297 111.549 91.076 111.464 90.7927 111.464C90.5093 111.464 90.2855 111.549 90.1212 111.719C89.9625 111.883 89.8832 112.118 89.8832 112.424V115H88.4382V112.424C88.4382 112.118 88.356 111.883 88.1917 111.719C88.033 111.549 87.812 111.464 87.5287 111.464C87.2453 111.464 87.0215 111.549 86.8572 111.719C86.6985 111.883 86.6192 112.118 86.6192 112.424V115H85.1657V110.257H86.6192V110.852C86.7665 110.654 86.9592 110.498 87.1972 110.384C87.4352 110.265 87.7043 110.206 88.0047 110.206C88.3617 110.206 88.679 110.282 88.9567 110.435C89.24 110.588 89.461 110.807 89.6197 111.09C89.784 110.829 90.0078 110.617 90.2912 110.452C90.5745 110.288 90.8833 110.206 91.2177 110.206ZM95.7185 112.008C95.7185 111.419 95.846 110.894 96.101 110.435C96.356 109.971 96.7102 109.611 97.1635 109.356C97.6225 109.095 98.141 108.965 98.719 108.965C99.4273 108.965 100.034 109.152 100.538 109.526C101.042 109.9 101.379 110.41 101.549 111.056H99.9515C99.8325 110.807 99.6625 110.617 99.4415 110.486C99.2262 110.356 98.9797 110.291 98.702 110.291C98.2543 110.291 97.8917 110.447 97.614 110.758C97.3363 111.07 97.1975 111.487 97.1975 112.008C97.1975 112.529 97.3363 112.946 97.614 113.257C97.8917 113.569 98.2543 113.725 98.702 113.725C98.9797 113.725 99.2262 113.66 99.4415 113.529C99.6625 113.399 99.8325 113.209 99.9515 112.96H101.549C101.379 113.606 101.042 114.116 100.538 114.49C100.034 114.858 99.4273 115.043 98.719 115.043C98.141 115.043 97.6225 114.915 97.1635 114.66C96.7102 114.399 96.356 114.039 96.101 113.58C95.846 113.121 95.7185 112.597 95.7185 112.008ZM102.151 112.62C102.151 112.133 102.241 111.705 102.423 111.336C102.61 110.968 102.862 110.685 103.179 110.486C103.496 110.288 103.851 110.189 104.242 110.189C104.576 110.189 104.868 110.257 105.117 110.393C105.372 110.529 105.568 110.707 105.704 110.928V110.257H107.157V115H105.704V114.328C105.562 114.549 105.364 114.728 105.109 114.864C104.859 115 104.567 115.068 104.233 115.068C103.848 115.068 103.496 114.969 103.179 114.77C102.862 114.566 102.61 114.28 102.423 113.912C102.241 113.538 102.151 113.107 102.151 112.62ZM105.704 112.628C105.704 112.266 105.602 111.98 105.398 111.77C105.199 111.56 104.956 111.455 104.667 111.455C104.378 111.455 104.131 111.56 103.927 111.77C103.729 111.974 103.63 112.257 103.63 112.62C103.63 112.983 103.729 113.272 103.927 113.487C104.131 113.697 104.378 113.801 104.667 113.801C104.956 113.801 105.199 113.697 105.398 113.487C105.602 113.277 105.704 112.991 105.704 112.628ZM109.662 111.047C109.832 110.787 110.045 110.583 110.3 110.435C110.555 110.282 110.838 110.206 111.15 110.206V111.744H110.75C110.387 111.744 110.115 111.824 109.934 111.982C109.753 112.135 109.662 112.407 109.662 112.798V115H108.209V110.257H109.662V111.047ZM111.555 112.62C111.555 112.133 111.646 111.705 111.827 111.336C112.014 110.968 112.267 110.685 112.584 110.486C112.901 110.288 113.255 110.189 113.646 110.189C113.958 110.189 114.241 110.254 114.496 110.384C114.757 110.515 114.961 110.69 115.108 110.911V108.71H116.562V115H115.108V114.32C114.972 114.547 114.777 114.728 114.522 114.864C114.273 115 113.981 115.068 113.646 115.068C113.255 115.068 112.901 114.969 112.584 114.77C112.267 114.566 112.014 114.28 111.827 113.912C111.646 113.538 111.555 113.107 111.555 112.62ZM115.108 112.628C115.108 112.266 115.006 111.98 114.802 111.77C114.604 111.56 114.36 111.455 114.071 111.455C113.782 111.455 113.536 111.56 113.332 111.77C113.134 111.974 113.034 112.257 113.034 112.62C113.034 112.983 113.134 113.272 113.332 113.487C113.536 113.697 113.782 113.801 114.071 113.801C114.36 113.801 114.604 113.697 114.802 113.487C115.006 113.277 115.108 112.991 115.108 112.628Z" fill="white"/>
<path d="M99.8592 49.4102C95.655 49.4102 92.2254 52.8971 92.1928 57.1963L87.4187 64.2155C86.0868 64.0913 84.9382 64.3746 83.9226 65.0096L77.3848 62.2974V69.7046L81.2512 71.2994C81.8098 73.9366 84.1109 75.9245 86.8337 75.9245C89.7938 75.9245 92.2468 73.5925 92.5167 70.6229L99.8667 65.1144C104.083 65.1144 107.513 61.608 107.513 57.2597L107.512 57.2584C107.512 52.9307 104.082 49.4102 99.8592 49.4102ZM86.8337 74.3621C85.2181 74.3621 83.8272 73.4296 83.1204 72.0702C83.8058 72.3392 84.4988 72.6354 85.1855 72.9122C86.9015 73.6365 88.8511 72.7738 89.5365 71.0135C90.2294 69.2532 89.3883 67.2666 87.6748 66.5617L85.9261 65.8374C86.2286 65.7676 86.5312 65.7339 86.8337 65.7339C89.1674 65.7339 91.0366 67.652 91.0366 70.0474C91.0366 72.444 89.1674 74.3621 86.8337 74.3621ZM99.8667 62.5199C97.0284 62.5199 94.7223 60.1724 94.7223 57.2597C94.7223 54.3599 97.0221 51.9995 99.8667 51.9995C102.685 51.9995 104.991 54.3599 104.991 57.2597C104.991 60.1802 102.684 62.5276 99.8667 62.5199Z" fill="white"/>
<path d="M99.8803 53.0391C97.6144 53.0391 95.7791 54.9235 95.7791 57.249C95.7791 59.5745 97.6081 61.459 99.8803 61.459C102.132 61.459 103.981 59.581 103.981 57.249C103.981 54.9171 102.132 53.0391 99.8803 53.0391Z" fill="white"/>
<defs>
<linearGradient id="paint0_linear" x1="-40.9176" y1="50.9932" x2="50.045" y2="215.448" gradientUnits="userSpaceOnUse">
<stop stop-color="#FC58B3"/>
<stop offset="1" stop-color="#FEAE68"/>
</linearGradient>
</defs>
</svg>
