<svg width="178" height="115" viewBox="0 0 178 115" fill="none" xmlns="http://www.w3.org/2000/svg">
<g clip-path="url(#clip0)">
<rect width="178" height="115" fill="white"/>
<path opacity="0.1" d="M62.4395 112.773C79.5877 112.773 93.4891 110.598 93.4891 107.916C93.4891 105.234 79.5877 103.06 62.4395 103.06C45.2913 103.06 31.3899 105.234 31.3899 107.916C31.3899 110.598 45.2913 112.773 62.4395 112.773Z" fill="#010066"/>
<path opacity="0.1" d="M103.419 16.2184C92.0077 15.8923 81.1395 12.8496 70.7614 9.52158C60.3834 6.19357 50.104 2.50742 38.966 0.744413C31.8022 -0.389675 23.6087 -0.551272 17.8378 2.6166C12.2821 5.67384 10.4871 10.9366 9.52268 15.8239C8.79625 19.5013 8.36956 23.3723 10.3584 26.8153C11.7408 29.2058 14.1916 31.2148 15.8878 33.5049C21.7891 41.4711 17.6174 51.295 11.2241 59.0735C8.22674 62.7218 4.74446 66.2071 2.42941 70.0868C0.114355 73.9666 -0.955895 78.4272 1.07 82.3958C3.0765 86.3266 7.86 89.2731 13.042 91.3477C23.5664 95.5623 35.9633 96.7677 48.0605 97.452C74.8308 98.9631 101.742 98.3094 128.583 97.6529C138.517 97.4112 148.493 97.1652 158.264 95.8971C163.692 95.1925 169.293 94.0745 173.234 91.3754C178.234 87.9498 179.474 82.1498 176.122 77.8551C170.501 70.6488 154.964 68.8596 151.03 61.1277C148.868 56.8708 151.088 52.1307 154.232 48.1839C160.974 39.7154 172.275 32.2863 172.869 22.608C173.278 15.9607 167.846 9.30321 159.446 6.15717C150.642 2.85973 138.432 3.27464 131.94 8.73253C125.249 14.3462 113.496 16.5081 103.419 16.2184Z" fill="#010066"/>
<path d="M94.3513 52.6626L88.9507 49.6563L91.6748 46.3079L77.4107 45.3689L72.2851 48.6416L65.8689 45.6717L60.5177 46.2031L60.4542 45.0385C60.388 43.8243 60.2402 42.6141 60.0117 41.4135C60.0346 41.0495 60.0504 40.6317 60.0487 40.1775C60.0487 38.263 59.7348 35.7255 58.356 34.0339L58.6734 31.6784L56.0992 29.1671C56.5126 28.4871 56.9839 27.8323 57.5097 27.2075C57.5979 27.1027 57.686 27.0008 57.7812 26.9018C61.1225 26.7023 63.7584 24.4342 63.7584 21.6608C63.7584 21.5327 63.7584 21.4046 63.7408 21.2779C63.7408 21.227 63.7284 21.1746 63.7214 21.1236C64.0476 21.2692 64.3773 21.4148 64.707 21.5604C64.7687 21.6332 64.8392 21.7059 64.9168 21.7918L64.9327 21.8079L65.0314 21.9083L65.0632 21.9389C65.0984 21.9738 65.1354 22.0073 65.1725 22.0422L65.1972 22.0655C65.2906 22.1514 65.3893 22.2388 65.4951 22.3247C65.5077 22.3331 65.5195 22.3424 65.5304 22.3523L65.6626 22.4542L65.6997 22.4819C65.8125 22.5649 65.9324 22.645 66.0523 22.7207L66.0911 22.7439L66.2427 22.8298L66.2921 22.856C66.3503 22.8852 66.4102 22.9157 66.4684 22.9434L66.4896 22.9536C66.5583 22.9842 66.6289 23.0133 66.6994 23.0409L66.7347 23.0526C66.7946 23.0739 66.8534 23.0943 66.911 23.1137L66.9656 23.1297C67.0273 23.1472 67.0873 23.1632 67.1508 23.1778L67.1896 23.1865C67.2671 23.2025 67.3447 23.2156 67.4241 23.2258H67.4329C67.5076 23.2358 67.5829 23.2421 67.6586 23.2448H67.7097C67.7772 23.2477 67.8449 23.2477 67.9125 23.2448H67.9565C68.0411 23.2407 68.1253 23.2325 68.2087 23.22C68.6032 23.1772 68.982 23.065 69.3195 22.891C69.4054 22.8435 69.4816 22.7851 69.5452 22.7177C69.8978 22.3363 69.5099 21.9185 69.5099 21.9185C69.3724 21.6477 68.4802 21.457 68.4802 21.457C68.4802 21.457 65.6591 20.4845 65.6591 19.71C65.6591 18.9355 64.9538 14.9174 57.6737 13.9988C57.6737 13.9988 52.9378 13.779 51.6066 15.8725L51.5784 16.117C51.1869 16.3194 50.8625 16.7256 50.4764 16.8449C50.3096 16.8745 50.1487 16.9236 49.9986 16.9905V16.9629C49.954 16.9951 49.9174 17.0341 49.891 17.0779C49.8081 17.2141 49.7583 17.3625 49.7447 17.5146C49.7049 17.7004 49.6268 17.8792 49.5137 18.0431C49.4821 18.0897 49.4468 18.1344 49.4079 18.177L49.3779 18.2163C49.5826 18.2295 49.7882 18.2021 49.9774 18.1363C49.9476 18.3356 49.8884 18.5311 49.8011 18.7186C49.9132 18.7216 50.0239 18.6979 50.1202 18.6504C50.2165 18.603 50.2942 18.5336 50.3441 18.4507V18.4391L50.3671 18.4129C50.4114 18.3455 50.448 18.2748 50.4764 18.2018L50.457 18.2192C50.4922 18.1246 50.524 18.0285 50.5628 17.9354C50.5805 17.8829 50.6098 17.8335 50.6492 17.7898C50.6962 17.7506 50.7538 17.7211 50.8172 17.7037C50.8806 17.6862 50.948 17.6813 51.0141 17.6893L50.9419 18.9515H50.9736C50.9311 19.0433 50.8792 19.132 50.8184 19.2165C50.5681 19.5513 50.1132 19.7799 49.9457 20.1468C49.8734 20.3237 49.8458 20.511 49.8646 20.6971C49.8646 20.8062 49.8804 20.9169 49.891 21.0261V21.0173C49.9157 21.3085 49.9227 21.5851 49.7323 21.8195C49.6018 21.9796 49.392 22.1005 49.3197 22.2825C49.2997 22.3332 49.2908 22.3864 49.2933 22.4397C49.3074 22.5992 49.3478 22.7564 49.4132 22.907C49.4139 22.9041 49.4139 22.9011 49.4132 22.8983C49.4572 23.009 49.4674 23.127 49.4432 23.2418C49.3638 23.533 48.9354 23.7761 48.9565 24.0542C48.9553 24.0908 48.9619 24.1272 48.9759 24.1619C49.0583 24.2977 49.2011 24.402 49.3744 24.4531C49.6462 24.5807 49.9584 24.6376 50.2701 24.6161C50.3869 24.5987 50.4998 24.5668 50.6051 24.5215C50.4817 24.7559 50.3547 24.9874 50.226 25.2072C50.2066 25.2421 50.1855 25.2771 50.1643 25.312C50.1643 25.312 49.0746 24.7108 48.4558 25.9366C48.2751 26.1913 48.1459 26.4686 48.0732 26.7577C48.0422 26.8733 47.9985 26.9863 47.9427 27.0954C47.6679 27.4795 47.2567 27.7844 46.7649 27.9689C45.5024 28.4464 40.4033 33.6976 40.3134 35.0573C40.2693 35.5881 40.1606 36.1139 39.989 36.6267C39.5876 37.8344 39.4845 39.0964 39.6857 40.3376C39.7487 40.7387 39.8531 41.1347 39.9978 41.5212C40.5391 42.8795 40.9006 45.4141 40.9006 45.4141L41.4859 49.8136C41.4642 50.4208 41.496 51.0285 41.5811 51.6319C40.9834 52.1953 38.5837 54.5435 39.5006 55.1826C40.2059 55.6864 41.4401 55.6034 42.133 55.5C41.5494 56.6923 40.6308 58.7654 40.5091 60.1892C40.3328 62.2958 40.8106 65.0866 41.567 66.1581C42.3234 67.2296 44.8448 69.9782 44.8448 69.9782C44.8448 69.9782 44.7267 73.7488 45.6276 75.1187C46.5286 76.4887 46.8918 79.3304 46.8918 79.3304C46.8918 79.3304 47.7329 81.7296 47.3115 82.6118C46.8901 83.4941 48.0926 84.2278 46.8301 84.8145C45.5677 85.4012 43.9526 98.6245 43.9526 98.6245C43.9526 98.6245 43.302 107.291 43.9526 107.732C43.9874 107.753 44.0246 107.771 44.0637 107.786V110.698C44.0637 110.698 43.6123 111.309 45.4478 111.433C46.7049 111.516 50.2683 111.704 52.3824 111.813L54.0204 111.897C54.0204 111.897 57.8994 112.535 59.6132 111.897C61.327 111.26 64.3649 111.274 63.9136 109.59C63.8537 109.361 63.7736 109.135 63.6738 108.916C63.1783 107.87 62.3373 107.751 60.7874 107.46C60.6975 107.444 60.6111 107.429 60.5318 107.418C58.8991 107.183 58.3631 107.811 57.448 106.994C56.6528 106.288 54.1209 105.497 53.2587 105.247C53.2798 105.195 53.3063 105.144 53.3274 105.09C53.0833 105.056 52.8562 104.964 52.6733 104.826L55.0095 104.949L56.4007 105.02C56.4007 105.02 59.6978 105.563 61.1612 105.02C62.6247 104.477 65.1989 104.491 64.8145 103.06C64.7639 102.865 64.6961 102.674 64.6118 102.487C64.1904 101.599 63.4745 101.501 62.1574 101.255C62.0816 101.242 62.0111 101.229 61.9406 101.219C60.5529 101.019 60.098 101.552 59.3205 100.859C58.654 100.268 56.5505 99.6057 55.7941 99.38C55.7941 99.0568 55.2652 98.5968 54.9319 98.1353C54.5405 97.5966 55.2634 95.7114 55.2634 95.7114L55.676 87.8892C55.8331 87.8314 55.9993 87.7922 56.1697 87.7728C56.1697 87.7728 58.0351 86.3024 57.6137 84.7359C57.5279 84.2621 57.4831 83.7839 57.4797 83.3048C58.0933 82.8346 58.9379 82.1402 59.1777 81.7122C59.5691 81.0148 59.1777 77.6358 59.1777 77.6358V64.7154L62.2985 64.976L65.1302 65.2162L65.9924 65.289L68.824 65.5248L75.3319 66.0679L81.1962 65.1507L83.7335 64.7547L88.9507 63.9394V53.3993L94.3513 52.6626ZM51.3985 17.7359L51.0353 17.7039C51.1552 17.7083 51.2821 17.7272 51.3985 17.7359Z" fill="url(#paint0_linear)"/>
<path d="M81.6935 59.5069C79.9303 61.5902 73.5917 60.4866 73.5917 60.4866L68.6795 56.6913L68.0183 56.1774L69.1273 54.2324C69.1273 54.2324 69.48 54.3125 70.0848 54.4552C73.2602 55.2166 83.1816 57.7555 81.6935 59.5069Z" fill="#EFB7B9"/>
<path opacity="0.1" d="M70.0812 54.4552C69.8644 55.0783 69.2702 56.0114 68.6795 56.6913L68.0183 56.1774L69.1273 54.2324C69.1273 54.2324 69.4835 54.3125 70.0812 54.4552Z" fill="black"/>
<path d="M53.2338 32.5221C53.2338 32.5221 48.7059 34.1803 48.9281 38.2522C49.0879 40.8756 49.4341 43.4889 49.9648 46.0788C49.9648 46.0788 49.0392 52.2063 52.8935 53.7859C56.7478 55.3655 60.3147 56.6641 60.3147 56.6641C60.3147 56.6641 66.3448 57.1998 67.0941 57.4211C67.8435 57.6424 70.185 54.259 69.753 53.732C69.321 53.205 63.7864 52.1 63.0811 51.2207C62.3758 50.3414 60.7449 49.7984 60.7449 49.7984C60.7449 49.7984 59.0611 48.9569 58.9465 48.197C58.8319 47.437 59.2762 46.8707 59.389 46.5373C59.5019 46.204 59.7875 42.9851 59.7875 42.9851C59.7875 42.9851 61.6882 31.5278 53.2338 32.5221Z" fill="#DCE6F2"/>
<path opacity="0.1" d="M56.2225 45.9111C56.2225 45.9111 50.0108 46.7701 50.612 48.5651C50.612 48.5651 52.8671 46.6274 56.2225 45.9111Z" fill="black"/>
<path opacity="0.1" d="M56.2702 46.6377C56.2702 46.6377 52.855 48.9393 53.5232 49.0573C54.1914 49.1752 56.2702 46.6377 56.2702 46.6377Z" fill="black"/>
<path opacity="0.1" d="M57.9116 47.4395C57.9116 47.4395 56.9966 48.987 57.559 48.8822C58.1215 48.7774 57.9116 47.4395 57.9116 47.4395Z" fill="black"/>
<path opacity="0.1" d="M70.3104 54.6191L69.933 54.5303C70.0406 54.2392 70.0706 54.0033 69.9824 53.8941C69.5504 53.3671 64.0193 52.2636 63.3158 51.3828C62.6123 50.5021 60.9796 49.9605 60.9796 49.9605C60.9796 49.9605 59.2958 49.119 59.1812 48.3591C59.0666 47.5991 59.5109 47.0328 59.6237 46.6994C59.7366 46.3661 60.0222 43.1458 60.0222 43.1458C60.0222 43.1458 61.9176 31.6899 53.4632 32.6842C53.4632 32.6842 48.9353 34.3439 49.1557 38.4158C49.3157 41.0392 49.6624 43.6526 50.1943 46.2423C50.1943 46.2423 49.2686 52.3699 53.1229 53.9495C56.9772 55.529 60.5441 56.8276 60.5441 56.8276C60.5441 56.8276 66.5724 57.3619 67.3235 57.5847C67.6074 57.6691 68.1205 57.2338 68.623 56.6355L68.9086 56.8553L73.8208 60.6492C73.8208 60.6492 80.1595 61.7541 81.9227 59.6709C83.4125 57.918 73.4929 55.3791 70.3104 54.6191Z" fill="black"/>
<path d="M50.6278 17.2387C50.4552 17.2665 50.2899 17.3192 50.1394 17.3944C49.9631 17.5153 49.9631 17.722 49.919 17.9025C49.8673 18.1536 49.7466 18.3917 49.5664 18.5984C49.767 18.6106 49.9683 18.5831 50.1535 18.5183C50.1234 18.7176 50.0642 18.9131 49.9772 19.1007C50.0871 19.103 50.1954 19.0791 50.2892 19.0318C50.3831 18.9846 50.4584 18.916 50.5062 18.8342C50.5995 18.6702 50.6733 18.4991 50.7266 18.3233C50.7431 18.2707 50.7719 18.2212 50.8112 18.1777C50.9734 18.019 51.2749 18.0903 51.5253 18.1107C51.7337 18.1252 51.9429 18.0934 52.1314 18.0187C52.3199 17.9439 52.4808 17.8289 52.5973 17.6856C52.8636 17.3522 52.8794 16.4991 52.2447 16.4088C51.5817 16.3186 51.1691 17.0727 50.6278 17.2387Z" fill="#965D7B"/>
<g opacity="0.1">
<path opacity="0.1" d="M50.1221 17.5734C50.138 17.502 50.1485 17.4278 50.1679 17.3564C50.0004 17.4773 49.9916 17.6825 49.9475 17.8645C49.9253 17.9695 49.8905 18.0724 49.8435 18.1717C49.9823 17.989 50.0769 17.7858 50.1221 17.5734Z" fill="black"/>
<path opacity="0.1" d="M50.1784 18.7757C50.2662 18.5884 50.3254 18.3928 50.3547 18.1934C50.1782 18.2547 49.987 18.2821 49.7958 18.2734C49.7401 18.3758 49.6722 18.4734 49.593 18.5646C49.7929 18.5774 49.9937 18.5504 50.1784 18.486C50.1491 18.6854 50.0899 18.881 50.0021 19.0683C50.1119 19.0704 50.2201 19.0465 50.3139 18.9992C50.4077 18.952 50.4831 18.8835 50.531 18.8019C50.575 18.7357 50.6104 18.6659 50.6368 18.5937C50.5851 18.6534 50.516 18.7014 50.4358 18.7332C50.3557 18.765 50.2672 18.7796 50.1784 18.7757Z" fill="black"/>
<path opacity="0.1" d="M51.7263 17.7864C51.476 17.766 51.1727 17.6946 51.0105 17.8533C50.9719 17.8973 50.9432 17.9466 50.9259 17.9989C50.91 18.0368 50.8959 18.0761 50.8835 18.1154C51.051 18.0062 51.3226 18.0644 51.55 18.0834C51.7583 18.0974 51.9674 18.0654 52.1558 17.9907C52.3442 17.916 52.5051 17.8013 52.622 17.6583C52.6755 17.5876 52.7153 17.5105 52.7402 17.4297C52.6194 17.5531 52.4638 17.6501 52.2871 17.7123C52.1103 17.7745 51.9178 17.7999 51.7263 17.7864Z" fill="black"/>
</g>
<path d="M55.935 29.2617L58.6239 31.9317L58.273 34.6264L55.0234 30.4264L55.935 29.2617Z" fill="#DCE6F2"/>
<path opacity="0.1" d="M58.6221 31.9317L58.2924 34.4663L58.2712 34.6264L55.339 30.8355L55.0234 30.4264L55.1151 30.3085L55.9332 29.2617L56.1148 29.4422L58.6221 31.9317Z" fill="black"/>
<path d="M60.0187 25.6471C59.1089 25.8625 58.2397 26.6021 57.4832 27.5003C56.972 28.1201 56.5148 28.7691 56.115 29.4424C55.8664 29.853 55.6478 30.2475 55.4662 30.5911L55.3392 30.8356C55.0324 31.434 54.8614 31.8343 54.8614 31.8343C54.8614 31.8343 47.8969 27.5105 48.9988 27.2194C49.3691 27.1218 49.8557 26.4667 50.3371 25.6413L50.397 25.5364C50.7021 25.0065 51.0018 24.4155 51.268 23.8593C51.8129 22.7165 52.2166 21.7236 52.2166 21.7236C52.2166 21.7236 62.7957 24.992 60.0187 25.6471Z" fill="#EFB7B9"/>
<path d="M64.1851 21.4805C64.1851 21.4805 65.7931 23.8826 67.953 23.555C70.1129 23.2275 69.2242 22.2652 69.2242 22.2652L64.1851 21.4805Z" fill="#444053"/>
<path d="M61.0695 104.63C59.6448 105.167 56.4235 104.63 56.4235 104.63L55.0658 104.56C53.3027 104.467 50.3511 104.31 49.3073 104.24C47.7839 104.136 48.1577 103.621 48.1577 103.621V100.507L55.5489 98.9609C55.5489 98.9609 58.4705 99.7864 59.271 100.507C60.0309 101.194 60.4753 100.666 61.8311 100.864C61.8982 100.874 61.9687 100.886 62.0427 100.9C63.3298 101.143 64.0281 101.239 64.4407 102.12C64.5236 102.305 64.5901 102.495 64.6399 102.688C65.0207 104.106 62.4923 104.096 61.0695 104.63Z" fill="#A36468"/>
<path opacity="0.1" d="M64.4407 102.121C64.1758 102.257 63.8974 102.375 63.6084 102.473C62.6387 102.838 61.7166 103.284 60.7362 103.629C59.7559 103.974 58.6998 104.22 57.6383 104.154C57.0829 104.121 56.5152 104.009 55.9845 104.14C55.6562 104.244 55.3471 104.386 55.0658 104.561C53.3027 104.467 50.3511 104.31 49.3073 104.24C47.7839 104.137 48.1577 103.622 48.1577 103.622V103.258C48.2124 103.258 48.2741 103.245 48.3446 103.24C48.7095 103.235 49.0728 103.28 49.4201 103.373C50.1854 103.544 50.947 103.713 51.7123 103.882C51.7752 103.686 51.8858 103.503 52.0374 103.343C52.1889 103.183 52.3783 103.051 52.5939 102.953C53.0306 102.762 53.5208 102.669 54.015 102.684C55.2016 102.697 56.3247 103.162 57.5096 103.208C57.8409 103.233 58.1744 103.187 58.4776 103.074C58.6398 103.007 58.7826 102.91 58.9413 102.835C59.1953 102.734 59.4636 102.659 59.74 102.613C60.517 102.453 61.2799 102.25 62.0233 102.004C62.2349 101.936 62.4818 101.812 62.4536 101.626C62.4165 101.378 61.9458 101.349 61.8223 101.122C61.8006 101.081 61.7905 101.036 61.7929 100.992C61.7954 100.947 61.8103 100.903 61.8364 100.864C61.9034 100.874 61.974 100.886 62.048 100.901C63.3299 101.144 64.0281 101.24 64.4407 102.121Z" fill="black"/>
<path d="M59.5638 111.444C57.8888 112.075 54.098 111.444 54.098 111.444L52.5023 111.366C50.4359 111.257 46.9554 111.075 45.7264 110.989C43.9333 110.867 44.3741 110.261 44.3741 110.261V106.591L53.0718 104.771C53.0718 104.771 56.51 105.743 57.4516 106.591C58.3455 107.399 58.8621 106.778 60.4648 107.011C60.5442 107.022 60.6271 107.037 60.7134 107.053C62.228 107.344 63.0497 107.453 63.5345 108.49C63.6327 108.707 63.7111 108.931 63.769 109.158C64.2063 110.826 61.2389 110.813 59.5638 111.444Z" fill="#A36468"/>
<path opacity="0.1" d="M63.531 108.489C63.2194 108.65 62.8921 108.789 62.5524 108.904C61.4117 109.334 60.3255 109.858 59.1724 110.264C58.0193 110.67 56.7763 110.959 55.5262 110.883C54.8738 110.843 54.2055 110.708 53.5867 110.865C53.1989 110.99 52.834 111.159 52.5023 111.366C50.4359 111.257 46.9554 111.075 45.7264 110.989C43.9333 110.867 44.3741 110.261 44.3741 110.261V109.833C44.4471 109.823 44.5206 109.817 44.5945 109.813C45.024 109.806 45.4518 109.859 45.8604 109.969L48.5563 110.568C48.6314 110.337 48.7629 110.121 48.9426 109.933C49.1224 109.745 49.3467 109.589 49.6019 109.475C50.1158 109.249 50.6932 109.139 51.2751 109.158C52.6716 109.174 53.9922 109.72 55.3869 109.775C55.7753 109.804 56.1663 109.751 56.5224 109.619C56.7146 109.539 56.875 109.424 57.0689 109.338C57.3671 109.218 57.6831 109.13 58.0087 109.076C58.918 108.887 59.811 108.647 60.6817 108.36C60.9303 108.278 61.2212 108.133 61.1877 107.914C61.1437 107.623 60.59 107.588 60.4437 107.32C60.419 107.272 60.4078 107.22 60.4108 107.167C60.4139 107.115 60.4311 107.064 60.4613 107.018C60.5407 107.029 60.6235 107.044 60.7099 107.06C62.2245 107.339 63.0461 107.453 63.531 108.489Z" fill="black"/>
<path d="M55.7728 86.2598L55.302 95.4067C55.302 95.4067 54.5968 97.2745 54.9794 97.8088C55.362 98.3431 56.0073 98.876 55.7728 99.1919C55.5383 99.5078 52.7172 102.923 51.8057 101.613C50.8941 100.303 49.9949 94.6249 49.9949 94.6249L50.8359 87.6122L55.7728 86.2598Z" fill="#444053"/>
<path d="M57.8147 63.4697L59.123 64.9139V77.4748C59.123 77.4748 59.5056 80.8232 59.123 81.5147C58.7404 82.2062 56.8009 83.5892 56.8009 83.5892L55.1699 76.6741L55.5226 69.3585L57.8147 63.4697Z" fill="#444053"/>
<path opacity="0.1" d="M55.7728 86.2598L55.302 95.4067C55.302 95.4067 54.5968 97.2745 54.9794 97.8088C55.362 98.3431 56.0073 98.876 55.7728 99.1919C55.5383 99.5078 52.7172 102.923 51.8057 101.613C50.8941 100.303 49.9949 94.6249 49.9949 94.6249L50.8359 87.6122L55.7728 86.2598Z" fill="black"/>
<path opacity="0.1" d="M57.8147 63.4697L59.123 64.9139V77.4748C59.123 77.4748 59.5056 80.8232 59.123 81.5147C58.7404 82.2062 56.8009 83.5892 56.8009 83.5892L55.1699 76.6741L55.5226 69.3585L57.8147 63.4697Z" fill="black"/>
<path d="M59.1229 58.1121V64.9065L57.6542 70.1955C57.6542 70.1955 57.1834 82.9587 57.5942 84.5106C58.005 86.0625 56.1837 87.5198 56.1837 87.5198C56.1837 87.5198 55.1258 87.6174 55.1258 88.2958C55.1258 88.9742 53.3626 90.9163 53.3626 90.9163L53.4208 94.7014C53.4208 94.7014 54.186 101.787 53.01 103.145C51.8339 104.503 53.4208 104.699 53.4208 104.699C51.952 108.677 44.8993 107.756 44.2628 107.319C43.6263 106.882 44.2628 98.2929 44.2628 98.2929C44.2628 98.2929 45.8391 85.1905 47.0733 84.6082C48.3076 84.0258 47.1333 83.2979 47.5441 82.4244C47.9549 81.5509 47.1333 79.1736 47.1333 79.1736C47.1333 79.1736 46.7806 76.358 45.8991 74.9997C45.0175 73.6414 45.1338 69.9043 45.1338 69.9043C45.1338 69.9043 42.6654 67.1863 41.9319 66.1192C41.1984 65.0521 40.7259 62.286 40.9022 60.1983C41.0221 58.7876 41.9196 56.7335 42.4891 55.5513C42.7624 54.985 42.9598 54.6182 42.9598 54.6182L43.1273 54.6546L52.7578 56.7364L59.1229 58.1121Z" fill="#444053"/>
<path opacity="0.1" d="M60.0185 25.6475C59.1087 25.863 58.2395 26.6025 57.4831 27.5008H57.2856C56.1769 27.5014 55.0876 27.2604 54.1279 26.8021C53.1681 26.3437 52.3719 25.6843 51.8198 24.8905C51.589 24.5615 51.4033 24.2124 51.2661 23.8496C51.8109 22.7067 52.2147 21.7139 52.2147 21.7139C52.2147 21.7139 62.7956 24.9924 60.0185 25.6475Z" fill="black"/>
<path d="M63.5891 22.0083C63.5907 22.8049 63.3708 23.5911 62.9464 24.3064C62.5219 25.0218 61.9043 25.6471 61.141 26.1343C60.3778 26.6215 59.4893 26.9576 58.5439 27.1166C57.5986 27.2756 56.6217 27.2533 55.6885 27.0514C54.7552 26.8496 53.8905 26.4735 53.161 25.9523C52.4315 25.431 51.8566 24.7784 51.4807 24.0448C51.1048 23.3112 50.9378 22.5162 50.9926 21.7209C51.0475 20.9256 51.3227 20.1513 51.797 19.4577C51.9881 19.1759 52.2113 18.9097 52.4635 18.6628C52.8793 18.2538 53.368 17.8994 53.9128 17.6117C54.8331 17.1288 55.8894 16.8513 56.9784 16.8063C58.0674 16.7613 59.152 16.9503 60.1261 17.3549C61.1002 17.7594 61.9305 18.3657 62.5359 19.1145C63.1414 19.8633 63.5012 20.7289 63.5803 21.6269C63.5839 21.755 63.5891 21.8816 63.5891 22.0083Z" fill="#EFB7B9"/>
<path opacity="0.1" d="M58.2925 34.4671L58.2714 34.6273L55.3392 30.8421C55.0324 31.4405 54.8614 31.8408 54.8614 31.8408C54.8614 31.8408 47.8969 27.5112 48.9988 27.22C49.3691 27.1225 49.8557 26.4674 50.3371 25.6419L50.397 25.5371C50.9084 26.7949 53.8793 29.3091 55.1153 30.3166C55.2581 30.433 55.3763 30.5291 55.4679 30.599L55.6566 30.7446L55.7553 30.8261C56.2049 31.209 58.1021 32.8978 58.2925 34.4671Z" fill="black"/>
<path d="M60.4841 47.3098L60.1632 55.8365L60.1068 57.355C60.1068 57.355 56.3054 57.0638 52.7578 56.7435C49.9015 56.4858 47.2091 56.2078 46.7948 56.0447C46.2658 55.8394 45.1321 55.6808 44.2382 55.5803C43.547 55.5031 43.0039 55.4624 43.0039 55.4624C43.0039 55.4624 42.8012 55.5119 42.4891 55.5585C41.8085 55.6604 40.6131 55.7434 39.9166 55.244C39.0262 54.6049 41.3659 52.2829 41.9496 51.7253L42.0783 51.6044L41.8579 49.923L41.2848 45.5628C41.2848 45.5628 40.9322 43.0515 40.4033 41.7048C40.2618 41.322 40.1598 40.9299 40.0982 40.5329C39.9017 39.303 40.0024 38.0531 40.3944 36.8555C40.5619 36.3466 40.6683 35.8253 40.7118 35.2992C40.8 33.9526 45.7809 28.748 47.0152 28.2748C47.5704 28.0611 48.0171 27.6932 48.2776 27.2354C48.3636 27.0914 48.4281 26.9394 48.4698 26.7826C48.9988 24.8901 50.337 25.6413 50.337 25.6413C50.6597 27.1218 55.6548 31.0409 55.6548 31.0409L55.7535 31.1224C56.2489 31.5417 58.4564 33.51 58.2995 35.19C58.2682 35.8153 58.3813 36.4398 58.6328 37.0302C59.6488 39.6717 60.2329 42.4135 60.3695 45.1828L60.4841 47.3098Z" fill="#DCE6F2"/>
<path opacity="0.1" d="M53.4068 37.1846C53.4068 37.1846 52.1725 39.6595 51.2469 40.0598C50.3212 40.4602 53.8476 40.9042 53.4068 37.1846Z" fill="black"/>
<path opacity="0.1" d="M54.3323 41.8066C54.3323 41.8066 51.5112 42.0978 51.5112 42.5346C51.5112 42.9713 54.3323 41.8066 54.3323 41.8066Z" fill="black"/>
<path opacity="0.1" d="M57.2856 44.6455C57.2856 44.6455 53.1862 51.8518 52.0402 52.0702C50.8941 52.2886 57.2856 44.6455 57.2856 44.6455Z" fill="black"/>
<path opacity="0.1" d="M55.5772 31.4066L52.1866 32.6237L48.0942 27.5196C48.1802 27.3756 48.2448 27.2236 48.2864 27.0668C48.8154 25.1742 50.1536 25.9254 50.1536 25.9254C50.4763 27.406 55.4714 31.3251 55.4714 31.3251L55.5772 31.4066Z" fill="black"/>
<path d="M55.7534 31.1156L52.3628 32.3327L48.2705 27.2286C48.3565 27.0846 48.421 26.9326 48.4627 26.7758C48.9916 24.8832 50.3299 25.6344 50.3299 25.6344C50.6526 27.115 55.6476 31.0341 55.6476 31.0341L55.7534 31.1156Z" fill="#DCE6F2"/>
<path opacity="0.1" d="M60.1067 57.3545C60.1067 57.3545 56.3053 57.0633 52.7578 56.743L59.1229 58.1188V59.7202C58.8443 59.9284 58.6027 60.0361 58.4458 59.9808C57.7123 59.726 51.7263 58.9253 51.7263 58.9253C51.7263 58.9253 48.2494 57.4695 44.4973 55.7225C44.4062 55.6808 44.3179 55.6352 44.2328 55.5856C43.7953 55.3404 43.4184 55.0286 43.122 54.667C42.4291 53.8387 42.0906 52.7745 41.9442 51.7306C41.862 51.1324 41.8313 50.5301 41.8525 49.9283C41.8707 49.2459 41.9461 48.5654 42.0782 47.8916C41.7154 45.282 41.5387 42.6569 41.5493 40.0302C41.5934 35.9539 46.2217 34.498 46.2217 34.498C54.729 33.8793 52.0913 45.2347 52.0913 45.2347C52.0913 45.2347 51.5994 48.4375 51.4654 48.7651C51.3314 49.0927 50.85 49.6386 50.9153 50.4029C50.9805 51.1672 52.6062 52.0815 52.6062 52.0815C52.6062 52.0815 54.193 52.6958 54.8472 53.6057C55.3232 54.2769 58.4158 55.1868 60.1632 55.8361L60.1067 57.3545Z" fill="black"/>
<path opacity="0.1" d="M62.9562 18.776C62.9594 19.0158 62.8993 19.2533 62.7799 19.4719C62.6895 19.6503 62.5846 19.8235 62.466 19.9902C62.2805 20.2969 62.0171 20.567 61.6938 20.7822C61.2865 21.0224 60.7716 21.0893 60.2832 21.1869C59.7948 21.2844 59.287 21.4402 59.0084 21.7838C58.8575 22.0046 58.7565 22.2464 58.7105 22.4971C58.6637 22.7477 58.5426 22.9847 58.3578 23.1872C58.2616 23.286 58.1284 23.3557 57.979 23.3852C57.8296 23.4147 57.6726 23.4024 57.5327 23.3502C57.3852 23.2682 57.2734 23.1493 57.2135 23.011C57.0125 22.6369 56.9614 22.222 56.8803 21.8187C56.7992 21.4154 56.6846 21.0005 56.3848 20.6759C56.0851 20.3512 55.5544 20.1372 55.0836 20.2639C54.926 20.314 54.7823 20.3898 54.6611 20.4869C54.54 20.584 54.4438 20.7002 54.3783 20.8288C54.248 21.086 54.1585 21.3561 54.1121 21.6324C53.8935 22.6204 53.6354 23.6026 53.338 24.579C53.329 24.619 53.3091 24.6568 53.2799 24.6896C53.233 24.7282 53.1697 24.7501 53.1035 24.7507C52.7086 24.7944 52.3295 24.5659 51.931 24.5906C51.89 24.5929 51.8493 24.5982 51.8094 24.6066C51.1651 23.6821 50.8806 22.6164 50.9945 21.554C51.1083 20.4915 51.615 19.4836 52.4459 18.6669L52.4776 18.6596C52.7427 18.5819 52.9836 18.4566 53.1829 18.2927C53.4374 18.0824 53.6731 17.8571 53.8882 17.6187L54.0292 17.4731C54.4345 17.0699 54.8961 16.7078 55.4045 16.3943C55.5433 16.3004 55.7024 16.2293 55.8735 16.1847C56.0199 16.1611 56.1699 16.1572 56.3178 16.173C56.9267 16.2334 57.5406 16.2524 58.1533 16.2298C58.5802 16.1744 59.0105 16.1384 59.4422 16.1221C60.5583 16.1483 61.5104 16.799 62.2157 17.5124C62.5947 17.8778 62.9333 18.2985 62.9562 18.776Z" fill="black"/>
<path d="M50.9735 19.5953C50.7284 19.9272 50.2859 20.1529 50.1201 20.5168C49.8768 21.0453 50.2876 21.7033 49.9103 22.175C49.7851 22.3337 49.5788 22.4516 49.5083 22.6336C49.3884 22.9408 49.7163 23.2683 49.6317 23.5842C49.5471 23.9002 49.0428 24.1666 49.1768 24.4752C49.256 24.6098 49.3949 24.7141 49.5647 24.7664C49.8319 24.8929 50.1394 24.9493 50.4463 24.928C50.9276 24.8625 51.2856 24.4723 51.774 24.4432C52.1707 24.4199 52.5498 24.647 52.9447 24.6048C53.0109 24.6029 53.0738 24.5805 53.121 24.5422C53.151 24.5097 53.171 24.4718 53.1792 24.4315C53.4754 23.4561 53.734 22.4739 53.955 21.4849C54.0001 21.2086 54.089 20.9384 54.2195 20.6813C54.2855 20.5531 54.3818 20.437 54.503 20.34C54.6241 20.243 54.7675 20.167 54.9248 20.1165C55.3955 19.9913 55.9245 20.2038 56.226 20.5285C56.5275 20.8531 56.6421 21.268 56.7232 21.6713C56.8043 22.0746 56.8555 22.4895 57.0547 22.8636C57.1152 23.0024 57.2276 23.1217 57.3756 23.2043C57.6401 23.3309 57.9962 23.2305 58.199 23.0412C58.3848 22.8387 58.506 22.6009 58.5516 22.3497C58.5976 22.0994 58.6986 21.8581 58.8496 21.6378C59.1282 21.2942 59.6378 21.1385 60.1244 21.0409C60.611 20.9434 61.1241 20.875 61.5349 20.6347C61.8578 20.4198 62.1212 20.1503 62.3072 19.8442C62.5682 19.4686 62.8115 19.061 62.7903 18.6286C62.7674 18.1569 62.4289 17.7362 62.0674 17.3693C61.3622 16.656 60.4083 16.0052 59.2922 15.9805C58.8604 15.9954 58.43 16.0313 58.0033 16.0882C57.3906 16.1109 56.7766 16.0915 56.1678 16.03C56.0198 16.0153 55.8699 16.0198 55.7235 16.0431C55.5522 16.0863 55.3933 16.1576 55.2563 16.2527C54.7474 16.5657 54.2852 16.9273 53.8792 17.33C53.6175 17.6166 53.3336 17.8889 53.0294 18.1453C52.83 18.3094 52.5891 18.4352 52.3241 18.5136C52.1478 18.5544 51.9715 18.5252 51.804 18.5704C51.2838 18.7058 51.215 19.2663 50.9735 19.5953Z" fill="#965D7B"/>
<path opacity="0.1" d="M67.953 23.5536C66.5424 23.7676 65.3734 22.8257 64.7264 22.1385C64.5276 21.9298 64.3467 21.7099 64.1851 21.4805L69.0267 22.2346L69.2225 22.2652C69.2225 22.2652 70.1129 23.2275 67.953 23.5536Z" fill="black"/>
<g opacity="0.1">
<path opacity="0.1" d="M49.6317 23.1674C49.6514 22.977 49.6164 22.7855 49.5294 22.6084C49.5294 22.623 49.5136 22.6375 49.5083 22.6521C49.4325 22.8472 49.5347 23.0495 49.6 23.2519C49.614 23.2247 49.6246 23.1964 49.6317 23.1674Z" fill="black"/>
<path opacity="0.1" d="M50.0513 20.7842C50.0332 20.9855 50.0379 21.1878 50.0654 21.3883C50.0835 21.187 50.0788 20.9848 50.0513 20.7842Z" fill="black"/>
<path opacity="0.1" d="M62.2967 19.4234C62.1111 19.7301 61.8477 20.0002 61.5244 20.2154C61.1171 20.4556 60.604 20.5225 60.1139 20.6201C59.6237 20.7176 59.1177 20.8734 58.8391 21.217C58.6883 21.4379 58.5874 21.6796 58.5411 21.9303C58.4952 22.1815 58.374 22.4192 58.1885 22.6218C57.9857 22.8111 57.6295 22.913 57.3651 22.7849C57.2171 22.7023 57.1047 22.583 57.0442 22.4442C56.8449 22.0701 56.792 21.6566 56.7127 21.2519C56.6333 20.8472 56.5152 20.4337 56.2155 20.1091C55.9157 19.7844 55.385 19.5704 54.9142 19.6971C54.7568 19.7474 54.6133 19.8233 54.4921 19.9204C54.3709 20.0174 54.2747 20.1336 54.209 20.2619C54.0784 20.5191 53.9895 20.7893 53.9445 21.0656C53.7247 22.0545 53.4661 23.0367 53.1687 24.0121C53.1604 24.0524 53.1405 24.0903 53.1105 24.1228C53.0633 24.1611 53.0004 24.1835 52.9342 24.1854C52.5392 24.2276 52.1601 24.0005 51.7634 24.0238C51.275 24.0529 50.9171 24.4431 50.4358 24.5071C50.1287 24.5299 49.8207 24.4734 49.5542 24.3455C49.4316 24.302 49.3216 24.2375 49.2315 24.1563C49.1903 24.2051 49.1629 24.2609 49.1516 24.3197C49.1403 24.3784 49.1453 24.4385 49.1663 24.4955C49.2439 24.631 49.3834 24.7357 49.5542 24.7866C49.8207 24.9145 50.1287 24.971 50.4358 24.9482C50.9171 24.8842 51.275 24.494 51.7634 24.4649C52.1601 24.4416 52.5392 24.6687 52.9342 24.6265C53.0004 24.6246 53.0633 24.6023 53.1105 24.5639C53.1405 24.5315 53.1604 24.4935 53.1687 24.4533C53.4649 23.4827 53.7235 22.5005 53.9445 21.5067C53.9895 21.2304 54.0784 20.9602 54.209 20.7031C54.2747 20.5747 54.3709 20.4585 54.4921 20.3615C54.6133 20.2644 54.7568 20.1885 54.9142 20.1382C55.385 20.0115 55.914 20.2255 56.2155 20.5502C56.517 20.8748 56.6316 21.2898 56.7127 21.693C56.7938 22.0963 56.8449 22.5112 57.0442 22.8853C57.1047 23.0241 57.2171 23.1434 57.3651 23.226C57.6295 23.3527 57.9857 23.2522 58.1885 23.0629C58.374 22.8603 58.4952 22.6226 58.5411 22.3714C58.5874 22.1207 58.6883 21.879 58.8391 21.6581C59.1177 21.3145 59.6272 21.1602 60.1139 21.0612C60.6005 20.9622 61.1136 20.8967 61.5244 20.6565C61.8477 20.4413 62.1111 20.1712 62.2967 19.8645C62.5576 19.4904 62.8009 19.0827 62.7798 18.6503C62.7763 18.5947 62.7693 18.5393 62.7586 18.4844C62.6736 18.8176 62.5171 19.1356 62.2967 19.4234Z" fill="black"/>
</g>
<path opacity="0.1" d="M62.7867 19.4677C63.2388 20.1315 63.5068 20.8699 63.5713 21.6296C62.0003 20.9017 60.5228 20.1024 59.7769 19.8243C58.4775 19.3396 53.6182 19.4123 51.7915 19.4575C51.9826 19.1756 52.2058 18.9095 52.458 18.6626C52.8754 18.2533 53.3659 17.8988 53.9126 17.6115C54.6366 17.2321 55.4468 16.9786 56.2935 16.8665C57.1402 16.7544 58.0058 16.786 58.8372 16.9595C59.6686 17.1329 60.4484 17.4446 61.129 17.8753C61.8096 18.3061 62.3767 18.8469 62.7955 19.4648L62.7867 19.4677Z" fill="black"/>
<path opacity="0.1" d="M68.3938 22.9363C67.5457 23.1518 66.1616 22.7354 64.7264 22.1385C64.5276 21.9298 64.3467 21.7099 64.1851 21.4805L69.0267 22.2346C69.3476 22.4151 69.4288 22.6728 68.3938 22.9363Z" fill="black"/>
<path d="M57.6612 14.4197C57.6612 14.4197 53.0328 14.2013 51.7316 16.2759L51.5218 18.1146L51.1692 18.0825L51.0986 19.3331C51.0986 19.3331 58.1725 19.0783 59.7823 19.6781C61.3921 20.2779 66.3942 23.3002 68.3989 22.7907C70.4037 22.2812 68.2226 21.808 68.2226 21.808C68.2226 21.808 65.4633 20.8428 65.4633 20.0858C65.4633 19.3287 64.7791 15.3296 57.6612 14.4197Z" fill="#444053"/>
<path opacity="0.1" d="M48.7344 82.582C48.7344 82.582 51.6877 84.9478 52.966 84.7658C52.966 84.7658 49.3515 84.511 48.7344 82.582Z" fill="black"/>
<path opacity="0.1" d="M48.1172 83.6777C48.1172 83.6777 48.3817 84.8948 49.0869 84.7755C49.7922 84.6561 48.1172 83.6777 48.1172 83.6777Z" fill="black"/>
<path opacity="0.1" d="M52.7456 104.019C52.7456 104.019 48.5527 106.712 49.2598 106.785C49.9668 106.857 52.7456 104.019 52.7456 104.019Z" fill="black"/>
<path d="M58.3542 50.5654L71.9307 48.7412V59.3542L59.0313 58.7966L58.3542 50.5654Z" fill="#010066"/>
<path opacity="0.05" d="M58.3542 50.5654L71.9307 48.7412V59.3542L59.0313 58.7966L58.3542 50.5654Z" fill="black"/>
<path d="M71.9307 48.7412L88.2119 49.7472L87.3109 58.9829L71.9307 59.3542V48.7412Z" fill="#010066"/>
<path opacity="0.1" d="M71.9307 48.7412L88.2119 49.7472L87.3109 58.9829L71.9307 59.3542V48.7412Z" fill="black"/>
<path d="M76.9363 45.502L71.9307 48.7412L88.2119 49.7471L90.8725 46.4322L76.9363 45.502Z" fill="#010066"/>
<path d="M53.4385 47.0275L65.6608 45.7988L71.9307 48.741L58.3542 50.5652L53.4385 47.0275Z" fill="#010066"/>
<path d="M74.907 51.4972V66.0074L68.5472 65.4687L65.7808 65.2358L64.938 65.163L62.1733 64.9286L58.3542 64.6054V50.5654L71.929 51.3283L74.907 51.4972Z" fill="#010066"/>
<path d="M88.212 49.7471V63.8977L83.1146 64.7057L80.6356 65.0988L74.907 66.0072V51.497L88.212 49.7471Z" fill="#010066"/>
<path opacity="0.05" d="M88.212 49.7471V63.8977L83.1146 64.7057L80.6356 65.0988L74.907 66.0072V51.497L88.212 49.7471Z" fill="black"/>
<path d="M53.4385 53.6198L58.3542 50.5654L74.907 51.4972L72.4702 54.8863L53.4385 53.6198Z" fill="#010066"/>
<path opacity="0.1" d="M53.4385 53.6198L58.3542 50.5654L74.907 51.4972L72.4702 54.8863L53.4385 53.6198Z" fill="white"/>
<path d="M88.2119 49.7471L74.907 51.497L79.2373 54.6998L93.4891 52.7257L88.2119 49.7471Z" fill="#010066"/>
<path opacity="0.1" d="M88.2119 49.7471L74.907 51.497L79.2373 54.6998L93.4891 52.7257L88.2119 49.7471Z" fill="white"/>
<path opacity="0.1" d="M83.1145 64.7058L80.6355 65.0989V62.0751L82.9576 61.5918L83.1145 64.7058Z" fill="white"/>
<path opacity="0.1" d="M68.5469 63.4678V65.4681L65.7805 65.2351V63.4678H68.5469Z" fill="white"/>
<path opacity="0.1" d="M64.938 64.0986V65.1628L62.1733 64.9285V64.0986H64.938Z" fill="white"/>
<path opacity="0.1" d="M73.2426 62.4073C71.3472 64.4091 65.0879 63.026 65.0879 63.026L60.4366 59.0196L59.8054 58.4766L61.0396 56.584C61.0396 56.584 61.3923 56.6801 61.9812 56.8489C65.0985 57.7486 74.8383 60.7229 73.2426 62.4073Z" fill="black"/>
<path d="M73.0661 62.1153C71.1707 64.117 64.9114 62.734 64.9114 62.734L60.2601 58.7276L59.6289 58.1846L60.8631 56.292C60.8631 56.292 61.2158 56.3881 61.8047 56.5569C64.922 57.4566 74.6618 60.4309 73.0661 62.1153Z" fill="#EFB7B9"/>
<path opacity="0.1" d="M61.7978 56.5569C61.5404 57.1684 60.8863 58.0739 60.2533 58.7276L59.6221 58.1846L60.8563 56.292C60.8563 56.292 61.2107 56.3881 61.7978 56.5569Z" fill="black"/>
<path d="M46.398 33.9165C46.398 33.9165 41.7696 35.3724 41.7255 39.4487C41.715 42.0755 41.8916 44.7005 42.2545 47.3101C42.2545 47.3101 40.9321 53.3882 44.6789 55.1352C48.4256 56.8822 51.9079 58.338 51.9079 58.338C51.9079 58.338 57.8939 59.1387 58.6291 59.3935C59.3644 59.6483 61.9192 56.3726 61.5225 55.8267C61.1258 55.2808 55.6758 53.9341 55.0287 53.0243C54.3816 52.1144 52.7877 51.5015 52.7877 51.5015C52.7877 51.5015 51.1621 50.5857 51.0968 49.8214C51.0316 49.0571 51.5112 48.5112 51.647 48.1836C51.7827 47.8561 52.2746 44.6533 52.2746 44.6533C52.2746 44.6533 54.9053 33.2905 46.398 33.9165Z" fill="#DCE6F2"/>
<path opacity="0.1" d="M48.5138 47.4121C48.5138 47.4121 42.2546 47.9944 42.7394 49.8142C42.7394 49.8142 45.118 47.9784 48.5138 47.4121Z" fill="black"/>
<path opacity="0.1" d="M48.5139 48.1396C48.5139 48.1396 44.9611 50.287 45.6134 50.4326C46.2658 50.5781 48.5139 48.1396 48.5139 48.1396Z" fill="black"/>
<path opacity="0.1" d="M50.1006 49.0137C50.1006 49.0137 49.0868 50.519 49.6599 50.4404C50.2329 50.3618 50.1006 49.0137 50.1006 49.0137Z" fill="black"/>
<path d="M115.271 16.3617C115.271 16.3617 108.571 16.0283 109.354 19.9095C109.354 19.9095 109.197 20.5952 109.95 20.9067C109.95 20.9067 109.962 20.6156 110.638 20.716C110.878 20.7494 111.123 20.7592 111.366 20.7451C111.696 20.727 112.009 20.6201 112.258 20.4409C112.258 20.4409 114.143 19.7989 114.876 17.2541C114.876 17.2541 115.419 16.698 115.405 16.5553L114.273 16.9556C114.273 16.9556 114.66 17.6297 114.355 18.1902C114.355 18.1902 114.319 16.9804 114.101 17.008C114.057 17.008 113.513 17.2424 113.513 17.2424C113.513 17.2424 114.178 18.4158 113.676 19.2704C113.676 19.2704 113.866 17.8233 113.305 17.3269L112.508 17.7112C112.508 17.7112 113.286 18.9239 112.759 19.9139C112.759 19.9139 112.895 18.3954 112.341 17.8044L111.618 18.2688C111.618 18.2688 112.35 19.4655 111.904 20.2866C111.904 20.2866 111.846 18.5192 111.461 18.3853C111.461 18.3853 110.83 18.8453 110.735 19.0346C110.735 19.0346 111.234 19.908 110.923 20.3608C110.923 20.3608 110.733 19.183 110.571 19.1772C110.571 19.1772 109.941 19.9575 109.876 20.4875C109.907 19.9934 110.093 19.5146 110.417 19.0986C110.055 19.1553 109.72 19.2985 109.455 19.5106C109.455 19.5106 109.552 18.9588 110.573 18.9108C110.573 18.9108 111.101 18.3183 111.232 18.2819C111.232 18.2819 110.216 18.212 109.601 18.4377C109.601 18.4377 110.142 17.9179 111.419 18.1465L112.124 17.6661C112.124 17.6661 110.788 17.5205 110.22 17.6821C110.22 17.6821 110.872 17.2221 112.316 17.5569L113.092 17.174C113.092 17.174 111.953 16.9702 111.274 17.0444C111.274 17.0444 111.99 16.7256 113.32 17.0706L113.875 16.8654C113.875 16.8654 113.039 16.73 112.796 16.7081C112.553 16.6863 112.538 16.631 112.538 16.631C113.067 16.5583 113.61 16.6087 114.106 16.7766C114.106 16.7766 115.296 16.4228 115.271 16.3617Z" fill="#010066"/>
<path opacity="0.1" d="M135.629 35.7738C135.629 35.7738 128.929 35.4404 129.712 39.3216C129.712 39.3216 129.555 40.0073 130.308 40.3189C130.308 40.3189 130.32 40.0277 130.997 40.1281C131.238 40.1616 131.482 40.1713 131.725 40.1573C132.051 40.1378 132.361 40.0315 132.607 39.8544C132.607 39.8544 134.494 39.211 135.227 36.6662C135.227 36.6662 135.768 36.1115 135.747 35.9688L134.615 36.3677C134.615 36.3677 135.001 37.0418 134.698 37.6023C134.698 37.6023 134.661 36.3925 134.444 36.4202C134.4 36.4202 133.855 36.6545 133.855 36.6545C133.855 36.6545 134.522 37.8294 134.019 38.6825C134.019 38.6825 134.21 37.2354 133.647 36.739L132.859 37.1189C132.859 37.1189 133.637 38.3317 133.109 39.3216C133.109 39.3216 133.245 37.8032 132.692 37.2121L131.97 37.678C131.97 37.678 132.7 38.8732 132.256 39.6943C132.256 39.6943 132.198 37.9269 131.814 37.793C131.814 37.793 131.182 38.253 131.085 38.4423C131.085 38.4423 131.586 39.3158 131.276 39.7686C131.276 39.7686 131.085 38.5908 130.923 38.585C130.923 38.585 130.294 39.3653 130.228 39.8952C130.26 39.4011 130.447 38.9224 130.771 38.5064C130.408 38.5632 130.073 38.7064 129.807 38.9183C129.807 38.9183 129.906 38.3666 130.927 38.3185C130.927 38.3185 131.447 37.726 131.586 37.6896C131.586 37.6896 130.57 37.6198 129.955 37.8454C129.955 37.8454 130.496 37.3257 131.771 37.5615L132.476 37.0811C132.476 37.0811 131.138 36.9355 130.572 37.0971C130.572 37.0971 131.225 36.6371 132.669 36.9719L133.444 36.589C133.444 36.589 132.304 36.3867 131.625 36.4595C131.625 36.4595 132.342 36.1406 133.672 36.4857L134.227 36.2804C134.227 36.2804 133.392 36.145 133.146 36.1232C132.901 36.1013 132.889 36.046 132.889 36.046C133.418 35.9733 133.962 36.0237 134.458 36.1916C134.458 36.1916 135.65 35.8349 135.629 35.7738Z" fill="#010066"/>
<path opacity="0.1" d="M94.9261 32.3273C94.9261 32.3273 96.4689 26.9277 91.7012 26.9087C91.7012 26.9087 90.9095 26.6642 90.4106 27.2232C90.4106 27.2232 90.7509 27.2829 90.5199 27.8157C90.44 28.0041 90.3867 28.1995 90.3612 28.398C90.327 28.6687 90.4007 28.9411 90.571 29.174C90.571 29.174 91.0171 30.8191 93.9211 31.8498C93.9211 31.8498 94.4923 32.3856 94.6651 32.3914L94.383 31.4029C94.383 31.4029 93.512 31.6023 92.8949 31.2573C92.8949 31.2573 94.346 31.4334 94.3478 31.2573C94.3478 31.2209 94.1714 30.739 94.1714 30.739C94.1714 30.739 92.6569 31.0797 91.7224 30.525C91.7224 30.525 93.4168 30.9268 94.1062 30.5556L93.7888 29.8393C93.7888 29.8393 92.202 30.2659 91.1158 29.6675C91.1158 29.6675 92.9055 30.0373 93.706 29.6879L93.274 29.0211C93.274 29.0211 91.7224 29.4113 90.8179 28.909C90.8179 28.909 92.9337 29.1624 93.1629 28.8741C93.1629 28.8741 92.7221 28.2816 92.5123 28.1709C92.5123 28.1709 91.3909 28.4301 90.8972 28.0996C90.8972 28.0996 92.3342 28.1447 92.3677 28.0195C92.3677 28.0195 91.5443 27.3746 90.9166 27.229C91.5015 27.339 92.0418 27.5728 92.4841 27.9074C92.4776 27.6023 92.3637 27.3054 92.1561 27.0529C92.1561 27.0529 92.7979 27.2276 92.6851 28.0719C92.6851 28.0719 93.3022 28.596 93.3216 28.7154C93.3216 28.7154 93.5773 27.9016 93.4133 27.3615C93.4133 27.3615 93.9422 27.8914 93.4432 28.8887L93.8946 29.5511C93.8946 29.5511 94.3037 28.4883 94.1997 27.9991C94.1997 27.9991 94.6387 28.6077 93.9916 29.7258L94.3178 30.4231C94.3178 30.4231 94.7533 29.5292 94.7815 28.9673C94.7815 28.9673 95.0407 29.6049 94.4007 30.6284L94.5523 31.1146C94.5523 31.1146 94.8556 30.458 94.9226 30.263C94.9896 30.0679 95.0583 30.0664 95.0583 30.0664C95.0556 30.5093 94.9036 30.9429 94.6193 31.3184C94.6193 31.3184 94.8503 32.3346 94.9261 32.3273Z" fill="#010066"/>
<path opacity="0.1" d="M80.253 34.168C80.253 34.168 74.8717 30.8444 72.9481 34.4446C72.9481 34.4446 72.361 34.9469 72.7824 35.5482C72.7824 35.5482 72.9834 35.3138 73.4876 35.7025C73.6663 35.8397 73.8639 35.9589 74.0765 36.0577C74.3645 36.1901 74.697 36.2412 75.0234 36.2033C75.0234 36.2033 77.0263 36.5221 79.3326 34.73C79.3326 34.73 80.156 34.5116 80.2336 34.3835L79.0187 34.2073C79.0187 34.2073 78.8918 34.9454 78.2659 35.2759C78.2659 35.2759 79.0399 34.2481 78.8389 34.1739C78.7983 34.1578 78.1918 34.1011 78.1918 34.1011C78.1918 34.1011 77.9661 35.3851 76.9787 35.8699C76.9787 35.8699 78.1019 34.7474 77.9626 34.0778L77.0404 34.037C77.0404 34.037 76.8835 35.404 75.7833 35.9922C75.7833 35.9922 76.9064 34.7853 76.8412 34.0399L75.9279 34.1011C75.9279 34.1011 75.7427 35.4302 74.8241 35.9136C74.8241 35.9136 75.9508 34.4112 75.7198 34.1258C75.7198 34.1258 74.8858 34.2234 74.6796 34.3369C74.6796 34.3369 74.5191 35.289 73.9549 35.5307C73.9549 35.5307 74.5808 34.4607 74.4539 34.3864C74.4539 34.3864 73.4083 34.7518 72.9975 35.1682C73.3528 34.7695 73.8281 34.4544 74.3763 34.2539C74.0352 34.1369 73.6602 34.1045 73.2972 34.1608C73.2972 34.1608 73.7451 33.7444 74.6302 34.168C74.6302 34.168 75.4589 33.9104 75.5999 33.9424C75.5999 33.9424 74.7977 33.4227 74.133 33.3324C74.133 33.3324 74.9334 33.1431 75.8415 33.9147L76.7566 33.8376C76.7566 33.8376 75.7392 33.1097 75.1556 32.9874C75.1556 32.9874 76.0072 32.8986 76.9893 33.8332L77.8921 33.8667C77.8921 33.8667 77.0757 33.1795 76.4604 32.932C76.4604 32.932 77.2697 32.9903 78.1512 33.8827L78.7525 33.9628C78.7525 33.9628 78.1442 33.4707 77.9538 33.3426C77.7633 33.2145 77.7898 33.1606 77.7898 33.1606C78.2803 33.34 78.7009 33.6282 79.0046 33.9933C79.0046 33.9933 80.23 34.2277 80.253 34.168Z" fill="#010066"/>
<path opacity="0.1" d="M98.1685 3.2888C98.1685 3.2888 92.7873 -0.0363028 90.8636 3.56541C90.8636 3.56541 90.2765 4.06767 90.6979 4.66892C90.6979 4.66892 90.8989 4.43454 91.4032 4.82324C91.5827 4.95974 91.7809 5.07846 91.9938 5.17701C92.2818 5.30951 92.6143 5.36063 92.9407 5.32259C92.9407 5.32259 94.9436 5.64142 97.2499 3.84784C97.2499 3.84784 98.0733 3.63092 98.1491 3.50135L96.9343 3.32811C96.9343 3.32811 96.8091 4.06621 96.1814 4.39669C96.1814 4.39669 96.9572 3.36887 96.7562 3.29463C96.7156 3.27861 96.1091 3.22184 96.1091 3.22184C96.1091 3.22184 95.8764 4.50878 94.889 4.99066C94.889 4.99066 96.0104 3.86822 95.8728 3.19854L94.9507 3.15778C94.9507 3.15778 94.792 4.5248 93.6935 5.1115C93.6935 5.1115 94.8167 3.90462 94.7514 3.15923L93.8399 3.22038C93.8399 3.22038 93.653 4.551 92.7344 5.03434C92.7344 5.03434 93.8628 3.53193 93.6318 3.24658C93.6318 3.24658 92.7978 3.34412 92.5915 3.45768C92.5915 3.45768 92.4311 4.40979 91.8669 4.65146C91.8669 4.65146 92.4928 3.58142 92.3659 3.50572C92.3659 3.50572 91.3203 3.87259 90.9095 4.28895C91.2643 3.88987 91.7397 3.57463 92.2883 3.3747C91.9469 3.25678 91.571 3.22438 91.2075 3.28152C91.2075 3.28152 91.6571 2.86516 92.5422 3.2888C92.5422 3.2888 93.3709 3.02967 93.5119 3.06315C93.5119 3.06315 92.7097 2.54342 92.045 2.4517C92.045 2.4517 92.8437 2.2639 93.7517 3.03403L94.6668 2.95687C94.6668 2.95687 93.6512 2.22896 93.0658 2.10522C93.0658 2.10522 93.9175 2.01787 94.9013 2.95251L95.8041 2.98453C95.8041 2.98453 94.9877 2.29739 94.3706 2.05135C94.3706 2.05135 95.1817 2.10958 96.0632 3.00201L96.6627 3.08207C96.6627 3.08207 96.0527 2.59583 95.8622 2.47063C95.6718 2.34543 95.6983 2.29011 95.6983 2.29011C96.1889 2.46926 96.6096 2.75758 96.9131 3.12284C96.9131 3.12284 98.1385 3.34412 98.1685 3.2888Z" fill="#010066"/>
<path opacity="0.1" d="M118.731 7.5003C118.731 7.5003 116.58 2.24332 112.523 4.30913C112.523 4.30913 111.694 4.45472 111.629 5.14041C111.629 5.14041 111.955 5.04141 112.099 5.59463C112.153 5.79141 112.234 5.98242 112.341 6.16386C112.487 6.40803 112.724 6.6067 113.018 6.73017C113.018 6.73017 114.45 7.93123 117.581 7.53379C117.581 7.53379 118.408 7.74051 118.56 7.66918L117.678 6.95437C117.678 6.95437 117.068 7.50321 116.324 7.48138C116.324 7.48138 117.669 6.99804 117.558 6.84227C117.535 6.8117 117.075 6.48123 117.075 6.48123C117.075 6.48123 116.007 7.43188 114.861 7.36928C114.861 7.36928 116.555 6.97038 116.901 6.3502L116.171 5.88579C116.171 5.88579 115.102 6.9369 113.792 6.90487C113.792 6.90487 115.555 6.43755 116.001 5.79116L115.208 5.41411C115.208 5.41411 114.15 6.42299 113.053 6.39096C113.053 6.39096 115.014 5.68198 115.019 5.3384C115.019 5.3384 114.266 5.02831 114.018 5.0254C114.018 5.0254 113.231 5.73439 112.607 5.67033C112.607 5.67033 113.856 5.08072 113.803 4.95989C113.803 4.95989 112.692 4.77209 112.066 4.92349C112.632 4.76074 113.24 4.7231 113.829 4.81431C113.628 4.55793 113.341 4.35556 113.002 4.23198C113.002 4.23198 113.658 4.0995 114.097 4.86235C114.097 4.86235 114.958 5.0385 115.049 5.13022C115.049 5.13022 114.746 4.32806 114.261 3.94081C114.261 3.94081 115.049 4.16064 115.264 5.22485L116.072 5.5888C116.072 5.5888 115.739 4.51004 115.337 4.13298C115.337 4.13298 116.1 4.45908 116.266 5.68926L116.989 6.13911C116.989 6.13911 116.788 5.18991 116.449 4.69784C116.449 4.69784 117.077 5.12585 117.19 6.2745L117.629 6.62099C117.629 6.62099 117.467 5.93092 117.4 5.73584C117.333 5.54076 117.387 5.52766 117.387 5.52766C117.667 5.90532 117.816 6.33965 117.816 6.78258C117.816 6.78258 118.669 7.53816 118.731 7.5003Z" fill="#010066"/>
<path opacity="0.1" d="M104.692 7.75967C104.692 7.75967 98.0098 7.14531 98.5617 11.06C98.5617 11.06 98.3625 11.7384 99.0906 12.0791C99.0906 12.0791 99.1206 11.7879 99.7959 11.919C100.035 11.9614 100.278 11.9814 100.522 11.9787C100.852 11.9737 101.171 11.8802 101.43 11.7122C101.43 11.7122 103.354 11.1488 104.251 8.63753C104.251 8.63753 104.826 8.10616 104.814 7.96203L103.659 8.31434C103.659 8.31434 104.012 9.00294 103.659 9.55033C103.659 9.55033 103.696 8.34054 103.483 8.35947C103.439 8.35947 102.881 8.56911 102.881 8.56911C102.881 8.56911 103.474 9.77016 102.92 10.6073C102.92 10.6073 103.199 9.16891 102.668 8.65063L101.848 9.00003C101.848 9.00003 102.554 10.2448 101.963 11.2114C101.963 11.2114 102.192 9.70028 101.675 9.08738L100.926 9.52413C100.926 9.52413 101.582 10.7485 101.087 11.5506C101.087 11.5506 101.138 9.78327 100.762 9.63332C100.762 9.63332 100.103 10.0701 99.9952 10.2506C99.9952 10.2506 100.441 11.1386 100.104 11.5827C100.104 11.5827 99.9863 10.3991 99.8312 10.3874C99.8312 10.3874 99.1541 11.1401 99.0554 11.6715C99.1166 11.1788 99.333 10.708 99.6831 10.3059C99.3172 10.3477 98.974 10.4767 98.6957 10.6771C98.6957 10.6771 98.8262 10.1312 99.8488 10.1254C99.8488 10.1254 100.404 9.55616 100.554 9.52559C100.554 9.52559 99.5438 9.41349 98.9143 9.61294C98.9143 9.61294 99.4874 9.11504 100.746 9.40475L101.489 8.9549C101.489 8.9549 100.147 8.73071 99.579 8.87629C99.579 8.87629 100.26 8.43954 101.681 8.83989L102.479 8.48904C102.479 8.48904 101.353 8.23864 100.67 8.28377C100.67 8.28377 101.406 7.9926 102.712 8.39587L103.28 8.21389C103.28 8.21389 102.453 8.04356 102.21 8.01153C101.966 7.9795 101.958 7.92418 101.958 7.92418C102.491 7.87368 103.03 7.94625 103.516 8.13382C103.516 8.13382 104.705 7.82081 104.692 7.75967Z" fill="#010066"/>
<path opacity="0.1" d="M163.159 50.5859C163.159 50.5859 156.481 49.9715 157.032 53.8819C157.032 53.8819 156.833 54.5603 157.561 54.901C157.561 54.901 157.591 54.6098 158.267 54.7394C158.505 54.7832 158.749 54.8032 158.993 54.7991C159.323 54.7949 159.642 54.7013 159.901 54.5326C159.901 54.5326 161.825 53.9692 162.713 51.4594C162.713 51.4594 163.288 50.9266 163.276 50.7839L162.121 51.1347C162.121 51.1347 162.474 51.8248 162.121 52.3722C162.121 52.3722 162.158 51.161 161.945 51.1813C161.901 51.1813 161.343 51.3895 161.343 51.3895C161.343 51.3895 161.936 52.5906 161.382 53.4277C161.382 53.4277 161.661 51.9908 161.13 51.471L160.31 51.8219C160.31 51.8219 161.015 53.0666 160.427 54.0333C160.427 54.0333 160.654 52.5221 160.137 51.9078L159.388 52.3445C159.388 52.3445 160.044 53.5689 159.548 54.3696C159.548 54.3696 159.6 52.6022 159.224 52.4537C159.224 52.4537 158.566 52.8905 158.457 53.071C158.457 53.071 158.905 53.959 158.566 54.4031C158.566 54.4031 158.448 53.2195 158.293 53.2078C158.293 53.2078 157.616 53.9605 157.517 54.4919C157.578 53.9992 157.795 53.5284 158.145 53.1263C157.779 53.1673 157.435 53.2964 157.158 53.4975C157.158 53.4975 157.288 52.9502 158.311 52.9443C158.311 52.9443 158.868 52.3751 159.016 52.346C159.016 52.346 158.006 52.2324 157.376 52.4319C157.376 52.4319 157.949 51.9355 159.21 52.2252L159.95 51.7753C159.95 51.7753 158.625 51.5686 158.048 51.7113C158.048 51.7113 158.729 51.2745 160.15 51.6734L160.948 51.324C160.948 51.324 159.822 51.0736 159.139 51.1187C159.139 51.1187 159.875 50.8276 161.181 51.2308L161.749 51.0474C161.749 51.0474 160.922 50.8771 160.679 50.8465C160.435 50.8159 160.427 50.7591 160.427 50.7591C160.959 50.7077 161.499 50.7798 161.985 50.9673C161.985 50.9673 163.177 50.6485 163.159 50.5859Z" fill="#010066"/>
<path opacity="0.1" d="M173.37 55.7361C173.37 55.7361 166.691 55.1232 167.243 59.0321C167.243 59.0321 167.045 59.7105 167.772 60.0512C167.772 60.0512 167.802 59.76 168.477 59.891C168.715 59.9338 168.958 59.9533 169.202 59.9493C169.53 59.9437 169.847 59.8508 170.106 59.6843C170.106 59.6843 172.028 59.1209 172.917 56.6096C172.917 56.6096 173.493 56.0782 173.479 55.9341L172.324 56.2849C172.324 56.2849 172.677 56.975 172.324 57.5224C172.324 57.5224 172.361 56.3126 172.148 56.3315C172.104 56.3315 171.547 56.5397 171.547 56.5397C171.547 56.5397 172.139 57.7408 171.586 58.5779C171.586 58.5779 171.864 57.141 171.333 56.6227L170.514 56.9721C170.514 56.9721 171.219 58.2168 170.63 59.1835C170.63 59.1835 170.857 57.6724 170.341 57.0595L169.591 57.4962C169.591 57.4962 170.247 58.7206 169.754 59.5227C169.754 59.5227 169.803 57.7539 169.427 57.6054C169.427 57.6054 168.77 58.0421 168.66 58.2227C168.66 58.2227 169.108 59.1107 168.77 59.5547C168.77 59.5547 168.652 58.3712 168.496 58.3595C168.496 58.3595 167.819 59.1122 167.722 59.6436C167.783 59.1511 167.999 58.6804 168.348 58.278C167.983 58.3197 167.639 58.4488 167.361 58.6492C167.361 58.6492 167.493 58.1018 168.516 58.0975C168.516 58.0975 169.071 57.5282 169.221 57.4977C169.221 57.4977 168.211 57.3856 167.581 57.585C167.581 57.585 168.154 57.0871 169.415 57.3768L170.156 56.927C170.156 56.927 168.83 56.7202 168.253 56.8629C168.253 56.8629 168.934 56.4262 170.355 56.8265L171.154 56.4757C171.154 56.4757 170.027 56.2253 169.345 56.2704C169.345 56.2704 170.08 55.9792 171.386 56.3825L171.954 56.2005C171.954 56.2005 171.127 56.0302 170.886 55.9982C170.644 55.9661 170.632 55.9108 170.632 55.9108C171.165 55.8603 171.704 55.9329 172.19 56.1204C172.19 56.1204 173.388 55.7987 173.37 55.7361Z" fill="#010066"/>
<path opacity="0.1" d="M150.701 12.3516C150.701 12.3516 145.319 9.02799 143.396 12.6282C143.396 12.6282 142.809 13.1305 143.23 13.7318C143.23 13.7318 143.431 13.4974 143.935 13.8861C144.114 14.0233 144.312 14.1425 144.524 14.2413C144.812 14.3736 145.145 14.4247 145.471 14.3869C145.471 14.3869 147.474 14.7057 149.782 12.9136C149.782 12.9136 150.604 12.6952 150.681 12.5671L149.47 12.3866C149.47 12.3866 149.343 13.1247 148.717 13.4551C148.717 13.4551 149.491 12.4273 149.29 12.3531C149.25 12.3371 148.645 12.2803 148.645 12.2803C148.645 12.2803 148.417 13.5643 147.43 14.0491C147.43 14.0491 148.553 12.9267 148.414 12.257L147.492 12.2162C147.492 12.2162 147.335 13.5833 146.235 14.1714C146.235 14.1714 147.359 12.9645 147.292 12.2192L146.379 12.2803C146.379 12.2803 146.203 13.6095 145.275 14.0928C145.275 14.0928 146.404 12.5904 146.171 12.305C146.171 12.305 145.337 12.4026 145.131 12.5161C145.131 12.5161 144.972 13.4682 144.408 13.7099C144.408 13.7099 145.032 12.6399 144.905 12.5656C144.905 12.5656 143.86 12.9311 143.449 13.3474C143.804 12.9488 144.279 12.6336 144.828 12.4332C144.486 12.3161 144.111 12.2837 143.748 12.34C143.748 12.34 144.198 11.9236 145.083 12.3473C145.083 12.3473 145.91 12.0896 146.051 12.1216C146.051 12.1216 145.249 11.6019 144.584 11.5116C144.584 11.5116 145.385 11.3224 146.293 12.094L147.208 12.0168C147.208 12.0168 146.192 11.2889 145.607 11.1666C145.607 11.1666 146.458 11.0778 147.441 12.0124L148.345 12.0459C148.345 12.0459 147.527 11.3588 146.912 11.1113C146.912 11.1113 147.723 11.1695 148.603 12.0619L149.204 12.142C149.204 12.142 148.595 11.6499 148.405 11.5218C148.215 11.3937 148.243 11.3515 148.243 11.3515C148.733 11.5311 149.153 11.8194 149.456 12.1842C149.456 12.1842 150.678 12.4113 150.701 12.3516Z" fill="#010066"/>
<path opacity="0.1" d="M154.858 36.3458C154.858 36.3458 153.003 31.0131 148.832 32.9275C148.832 32.9275 147.996 33.0338 147.892 33.7239C147.892 33.7239 148.223 33.638 148.338 34.1956C148.38 34.3959 148.451 34.5913 148.55 34.7779C148.68 35.0288 148.907 35.2374 149.195 35.3719C149.195 35.3719 150.56 36.6239 153.709 36.3444C153.709 36.3444 154.523 36.5802 154.678 36.5161L153.844 35.7679C153.844 35.7679 153.204 36.2949 152.464 36.2454C152.464 36.2454 153.832 35.8086 153.726 35.6528C153.705 35.6208 153.264 35.2729 153.264 35.2729C153.264 35.2729 152.146 36.1842 151.004 36.0779C151.004 36.0779 152.719 35.7431 153.097 35.1404L152.391 34.6483C152.391 34.6483 151.267 35.6587 149.96 35.58C149.96 35.58 151.737 35.1768 152.228 34.5493L151.455 34.1431C151.455 34.1431 150.336 35.1113 149.249 35.0385C149.249 35.0385 151.247 34.4023 151.272 34.0602C151.272 34.0602 150.535 33.7224 150.286 33.7108C150.286 33.7108 149.463 34.3892 148.837 34.3018C148.837 34.3018 150.117 33.7588 150.071 33.6365C150.071 33.6365 148.971 33.408 148.338 33.5346C148.911 33.3942 149.519 33.3797 150.101 33.4924C149.915 33.229 149.639 33.0164 149.308 32.881C149.308 32.881 149.971 32.7718 150.366 33.5506C150.366 33.5506 151.214 33.7574 151.302 33.8534C151.302 33.8534 151.043 33.0396 150.579 32.6364C150.579 32.6364 151.355 32.8839 151.512 33.9553L152.298 34.3499C152.298 34.3499 152.023 33.258 151.642 32.8737C151.642 32.8737 152.386 33.2274 152.487 34.462L153.192 34.938C153.192 34.938 153.042 33.983 152.732 33.4822C152.732 33.4822 153.337 33.9335 153.386 35.0836L153.806 35.4476C153.806 35.4476 153.682 34.7517 153.629 34.5537C153.576 34.3557 153.629 34.328 153.629 34.328C153.89 34.7153 154.015 35.1549 153.991 35.5975C153.991 35.5975 154.795 36.3808 154.858 36.3458Z" fill="#010066"/>
<path opacity="0.1" d="M113.526 48.3622C113.526 48.3622 109.924 43.6774 106.579 46.4813C106.579 46.4813 105.814 46.7724 105.948 47.4639C105.948 47.4639 106.239 47.3038 106.538 47.8133C106.646 47.9939 106.78 48.163 106.937 48.3171C107.147 48.5272 107.435 48.6746 107.757 48.7363C107.757 48.7363 109.493 49.6215 112.42 48.6199C112.42 48.6199 113.282 48.6577 113.409 48.5602L112.352 48.0361C112.352 48.0361 111.916 48.6912 111.188 48.8149C111.188 48.8149 112.355 48.087 112.198 47.9531C112.168 47.9269 111.625 47.6969 111.625 47.6969C111.625 47.6969 110.862 48.8295 109.73 48.994C109.73 48.994 111.262 48.2734 111.421 47.6066L110.576 47.2994C110.576 47.2994 109.841 48.5296 108.561 48.7552C108.561 48.7552 110.13 47.956 110.386 47.2397L109.504 47.0301C109.504 47.0301 108.76 48.2195 107.693 48.4015C107.693 48.4015 109.393 47.3271 109.299 46.9923C109.299 46.9923 108.478 46.8394 108.242 46.886C108.242 46.886 107.683 47.7289 107.051 47.79C107.051 47.79 108.095 46.9719 108.009 46.8641C108.009 46.8641 106.875 46.9005 106.311 47.1699C106.814 46.9006 107.394 46.745 107.993 46.7186C107.725 46.509 107.388 46.3689 107.025 46.3153C107.025 46.3153 107.623 46.0576 108.259 46.7127C108.259 46.7127 109.141 46.7127 109.262 46.7855C109.262 46.7855 108.733 46.0576 108.153 45.7854C108.153 45.7854 108.982 45.8436 109.497 46.835L110.387 47.0301C110.387 47.0301 109.751 46.0474 109.255 45.7665C109.255 45.7665 110.089 45.9324 110.606 47.0956L111.438 47.3868C111.438 47.3868 110.969 46.506 110.498 46.094C110.498 46.094 111.232 46.3852 111.671 47.4785L112.2 47.7304C112.2 47.7304 111.847 47.0913 111.722 46.9151C111.597 46.7389 111.646 46.6982 111.646 46.6982C112.028 47.0094 112.297 47.402 112.424 47.8323C112.424 47.8323 113.478 48.4117 113.526 48.3622Z" fill="#010066"/>
<path d="M137.2 24.4253C137.2 24.4253 133.774 19.6516 130.324 22.3682C130.324 22.3682 129.548 22.6448 129.657 23.3349C129.657 23.3349 129.951 23.1806 130.234 23.6974C130.334 23.8811 130.462 24.0541 130.613 24.2127C130.815 24.4274 131.098 24.5809 131.417 24.6495C131.417 24.6495 133.118 25.5783 136.082 24.6495C136.082 24.6495 136.942 24.7092 137.073 24.6145L136.038 24.0642C136.038 24.0642 135.58 24.7063 134.846 24.8125C134.846 24.8125 136.04 24.1094 135.89 23.9769C135.858 23.9492 135.326 23.7047 135.326 23.7047C135.326 23.7047 134.52 24.8184 133.386 24.9537C133.386 24.9537 134.945 24.2724 135.126 23.6115L134.294 23.2883C134.294 23.2883 133.513 24.501 132.224 24.6946C132.224 24.6946 133.823 23.9361 134.106 23.2271L133.235 22.9942C133.235 22.9942 132.445 24.1589 131.373 24.319C131.373 24.319 133.111 23.2883 133.03 22.952C133.03 22.952 132.215 22.7773 131.972 22.8181C131.972 22.8181 131.381 23.6464 130.748 23.6915C130.748 23.6915 131.822 22.9025 131.741 22.7918C131.741 22.7918 130.606 22.7991 130.033 23.0539C130.546 22.7982 131.131 22.6577 131.731 22.6463C131.47 22.4299 131.138 22.2811 130.777 22.2183C130.777 22.2183 131.385 21.9751 132.011 22.6463C132.011 22.6463 132.892 22.671 133.011 22.7453C133.011 22.7453 132.512 22.0173 131.94 21.7174C131.94 21.7174 132.766 21.7961 133.243 22.8006L134.125 23.019C134.125 23.019 133.527 22.0203 133.041 21.7262C133.041 21.7262 133.869 21.914 134.342 23.0888L135.162 23.4048C135.162 23.4048 134.726 22.5123 134.28 22.0945C134.28 22.0945 135.001 22.4046 135.401 23.5081L135.918 23.7731C135.918 23.7731 135.587 23.1252 135.47 22.9462C135.354 22.7671 135.403 22.7278 135.403 22.7278C135.773 23.0485 136.027 23.4477 136.138 23.8808C136.138 23.8808 137.149 24.4733 137.2 24.4253Z" fill="#010066"/>
<path d="M115.525 34.4635C115.525 34.4635 115.702 28.9168 111.035 29.6986C111.035 29.6986 110.199 29.5923 109.846 30.2241C109.846 30.2241 110.199 30.2241 110.1 30.7846C110.068 30.9845 110.064 31.1868 110.09 31.3873C110.121 31.6593 110.261 31.9151 110.486 32.1152C110.486 32.1152 111.327 33.6497 114.432 34.1709C114.432 34.1709 115.122 34.6003 115.294 34.577L114.765 33.657C114.765 33.657 113.963 33.9976 113.274 33.7661C113.274 33.7661 114.737 33.6948 114.697 33.5172C114.697 33.4808 114.393 33.0382 114.393 33.0382C114.393 33.0382 112.993 33.6278 111.944 33.2406C111.944 33.2406 113.708 33.3498 114.284 32.8708L113.792 32.2259C113.792 32.2259 112.35 32.9072 111.133 32.5054C111.133 32.5054 112.976 32.5665 113.674 32.0905L113.087 31.5081C113.087 31.5081 111.664 32.1516 110.655 31.811C110.655 31.811 112.792 31.7047 112.948 31.3829C112.948 31.3829 112.369 30.8778 112.137 30.8006C112.137 30.8006 111.103 31.2374 110.539 31.0015C110.539 31.0015 111.95 30.8064 111.958 30.6769C111.958 30.6769 110.994 30.1833 110.343 30.1469C110.943 30.1558 111.53 30.2943 112.045 30.5488C111.965 30.2512 111.781 29.9795 111.516 29.767C111.516 29.767 112.188 29.8296 112.279 30.6696C112.279 30.6696 113.015 31.0801 113.062 31.1937C113.062 31.1937 113.113 30.3537 112.819 29.8529C112.819 29.8529 113.468 30.2823 113.224 31.3422L113.829 31.9158C113.829 31.9158 113.967 30.8064 113.746 30.3449C113.746 30.3449 114.325 30.8676 113.969 32.0701L114.457 32.6976C114.457 32.6976 114.665 31.7498 114.554 31.1922C114.554 31.1922 114.963 31.7746 114.589 32.8824L114.857 33.3338C114.857 33.3338 114.993 32.6393 115.011 32.437C115.028 32.2346 115.095 32.2215 115.095 32.2215C115.201 32.6558 115.159 33.1059 114.974 33.5216C114.974 33.5216 115.448 34.4824 115.525 34.4635Z" fill="#010066"/>
<path opacity="0.1" d="M123.241 104.943C125.863 104.943 127.989 104.646 127.989 104.281C127.989 103.915 125.863 103.618 123.241 103.618C120.619 103.618 118.493 103.915 118.493 104.281C118.493 104.646 120.619 104.943 123.241 104.943Z" fill="#010066"/>
<path opacity="0.1" d="M105.932 115C108.554 115 110.68 114.703 110.68 114.337C110.68 113.971 108.554 113.675 105.932 113.675C103.309 113.675 101.184 113.971 101.184 114.337C101.184 114.703 103.309 115 105.932 115Z" fill="#010066"/>
<path opacity="0.1" d="M16.4223 109.847C19.0447 109.847 21.1706 109.551 21.1706 109.185C21.1706 108.819 19.0447 108.522 16.4223 108.522C13.7999 108.522 11.6741 108.819 11.6741 109.185C11.6741 109.551 13.7999 109.847 16.4223 109.847Z" fill="#010066"/>
<path opacity="0.1" d="M141.946 114.338C144.569 114.338 146.695 114.041 146.695 113.675C146.695 113.309 144.569 113.013 141.946 113.013C139.324 113.013 137.198 113.309 137.198 113.675C137.198 114.041 139.324 114.338 141.946 114.338Z" fill="#010066"/>
<path d="M146.891 106.26C150.806 106.26 153.98 105.817 153.98 105.27C153.98 104.723 150.806 104.28 146.891 104.28C142.975 104.28 139.801 104.723 139.801 105.27C139.801 105.817 142.975 106.26 146.891 106.26Z" fill="#010066"/>
<path d="M149.83 103.65C150.153 103.433 150.389 103.14 150.505 102.809C150.593 102.474 150.42 102.074 150.034 101.951C149.6 101.815 149.137 102.062 148.784 102.312C148.431 102.563 148.031 102.85 147.571 102.797C147.807 102.62 147.984 102.395 148.084 102.145C148.184 101.895 148.204 101.628 148.142 101.369C148.122 101.262 148.067 101.161 147.984 101.078C147.742 100.865 147.307 100.957 147.017 101.124C146.101 101.657 145.845 102.685 145.84 103.611C145.748 103.278 145.825 102.93 145.824 102.592C145.822 102.254 145.707 101.864 145.356 101.686C145.141 101.587 144.898 101.537 144.651 101.541C144.239 101.529 143.778 101.563 143.498 101.812C143.145 102.12 143.239 102.64 143.542 102.976C143.845 103.313 144.309 103.529 144.736 103.765C145.077 103.934 145.369 104.163 145.589 104.436C145.614 104.475 145.635 104.514 145.651 104.556H148.236C148.814 104.315 149.351 104.011 149.83 103.65Z" fill="#010066"/>
<path d="M13.2344 106.107C13.2344 106.107 15.9409 106.038 16.7607 105.558C17.5806 105.077 20.9271 104.505 21.1299 105.275C21.3327 106.045 25.1993 109.103 22.142 109.123C19.0846 109.143 15.0381 108.73 14.2235 108.319C13.4089 107.909 13.2344 106.107 13.2344 106.107Z" fill="#A8A8A8"/>
<path opacity="0.2" d="M22.1931 108.855C19.1357 108.875 15.0892 108.462 14.2747 108.051C13.654 107.74 13.4072 106.62 13.3243 106.104H13.2344C13.2344 106.104 13.4107 107.907 14.22 108.316C15.0293 108.725 19.0811 109.14 22.1384 109.12C23.02 109.12 23.3251 108.855 23.3092 108.471C23.1858 108.705 22.849 108.851 22.1931 108.855Z" fill="black"/>
</g>
<defs>
<linearGradient id="paint0_linear" x1="39.3172" y1="63.098" x2="94.3513" y2="63.098" gradientUnits="userSpaceOnUse">
<stop stop-color="#808080" stop-opacity="0.25"/>
<stop offset="0.54" stop-color="#808080" stop-opacity="0.12"/>
<stop offset="1" stop-color="#808080" stop-opacity="0.1"/>
</linearGradient>
<clipPath id="clip0">
<rect width="178" height="115" fill="white"/>
</clipPath>
</defs>
</svg>
