<svg width="115" height="124" viewBox="0 0 115 124" fill="none" xmlns="http://www.w3.org/2000/svg">
<path opacity="0.253397" fill-rule="evenodd" clip-rule="evenodd" d="M20.3638 88.6185C20.3638 88.6185 20.935 85.4634 23.1812 92.8827C25.4274 100.302 50.8263 116.54 59.3284 103.389C67.8304 90.2386 79.8505 104.996 88.1538 101.049C96.457 97.1019 97.7722 91.8931 91.5832 79.3421C85.3942 66.7911 100.618 51.4972 85.4426 41.6647C70.2669 31.8323 82.0153 34.2478 82.0153 34.2478L81.938 74.3905L61.6239 92.8073L20.3638 88.6185Z" fill="url(#paint0_linear)"/>
<path opacity="0.518059" fill-rule="evenodd" clip-rule="evenodd" d="M80.5929 49.5457C80.5929 49.5457 78.8284 49.443 82.7359 47.6927C86.6435 45.9424 93.8157 30.7461 86.0485 26.9218C78.2812 23.0974 85.5445 15.4253 82.8259 11.0861C80.1073 6.74693 77.169 6.37096 70.7197 10.6576C64.2704 14.9443 51.8285 3.49501 47.4719 12.5835C43.1153 21.6721 50.5154 10.6376 50.5154 10.6376L68.6607 16.3459L80.1047 26.3668L80.5929 49.5457Z" fill="url(#paint1_linear)"/>
<path d="M40.9817 52.3574C40.9817 50.9814 41.2457 49.8974 41.7737 49.1054C42.3097 48.3134 43.1697 47.9174 44.3537 47.9174C45.5377 47.9174 46.3937 48.3134 46.9217 49.1054C47.4577 49.8974 47.7257 50.9814 47.7257 52.3574C47.7257 53.7494 47.4577 54.8414 46.9217 55.6334C46.3937 56.4254 45.5377 56.8214 44.3537 56.8214C43.1697 56.8214 42.3097 56.4254 41.7737 55.6334C41.2457 54.8414 40.9817 53.7494 40.9817 52.3574ZM45.7097 52.3574C45.7097 51.5494 45.6217 50.9294 45.4457 50.4974C45.2697 50.0574 44.9057 49.8374 44.3537 49.8374C43.8017 49.8374 43.4377 50.0574 43.2617 50.4974C43.0857 50.9294 42.9977 51.5494 42.9977 52.3574C42.9977 52.9014 43.0297 53.3534 43.0937 53.7134C43.1577 54.0654 43.2857 54.3534 43.4777 54.5774C43.6777 54.7934 43.9697 54.9014 44.3537 54.9014C44.7377 54.9014 45.0257 54.7934 45.2177 54.5774C45.4177 54.3534 45.5497 54.0654 45.6137 53.7134C45.6777 53.3534 45.7097 52.9014 45.7097 52.3574Z" fill="url(#paint2_linear)"/>
<circle cx="44.8541" cy="53.8248" r="39.8541" stroke="#828282" stroke-width="10"/>
<path d="M42.1566 14.0621C49.2976 13.5777 56.4373 15.0252 62.8257 18.2528C69.2141 21.4803 74.6155 26.3687 78.4624 32.4045C82.3093 38.4403 84.4597 45.4006 84.6879 52.5544C84.916 59.7082 83.2134 66.7914 79.7589 73.06C76.3044 79.3287 71.2255 84.5513 65.0558 88.1793C58.886 91.8074 51.853 93.707 44.6956 93.6785C37.5382 93.6501 30.5206 91.6946 24.3799 88.0176C18.2391 84.3407 13.2019 79.0778 9.79737 72.7819" stroke="#828282" stroke-width="10" stroke-linecap="round"/>
<defs>
<linearGradient id="paint0_linear" x1="32.327" y1="58.6142" x2="98.7635" y2="85.2844" gradientUnits="userSpaceOnUse">
<stop stop-color="#FF6600"/>
<stop offset="1" stop-color="#010066"/>
</linearGradient>
<linearGradient id="paint1_linear" x1="62.661" y1="44.7537" x2="73.0695" y2="6.15725" gradientUnits="userSpaceOnUse">
<stop stop-color="#FF6600"/>
<stop offset="1" stop-color="#010066"/>
</linearGradient>
<linearGradient id="paint2_linear" x1="44.3557" y1="43.8574" x2="44.3557" y2="64.7893" gradientUnits="userSpaceOnUse">
<stop offset="0.0220083" stop-color="#010066"/>
<stop offset="0.71875" stop-color="#542145"/>
<stop offset="0.997249" stop-color="#752E38"/>
<stop offset="1" stop-color="#FF6600"/>
</linearGradient>
</defs>
</svg>
