<svg width="16" height="16" viewBox="0 0 16 16" fill="none" xmlns="http://www.w3.org/2000/svg">
<g clip-path="url(#clip0)">
<path d="M5.46364 3.01377L5.71352 2.58069C5.71574 2.58197 5.71729 2.5825 5.71828 2.58276C5.71934 2.58304 5.72048 2.5832 5.72178 2.5832C5.72488 2.5832 5.72831 2.58231 5.73111 2.58073C5.73236 2.58002 5.73333 2.57927 5.73412 2.57849C5.73485 2.57778 5.73586 2.57662 5.73704 2.57458L5.73705 2.57455L6.44995 1.34036L5.46364 3.01377ZM5.46364 3.01377C5.54513 3.06079 5.63401 3.0832 5.72178 3.0832C5.90042 3.0832 6.07424 2.99046 6.17001 2.82464L5.46364 3.01377ZM5.46364 3.01377L5.71373 2.58081C5.70553 2.57607 5.70273 2.56562 5.70747 2.55742L5.70757 2.55724L5.81003 2.3797L6.42844 1.30809M5.46364 3.01377L6.42844 1.30809M6.42844 1.30809L6.44376 1.31694L6.44377 1.31694C6.44765 1.31918 6.45053 1.32287 6.45176 1.32742L6.45177 1.32749C6.45285 1.3315 6.45238 1.33612 6.44998 1.34031L6.42844 1.30809ZM6.33307 1.25301L5.20718 1.65949C2.8593 2.50715 1.08517 4.56361 0.641776 7.07846L6.33307 1.25301ZM6.33307 1.25301L5.20929 0.604009C5.2009 0.599167 5.19052 0.602037 5.18579 0.610158C5.18101 0.618437 5.18391 0.628862 5.19198 0.633519L5.19206 0.633568L5.32086 0.707963L6.25984 1.25034L5.23765 1.61226C2.8568 2.4552 1.05568 4.53382 0.608141 7.07254L0.608123 7.07264C0.391394 8.30061 0.501887 9.56586 0.926958 10.7311L0.457493 10.9024L0.926959 10.7311C0.927893 10.7337 0.928819 10.7351 0.929502 10.736C0.930284 10.737 0.931373 10.7381 0.932895 10.7391C0.936335 10.7415 0.940183 10.7425 0.943113 10.7425C0.944346 10.7425 0.9462 10.7423 0.948866 10.7413L6.33307 1.25301ZM0.959154 10.7194L0.959138 10.7194C0.535709 9.55878 0.42622 8.30007 0.641762 7.07854L0.959154 10.7194ZM0.959154 10.7194C0.962339 10.7282 0.957911 10.738 0.948879 10.7413L0.959154 10.7194Z" stroke="#010066"/>
<path d="M13.0297 12.8416L13.0297 12.8416C13.0223 12.8354 13.0116 12.8364 13.0056 12.8436L13.0055 12.8437C11.3866 14.7696 8.8452 15.695 6.36944 15.258C5.16764 15.0461 4.04699 14.5251 3.11461 13.76L2.15578 12.9731L2.15527 14.2814V14.2815C2.15527 14.2908 2.16285 14.2985 2.17239 14.2985L13.0297 12.8416ZM13.0297 12.8416C13.0322 12.8437 13.0333 12.8454 13.0339 12.8467C13.0348 12.8483 13.0355 12.8505 13.0357 12.8532C13.0359 12.8559 13.0356 12.8582 13.0351 12.86C13.0347 12.8613 13.0339 12.8631 13.0318 12.8656L13.0317 12.8657C11.6721 14.483 9.66217 15.3987 7.58627 15.3987C7.17971 15.3987 6.77075 15.3635 6.36354 15.2917L6.3635 15.2917C5.12235 15.0728 3.96563 14.5257 3.01239 13.7197L2.18998 13.0244L2.18957 14.1013L2.1895 14.2814L13.0297 12.8416ZM1.65851 12.8033H1.66838H1.67235H2.13048H2.13058H2.15851V12.8033V12.8033V12.8033V12.8033V12.8033V12.8033V12.8033V12.8033V12.8033V12.8033V12.8033V12.8033V12.8033V12.8033V12.8033V12.8033V12.8033V12.8033V12.8033V12.8033V12.8033V12.8033V12.8033V12.8033V12.8033V12.8033V12.8033V12.8033V12.8033V12.8033V12.8033V12.8033V12.8033V12.8033V12.8033V12.8033V12.8033V12.8033V12.8033V12.8033V12.8033V12.8033V12.8033V12.8033V12.8034V12.8034V12.8034V12.8034V12.8034V12.8034V12.8034V12.8034V12.8034V12.8034V12.8034V12.8034V12.8034V12.8034V12.8034V12.8034V12.8034V12.8034V12.8034V12.8034V12.8034V12.8034V12.8034V12.8034V12.8034V12.8034V12.8034V12.8034V12.8034V12.8034V12.8034V12.8034V12.8034V12.8034V12.8034V12.8034V12.8034V12.8034V12.8034V12.8034V12.8034V12.8034V12.8034V12.8034V12.8034V12.8034V12.8034V12.8034V12.8034V12.8034V12.8034V12.8034V12.8034V12.8034V12.8034V12.8034V12.8034V12.8034V12.8034V12.8034V12.8034V12.8034V12.8034V12.8034V12.8034V12.8034V12.8034V12.8034V12.8034V12.8034V12.8034V12.8034V12.8034V12.8034V12.8034V12.8034V12.8034V12.8034V12.8034V12.8034V12.8034V12.8034V12.8034V12.8034V12.8034V12.8034V12.8034V12.8034V12.8034V12.8034V12.8034V12.8034V12.8034V12.8034V12.8034V12.8034V12.8034V12.8034V12.8034V12.8034V12.8034V12.8034V12.8034V12.8034V12.8034V12.8034V12.8034V12.8034V12.8034V12.8034V12.8034V12.8034V12.8034V12.8034V12.8034V12.8034V12.8034V12.8034V12.8034V12.8034V12.8034V12.8034V12.8034V12.8034V12.8035V12.8035V12.8035V12.8035V12.8035V12.8035V12.8035V12.8035V12.8035V12.8035V12.8035V12.8035V12.8035V12.8035V12.8035V12.8035V12.8035V12.8035V12.8035V12.8035V12.8035V12.8035V12.8035V12.8035V12.8035V12.8035V12.8035V12.8035V12.8035V12.8035V12.8035V12.8035V12.8035V12.8035V12.8035V12.8035V12.8035V12.8035V12.8035V12.8035V12.8035V12.8035V12.8035V12.8035V12.8035V12.8035V12.8035V12.8035V12.8035V12.8035V12.8035V12.8035V12.8035V12.8035V12.8035V12.8035V12.8035V12.8035V12.8035V12.8035V12.8035V12.8035V12.8035V12.8035V12.8035V12.8035V12.8035V12.8035V12.8035V12.8035V12.8035V12.8035V12.8035V12.8035V12.8035V12.8035V12.8035V12.8035V12.8035V12.8035V12.8035V12.8035V12.8035V12.8035V12.8035V12.8035V12.8035V12.8035V12.8035V12.8035V12.8035V12.8035V12.8035V12.8035V12.8035V12.8035V12.8035V12.8035V12.8035V12.8035V12.8035V12.8035V12.8035V12.8035V12.8035V12.8035V12.8035V12.8035V12.8035V12.8035V12.8035V12.8035V12.8035V12.8035V12.8035V12.8035V12.8035V12.8035V12.8035V12.8035V12.8035V12.8035V12.8035V12.8035V12.8036V12.8036V12.8036V12.8036V12.8036V12.8036V12.8036V12.8036V12.8036V12.8036V12.8036V12.8036V12.8036V12.8036V12.8036V12.8036V12.8036V12.8036V12.8036V12.8036V12.8036V12.8036V12.8036V12.8036V12.8036V12.8036V12.8036V12.8036V12.8036V12.8036V12.8036V12.8036V12.8036V12.8036V12.8036V12.8036V12.8036V12.8036V12.8036V12.8036V12.8036V12.8036V12.8036V12.8036V12.8036V12.8036V12.8036V12.8036V12.8036V12.8036V12.8036V12.8036V12.8036V12.8036V12.8036V12.8036V12.8036V12.8036V12.8036V12.8036V12.8036V12.8036V12.8036V12.8036V12.8036V12.8036V12.8036V12.8036V12.8036V12.8036V12.8036V12.8036V12.8036V12.8036V12.8036V12.8036V12.8036V12.8036V12.8036V12.8036V12.8036V12.8036V12.8036V12.8036V12.8036V12.8036V12.8036V12.8036V12.8036V12.8036V12.8036V12.8036V12.8036V12.8036V12.8036V12.8036V12.8036V12.8036V12.8036V12.8036V12.8036V12.8036V12.8036V12.8036V12.8036V12.8036V12.8036V12.8036V12.8036V12.8036V12.8036V12.8036V12.8036V12.8036V12.8036V12.8036V12.8036V12.8036V12.8036V12.8036V12.8036V12.8036V12.8036V12.8036V12.8037V12.8037V12.8037V12.8037V12.8037V12.8037V12.8037V12.8037V12.8037V12.8037V12.8037V12.8037V12.8037V12.8037V12.8037V12.8037V12.8037V12.8037V12.8037V12.8037V12.8037V12.8037V12.8037V12.8037V12.8037V12.8037V12.8037V12.8037V12.8037V12.8037V12.8037V12.8037V12.8037V12.8037V12.8037V12.8037V12.8037V12.8037V12.8037V12.8037V12.8037V12.8037V12.8037V12.8037V12.8037V12.8037V12.8037V12.8037V12.8037V12.8037V12.8037V12.8037V12.8037V12.8037V12.8037V12.8037V12.8037V12.8037V12.8037V12.8037V12.8037V12.8037V12.8037V12.8037V12.8037V12.8037V12.8037V12.8037V12.8037V12.8037V12.8037V12.8037V12.8037V12.8037V12.8037V12.8037V12.8037V12.8037V12.8037V12.8037V12.8037V12.8037V12.8037V12.8037V12.8037V12.8037V12.8037V12.8037V12.8037V12.8037V12.8037V12.8037V12.8037V12.8037V12.8037V12.8037V12.8281L2.15777 12.8357L2.15776 12.8358L2.15615 12.8523L2.15615 12.8523L2.15622 12.853L2.15614 12.8615L2.15607 12.8615C2.156 12.8641 2.15591 12.8666 2.15582 12.8689L2.15582 12.8734H3.43179H3.59817C3.60763 12.8734 3.61528 12.8658 3.61528 12.8563C3.61528 12.8469 3.60763 12.8392 3.59817 12.8392H2.22148H2.19792L2.17446 12.837C2.17162 12.8367 2.16921 12.8371 2.16748 12.8376C2.16611 12.838 2.16441 12.8387 2.16199 12.8408L2.16193 12.8408C2.15967 12.8427 2.15873 12.8441 2.15811 12.8453C2.15732 12.8469 2.15649 12.8492 2.15618 12.8523L2.15611 12.853L2.1558 12.8561L2.15578 12.8563L2.15525 12.8615L2.15515 12.8625L2.1537 12.8726L2.15358 12.8734L1.84068 12.4577C1.73312 12.5479 1.67182 12.6725 1.65872 12.8019L1.65851 12.8033ZM1.65851 12.8033V12.8037L2.04537 12.8586L2.02875 12.8562L2.02774 12.8561L1.99569 12.8515L1.66767 12.8046L1.66141 12.8037L1.65851 12.8033ZM2.1895 14.2814C2.18947 14.2909 2.1818 14.2985 2.17242 14.2985L2.1895 14.2814Z" stroke="#010066"/>
<path d="M14.1142 11.2947L14.2436 10.8117C14.2392 10.8105 14.2354 10.8077 14.2331 10.8037L13.5206 9.56904C13.5157 9.56067 13.5187 9.55025 13.5267 9.54562L13.5269 9.54554C13.5297 9.54392 13.5315 9.54348 13.533 9.54331C13.5348 9.54309 13.5371 9.54316 13.5397 9.54387C13.5423 9.54457 13.5444 9.54568 13.5459 9.54681C13.5471 9.54772 13.5486 9.54907 13.5502 9.55193L13.5503 9.55198L13.626 9.68319L14.2717 10.8013L14.2566 10.81L14.2565 10.81C14.2539 10.8115 14.251 10.8123 14.248 10.8123C14.2468 10.8123 14.2453 10.8122 14.2434 10.8117L14.1142 11.2947ZM14.1142 11.2947C14.1582 11.3065 14.2032 11.3123 14.248 11.3123C14.338 11.3123 14.4273 11.2888 14.5066 11.243L13.8001 11.0537C13.8687 11.1725 13.9817 11.2592 14.1142 11.2947ZM15.4973 10.0737L15.4974 10.0738C15.5021 10.0819 15.4994 10.0925 15.491 10.0973L14.334 10.7653L14.5516 9.51913C14.8751 7.66617 14.4589 5.79502 13.3798 4.25391C12.2986 2.70963 10.6783 1.67755 8.82179 1.35048C8.81255 1.34885 8.80632 1.33997 8.80796 1.33067L8.808 1.33044C8.80958 1.32149 8.81826 1.31507 8.82785 1.31676C10.6951 1.64574 12.3201 2.68092 13.4078 4.23419C14.4954 5.78749 14.9125 7.66874 14.5832 9.53642L14.5831 9.53697C14.5798 9.55594 14.5779 9.565 14.5752 9.57777C14.5725 9.5902 14.5691 9.60616 14.5629 9.63822L14.3561 10.7128L15.3039 10.1658L15.474 10.0676L15.4741 10.0675C15.4769 10.0659 15.4787 10.0655 15.4802 10.0653C15.482 10.0651 15.4844 10.0651 15.487 10.0658C15.4897 10.0665 15.4917 10.0677 15.4932 10.0688C15.4943 10.0696 15.4957 10.0709 15.4973 10.0737Z" stroke="#010066"/>
</g>
<defs>
<clipPath id="clip0">
<rect width="16" height="16" fill="white"/>
</clipPath>
</defs>
</svg>
